  0
SECTION
  2
HEADER
  9
$ACADVER
  1
AC1027
  9
$ACADMAINTVER
 70
8
  9
$DWGCODEPAGE
  3
ansi_1252
  9
$TITLE
  1

  9
$SUBJECT
  1

  9
$AUTHOR
  1

  9
$REQUIREDVERSIONS
160
0
  9
$KEYWORDS
  1

  9
$COMMENTS
  1

  9
$LASTSAVEDBY
  1
santhosh
  9
$REVISIONNUMBER
  1

  9
$INSBASE
 10
0
 20
0
 30
0
  9
$EXTMIN
 10
-292.01357613079142
 20
-296.22802873168905
 30
0
  9
$EXTMAX
 10
320.31415293106187
 20
316.09970033016418
 30
0
  9
$LIMMIN
 10
0
 20
0
  9
$LIMMAX
 10
12
 20
9
  9
$SNAPMODE
 70
0
  9
$SNAPUNIT
 10
1
 20
1
  9
$SNAPBASE
 10
0
 20
0
  9
$SNAPANG
 50
0
  9
$SNAPSTYLE
 70
0
  9
$SNAPISOPAIR
 70
0
  9
$ORTHOMODE
 70
1
  9
$REGENMODE
 70
1
  9
$FILLMODE
 70
1
  9
$QTEXTMODE
 70
0
  9
$MIRRTEXT
 70
0
  9
$LTSCALE
 40
1
  9
$OSMODE
 70
0
  9
$ATTMODE
 70
1
  9
$TEXTSIZE
 40
0.2
  9
$TRACEWID
 40
0.05
  9
$TEXTSTYLE
  7
Standard
  9
$CLAYER
  8
0
  9
$CELTYPE
  6
ByLayer
  9
$CECOLOR
 62
256
  9
$CELTSCALE
 40
1
  9
$DISPSILH
 70
0
  9
$DIMSCALE
 40
1
  9
$DIMASZ
 40
0.18
  9
$DIMEXO
 40
0.0625
  9
$DIMDLI
 40
0.38
  9
$DIMRND
 40
0
  9
$DIMDLE
 40
0
  9
$DIMEXE
 40
0.18
  9
$DIMTP
 40
0
  9
$DIMTM
 40
0
  9
$DIMTXT
 40
0.18
  9
$DIMCEN
 40
0.09
  9
$DIMTSZ
 40
0
  9
$DIMTOL
 70
0
  9
$DIMLIM
 70
0
  9
$DIMTIH
 70
1
  9
$DIMTOH
 70
1
  9
$DIMSE1
 70
0
  9
$DIMSE2
 70
0
  9
$DIMTAD
 70
0
  9
$DIMZIN
 70
0
  9
$DIMBLK
  1

  9
$DIMASO
 70
1
  9
$DIMSHO
 70
1
  9
$DIMPOST
  1

  9
$DIMAPOST
  1

  9
$DIMALT
 70
0
  9
$DIMALTD
 70
2
  9
$DIMALTF
 40
25.4
  9
$DIMLFAC
 40
1
  9
$DIMTOFL
 70
0
  9
$DIMTVP
 40
0
  9
$DIMTIX
 70
0
  9
$DIMSOXD
 70
0
  9
$DIMSAH
 70
0
  9
$DIMBLK1
  1

  9
$DIMBLK2
  1

  9
$DIMSTYLE
  2
Standard
  9
$DIMCLRD
 70
0
  9
$DIMCLRE
 70
0
  9
$DIMCLRT
 70
0
  9
$DIMTFAC
 40
1
  9
$DIMGAP
 40
0.09
  9
$DIMJUST
 70
0
  9
$DIMSD1
 70
0
  9
$DIMSD2
 70
0
  9
$DIMTOLJ
 70
1
  9
$DIMTZIN
 70
0
  9
$DIMALTZ
 70
0
  9
$DIMALTTZ
 70
0
  9
$DIMUPT
 70
0
  9
$DIMDEC
 70
4
  9
$DIMTDEC
 70
4
  9
$DIMALTU
 70
2
  9
$DIMALTTD
 70
2
  9
$DIMTXSTY
  7
Standard
  9
$DIMAUNIT
 70
0
  9
$DIMADEC
 70
4
  9
$DIMALTRND
 40
0
  9
$DIMAZIN
 70
0
  9
$DIMDSEP
 70
46
  9
$DIMATFIT
 70
3
  9
$DIMFRAC
 70
0
  9
$DIMLDRBLK
  1

  9
$DIMLUNIT
 70
2
  9
$DIMLWD
 70
-2
  9
$DIMLWE
 70
-2
  9
$DIMFXL
 40
1
  9
$DIMFXLON
 70
0
  9
$DIMJOGANG
 40
0.78539816339744828
  9
$DIMTFILL
 70
0
  9
$DIMTFILLCLR
 70
0
  9
$DIMARCSYM
 70
0
  9
$LUNITS
 70
2
  9
$LUPREC
 70
4
  9
$SKETCHINC
 40
0.1
  9
$FILLETRAD
 40
4
  9
$AUNITS
 70
0
  9
$AUPREC
 70
0
  9
$MENU
  1
.
  9
$ELEVATION
 40
0
  9
$PELEVATION
 40
0
  9
$THICKNESS
 40
0
  9
$LIMCHECK
 70
0
  9
$CHAMFERA
 40
0
  9
$CHAMFERB
 40
0
  9
$CHAMFERC
 40
0
  9
$CHAMFERD
 40
0
  9
$SKPOLY
 70
0
  9
$TDCREATE
 40
2460307.7794869905
  9
$TDUCREATE
 40
2460307.550320324
  9
$TDUPDATE
 40
2460307.7794869905
  9
$TDUUPDATE
 40
2460307.550320324
  9
$TDINDWG
 40
0.0071558796296296292
  9
$TDUSRTIMER
 40
0.0071556944444444446
  9
$USRTIMER
 70
1
  9
$ANGBASE
 50
0
  9
$ANGDIR
 70
0
  9
$PDMODE
 70
2
  9
$PDSIZE
 40
0
  9
$PLINEWID
 40
0
  9
$SPLFRAME
 70
0
  9
$SPLINETYPE
 70
6
  9
$SPLINESEGS
 70
8
  9
$HANDSEED
  5
398
  9
$SURFTAB1
 70
6
  9
$SURFTAB2
 70
6
  9
$SURFTYPE
 70
6
  9
$SURFU
 70
6
  9
$SURFV
 70
6
  9
$UCSORG
 10
0
 20
0
 30
0
  9
$UCSXDIR
 10
1
 20
0
 30
0
  9
$UCSYDIR
 10
0
 20
1
 30
0
  9
$UCSORTHOREF
  2

  9
$UCSORTHOVIEW
 70
0
  9
$UCSORGTOP
 10
0
 20
0
 30
0
  9
$UCSORGBOTTOM
 10
0
 20
0
 30
0
  9
$UCSORGLEFT
 10
0
 20
0
 30
0
  9
$UCSORGRIGHT
 10
0
 20
0
 30
0
  9
$UCSORGFRONT
 10
0
 20
0
 30
0
  9
$UCSORGBACK
 10
0
 20
0
 30
0
  9
$PUCSORG
 10
0
 20
0
 30
0
  9
$PUCSXDIR
 10
1
 20
0
 30
0
  9
$PUCSYDIR
 10
0
 20
1
 30
0
  9
$PUCSORTHOREF
  2

  9
$PUCSORTHOVIEW
 70
0
  9
$PUCSORGTOP
 10
0
 20
0
 30
0
  9
$PUCSORGBOTTOM
 10
0
 20
0
 30
0
  9
$PUCSORGLEFT
 10
0
 20
0
 30
0
  9
$PUCSORGRIGHT
 10
0
 20
0
 30
0
  9
$PUCSORGFRONT
 10
0
 20
0
 30
0
  9
$PUCSORGBACK
 10
0
 20
0
 30
0
  9
$USERI1
 70
0
  9
$USERI2
 70
0
  9
$USERI3
 70
0
  9
$USERI4
 70
0
  9
$USERI5
 70
0
  9
$USERR1
 40
0
  9
$USERR2
 40
0
  9
$USERR3
 40
0
  9
$USERR4
 40
0
  9
$USERR5
 40
0
  9
$WORLDVIEW
 70
1
  9
$SHADEDGE
 70
3
  9
$SHADEDIF
 70
70
  9
$TILEMODE
 70
1
  9
$MAXACTVP
 70
64
  9
$PINSBASE
 10
0
 20
0
 30
0
  9
$PLIMCHECK
 70
0
  9
$PEXTMIN
 10
0
 20
0
 30
0
  9
$PEXTMAX
 10
0
 20
0
 30
0
  9
$PLIMMAX
 10
12
 20
9
  9
$PLIMMIN
 10
0
 20
0
  9
$UNITMODE
 70
0
  9
$VISRETAIN
 70
1
  9
$PLINEGEN
 70
0
  9
$PSLTSCALE
 70
1
  9
$TREEDEPTH
 70
3020
  9
$CMLSTYLE
  2
STANDARD
  9
$CMLJUST
 70
0
  9
$CMLSCALE
 40
1
  9
$PROXYGRAPHICS
 70
1
  9
$MEASUREMENT
 70
0
  9
$CELWEIGHT
370
-1
  9
$ENDCAPS
280
0
  9
$JOINSTYLE
280
0
  9
$LWDISPLAY
290
0
  9
$INSUNITS
 70
1
  9
$HYPERLINKBASE
  1

  9
$XEDIT
290
1
  9
$CEPSNTYPE
380
0
  9
$PSTYLEMODE
290
1
  9
$FINGERPRINTGUID
  2
{28CE82C4-177F-48D2-90F4-94FC547B30C5}
  9
$VERSIONGUID
  2
{FB32F152-3CDF-4764-BCBD-5EB83A65FE22}
  9
$EXTNAMES
290
1
  9
$PSVPSCALE
 40
0
  9
$CSHADOW
280
0
  9
$SHADOWPLANELOCATION
 40
0
  9
$SORTENTS
280
127
  9
$INDEXCTL
280
0
  9
$XCLIPFRAME
280
2
  9
$HALOGAP
280
0
  9
$OBSCOLOR
 70
0
  9
$OBSLTYPE
280
0
  9
$INTERSECTIONDISPLAY
280
0
  9
$INTERSECTIONCOLOR
 70
0
  9
$DIMASSOC
280
2
  9
$PROJECTNAME
  1

  9
$INTERFERECOLOR
 62
256
  9
$DIMLTYPE
  6

  9
$DIMLTEX1
  6

  9
$DIMLTEX2
  6

  9
$DIMTXTDIRECTION
 70
     0
  9
$STYLESHEET
  1

  9
$OLESTARTUP
290
     0
  9
$HIDETEXT
280
     1
  9
$CAMERADISPLAY
290
     0
  9
$LENSLENGTH
 40
50.0
  9
$CAMERAHEIGHT
 40
0.0
  9
$STEPSPERSEC
 40
2.0
  9
$STEPSIZE
 40
6.0
  9
$3DDWFPREC
 40
2.0
  9
$PSOLWIDTH
 40
0.25
  9
$PSOLHEIGHT
 40
4.0
  9
$LOFTANG1
 40
1.570796326794896
  9
$LOFTANG2
 40
1.570796326794896
  9
$LOFTMAG1
 40
0.0
  9
$LOFTMAG2
 40
0.0
  9
$LOFTPARAM
 70
     7
  9
$LOFTNORMALS
280
     1
  9
$LATITUDE
 40
37.795
  9
$LONGITUDE
 40
-122.394
  9
$NORTHDIRECTION
 40
0.0
  9
$TIMEZONE
 70
 -8000
  9
$LIGHTGLYPHDISPLAY
280
     1
  9
$TILEMODELIGHTSYNCH
280
     1
  9
$CMATERIAL
347
B
  9
$SOLIDHIST
280
     1
  9
$SHOWHIST
280
     1
  9
$DWFFRAME
280
     2
  9
$DGNFRAME
280
     2
  9
$REALWORLDSCALE
290
     1
  0
ENDSEC
  0
SECTION
  2
CLASSES
  0
CLASS
  1
ACDBDICTIONARYWDFLT
  2
AcDbDictionaryWithDefault
  3
ObjectDBX Classes
 90
0
 91
1
280
0
281
0
  0
CLASS
  1
MATERIAL
  2
AcDbMaterial
  3
ObjectDBX Classes
 90
0
 91
1
280
0
281
0
  0
CLASS
  1
SORTENTSTABLE
  2
AcDbSortentsTable
  3
ObjectDBX Classes
 90
0
 91
1
280
0
281
0
  0
CLASS
  1
VISUALSTYLE
  2
AcDbVisualStyle
  3
ObjectDBX Classes
 90
4095
 91
1
280
0
281
0
  0
CLASS
  1
SCALE
  2
AcDbScale
  3
ObjectDBX Classes
 90
1153
 91
1
280
0
281
0
  0
CLASS
  1
TABLESTYLE
  2
AcDbTableStyle
  3
ObjectDBX Classes
 90
2047
 91
1
280
0
281
0
  0
CLASS
  1
MLEADERSTYLE
  2
AcDbMLeaderStyle
  3
ACDB_MLEADERSTYLE_CLASS
 90
4095
 91
1
280
0
281
0
  0
CLASS
  1
DICTIONARYVAR
  2
AcDbDictionaryVar
  3
ObjectDBX Classes
 90
0
 91
1
280
0
281
0
  0
CLASS
  1
CELLSTYLEMAP
  2
AcDbCellStyleMap
  3
ObjectDBX Classes
 90
1152
 91
1
280
0
281
0
  0
CLASS
  1
ACIDBLOCKREFERENCE
  2
AcIdBlockReference
  3
AcIdViewObj|Product: Inventor Drawing Enabler|Company: Autodesk|Website: www.autodesk.com
 90
1
 91
1
280
0
281
1
  0
CLASS
  1
RASTERVARIABLES
  2
AcDbRasterVariables
  3
ISM
 90
0
 91
1
280
0
281
0
  0
CLASS
  1
IMAGEDEF
  2
AcDbRasterImageDef
  3
ISM
 90
0
 91
1
280
0
281
0
  0
CLASS
  1
IMAGEDEF_REACTOR
  2
AcDbRasterImageDefReactor
  3
ISM
 90
1
 91
1
280
0
281
0
  0
CLASS
  1
IMAGE
  2
AcDbRasterImage
  3
ISM
 90
127
 91
1
280
0
281
1
  0
CLASS
  1
ACAD_EVALUATION_GRAPH
  2
AcDbEvalGraph
  3
ObjectDBX Classes
 90
1153
 91
1
280
0
281
0
  0
CLASS
  1
BLOCKPOINTPARAMETER
  2
AcDbBlockPointParameter
  3
ObjectDBX Classes
 90
1153
 91
1
280
0
281
0
  0
CLASS
  1
BLOCKBASEPOINTPARAMETER
  2
AcDbBlockBasepointParameter
  3
ObjectDBX Classes
 90
1153
 91
1
280
0
281
0
  0
CLASS
  1
BLOCKLOOKUPPARAMETER
  2
AcDbBlockLookupParameter
  3
ObjectDBX Classes
 90
1153
 91
1
280
0
281
0
  0
CLASS
  1
BLOCKVISIBILITYPARAMETER
  2
AcDbBlockVisibilityParameter
  3
ObjectDBX Classes
 90
1153
 91
1
280
0
281
0
  0
CLASS
  1
BLOCKPROPERTIESTABLE
  2
AcDbBlockPropertiesTable
  3
ObjectDBX Classes
 90
1153
 91
1
280
0
281
0
  0
CLASS
  1
BLOCKPOLARPARAMETER
  2
AcDbBlockPolarParameter
  3
ObjectDBX Classes
 90
1153
 91
1
280
0
281
0
  0
CLASS
  1
BLOCKROTATIONPARAMETER
  2
AcDbBlockRotationParameter
  3
ObjectDBX Classes
 90
1153
 91
1
280
0
281
0
  0
CLASS
  1
BLOCKLINEARPARAMETER
  2
AcDbBlockLinearParameter
  3
ObjectDBX Classes
 90
1153
 91
1
280
0
281
0
  0
CLASS
  1
BLOCKXYPARAMETER
  2
AcDbBlockXYParameter
  3
ObjectDBX Classes
 90
1153
 91
1
280
0
281
0
  0
CLASS
  1
BLOCKFLIPPARAMETER
  2
AcDbBlockFlipParameter
  3
ObjectDBX Classes
 90
1153
 91
1
280
0
281
0
  0
CLASS
  1
BLOCKALIGNMENTPARAMETER
  2
AcDbBlockAlignmentParameter
  3
ObjectDBX Classes
 90
1153
 91
1
280
0
281
0
  0
CLASS
  1
BLOCKROTATEACTION
  2
AcDbBlockRotateAction
  3
ObjectDBX Classes
 90
1153
 91
1
280
0
281
0
  0
CLASS
  1
BLOCKSCALEACTION
  2
AcDbBlockScaleAction
  3
ObjectDBX Classes
 90
1153
 91
1
280
0
281
0
  0
CLASS
  1
BLOCKARRAYACTION
  2
AcDbBlockArrayAction
  3
ObjectDBX Classes
 90
1153
 91
1
280
0
281
0
  0
CLASS
  1
BLOCKFLIPACTION
  2
AcDbBlockFlipAction
  3
ObjectDBX Classes
 90
1153
 91
1
280
0
281
0
  0
CLASS
  1
BLOCKLOOKUPACTION
  2
AcDbBlockLookupAction
  3
ObjectDBX Classes
 90
1153
 91
1
280
0
281
0
  0
CLASS
  1
BLOCKMOVEACTION
  2
AcDbBlockMoveAction
  3
ObjectDBX Classes
 90
1153
 91
1
280
0
281
0
  0
CLASS
  1
BLOCKPOLARSTRETCHACTION
  2
AcDbBlockPolarStretchAction
  3
ObjectDBX Classes
 90
1153
 91
1
280
0
281
0
  0
CLASS
  1
BLOCKSTRETCHACTION
  2
AcDbBlockStretchAction
  3
ObjectDBX Classes
 90
1153
 91
1
280
0
281
0
  0
CLASS
  1
BLOCKALIGNMENTGRIP
  2
AcDbBlockAlignmentGrip
  3
ObjectDBX Classes
 90
1153
 91
1
280
0
281
0
  0
CLASS
  1
BLOCKFLIPGRIP
  2
AcDbBlockFlipGrip
  3
ObjectDBX Classes
 90
1153
 91
1
280
0
281
0
  0
CLASS
  1
ACDB_BLOCKREPRESENTATION_DATA
  2
AcDbBlockRepresentationData
  3
ObjectDBX Classes
 90
1153
 91
1
280
0
281
0
  0
CLASS
  1
ACDB_DYNAMICBLOCKPURGEPREVENTER_VERSION
  2
AcDbDynamicBlockPurgePreventer
  3
ObjectDBX Classes
 90
1153
 91
1
280
0
281
0
  0
CLASS
  1
BLOCKLINEARGRIP
  2
AcDbBlockLinearGrip
  3
ObjectDBX Classes
 90
1153
 91
1
280
0
281
0
  0
CLASS
  1
BLOCKLOOKUPGRIP
  2
AcDbBlockLookupGrip
  3
ObjectDBX Classes
 90
1153
 91
1
280
0
281
0
  0
CLASS
  1
BLOCKPOLARGRIP
  2
AcDbBlockPolarGrip
  3
ObjectDBX Classes
 90
1153
 91
1
280
0
281
0
  0
CLASS
  1
BLOCKPROPERTIESTABLEGRIP
  2
AcDbBlockPropertiesTableGrip
  3
ObjectDBX Classes
 90
1153
 91
1
280
0
281
0
  0
CLASS
  1
BLOCKROTATIONGRIP
  2
AcDbBlockRotationGrip
  3
ObjectDBX Classes
 90
1153
 91
1
280
0
281
0
  0
CLASS
  1
BLOCKVISIBILITYGRIP
  2
AcDbBlockVisibilityGrip
  3
ObjectDBX Classes
 90
1153
 91
1
280
0
281
0
  0
CLASS
  1
BLOCKXYGRIP
  2
AcDbBlockXYGrip
  3
ObjectDBX Classes
 90
1153
 91
1
280
0
281
0
  0
CLASS
  1
BLOCKGRIPLOCATIONCOMPONENT
  2
AcDbBlockGripExpr
  3
ObjectDBX Classes
 90
1153
 91
1
280
0
281
0
  0
CLASS
  1
ACDB_DYNAMICBLOCKPROXYNODE
  2
AcDbDynamicBlockProxyNode
  3
ObjectDBX Classes
 90
1153
 91
1
280
0
281
0
  0
ENDSEC
  0
SECTION
  2
TABLES
  0
TABLE
  2
VPORT
  5
8
330
0
100
AcDbSymbolTable
 70
1
  0
VPORT
  5
358
330
8
100
AcDbSymbolTableRecord
100
AcDbViewportTableRecord
  2
*Active
 70
0
 10
0
 20
0
 11
1
 21
1
 12
522.728897169375
 22
418.64492696452771
 13
0
 23
0
 14
0.5
 24
0.5
 15
0.5
 25
0.5
 16
0
 26
0
 36
1
 17
0
 27
0
 37
0
 40
2365.1125059955461
 41
2.778350515463917
 42
50
 43
0
 44
0
 50
0
 51
0
 71
16
 72
1000
 73
1
 74
0
 75
0
 76
1
 77
0
 78
0
281
0
 65
1
110
0
120
0
130
0
111
1
121
0
131
0
112
0
122
1
132
0
 79
0
146
0
 60
3
 61
5
292
1
282
1
141
0
142
0
1001
ACAD_NAV_VCDISPLAY
1070
3
  0
ENDTAB
  0
TABLE
  2
LTYPE
  5
5
100
AcDbSymbolTable
 70
3
  0
LTYPE
  5
14
330
5
100
AcDbSymbolTableRecord
100
AcDbLinetypeTableRecord
  2
ByBlock
  3

 70
0
 72
65
 73
0
 40
0
  0
LTYPE
  5
15
330
5
100
AcDbSymbolTableRecord
100
AcDbLinetypeTableRecord
  2
ByLayer
  3

 70
0
 72
65
 73
0
 40
0
  0
LTYPE
  5
16
330
5
100
AcDbSymbolTableRecord
100
AcDbLinetypeTableRecord
  2
Continuous
  3
Solid line
 70
0
 72
65
 73
0
 40
0
  0
ENDTAB
  0
TABLE
  2
LAYER
  5
2
100
AcDbSymbolTable
 70
5
  0
LAYER
  5
10
330
2
100
AcDbSymbolTableRecord
100
AcDbLayerTableRecord
 70
0
  2
0
 62
7
  6
Continuous
370
-3
390
F
348
0
  0
LAYER
  5
27
330
2
100
AcDbSymbolTableRecord
100
AcDbLayerTableRecord
 70
64
  2
LaserCutting
 62
3
  6
Continuous
370
-3
390
F
348
0
  0
LAYER
  5
28
330
2
100
AcDbSymbolTableRecord
100
AcDbLayerTableRecord
 70
64
  2
Marking
 62
6
  6
Continuous
370
-3
390
F
348
0
  0
LAYER
  5
29
330
2
100
AcDbSymbolTableRecord
100
AcDbLayerTableRecord
 70
64
  2
Dimention
 62
9
  6
Continuous
370
-3
390
F
348
0
  0
LAYER
  5
2A
330
2
100
AcDbSymbolTableRecord
100
AcDbLayerTableRecord
 70
64
  2
DefPoints
 62
151
  6
Continuous
290
0
370
-3
390
F
348
0
  0
ENDTAB
  0
TABLE
  2
STYLE
  5
3
100
AcDbSymbolTable
 70
1
  0
STYLE
  5
11
330
3
100
AcDbSymbolTableRecord
100
AcDbTextStyleTableRecord
  2
Standard
 70
0
 40
0
 41
1
 50
0
 71
0
 42
0.2
  3
arial.ttf
1001
ACAD
1000
Arial
1071
34
  0
ENDTAB
  0
TABLE
  2
VIEW
  5
6
100
AcDbSymbolTable
 70
0
  0
ENDTAB
  0
TABLE
  2
UCS
  5
7
100
AcDbSymbolTable
 70
0
  0
ENDTAB
  0
TABLE
  2
APPID
  5
9
330
0
100
AcDbSymbolTable
 70
8
  0
APPID
  5
12
330
0
100
AcDbSymbolTableRecord
100
AcDbRegAppTableRecord
  2
ACAD
 70
0
  0
APPID
  5
390
330
0
100
AcDbSymbolTableRecord
100
AcDbRegAppTableRecord
  2
ACAD_PSEXT
 70
0
  0
APPID
  5
391
330
0
100
AcDbSymbolTableRecord
100
AcDbRegAppTableRecord
  2
ACAD_NAV_VCDISPLAY
 70
0
  0
APPID
  5
392
330
0
100
AcDbSymbolTableRecord
100
AcDbRegAppTableRecord
  2
AcadAnnotative
 70
0
  0
APPID
  5
393
330
0
100
AcDbSymbolTableRecord
100
AcDbRegAppTableRecord
  2
ACAD_DSTYLE_DIMJAG
 70
0
  0
APPID
  5
394
330
0
100
AcDbSymbolTableRecord
100
AcDbRegAppTableRecord
  2
ACAD_DSTYLE_DIMBREAK
 70
0
  0
APPID
  5
395
330
0
100
AcDbSymbolTableRecord
100
AcDbRegAppTableRecord
  2
ACAD_DSTYLE_DIMTALN
 70
0
  0
APPID
  5
396
330
0
100
AcDbSymbolTableRecord
100
AcDbRegAppTableRecord
  2
ACAD_MLEADERVER
 70
64
  0
ENDTAB
  0
TABLE
  2
DIMSTYLE
  5
A
330
0
100
AcDbSymbolTable
 70
2
100
AcDbDimStyleTable
 71
0
  0
DIMSTYLE
105
356
330
A
100
AcDbSymbolTableRecord
100
AcDbDimStyleTableRecord
  2
Standard
 70
0
  3

  4

 40
1
 41
0.18
 42
0.0625
 43
0.38
 44
0.18
 45
0
 46
0
 47
0
 48
0
140
0.18
141
0.09
142
0
143
1
144
1
145
0
146
1
147
0.09
148
0
 71
0
 72
0
 73
1
 74
1
 75
0
 76
0
 77
0
 78
0
 79
0
170
0
171
2
172
0
173
0
174
0
175
0
179
4
271
4
272
4
273
2
274
0
275
0
276
0
277
2
278
46
279
0
280
0
281
0
282
0
283
1
284
0
285
0
286
0
288
0
289
0
340
11
371
-2
372
-2
1001
AcadAnnotative
1000
AnnotativeData
1002
{
1070
1
1070
0
1002
}
  0
DIMSTYLE
105
357
330
A
100
AcDbSymbolTableRecord
100
AcDbDimStyleTableRecord
  2
Annotative
 70
0
  3

  4

 40
1
 41
0.18
 42
0.0625
 43
0.38
 44
0.18
 45
0
 46
0
 47
0
 48
0
140
0.18
141
0.09
142
0
143
1
144
1
145
0
146
1
147
0.09
148
0
 71
0
 72
0
 73
1
 74
1
 75
0
 76
0
 77
0
 78
0
 79
0
170
0
171
2
172
0
173
0
174
0
175
0
179
0
271
4
272
4
273
2
274
0
275
0
276
0
277
2
278
46
279
0
280
0
281
0
282
0
283
1
284
0
285
0
286
0
288
0
289
0
340
11
371
-2
372
-2
1001
ACAD_DSTYLE_DIMBREAK
1070
391
1040
0.125
1001
AcadAnnotative
1000
AnnotativeData
1002
{
1070
1
1070
1
1002
}
1001
ACAD_DSTYLE_DIMJAG
1070
388
1040
1.5
1001
ACAD_DSTYLE_DIMTALN
1070
392
1070
0
  0
ENDTAB
  0
TABLE
  2
BLOCK_RECORD
  5
1
330
0
100
AcDbSymbolTable
 70
3
  0
BLOCK_RECORD
  5
2B
102
{ACAD_XDICTIONARY
360
2C
102
}
330
1
100
AcDbSymbolTableRecord
100
AcDbBlockTableRecord
  2
*Model_Space
340
22
  0
BLOCK_RECORD
  5
1B
330
1
100
AcDbSymbolTableRecord
100
AcDbBlockTableRecord
  2
*Paper_Space
340
1E
  0
ENDTAB
  0
ENDSEC
  0
SECTION
  2
BLOCKS
  0
BLOCK
  5
2E
330
2B
100
AcDbEntity
  8
0
100
AcDbBlockBegin
  2
*Model_Space
 70
0
 10
0
 20
0
 30
0
  3
*Model_Space
  0
ENDBLK
  5
355
330
2B
100
AcDbEntity
  8
0
100
AcDbBlockEnd
  0
BLOCK
  5
1C
330
1B
100
AcDbEntity
  8
0
 67
1
100
AcDbBlockBegin
  2
*Paper_Space
 70
0
 10
0
 20
0
 30
0
  3
*Paper_Space
  0
ENDBLK
  5
1D
330
1B
100
AcDbEntity
  8
0
100
AcDbBlockEnd
  0
ENDSEC
  0
SECTION
  2
ENTITIES
  0
ARC
  5
2F
330
2B
100
AcDbEntity
  8
LaserCutting
100
AcDbCircle
 10
50.399789686581308
 20
149.2469127331409
 30
0
 40
4.0000000000000044
100
AcDbArc
 50
171.0002220938558
 51
255.4147583655
  0
ARC
  5
30
330
2B
100
AcDbEntity
  8
LaserCutting
100
AcDbCircle
 10
66.708822324514486
 20
143.9477868025711
 30
0
 40
4.0000000000000018
100
AcDbArc
 50
248.5852416344996
 51
332.99977790614389
  0
ARC
  5
31
330
2B
100
AcDbEntity
  8
LaserCutting
100
AcDbCircle
 10
106.3689466228908
 20
221.7844175164505
 30
0
 40
3.9999999999999991
100
AcDbArc
 50
332.99977790614389
 51
66.476286947174628
  0
ARC
  5
32
330
2B
100
AcDbEntity
  8
LaserCutting
100
AcDbCircle
 10
64.065298751925667
 20
235.5297059322283
 30
0
 40
3.999999999999992
100
AcDbArc
 50
77.52371305282449
 51
171.0002220938558
  0
LINE
  5
33
330
2B
100
AcDbEntity
  8
LaserCutting
100
AcDbLine
 10
70.272841382083925
 20
142.13181098850259
 30
0
 11
109.9329656804603
 21
219.96844170238191
 31
0
  0
LINE
  5
34
330
2B
100
AcDbEntity
  8
LaserCutting
100
AcDbLine
 10
46.44903389870214
 20
149.87263527911429
 30
0
 11
60.1145429640465
 21
236.1554284782016
 31
0
  0
ARC
  5
35
330
2B
100
AcDbEntity
  8
LaserCutting
100
AcDbCircle
 10
14.15028840013526
 20
9.9358357992375943
 30
0
 40
235.05
100
AcDbArc
 50
66.476286947174628
 51
77.52371305282449
  0
ARC
  5
36
330
2B
100
AcDbEntity
  8
LaserCutting
100
AcDbCircle
 10
14.15028840013526
 20
9.9358357992375943
 30
0
 40
139.95
100
AcDbArc
 50
68.585241634499667
 51
75.414758365500433
  0
ARC
  5
37
330
2B
100
AcDbEntity
  8
LaserCutting
100
AcDbCircle
 10
91.675103088311218
 20
131.22683137419349
 30
0
 40
4.0000000000000044
100
AcDbArc
 50
153.00022209385619
 51
237.41475836549981
  0
ARC
  5
38
330
2B
100
AcDbEntity
  8
LaserCutting
100
AcDbCircle
 10
105.54839488520879
 20
121.14729488031939
 30
0
 40
4.0000000000000018
100
AcDbArc
 50
230.5852416345
 51
314.99977790614417
  0
ARC
  5
39
330
2B
100
AcDbEntity
  8
LaserCutting
100
AcDbCircle
 10
167.32025621173119
 20
182.9186773199927
 30
0
 40
3.9999999999999991
100
AcDbArc
 50
314.99977790614417
 51
48.476286947174678
  0
ARC
  5
3A
330
2B
100
AcDbEntity
  8
LaserCutting
100
AcDbCircle
 10
131.33462395405451
 20
209.0637695523564
 30
0
 40
3.999999999999992
100
AcDbArc
 50
59.523713052825322
 51
153.00022209385619
  0
LINE
  5
3B
330
2B
100
AcDbEntity
  8
LaserCutting
100
AcDbLine
 10
108.3768110461893
 20
118.31885679185
 30
0
 11
170.14867237271159
 21
180.0902392315233
 31
0
  0
LINE
  5
3C
330
2B
100
AcDbEntity
  8
LaserCutting
100
AcDbLine
 10
88.111069952427272
 20
133.042779558014
 30
0
 11
127.7705908181706
 21
210.8797177361769
 31
0
  0
ARC
  5
3D
330
2B
100
AcDbEntity
  8
LaserCutting
100
AcDbCircle
 10
14.150288400135249
 20
9.9358357992375659
 30
0
 40
235.05
100
AcDbArc
 50
48.476286947174678
 51
59.523713052825322
  0
ARC
  5
3E
330
2B
100
AcDbEntity
  8
LaserCutting
100
AcDbCircle
 10
14.150288400135249
 20
9.9358357992375659
 30
0
 40
139.95
100
AcDbArc
 50
50.585241634499958
 51
57.4147583654998
  0
ARC
  5
3F
330
2B
100
AcDbEntity
  8
LaserCutting
100
AcDbCircle
 10
125.36174748121709
 20
101.33394228431111
 30
0
 40
4.0000000000000044
100
AcDbArc
 50
135.0002220938558
 51
219.4147583655
  0
ARC
  5
40
330
2B
100
AcDbEntity
  8
LaserCutting
100
AcDbCircle
 10
135.44128397509121
 20
87.460650487413474
 30
0
 40
4.0000000000000018
100
AcDbArc
 50
212.58524163450019
 51
296.99977790614378
  0
ARC
  5
41
330
2B
100
AcDbEntity
  8
LaserCutting
100
AcDbCircle
 10
213.278222153254
 20
127.12017135315681
 30
0
 40
3.9999999999999991
100
AcDbArc
 50
296.99977790614378
 51
30.476286947174675
  0
ARC
  5
42
330
2B
100
AcDbEntity
  8
LaserCutting
100
AcDbCircle
 10
187.13312992089041
 20
163.10580361083339
 30
0
 40
3.999999999999992
100
AcDbArc
 50
41.523713052824704
 51
135.0002220938558
  0
LINE
  5
43
330
2B
100
AcDbEntity
  8
LaserCutting
100
AcDbLine
 10
137.25723215891179
 20
83.896617351529528
 30
0
 11
215.09417033707459
 21
123.5561382172728
 31
0
  0
LINE
  5
44
330
2B
100
AcDbEntity
  8
LaserCutting
100
AcDbLine
 10
122.5333093927477
 20
104.1623584452916
 30
0
 11
184.304691832421
 21
165.9342197718139
 31
0
  0
ARC
  5
45
330
2B
100
AcDbEntity
  8
LaserCutting
100
AcDbCircle
 10
14.150288400135249
 20
9.9358357992375943
 30
0
 40
235.05
100
AcDbArc
 50
30.476286947174675
 51
41.523713052824704
  0
ARC
  5
46
330
2B
100
AcDbEntity
  8
LaserCutting
100
AcDbCircle
 10
14.150288400135249
 20
9.9358357992375943
 30
0
 40
139.95
100
AcDbArc
 50
32.5852416345002
 51
39.414758365500042
  0
ARC
  5
47
330
2B
100
AcDbEntity
  8
LaserCutting
100
AcDbCircle
 10
148.16223940346879
 20
62.494369723616742
 30
0
 40
4.0000000000000044
100
AcDbArc
 50
117.0002220938561
 51
201.41475836550029
  0
ARC
  5
48
330
2B
100
AcDbEntity
  8
LaserCutting
100
AcDbCircle
 10
153.46136533403859
 20
46.185337085683571
 30
0
 40
4.0000000000000018
100
AcDbArc
 50
194.58524163449951
 51
278.99977790614417
  0
ARC
  5
49
330
2B
100
AcDbEntity
  8
LaserCutting
100
AcDbCircle
 10
239.744158533126
 20
59.850846151027888
 30
0
 40
3.9999999999999991
100
AcDbArc
 50
278.99977790614417
 51
12.476286947174712
  0
ARC
  5
4A
330
2B
100
AcDbEntity
  8
LaserCutting
100
AcDbCircle
 10
225.9988701173481
 20
102.1544940219931
 30
0
 40
3.999999999999992
100
AcDbArc
 50
23.523713052824629
 51
117.0002220938561
  0
LINE
  5
4B
330
2B
100
AcDbEntity
  8
LaserCutting
100
AcDbLine
 10
154.087087880012
 20
42.234581297804411
 30
0
 11
240.36988107909929
 21
55.900090363148728
 31
0
  0
LINE
  5
4C
330
2B
100
AcDbEntity
  8
LaserCutting
100
AcDbLine
 10
146.34626358940031
 20
66.05838878118621
 30
0
 11
224.1828943032796
 21
105.7185130795625
 31
0
  0
ARC
  5
4D
330
2B
100
AcDbEntity
  8
LaserCutting
100
AcDbCircle
 10
14.150288400135249
 20
9.9358357992375872
 30
0
 40
235.05
100
AcDbArc
 50
12.476286947174712
 51
23.523713052824629
  0
ARC
  5
4E
330
2B
100
AcDbEntity
  8
LaserCutting
100
AcDbCircle
 10
14.150288400135249
 20
9.9358357992375872
 30
0
 40
139.95
100
AcDbArc
 50
14.58524163449958
 51
21.41475836550034
  0
ARC
  5
4F
330
2B
100
AcDbEntity
  8
LaserCutting
100
AcDbCircle
 10
157.84470784534781
 20
18.510001665565412
 30
0
 40
4.0000000000000044
100
AcDbArc
 50
99.000222093855854
 51
183.41475836550009
  0
ARC
  5
50
330
2B
100
AcDbEntity
  8
LaserCutting
100
AcDbCircle
 10
157.84470784534781
 20
1.3616699329097
 30
0
 40
4.0000000000000018
100
AcDbArc
 50
176.58524163449991
 51
260.99977790614417
  0
ARC
  5
51
330
2B
100
AcDbEntity
  8
LaserCutting
100
AcDbCircle
 10
244.12739509946331
 20
-12.30450804266121
 30
0
 40
3.9999999999999991
100
AcDbArc
 50
260.99977790614417
 51
354.476286947175
  0
ARC
  5
52
330
2B
100
AcDbEntity
  8
LaserCutting
100
AcDbCircle
 10
244.12739509946331
 20
32.1761796411363
 30
0
 40
3.999999999999992
100
AcDbArc
 50
5.5237130528249434
 51
99.000222093855854
  0
LINE
  5
53
330
2B
100
AcDbEntity
  8
LaserCutting
100
AcDbLine
 10
157.2189546710087
 20
-2.5890810039128862
 30
0
 11
243.5016419251242
 21
-16.255258979483781
 31
0
  0
LINE
  5
54
330
2B
100
AcDbEntity
  8
LaserCutting
100
AcDbLine
 10
157.2189546710087
 20
22.460752602388
 30
0
 11
243.5016419251242
 21
36.126930577958873
 31
0
  0
ARC
  5
55
330
2B
100
AcDbEntity
  8
LaserCutting
100
AcDbCircle
 10
14.150288400135249
 20
9.9358357992375819
 30
0
 40
235.05
100
AcDbArc
 50
354.476286947175
 51
5.5237130528249434
  0
ARC
  5
56
330
2B
100
AcDbEntity
  8
LaserCutting
100
AcDbCircle
 10
14.150288400135249
 20
9.9358357992375819
 30
0
 40
139.95
100
AcDbArc
 50
356.58524163449982
 51
3.4147583655003171
  0
ARC
  5
57
330
2B
100
AcDbEntity
  8
LaserCutting
100
AcDbCircle
 10
153.46136533403859
 20
-26.313665487208461
 30
0
 40
4.0000000000000044
100
AcDbArc
 50
81.000222093855911
 51
165.4147583655004
  0
ARC
  5
58
330
2B
100
AcDbEntity
  8
LaserCutting
100
AcDbCircle
 10
148.16223940346879
 20
-42.622698125141639
 30
0
 40
4.0000000000000018
100
AcDbArc
 50
158.58524163449962
 51
242.99977790614369
  0
ARC
  5
59
330
2B
100
AcDbEntity
  8
LaserCutting
100
AcDbCircle
 10
225.9988701173481
 20
-82.282822423518
 30
0
 40
3.9999999999999991
100
AcDbArc
 50
242.99977790614369
 51
336.476286947175
  0
ARC
  5
5A
330
2B
100
AcDbEntity
  8
LaserCutting
100
AcDbCircle
 10
239.744158533126
 20
-39.979174552552813
 30
0
 40
3.999999999999992
100
AcDbArc
 50
347.52371305282492
 51
81.000222093855911
  0
LINE
  5
5B
330
2B
100
AcDbEntity
  8
LaserCutting
100
AcDbLine
 10
146.34626358940031
 20
-46.186717182711092
 30
0
 11
224.1828943032796
 21
-85.846841481087438
 31
0
  0
LINE
  5
5C
330
2B
100
AcDbEntity
  8
LaserCutting
100
AcDbLine
 10
154.08708788001189
 20
-22.3629096993293
 30
0
 11
240.3698810790992
 21
-36.028418764673653
 31
0
  0
ARC
  5
5D
330
2B
100
AcDbEntity
  8
LaserCutting
100
AcDbCircle
 10
14.150288400135249
 20
9.9358357992375712
 30
0
 40
235.05
100
AcDbArc
 50
336.476286947175
 51
347.52371305282492
  0
ARC
  5
5E
330
2B
100
AcDbEntity
  8
LaserCutting
100
AcDbCircle
 10
14.150288400135249
 20
9.9358357992375712
 30
0
 40
139.95
100
AcDbArc
 50
338.58524163449971
 51
345.4147583655004
  0
ARC
  5
5F
330
2B
100
AcDbEntity
  8
LaserCutting
100
AcDbCircle
 10
135.44128397509121
 20
-67.588978888938371
 30
0
 40
4.0000000000000044
100
AcDbArc
 50
63.000222093856237
 51
147.41475836549981
  0
ARC
  5
60
330
2B
100
AcDbEntity
  8
LaserCutting
100
AcDbCircle
 10
125.36174748121709
 20
-81.462270685836046
 30
0
 40
4.0000000000000018
100
AcDbArc
 50
140.58524163449991
 51
224.9997779061442
  0
ARC
  5
61
330
2B
100
AcDbEntity
  8
LaserCutting
100
AcDbCircle
 10
187.13312992089041
 20
-143.23413201235829
 30
0
 40
3.9999999999999991
100
AcDbArc
 50
224.9997779061442
 51
318.47628694717469
  0
ARC
  5
62
330
2B
100
AcDbEntity
  8
LaserCutting
100
AcDbCircle
 10
213.278222153254
 20
-107.2484997546817
 30
0
 40
3.999999999999992
100
AcDbArc
 50
329.52371305282531
 51
63.000222093856237
  0
LINE
  5
63
330
2B
100
AcDbEntity
  8
LaserCutting
100
AcDbLine
 10
122.5333093927477
 20
-84.2906868468165
 30
0
 11
184.304691832421
 21
-146.06254817333871
 31
0
  0
LINE
  5
64
330
2B
100
AcDbEntity
  8
LaserCutting
100
AcDbLine
 10
137.25723215891171
 20
-64.024945753054425
 30
0
 11
215.09417033707459
 21
-103.6844666187977
 31
0
  0
ARC
  5
65
330
2B
100
AcDbEntity
  8
LaserCutting
100
AcDbCircle
 10
14.150288400135249
 20
9.9358357992375659
 30
0
 40
235.05
100
AcDbArc
 50
318.47628694717469
 51
329.52371305282531
  0
ARC
  5
66
330
2B
100
AcDbEntity
  8
LaserCutting
100
AcDbCircle
 10
14.150288400135249
 20
9.9358357992375659
 30
0
 40
139.95
100
AcDbArc
 50
320.58524163449988
 51
327.41475836549978
  0
ARC
  5
67
330
2B
100
AcDbEntity
  8
LaserCutting
100
AcDbCircle
 10
105.54839488520879
 20
-101.2756232818443
 30
0
 40
4.0000000000000027
100
AcDbArc
 50
45.000222093855783
 51
129.4147583655
  0
ARC
  5
68
330
2B
100
AcDbEntity
  8
LaserCutting
100
AcDbCircle
 10
91.675103088311147
 20
-111.35515977571831
 30
0
 40
4.0000000000000009
100
AcDbArc
 50
122.58524163450022
 51
206.99977790614369
  0
ARC
  5
69
330
2B
100
AcDbEntity
  8
LaserCutting
100
AcDbCircle
 10
131.33462395405451
 20
-189.19209795388119
 30
0
 40
3.9999999999999991
100
AcDbArc
 50
206.99977790614369
 51
300.47628694717469
  0
ARC
  5
6A
330
2B
100
AcDbEntity
  8
LaserCutting
100
AcDbCircle
 10
167.320256211731
 20
-163.04700572151759
 30
0
 40
3.999999999999992
100
AcDbArc
 50
311.52371305282469
 51
45.000222093855783
  0
LINE
  5
6B
330
2B
100
AcDbEntity
  8
LaserCutting
100
AcDbLine
 10
88.111069952427187
 20
-113.1711079595389
 30
0
 11
127.7705908181705
 21
-191.00804613770171
 31
0
  0
LINE
  5
6C
330
2B
100
AcDbEntity
  8
LaserCutting
100
AcDbLine
 10
108.3768110461893
 20
-98.4471851933749
 30
0
 11
170.1486723727115
 21
-160.21856763304811
 31
0
  0
ARC
  5
6D
330
2B
100
AcDbEntity
  8
LaserCutting
100
AcDbCircle
 10
14.15028840013524
 20
9.9358357992375943
 30
0
 40
235.05
100
AcDbArc
 50
300.47628694717469
 51
311.52371305282469
  0
ARC
  5
6E
330
2B
100
AcDbEntity
  8
LaserCutting
100
AcDbCircle
 10
14.15028840013524
 20
9.9358357992375943
 30
0
 40
139.9499999999999
100
AcDbArc
 50
302.58524163450022
 51
309.41475836550012
  0
ARC
  5
6F
330
2B
100
AcDbEntity
  8
LaserCutting
100
AcDbCircle
 10
66.708822324514415
 20
-124.076115204096
 30
0
 40
4.0000000000000044
100
AcDbArc
 50
27.0002220938561
 51
111.41475836550032
  0
ARC
  5
70
330
2B
100
AcDbEntity
  8
LaserCutting
100
AcDbCircle
 10
50.399789686581229
 20
-129.3752411346658
 30
0
 40
4.0000000000000018
100
AcDbArc
 50
104.5852416344996
 51
188.99977790614409
  0
ARC
  5
71
330
2B
100
AcDbEntity
  8
LaserCutting
100
AcDbCircle
 10
64.065298751925553
 20
-215.65803433375311
 30
0
 40
3.9999999999999991
100
AcDbArc
 50
188.99977790614409
 51
282.47628694717469
  0
ARC
  5
72
330
2B
100
AcDbEntity
  8
LaserCutting
100
AcDbCircle
 10
106.3689466228907
 20
-201.91274591797529
 30
0
 40
3.999999999999992
100
AcDbArc
 50
293.52371305282458
 51
27.0002220938561
  0
LINE
  5
73
330
2B
100
AcDbEntity
  8
LaserCutting
100
AcDbLine
 10
46.449033898702069
 20
-130.0009636806391
 30
0
 11
60.1145429640464
 21
-216.28375687972641
 31
0
  0
LINE
  5
74
330
2B
100
AcDbEntity
  8
LaserCutting
100
AcDbLine
 10
70.272841382083854
 20
-122.2601393900275
 30
0
 11
109.9329656804602
 21
-200.09677010390669
 31
0
  0
ARC
  5
75
330
2B
100
AcDbEntity
  8
LaserCutting
100
AcDbCircle
 10
14.15028840013523
 20
9.9358357992375943
 30
0
 40
235.05
100
AcDbArc
 50
282.47628694717469
 51
293.52371305282458
  0
ARC
  5
76
330
2B
100
AcDbEntity
  8
LaserCutting
100
AcDbCircle
 10
14.15028840013523
 20
9.9358357992375943
 30
0
 40
139.95
100
AcDbArc
 50
284.5852416344996
 51
291.4147583655004
  0
ARC
  5
77
330
2B
100
AcDbEntity
  8
LaserCutting
100
AcDbCircle
 10
22.724454266463081
 20
-133.758583645975
 30
0
 40
4.0000000000000044
100
AcDbArc
 50
9.00022209385585
 51
93.41475836550012
  0
ARC
  5
78
330
2B
100
AcDbEntity
  8
LaserCutting
100
AcDbCircle
 10
5.5761225338073643
 20
-133.758583645975
 30
0
 40
4.0000000000000018
100
AcDbArc
 50
86.5852416344999
 51
170.99977790614409
  0
ARC
  5
79
330
2B
100
AcDbEntity
  8
LaserCutting
100
AcDbCircle
 10
-8.09005544176354
 20
-220.0412709000905
 30
0
 40
3.9999999999999991
100
AcDbArc
 50
170.99977790614409
 51
264.476286947175
  0
ARC
  5
7A
330
2B
100
AcDbEntity
  8
LaserCutting
100
AcDbCircle
 10
36.390632242033973
 20
-220.0412709000905
 30
0
 40
3.999999999999992
100
AcDbArc
 50
275.523713052825
 51
9.00022209385585
  0
LINE
  5
7B
330
2B
100
AcDbEntity
  8
LaserCutting
100
AcDbLine
 10
1.6253715969847771
 20
-133.13283047163591
 30
0
 11
-12.04080637858611
 21
-219.4155177257513
 31
0
  0
LINE
  5
7C
330
2B
100
AcDbEntity
  8
LaserCutting
100
AcDbLine
 10
26.675205203285671
 20
-133.13283047163591
 30
0
 11
40.341383178856553
 21
-219.4155177257513
 31
0
  0
ARC
  5
7D
330
2B
100
AcDbEntity
  8
LaserCutting
100
AcDbCircle
 10
14.15028840013524
 20
9.9358357992375943
 30
0
 40
235.05
100
AcDbArc
 50
264.476286947175
 51
275.523713052825
  0
ARC
  5
7E
330
2B
100
AcDbEntity
  8
LaserCutting
100
AcDbCircle
 10
14.15028840013524
 20
9.9358357992375943
 30
0
 40
139.95
100
AcDbArc
 50
266.58524163449982
 51
273.41475836550029
  0
ARC
  5
7F
330
2B
100
AcDbEntity
  8
LaserCutting
100
AcDbCircle
 10
-22.099212886310792
 20
-129.37524113466571
 30
0
 40
4.0000000000000044
100
AcDbArc
 50
351.00022209385588
 51
75.41475836550002
  0
ARC
  5
80
330
2B
100
AcDbEntity
  8
LaserCutting
100
AcDbCircle
 10
-38.408245524243959
 20
-124.076115204096
 30
0
 40
4.0000000000000018
100
AcDbArc
 50
68.585241634499667
 51
152.99977790614369
  0
ARC
  5
81
330
2B
100
AcDbEntity
  8
LaserCutting
100
AcDbCircle
 10
-78.068369822620326
 20
-201.91274591797529
 30
0
 40
3.9999999999999991
100
AcDbArc
 50
152.99977790614369
 51
246.476286947175
  0
ARC
  5
82
330
2B
100
AcDbEntity
  8
LaserCutting
100
AcDbCircle
 10
-35.764721951655119
 20
-215.65803433375311
 30
0
 40
3.999999999999992
100
AcDbArc
 50
257.52371305282492
 51
351.00022209385588
  0
LINE
  5
83
330
2B
100
AcDbEntity
  8
LaserCutting
100
AcDbLine
 10
-41.972264581813413
 20
-122.2601393900274
 30
0
 11
-81.632388880189751
 21
-200.09677010390669
 31
0
  0
LINE
  5
84
330
2B
100
AcDbEntity
  8
LaserCutting
100
AcDbLine
 10
-18.148457098431621
 20
-130.0009636806391
 30
0
 11
-31.813966163775959
 21
-216.28375687972641
 31
0
  0
ARC
  5
85
330
2B
100
AcDbEntity
  8
LaserCutting
100
AcDbCircle
 10
14.15028840013524
 20
9.9358357992375943
 30
0
 40
235.05
100
AcDbArc
 50
246.476286947175
 51
257.52371305282492
  0
ARC
  5
86
330
2B
100
AcDbEntity
  8
LaserCutting
100
AcDbCircle
 10
14.15028840013524
 20
9.9358357992375943
 30
0
 40
139.95
100
AcDbArc
 50
248.5852416344996
 51
255.4147583655004
  0
ARC
  5
87
330
2B
100
AcDbEntity
  8
LaserCutting
100
AcDbCircle
 10
-63.374526288040691
 20
-111.35515977571831
 30
0
 40
4.0000000000000044
100
AcDbArc
 50
333.00022209385622
 51
57.4147583654998
  0
ARC
  5
88
330
2B
100
AcDbEntity
  8
LaserCutting
100
AcDbCircle
 10
-77.247818084938345
 20
-101.2756232818442
 30
0
 40
4.0000000000000018
100
AcDbArc
 50
50.585241634499958
 51
134.9997779061442
  0
ARC
  5
89
330
2B
100
AcDbEntity
  8
LaserCutting
100
AcDbCircle
 10
-139.0196794114606
 20
-163.04700572151751
 30
0
 40
3.9999999999999991
100
AcDbArc
 50
134.9997779061442
 51
228.47628694717471
  0
ARC
  5
8A
330
2B
100
AcDbEntity
  8
LaserCutting
100
AcDbCircle
 10
-103.034047153784
 20
-189.19209795388119
 30
0
 40
3.999999999999992
100
AcDbArc
 50
239.52371305282531
 51
333.00022209385622
  0
LINE
  5
8B
330
2B
100
AcDbEntity
  8
LaserCutting
100
AcDbLine
 10
-80.076234245918826
 20
-98.447185193374878
 30
0
 11
-141.84809557244111
 21
-160.21856763304811
 31
0
  0
LINE
  5
8C
330
2B
100
AcDbEntity
  8
LaserCutting
100
AcDbLine
 10
-59.810493152156738
 20
-113.1711079595389
 30
0
 11
-99.47001401790007
 21
-191.00804613770171
 31
0
  0
ARC
  5
8D
330
2B
100
AcDbEntity
  8
LaserCutting
100
AcDbCircle
 10
14.150288400135249
 20
9.9358357992375943
 30
0
 40
235.05
100
AcDbArc
 50
228.47628694717471
 51
239.52371305282531
  0
ARC
  5
8E
330
2B
100
AcDbEntity
  8
LaserCutting
100
AcDbCircle
 10
14.150288400135249
 20
9.9358357992375943
 30
0
 40
139.95
100
AcDbArc
 50
230.5852416345
 51
237.41475836549981
  0
ARC
  5
8F
330
2B
100
AcDbEntity
  8
LaserCutting
100
AcDbCircle
 10
-97.061170680946645
 20
-81.462270685835975
 30
0
 40
4.0000000000000027
100
AcDbArc
 50
315.00022209385583
 51
39.414758365500042
  0
ARC
  5
90
330
2B
100
AcDbEntity
  8
LaserCutting
100
AcDbCircle
 10
-107.1407071748207
 20
-67.588978888938314
 30
0
 40
4.0000000000000009
100
AcDbArc
 50
32.5852416345002
 51
116.99977790614371
  0
ARC
  5
91
330
2B
100
AcDbEntity
  8
LaserCutting
100
AcDbCircle
 10
-184.9776453529835
 20
-107.2484997546816
 30
0
 40
3.9999999999999991
100
AcDbArc
 50
116.99977790614371
 51
210.47628694717471
  0
ARC
  5
92
330
2B
100
AcDbEntity
  8
LaserCutting
100
AcDbCircle
 10
-158.83255312061991
 20
-143.2341320123582
 30
0
 40
3.999999999999992
100
AcDbArc
 50
221.52371305282469
 51
315.00022209385583
  0
LINE
  5
93
330
2B
100
AcDbEntity
  8
LaserCutting
100
AcDbLine
 10
-108.9566553586413
 20
-64.024945753054354
 30
0
 11
-186.79359353680411
 21
-103.6844666187977
 31
0
  0
LINE
  5
94
330
2B
100
AcDbEntity
  8
LaserCutting
100
AcDbLine
 10
-94.232732592477248
 20
-84.290686846816456
 30
0
 11
-156.00411503215051
 21
-146.06254817333871
 31
0
  0
ARC
  5
95
330
2B
100
AcDbEntity
  8
LaserCutting
100
AcDbCircle
 10
14.150288400135249
 20
9.9358357992375943
 30
0
 40
235.05
100
AcDbArc
 50
210.47628694717471
 51
221.52371305282469
  0
ARC
  5
96
330
2B
100
AcDbEntity
  8
LaserCutting
100
AcDbCircle
 10
14.150288400135249
 20
9.9358357992375943
 30
0
 40
139.9499999999999
100
AcDbArc
 50
212.58524163450019
 51
219.4147583655
  0
ARC
  5
97
330
2B
100
AcDbEntity
  8
LaserCutting
100
AcDbCircle
 10
-119.8616626031983
 20
-42.622698125141582
 30
0
 40
4.0000000000000044
100
AcDbArc
 50
297.00022209385628
 51
21.41475836550034
  0
ARC
  5
98
330
2B
100
AcDbEntity
  8
LaserCutting
100
AcDbCircle
 10
-125.1607885337681
 20
-26.3136654872084
 30
0
 40
4.0000000000000018
100
AcDbArc
 50
14.58524163449958
 51
98.9997779061441
  0
ARC
  5
99
330
2B
100
AcDbEntity
  8
LaserCutting
100
AcDbCircle
 10
-211.44358173285551
 20
-39.979174552552742
 30
0
 40
3.9999999999999991
100
AcDbArc
 50
98.9997779061441
 51
192.47628694717511
  0
ARC
  5
9A
330
2B
100
AcDbEntity
  8
LaserCutting
100
AcDbCircle
 10
-197.6982933170776
 20
-82.282822423517928
 30
0
 40
3.999999999999992
100
AcDbArc
 50
203.523713052825
 51
297.00022209385628
  0
LINE
  5
9B
330
2B
100
AcDbEntity
  8
LaserCutting
100
AcDbLine
 10
-125.7865110797415
 20
-22.36290969932924
 30
0
 11
-212.06930427882881
 21
-36.028418764673567
 31
0
  0
LINE
  5
9C
330
2B
100
AcDbEntity
  8
LaserCutting
100
AcDbLine
 10
-118.0456867891298
 20
-46.186717182711028
 30
0
 11
-195.882317503009
 21
-85.846841481087353
 31
0
  0
ARC
  5
9D
330
2B
100
AcDbEntity
  8
LaserCutting
100
AcDbCircle
 10
14.150288400135249
 20
9.9358357992376014
 30
0
 40
235.05
100
AcDbArc
 50
192.47628694717511
 51
203.523713052825
  0
ARC
  5
9E
330
2B
100
AcDbEntity
  8
LaserCutting
100
AcDbCircle
 10
14.150288400135249
 20
9.9358357992376014
 30
0
 40
139.95
100
AcDbArc
 50
194.58524163449951
 51
201.41475836550029
  0
ARC
  5
9F
330
2B
100
AcDbEntity
  8
LaserCutting
100
AcDbCircle
 10
-129.54413104507731
 20
1.361669932909755
 30
0
 40
4.0000000000000044
100
AcDbArc
 50
279.00022209385583
 51
3.4147583655001146
  0
ARC
  5
A0
330
2B
100
AcDbEntity
  8
LaserCutting
100
AcDbCircle
 10
-129.54413104507731
 20
18.510001665565468
 30
0
 40
4.0000000000000018
100
AcDbArc
 50
356.58524163449988
 51
80.999777906144146
  0
ARC
  5
A1
330
2B
100
AcDbEntity
  8
LaserCutting
100
AcDbCircle
 10
-215.82681829919281
 20
32.176179641136372
 30
0
 40
3.9999999999999991
100
AcDbArc
 50
80.999777906144146
 51
174.47628694717491
  0
ARC
  5
A2
330
2B
100
AcDbEntity
  8
LaserCutting
100
AcDbCircle
 10
-215.82681829919281
 20
-12.304508042661141
 30
0
 40
3.999999999999992
100
AcDbArc
 50
185.52371305282492
 51
279.00022209385583
  0
LINE
  5
A3
330
2B
100
AcDbEntity
  8
LaserCutting
100
AcDbLine
 10
-128.9183778707382
 20
22.460752602388052
 30
0
 11
-215.2010651248537
 21
36.126930577958937
 31
0
  0
LINE
  5
A4
330
2B
100
AcDbEntity
  8
LaserCutting
100
AcDbLine
 10
-128.9183778707382
 20
-2.589081003912832
 30
0
 11
-215.2010651248537
 21
-16.25525897948371
 31
0
  0
ARC
  5
A5
330
2B
100
AcDbEntity
  8
LaserCutting
100
AcDbCircle
 10
14.150288400135249
 20
9.9358357992376067
 30
0
 40
235.05
100
AcDbArc
 50
174.47628694717491
 51
185.52371305282492
  0
ARC
  5
A6
330
2B
100
AcDbEntity
  8
LaserCutting
100
AcDbCircle
 10
14.150288400135249
 20
9.9358357992376067
 30
0
 40
139.95
100
AcDbArc
 50
176.58524163449979
 51
183.41475836550029
  0
ARC
  5
A7
330
2B
100
AcDbEntity
  8
LaserCutting
100
AcDbCircle
 10
-125.1607885337681
 20
46.185337085683621
 30
0
 40
4.0000000000000027
100
AcDbArc
 50
261.00022209385583
 51
345.4147583655004
  0
ARC
  5
A8
330
2B
100
AcDbEntity
  8
LaserCutting
100
AcDbCircle
 10
-119.8616626031983
 20
62.4943697236168
 30
0
 40
4.0000000000000009
100
AcDbArc
 50
338.58524163449971
 51
62.999777906143919
  0
ARC
  5
A9
330
2B
100
AcDbEntity
  8
LaserCutting
100
AcDbCircle
 10
-197.6982933170776
 20
102.1544940219931
 30
0
 40
3.9999999999999991
100
AcDbArc
 50
62.999777906143919
 51
156.4762869471746
  0
ARC
  5
AA
330
2B
100
AcDbEntity
  8
LaserCutting
100
AcDbCircle
 10
-211.44358173285551
 20
59.850846151027952
 30
0
 40
3.999999999999992
100
AcDbArc
 50
167.52371305282449
 51
261.00022209385583
  0
LINE
  5
AB
330
2B
100
AcDbEntity
  8
LaserCutting
100
AcDbLine
 10
-118.0456867891298
 20
66.058388781186252
 30
0
 11
-195.882317503009
 21
105.7185130795625
 31
0
  0
LINE
  5
AC
330
2B
100
AcDbEntity
  8
LaserCutting
100
AcDbLine
 10
-125.7865110797415
 20
42.234581297804453
 30
0
 11
-212.0693042788287
 21
55.900090363148792
 31
0
  0
ARC
  5
AD
330
2B
100
AcDbEntity
  8
LaserCutting
100
AcDbCircle
 10
14.150288400135249
 20
9.9358357992376014
 30
0
 40
235.05
100
AcDbArc
 50
156.4762869471746
 51
167.52371305282449
  0
ARC
  5
AE
330
2B
100
AcDbEntity
  8
LaserCutting
100
AcDbCircle
 10
14.150288400135249
 20
9.9358357992376014
 30
0
 40
139.9499999999999
100
AcDbArc
 50
158.58524163449962
 51
165.4147583655004
  0
ARC
  5
AF
330
2B
100
AcDbEntity
  8
LaserCutting
100
AcDbCircle
 10
-107.14070717482061
 20
87.460650487413531
 30
0
 40
4.0000000000000044
100
AcDbArc
 50
243.00022209385619
 51
327.41475836549978
  0
ARC
  5
B0
330
2B
100
AcDbEntity
  8
LaserCutting
100
AcDbCircle
 10
-97.061170680946631
 20
101.33394228431121
 30
0
 40
4.0000000000000018
100
AcDbArc
 50
320.58524163449988
 51
44.999777906144217
  0
ARC
  5
B1
330
2B
100
AcDbEntity
  8
LaserCutting
100
AcDbCircle
 10
-158.83255312061991
 20
163.1058036108335
 30
0
 40
3.9999999999999991
100
AcDbArc
 50
44.999777906144217
 51
138.47628694717471
  0
ARC
  5
B2
330
2B
100
AcDbEntity
  8
LaserCutting
100
AcDbCircle
 10
-184.9776453529835
 20
127.12017135315681
 30
0
 40
3.999999999999992
100
AcDbArc
 50
149.52371305282529
 51
243.00022209385619
  0
LINE
  5
B3
330
2B
100
AcDbEntity
  8
LaserCutting
100
AcDbLine
 10
-94.2327325924772
 20
104.1623584452917
 30
0
 11
-156.00411503215051
 21
165.9342197718139
 31
0
  0
LINE
  5
B4
330
2B
100
AcDbEntity
  8
LaserCutting
100
AcDbLine
 10
-108.9566553586412
 20
83.896617351529585
 30
0
 11
-186.793593536804
 21
123.5561382172729
 31
0
  0
ARC
  5
B5
330
2B
100
AcDbEntity
  8
LaserCutting
100
AcDbCircle
 10
14.150288400135279
 20
9.9358357992376085
 30
0
 40
235.05
100
AcDbArc
 50
138.47628694717471
 51
149.52371305282529
  0
ARC
  5
B6
330
2B
100
AcDbEntity
  8
LaserCutting
100
AcDbCircle
 10
14.150288400135279
 20
9.9358357992376085
 30
0
 40
139.95
100
AcDbArc
 50
140.58524163449991
 51
147.41475836549981
  0
ARC
  5
B7
330
2B
100
AcDbEntity
  8
LaserCutting
100
AcDbCircle
 10
-77.2478180849383
 20
121.14729488031951
 30
0
 40
4.0000000000000044
100
AcDbArc
 50
225.0002220938558
 51
309.41475836550012
  0
ARC
  5
B8
330
2B
100
AcDbEntity
  8
LaserCutting
100
AcDbCircle
 10
-63.374526288040649
 20
131.22683137419349
 30
0
 40
4.0000000000000018
100
AcDbArc
 50
302.58524163450022
 51
26.99977790614377
  0
ARC
  5
B9
330
2B
100
AcDbEntity
  8
LaserCutting
100
AcDbCircle
 10
-103.034047153784
 20
209.0637695523564
 30
0
 40
3.9999999999999991
100
AcDbArc
 50
26.99977790614377
 51
120.47628694717471
  0
ARC
  5
BA
330
2B
100
AcDbEntity
  8
LaserCutting
100
AcDbCircle
 10
-139.0196794114606
 20
182.91867731999281
 30
0
 40
3.999999999999992
100
AcDbArc
 50
131.52371305282469
 51
225.0002220938558
  0
LINE
  5
BB
330
2B
100
AcDbEntity
  8
LaserCutting
100
AcDbLine
 10
-59.8104931521567
 20
133.0427795580141
 30
0
 11
-99.470014017900041
 21
210.8797177361769
 31
0
  0
LINE
  5
BC
330
2B
100
AcDbEntity
  8
LaserCutting
100
AcDbLine
 10
-80.0762342459188
 20
118.3188567918501
 30
0
 11
-141.848095572441
 21
180.0902392315233
 31
0
  0
ARC
  5
BD
330
2B
100
AcDbEntity
  8
LaserCutting
100
AcDbCircle
 10
14.150288400135279
 20
9.9358357992375943
 30
0
 40
235.05
100
AcDbArc
 50
120.47628694717471
 51
131.52371305282469
  0
ARC
  5
BE
330
2B
100
AcDbEntity
  8
LaserCutting
100
AcDbCircle
 10
14.150288400135279
 20
9.9358357992375943
 30
0
 40
139.95
100
AcDbArc
 50
122.58524163450022
 51
129.4147583655
  0
ARC
  5
BF
330
2B
100
AcDbEntity
  8
LaserCutting
100
AcDbCircle
 10
-38.408245524243917
 20
143.94778680257119
 30
0
 40
4.0000000000000027
100
AcDbArc
 50
207.00022209385634
 51
291.4147583655004
  0
ARC
  5
C0
330
2B
100
AcDbEntity
  8
LaserCutting
100
AcDbCircle
 10
-22.099212886310749
 20
149.246912733141
 30
0
 40
4.0000000000000009
100
AcDbArc
 50
284.5852416344996
 51
8.9997779061441054
  0
ARC
  5
C1
330
2B
100
AcDbEntity
  8
LaserCutting
100
AcDbCircle
 10
-35.764721951655083
 20
235.52970593222841
 30
0
 40
3.9999999999999991
100
AcDbArc
 50
8.9997779061441054
 51
102.4762869471751
  0
ARC
  5
C2
330
2B
100
AcDbEntity
  8
LaserCutting
100
AcDbCircle
 10
-78.0683698226203
 20
221.7844175164505
 30
0
 40
3.999999999999992
100
AcDbArc
 50
113.523713052825
 51
207.00022209385634
  0
LINE
  5
C3
330
2B
100
AcDbEntity
  8
LaserCutting
100
AcDbLine
 10
-18.148457098431589
 20
149.87263527911429
 30
0
 11
-31.81396616377592
 21
236.1554284782016
 31
0
  0
LINE
  5
C4
330
2B
100
AcDbEntity
  8
LaserCutting
100
AcDbLine
 10
-41.97226458181337
 20
142.13181098850259
 30
0
 11
-81.632388880189708
 21
219.96844170238191
 31
0
  0
ARC
  5
C5
330
2B
100
AcDbEntity
  8
LaserCutting
100
AcDbCircle
 10
14.15028840013526
 20
9.9358357992376227
 30
0
 40
235.05
100
AcDbArc
 50
102.4762869471751
 51
113.523713052825
  0
ARC
  5
C6
330
2B
100
AcDbEntity
  8
LaserCutting
100
AcDbCircle
 10
14.15028840013526
 20
9.9358357992376227
 30
0
 40
139.9499999999999
100
AcDbArc
 50
104.5852416344996
 51
111.41475836550032
  0
ARC
  5
C7
330
2B
100
AcDbEntity
  8
LaserCutting
100
AcDbCircle
 10
5.5761225338074007
 20
153.63025524445021
 30
0
 40
4.0000000000000044
100
AcDbArc
 50
189.0002220938558
 51
273.41475836550012
  0
ARC
  5
C8
330
2B
100
AcDbEntity
  8
LaserCutting
100
AcDbCircle
 10
22.72445426646312
 20
153.63025524445021
 30
0
 40
4.0000000000000018
100
AcDbArc
 50
266.58524163449988
 51
350.99977790614417
  0
ARC
  5
C9
330
2B
100
AcDbEntity
  8
LaserCutting
100
AcDbCircle
 10
36.390632242034023
 20
239.91294249856571
 30
0
 40
3.9999999999999991
100
AcDbArc
 50
350.99977790614417
 51
84.476286947174955
  0
ARC
  5
CA
330
2B
100
AcDbEntity
  8
LaserCutting
100
AcDbCircle
 10
-8.0900554417635036
 20
239.91294249856571
 30
0
 40
3.999999999999992
100
AcDbArc
 50
95.523713052824945
 51
189.0002220938558
  0
LINE
  5
CB
330
2B
100
AcDbEntity
  8
LaserCutting
100
AcDbLine
 10
26.67520520328571
 20
153.0045020701111
 30
0
 11
40.341383178856582
 21
239.28718932422649
 31
0
  0
LINE
  5
CC
330
2B
100
AcDbEntity
  8
LaserCutting
100
AcDbLine
 10
1.625371596984813
 20
153.0045020701111
 30
0
 11
-12.040806378586071
 21
239.28718932422649
 31
0
  0
ARC
  5
CD
330
2B
100
AcDbEntity
  8
LaserCutting
100
AcDbCircle
 10
14.15028840013526
 20
9.9358357992375943
 30
0
 40
235.05
100
AcDbArc
 50
84.476286947174955
 51
95.523713052824945
  0
ARC
  5
CE
330
2B
100
AcDbEntity
  8
LaserCutting
100
AcDbCircle
 10
14.15028840013526
 20
9.9358357992375943
 30
0
 40
139.95
100
AcDbArc
 50
86.5852416344998
 51
93.414758365500319
  0
ARC
  5
CF
330
2B
100
AcDbEntity
  8
LaserCutting
100
AcDbCircle
 10
20.7002884001353
 20
128.09900611215781
 30
0
 40
0.49999999999995393
100
AcDbArc
 50
0
 51
72.2628217381907
  0
ARC
  5
D0
330
2B
100
AcDbEntity
  8
LaserCutting
100
AcDbCircle
 10
7.6002884001352093
 20
128.09900611215781
 30
0
 40
0.499999999999953
100
AcDbArc
 50
107.73717826180911
 51
180
  0
ARC
  5
D1
330
2B
100
AcDbEntity
  8
LaserCutting
100
AcDbCircle
 10
14.150288400135249
 20
107.6210301379556
 30
0
 40
22
100
AcDbArc
 50
72.262821738186048
 51
107.7371782618139
  0
LINE
  5
D2
330
2B
100
AcDbEntity
  8
LaserCutting
100
AcDbLine
 10
7.1002884001352564
 20
124.7445816551174
 30
0
 11
7.1002884001352564
 21
128.09900611215781
 31
0
  0
LINE
  5
D3
330
2B
100
AcDbEntity
  8
LaserCutting
100
AcDbLine
 10
21.200288400135261
 20
124.7445816551174
 30
0
 11
21.200288400135261
 21
128.09900611215781
 31
0
  0
ARC
  5
D4
330
2B
100
AcDbEntity
  8
LaserCutting
100
AcDbCircle
 10
56.68682739684013
 20
278.71578013136548
 30
0
 40
6.9999999999999218
100
AcDbArc
 50
173.2499999999992
 51
261.00707513423163
  0
ARC
  5
D5
330
2B
100
AcDbEntity
  8
LaserCutting
100
AcDbCircle
 10
35.534469263700323
 20
281.21932669721753
 30
0
 40
6.9999999999999627
100
AcDbArc
 50
265.49292486576849
 51
353.2499999999992
  0
ARC
  5
D6
330
2B
100
AcDbEntity
  8
LaserCutting
100
AcDbCircle
 10
50.453609005674167
 20
311.13088811253749
 30
0
 40
3.0000000000000759
100
AcDbArc
 50
353.2500000000025
 51
83.127240098300874
  0
ARC
  5
D7
330
2B
100
AcDbEntity
  8
LaserCutting
100
AcDbCircle
 10
49.162620011633
 20
311.28368672923261
 30
0
 40
3.0000000000001652
100
AcDbArc
 50
83.372759901700888
 51
173.24999999999591
  0
LINE
  5
D8
330
2B
100
AcDbEntity
  8
LaserCutting
100
AcDbLine
 10
49.735348198155727
 20
279.53854191357038
 30
0
 11
53.432814376539042
 21
310.778275920164
 31
0
  0
LINE
  5
D9
330
2B
100
AcDbEntity
  8
LaserCutting
100
AcDbLine
 10
42.485948462384769
 20
280.39656491501262
 30
0
 11
46.183414640768078
 21
311.63629892160623
 31
0
  0
ARC
  5
DA
330
2B
100
AcDbEntity
  8
LaserCutting
100
AcDbCircle
 10
14.1502884001351
 20
9.9358357992376227
 30
0
 40
306.375
100
AcDbArc
 50
83.127240098302508
 51
83.372759901697265
  0
ARC
  5
DB
330
2B
100
AcDbEntity
  8
LaserCutting
100
AcDbCircle
 10
77.643932825044871
 20
274.5498428786874
 30
0
 40
6.9999999999999218
100
AcDbArc
 50
168.7499999999992
 51
256.5070751342322
  0
ARC
  5
DC
330
2B
100
AcDbEntity
  8
LaserCutting
100
AcDbCircle
 10
56.753206352456182
 20
278.705266737631
 30
0
 40
6.9999999999999627
100
AcDbArc
 50
260.99292486576832
 51
348.74999999999915
  0
ARC
  5
DD
330
2B
100
AcDbEntity
  8
LaserCutting
100
AcDbCircle
 10
73.973189426070618
 20
307.3540785783938
 30
0
 40
3.0000000000000759
100
AcDbArc
 50
348.75000000000261
 51
78.62724009830076
  0
ARC
  5
DE
330
2B
100
AcDbEntity
  8
LaserCutting
100
AcDbCircle
 10
72.698168561546652
 20
307.60769599701467
 30
0
 40
3.0000000000001652
100
AcDbArc
 50
78.872759901700377
 51
168.74999999999591
  0
LINE
  5
DF
330
2B
100
AcDbEntity
  8
LaserCutting
100
AcDbLine
 10
70.778435862222352
 20
275.9154751328004
 30
0
 11
76.9155452672804
 21
306.76880761234548
 31
0
  0
LINE
  5
E0
330
2B
100
AcDbEntity
  8
LaserCutting
100
AcDbLine
 10
63.618703315278772
 20
277.33963448351813
 30
0
 11
69.755812720336834
 21
308.19296696306333
 31
0
  0
ARC
  5
E1
330
2B
100
AcDbEntity
  8
LaserCutting
100
AcDbCircle
 10
14.150288400135089
 20
9.9358357992376227
 30
0
 40
306.375
100
AcDbArc
 50
78.627240098302352
 51
78.8727599016972
  0
ARC
  5
E2
330
2B
100
AcDbEntity
  8
LaserCutting
100
AcDbCircle
 10
98.209578821590284
 20
268.75247227927809
 30
0
 40
6.9999999999999218
100
AcDbArc
 50
164.25000000000119
 51
252.0070751342318
  0
ARC
  5
E3
330
2B
100
AcDbEntity
  8
LaserCutting
100
AcDbCircle
 10
77.709282285127713
 20
274.53415386140421
 30
0
 40
6.9999999999999627
100
AcDbArc
 50
256.4929248657682
 51
344.25000000000119
  0
ARC
  5
E4
330
2B
100
AcDbEntity
  8
LaserCutting
100
AcDbCircle
 10
97.123941768508416
 20
301.743586675915
 30
0
 40
3.0000000000000759
100
AcDbArc
 50
344.2500000000046
 51
74.1272400983012
  0
ARC
  5
E5
330
2B
100
AcDbEntity
  8
LaserCutting
100
AcDbCircle
 10
95.872749961118885
 20
302.09645926073949
 30
0
 40
3.0000000000001652
100
AcDbArc
 50
74.37275990170059
 51
164.24999999999781
  0
LINE
  5
E6
330
2B
100
AcDbEntity
  8
LaserCutting
100
AcDbLine
 10
91.472392166414849
 20
270.6525554283337
 30
0
 11
100.01130747786939
 21
300.92926532631981
 31
0
  0
LINE
  5
E7
330
2B
100
AcDbEntity
  8
LaserCutting
100
AcDbLine
 10
84.44646894030322
 20
272.63407071234872
 30
0
 11
92.985384251757836
 21
302.910780610335
 31
0
  0
ARC
  5
E8
330
2B
100
AcDbEntity
  8
LaserCutting
100
AcDbCircle
 10
14.150288400135089
 20
9.9358357992376227
 30
0
 40
306.375
100
AcDbArc
 50
74.127240098302764
 51
74.372759901697435
  0
ARC
  5
E9
330
2B
100
AcDbEntity
  8
LaserCutting
100
AcDbCircle
 10
118.2569713401373
 20
261.35941105070418
 30
0
 40
6.9999999999999218
100
AcDbArc
 50
159.75
 51
247.5070751342316
  0
ARC
  5
EA
330
2B
100
AcDbEntity
  8
LaserCutting
100
AcDbCircle
 10
98.273495884988563
 20
268.73170436645478
 30
0
 40
6.9999999999999627
100
AcDbArc
 50
251.99292486576871
 51
339.75
  0
ARC
  5
EB
330
2B
100
AcDbEntity
  8
LaserCutting
100
AcDbCircle
 10
119.76313394639109
 20
294.33400295335741
 30
0
 40
3.0000000000000759
100
AcDbArc
 50
339.75000000000358
 51
69.627240098300433
  0
ARC
  5
EC
330
2B
100
AcDbEntity
  8
LaserCutting
100
AcDbCircle
 10
118.54348520969209
 20
294.783955127558
 30
0
 40
3.0000000000001652
100
AcDbArc
 50
69.872759901701215
 51
159.74999999999659
  0
LINE
  5
ED
330
2B
100
AcDbEntity
  8
LaserCutting
100
AcDbLine
 10
111.68963198868
 20
263.78223045024657
 30
0
 11
122.5777079541586
 21
293.29565178212511
 31
0
  0
LINE
  5
EE
330
2B
100
AcDbEntity
  8
LaserCutting
100
AcDbLine
 10
104.8408352364459
 20
266.30888496691227
 30
0
 11
115.7289112019245
 21
295.82230629879081
 31
0
  0
ARC
  5
EF
330
2B
100
AcDbEntity
  8
LaserCutting
100
AcDbCircle
 10
14.150288400135119
 20
9.93583579923768
 30
0
 40
306.375
100
AcDbArc
 50
69.627240098303091
 51
69.872759901697023
  0
ARC
  5
F0
330
2B
100
AcDbEntity
  8
LaserCutting
100
AcDbCircle
 10
137.66251153937421
 20
252.416239873882
 30
0
 40
6.9999999999999218
100
AcDbArc
 50
155.24999999999969
 51
243.00707513423154
  0
ARC
  5
F1
330
2B
100
AcDbEntity
  8
LaserCutting
100
AcDbCircle
 10
118.3190619369001
 20
261.33369228342917
 30
0
 40
6.9999999999999627
100
AcDbArc
 50
247.4929248657684
 51
335.24999999999977
  0
ARC
  5
F2
330
2B
100
AcDbEntity
  8
LaserCutting
100
AcDbCircle
 10
141.7511878116461
 20
285.17100995830731
 30
0
 40
3.0000000000000759
100
AcDbArc
 50
335.25000000000279
 51
65.127240098300945
  0
ARC
  5
F3
330
2B
100
AcDbEntity
  8
LaserCutting
100
AcDbCircle
 10
140.57060168567369
 20
285.71526761710578
 30
0
 40
3.0000000000001652
100
AcDbArc
 50
65.372759901700249
 51
155.24999999999611
  0
LINE
  5
F4
330
2B
100
AcDbEntity
  8
LaserCutting
100
AcDbLine
 10
131.30550932259871
 20
255.346858036644
 30
0
 11
144.47561733312151
 21
283.91503074569522
 31
0
  0
LINE
  5
F5
330
2B
100
AcDbEntity
  8
LaserCutting
100
AcDbLine
 10
124.6760641536756
 20
258.40307412066733
 30
0
 11
137.84617216419841
 21
286.97124682971838
 31
0
  0
ARC
  5
F6
330
2B
100
AcDbEntity
  8
LaserCutting
100
AcDbCircle
 10
14.150288400135119
 20
9.93583579923768
 30
0
 40
306.375
100
AcDbArc
 50
65.127240098302423
 51
65.3727599016973
  0
ARC
  5
F7
330
2B
100
AcDbEntity
  8
LaserCutting
100
AcDbCircle
 10
156.30655781097559
 20
241.978096373023
 30
0
 40
6.9999999999999218
100
AcDbArc
 50
150.7500000000002
 51
238.50707513423023
  0
ARC
  5
F8
330
2B
100
AcDbEntity
  8
LaserCutting
100
AcDbCircle
 10
137.72239286032519
 20
252.3857288169082
 30
0
 40
6.9999999999999627
100
AcDbArc
 50
242.99292486576871
 51
330.74999999999949
  0
ARC
  5
F9
330
2B
100
AcDbEntity
  8
LaserCutting
100
AcDbCircle
 10
162.9525397004243
 20
274.3111005895837
 30
0
 40
3.0000000000000759
100
AcDbArc
 50
330.75000000000313
 51
60.627240098301755
  0
ARC
  5
FA
330
2B
100
AcDbEntity
  8
LaserCutting
100
AcDbCircle
 10
161.8182948912299
 20
274.9463082035295
 30
0
 40
3.0000000000001652
100
AcDbArc
 50
60.872759901700618
 51
150.74999999999659
  0
LINE
  5
FB
330
2B
100
AcDbEntity
  8
LaserCutting
100
AcDbLine
 10
150.19908576146611
 20
245.3984450635017
 30
0
 11
165.5700277216429
 21
272.84523686509277
 31
0
  0
LINE
  5
FC
330
2B
100
AcDbEntity
  8
LaserCutting
100
AcDbLine
 10
143.8298649098347
 20
248.96538012642949
 30
0
 11
159.20080687001149
 21
276.4121719280206
 31
0
  0
ARC
  5
FD
330
2B
100
AcDbEntity
  8
LaserCutting
100
AcDbCircle
 10
14.150288400135141
 20
9.93583579923768
 30
0
 40
306.375
100
AcDbArc
 50
60.627240098301755
 51
60.8727599016978
  0
ARC
  5
FE
330
2B
100
AcDbEntity
  8
LaserCutting
100
AcDbCircle
 10
174.0741634099023
 20
230.1093351738453
 30
0
 40
6.999999999999921
100
AcDbArc
 50
146.25
 51
234.0070751342318
  0
ARC
  5
FF
330
2B
100
AcDbEntity
  8
LaserCutting
100
AcDbCircle
 10
156.36386066785821
 20
241.9429811371628
 30
0
 40
6.9999999999999618
100
AcDbArc
 50
238.4929248657692
 51
326.25
  0
ARC
  5
100
330
2B
100
AcDbEntity
  8
LaserCutting
100
AcDbCircle
 10
183.23647622816611
 20
261.8212297997311
 30
0
 40
3.0000000000000751
100
AcDbArc
 50
326.25000000000369
 51
56.127240098301684
  0
ARC
  5
101
330
2B
100
AcDbEntity
  8
LaserCutting
100
AcDbCircle
 10
182.155565732173
 20
262.54347110265633
 30
0
 40
3.0000000000001652
100
AcDbArc
 50
56.372759901699681
 51
146.24999999999781
  0
LINE
  5
102
330
2B
100
AcDbEntity
  8
LaserCutting
100
AcDbLine
 10
168.25387612378461
 20
233.9983268049825
 30
0
 11
185.73088506507389
 21
260.1545191006723
 31
0
  0
LINE
  5
103
330
2B
100
AcDbEntity
  8
LaserCutting
100
AcDbLine
 10
162.184147953976
 20
238.0539895060256
 30
0
 11
179.66115689526529
 21
264.21018180171541
 31
0
  0
ARC
  5
104
330
2B
100
AcDbEntity
  8
LaserCutting
100
AcDbCircle
 10
14.150288400135141
 20
9.93583579923768
 30
0
 40
306.37499999999989
100
AcDbArc
 50
56.127240098301684
 51
56.372759901697442
  0
ARC
  5
105
330
2B
100
AcDbEntity
  8
LaserCutting
100
AcDbCircle
 10
190.85578513930929
 20
216.8831311359047
 30
0
 40
6.9999999999999218
100
AcDbArc
 50
141.74999999999989
 51
229.50707513423109
  0
ARC
  5
106
330
2B
100
AcDbEntity
  8
LaserCutting
100
AcDbCircle
 10
174.1285345115495
 20
230.06983225620411
 30
0
 40
6.9999999999999627
100
AcDbArc
 50
233.99292486576772
 51
321.74999999999989
  0
ARC
  5
107
330
2B
100
AcDbEntity
  8
LaserCutting
100
AcDbCircle
 10
202.47794018108539
 20
247.778401795472
 30
0
 40
3.0000000000000759
100
AcDbArc
 50
321.75000000000352
 51
51.627240098301122
  0
ARC
  5
108
330
2B
100
AcDbEntity
  8
LaserCutting
100
AcDbCircle
 10
201.45702817094059
 20
248.58322392957459
 30
0
 40
3.0000000000001652
100
AcDbArc
 50
51.872759901699808
 51
141.74999999999659
  0
LINE
  5
109
330
2B
100
AcDbEntity
  8
LaserCutting
100
AcDbLine
 10
185.35856662314421
 20
221.21678878107349
 30
0
 11
204.83389097372779
 21
245.92111994754259
 31
0
  0
LINE
  5
10A
330
2B
100
AcDbEntity
  8
LaserCutting
100
AcDbLine
 10
179.62575302771481
 20
225.7361746110353
 30
0
 11
199.1010773782983
 21
250.4405057775044
 31
0
  0
ARC
  5
10B
330
2B
100
AcDbEntity
  8
LaserCutting
100
AcDbCircle
 10
14.150288400135111
 20
9.9358357992376511
 30
0
 40
306.375
100
AcDbArc
 50
51.6272400983034
 51
51.87275990169752
  0
ARC
  5
10C
330
2B
100
AcDbEntity
  8
LaserCutting
100
AcDbCircle
 10
206.54795872077889
 20
202.38102820525461
 30
0
 40
6.999999999999921
100
AcDbArc
 50
137.24999999999952
 51
225.00707513423154
  0
ARC
  5
10D
330
2B
100
AcDbEntity
  8
LaserCutting
100
AcDbCircle
 10
190.90688926979891
 20
216.83948408510631
 30
0
 40
6.9999999999999618
100
AcDbArc
 50
229.49292486576798
 51
317.24999999999949
  0
ARC
  5
10E
330
2B
100
AcDbEntity
  8
LaserCutting
100
AcDbCircle
 10
220.558301535476
 20
232.26919528116721
 30
0
 40
3.0000000000000751
100
AcDbArc
 50
317.250000000003
 51
47.127240098301868
  0
ARC
  5
10F
330
2B
100
AcDbEntity
  8
LaserCutting
100
AcDbCircle
 10
219.60368227320981
 20
233.1516362503599
 30
0
 40
3.0000000000001652
100
AcDbArc
 50
47.372759901700853
 51
137.24999999999719
  0
LINE
  5
110
330
2B
100
AcDbEntity
  8
LaserCutting
100
AcDbLine
 10
201.40770115472921
 20
207.1326334239852
 30
0
 11
222.7612690637832
 21
230.23279304456841
 31
0
  0
LINE
  5
111
330
2B
100
AcDbEntity
  8
LaserCutting
100
AcDbLine
 10
196.04714683584871
 20
212.08787886637569
 30
0
 11
217.4007147449027
 21
235.1880384869589
 31
0
  0
ARC
  5
112
330
2B
100
AcDbEntity
  8
LaserCutting
100
AcDbCircle
 10
14.150288400135169
 20
9.9358357992377364
 30
0
 40
306.37499999999989
100
AcDbArc
 50
47.127240098301868
 51
47.372759901697357
  0
ARC
  5
113
330
2B
100
AcDbEntity
  8
LaserCutting
100
AcDbCircle
 10
221.05393668600391
 20
186.692436668901
 30
0
 40
6.9999999999999218
100
AcDbArc
 50
132.75000000000051
 51
220.50707513423202
  0
ARC
  5
114
330
2B
100
AcDbEntity
  8
LaserCutting
100
AcDbCircle
 10
206.59548080615241
 20
202.33350611988109
 30
0
 40
6.9999999999999627
100
AcDbArc
 50
224.99292486576843
 51
312.75000000000051
  0
ARC
  5
115
330
2B
100
AcDbEntity
  8
LaserCutting
100
AcDbCircle
 10
237.36608885125781
 20
215.3892296723119
 30
0
 40
3.0000000000000759
100
AcDbArc
 50
312.75000000000279
 51
42.627240098300341
  0
ARC
  5
116
330
2B
100
AcDbEntity
  8
LaserCutting
100
AcDbCircle
 10
236.4836478820651
 20
216.343848934578
 30
0
 40
3.0000000000001652
100
AcDbArc
 50
42.872759901700427
 51
132.749999999997
  0
LINE
  5
117
330
2B
100
AcDbEntity
  8
LaserCutting
100
AcDbLine
 10
216.3023314672734
 20
191.83269423495079
 30
0
 11
239.40249108785679
 21
213.18626214400479
 31
0
  0
LINE
  5
118
330
2B
100
AcDbEntity
  8
LaserCutting
100
AcDbLine
 10
211.347086024883
 20
197.1932485538313
 30
0
 11
234.4472456454663
 21
218.54681646288529
 31
0
  0
ARC
  5
119
330
2B
100
AcDbEntity
  8
LaserCutting
100
AcDbCircle
 10
14.150288400135141
 20
9.9358357992376511
 30
0
 40
306.375
100
AcDbArc
 50
42.627240098302643
 51
42.872759901698117
  0
ARC
  5
11A
330
2B
100
AcDbEntity
  8
LaserCutting
100
AcDbCircle
 10
234.2842848571016
 20
169.9140819106521
 30
0
 40
6.9999999999999218
100
AcDbArc
 50
128.25000000000011
 51
216.00707513423231
  0
ARC
  5
11B
330
2B
100
AcDbEntity
  8
LaserCutting
100
AcDbCircle
 10
221.09758373680219
 20
186.64133253841189
 30
0
 40
6.9999999999999627
100
AcDbArc
 50
220.49292486576891
 51
308.25
  0
ARC
  5
11C
330
2B
100
AcDbEntity
  8
LaserCutting
100
AcDbCircle
 10
252.79767653047219
 20
197.2425755700431
 30
0
 40
3.0000000000000759
100
AcDbArc
 50
308.25000000000341
 51
38.127240098300192
  0
ARC
  5
11D
330
2B
100
AcDbEntity
  8
LaserCutting
100
AcDbCircle
 10
251.99285439636961
 20
198.2634875801879
 30
0
 40
3.0000000000001652
100
AcDbArc
 50
38.372759901701173
 51
128.2499999999965
  0
LINE
  5
11E
330
2B
100
AcDbEntity
  8
LaserCutting
100
AcDbLine
 10
229.95062721193281
 20
175.41130042681729
 30
0
 11
254.65495837840189
 21
194.8866247774009
 31
0
  0
LINE
  5
11F
330
2B
100
AcDbEntity
  8
LaserCutting
100
AcDbLine
 10
225.431241381971
 20
181.1441140222467
 30
0
 11
250.13557254844011
 21
200.6194383728303
 31
0
  0
ARC
  5
120
330
2B
100
AcDbEntity
  8
LaserCutting
100
AcDbCircle
 10
14.150288400135141
 20
9.93583579923768
 30
0
 40
306.375
100
AcDbArc
 50
38.12724009830248
 51
38.3727599016966
  0
ARC
  5
121
330
2B
100
AcDbEntity
  8
LaserCutting
100
AcDbCircle
 10
246.15743373806021
 20
152.1494080669608
 30
0
 40
6.9999999999999218
100
AcDbArc
 50
123.74999999999991
 51
211.5070751342308
  0
ARC
  5
122
330
2B
100
AcDbEntity
  8
LaserCutting
100
AcDbCircle
 10
234.32378777474281
 20
169.85971080900489
 30
0
 40
6.9999999999999627
100
AcDbArc
 50
215.9929248657682
 51
303.75
  0
ARC
  5
123
330
2B
100
AcDbEntity
  8
LaserCutting
100
AcDbCircle
 10
266.757923703554
 20
177.9411131312755
 30
0
 40
3.0000000000000759
100
AcDbArc
 50
303.75000000000222
 51
33.627240098300312
  0
ARC
  5
124
330
2B
100
AcDbEntity
  8
LaserCutting
100
AcDbCircle
 10
266.03568240062862
 20
179.0220236272686
 30
0
 40
3.0000000000001652
100
AcDbArc
 50
33.872759901700583
 51
123.74999999999629
  0
LINE
  5
125
330
2B
100
AcDbEntity
  8
LaserCutting
100
AcDbLine
 10
242.26844210692309
 20
157.96969535307861
 30
0
 11
268.42463440261292
 21
175.44670429436781
 31
0
  0
LINE
  5
126
330
2B
100
AcDbEntity
  8
LaserCutting
100
AcDbLine
 10
238.21277940588
 20
164.0394235228872
 30
0
 11
264.36897170156982
 21
181.5164324641764
 31
0
  0
ARC
  5
127
330
2B
100
AcDbEntity
  8
LaserCutting
100
AcDbCircle
 10
14.150288400135169
 20
9.9358357992377062
 30
0
 40
306.375
100
AcDbArc
 50
33.627240098302572
 51
33.872759901698323
  0
ARC
  5
128
330
2B
100
AcDbEntity
  8
LaserCutting
100
AcDbCircle
 10
256.60018141780591
 20
133.5079402594273
 30
0
 40
6.9999999999999218
100
AcDbArc
 50
119.2500000000005
 51
207.00707513423131
  0
ARC
  5
129
330
2B
100
AcDbEntity
  8
LaserCutting
100
AcDbCircle
 10
246.19254897392079
 20
152.09210521007779
 30
0
 40
6.9999999999999627
100
AcDbArc
 50
211.49292486576971
 51
299.25000000000051
  0
ARC
  5
12A
330
2B
100
AcDbEntity
  8
LaserCutting
100
AcDbCircle
 10
279.1607608044273
 20
157.603842290332
 30
0
 40
3.0000000000000759
100
AcDbArc
 50
299.25000000000409
 51
29.127240098300796
  0
ARC
  5
12B
330
2B
100
AcDbEntity
  8
LaserCutting
100
AcDbCircle
 10
278.52555319048128
 20
158.73808709952641
 30
0
 40
3.0000000000001652
100
AcDbArc
 50
29.372759901699663
 51
119.2499999999969
  0
LINE
  5
12C
330
2B
100
AcDbEntity
  8
LaserCutting
100
AcDbLine
 10
253.17983272732721
 20
139.6154123089369
 30
0
 11
280.62662452891828
 21
154.98635426911349
 31
0
  0
LINE
  5
12D
330
2B
100
AcDbEntity
  8
LaserCutting
100
AcDbLine
 10
249.61289766439941
 20
145.98463316056831
 30
0
 11
277.05968946599057
 21
161.355575120745
 31
0
  0
ARC
  5
12E
330
2B
100
AcDbEntity
  8
LaserCutting
100
AcDbCircle
 10
14.150288400135141
 20
9.93583579923768
 30
0
 40
306.375
100
AcDbArc
 50
29.12724009830222
 51
29.372759901698242
  0
ARC
  5
12F
330
2B
100
AcDbEntity
  8
LaserCutting
100
AcDbCircle
 10
265.54814488432692
 20
114.1046093360022
 30
0
 40
6.9999999999999218
100
AcDbArc
 50
114.75000000000091
 51
202.50707513423154
  0
ARC
  5
130
330
2B
100
AcDbEntity
  8
LaserCutting
100
AcDbCircle
 10
256.63069247477978
 20
133.44805893847629
 30
0
 40
6.9999999999999627
100
AcDbArc
 50
206.99292486576849
 51
294.75000000000091
  0
ARC
  5
131
330
2B
100
AcDbEntity
  8
LaserCutting
100
AcDbCircle
 10
289.92972021800369
 20
136.35614908477569
 30
0
 40
3.0000000000000759
100
AcDbArc
 50
294.75000000000392
 51
24.627240098301229
  0
ARC
  5
132
330
2B
100
AcDbEntity
  8
LaserCutting
100
AcDbCircle
 10
289.38546255920511
 20
137.53673521074811
 30
0
 40
3.0000000000001652
100
AcDbArc
 50
24.87275990170043
 51
114.74999999999721
  0
LINE
  5
133
330
2B
100
AcDbEntity
  8
LaserCutting
100
AcDbLine
 10
262.617526721565
 20
120.4616115527777
 30
0
 11
291.18569943061613
 21
133.63171956330041
 31
0
  0
LINE
  5
134
330
2B
100
AcDbEntity
  8
LaserCutting
100
AcDbLine
 10
259.56131063754179
 20
127.0910567217008
 30
0
 11
288.12948334659291
 21
140.26116473222351
 31
0
  0
ARC
  5
135
330
2B
100
AcDbEntity
  8
LaserCutting
100
AcDbCircle
 10
14.150288400135191
 20
9.9358357992377222
 30
0
 40
306.375
100
AcDbArc
 50
24.627240098301229
 51
24.872759901697581
  0
ARC
  5
136
330
2B
100
AcDbEntity
  8
LaserCutting
100
AcDbCircle
 10
272.94615696735218
 20
94.059043284091146
 30
0
 40
6.999999999999921
100
AcDbArc
 50
110.25
 51
198.007075134232
  0
ARC
  5
137
330
2B
100
AcDbEntity
  8
LaserCutting
100
AcDbCircle
 10
265.5738636516017
 20
114.0425187392399
 30
0
 40
6.9999999999999618
100
AcDbArc
 50
202.49292486576829
 51
290.25
  0
ARC
  5
138
330
2B
100
AcDbEntity
  8
LaserCutting
100
AcDbCircle
 10
298.99840772845567
 20
114.32903260879451
 30
0
 40
3.0000000000000751
100
AcDbArc
 50
290.2500000000033
 51
20.127240098300319
  0
ARC
  5
139
330
2B
100
AcDbEntity
  8
LaserCutting
100
AcDbCircle
 10
298.548455554255
 20
115.54868134549351
 30
0
 40
3.0000000000001652
100
AcDbArc
 50
20.3727599017011
 51
110.2499999999966
  0
LINE
  5
13A
330
2B
100
AcDbEntity
  8
LaserCutting
100
AcDbLine
 10
270.5233375678099
 20
100.6263826355485
 30
0
 11
300.03675889968832
 21
111.5144586010271
 31
0
  0
LINE
  5
13B
330
2B
100
AcDbEntity
  8
LaserCutting
100
AcDbLine
 10
267.9966830511442
 20
107.4751793877826
 30
0
 11
297.51010438302262
 21
118.3632553532612
 31
0
  0
ARC
  5
13C
330
2B
100
AcDbEntity
  8
LaserCutting
100
AcDbCircle
 10
14.150288400135191
 20
9.9358357992377062
 30
0
 40
306.37499999999989
100
AcDbArc
 50
20.127240098302959
 51
20.372759901696909
  0
ARC
  5
13D
330
2B
100
AcDbEntity
  8
LaserCutting
100
AcDbCircle
 10
278.74860646230178
 20
73.494829684230339
 30
0
 40
6.9999999999999218
100
AcDbArc
 50
105.74999999999881
 51
193.5070751342318
  0
ARC
  5
13E
330
2B
100
AcDbEntity
  8
LaserCutting
100
AcDbCircle
 10
272.96692488017578
 20
93.995126220692924
 30
0
 40
6.9999999999999627
100
AcDbArc
 50
197.9929248657682
 51
285.74999999999881
  0
ARC
  5
13F
330
2B
100
AcDbEntity
  8
LaserCutting
100
AcDbCircle
 10
306.31091186163718
 20
91.6582973602214
 30
0
 40
3.0000000000000759
100
AcDbArc
 50
285.75000000000222
 51
15.627240098300991
  0
ARC
  5
140
330
2B
100
AcDbEntity
  8
LaserCutting
100
AcDbCircle
 10
305.9580392768126
 20
92.909489167610886
 30
0
 40
3.0000000000001652
100
AcDbArc
 50
15.87275990170037
 51
105.7499999999955
  0
LINE
  5
141
330
2B
100
AcDbEntity
  8
LaserCutting
100
AcDbLine
 10
276.8485233132464
 20
80.2320163394058
 30
0
 11
307.12523321123251
 21
88.7709316508604
 31
0
  0
LINE
  5
142
330
2B
100
AcDbEntity
  8
LaserCutting
100
AcDbLine
 10
274.86700802923127
 20
87.257939565517432
 30
0
 11
305.14371792721749
 21
95.796854876972034
 31
0
  0
ARC
  5
143
330
2B
100
AcDbEntity
  8
LaserCutting
100
AcDbCircle
 10
14.150288400135191
 20
9.9358357992377062
 30
0
 40
306.375
100
AcDbArc
 50
15.627240098302558
 51
15.872759901697227
  0
ARC
  5
144
330
2B
100
AcDbEntity
  8
LaserCutting
100
AcDbCircle
 10
282.91971933852869
 20
52.538753751558353
 30
0
 40
6.9999999999999218
100
AcDbArc
 50
101.2500000000008
 51
189.00707513423171
  0
ARC
  5
145
330
2B
100
AcDbEntity
  8
LaserCutting
100
AcDbCircle
 10
278.7642954795852
 20
73.429480224147056
 30
0
 40
6.9999999999999627
100
AcDbArc
 50
193.4929248657678
 51
281.25000000000085
  0
ARC
  5
146
330
2B
100
AcDbEntity
  8
LaserCutting
100
AcDbCircle
 10
311.82214859791247
 20
68.483715960648638
 30
0
 40
3.0000000000000759
100
AcDbArc
 50
281.250000000004
 51
11.127240098301209
  0
ARC
  5
147
330
2B
100
AcDbEntity
  8
LaserCutting
100
AcDbCircle
 10
311.56853117929148
 20
69.758736825172591
 30
0
 40
3.0000000000001652
100
AcDbArc
 50
11.372759901700039
 51
101.24999999999751
  0
LINE
  5
148
330
2B
100
AcDbEntity
  8
LaserCutting
100
AcDbLine
 10
281.55408708441581
 20
59.404250714380893
 30
0
 11
312.407419563961
 21
65.541360119438892
 31
0
  0
LINE
  5
149
330
2B
100
AcDbEntity
  8
LaserCutting
100
AcDbLine
 10
280.12992773369808
 20
66.563983261324481
 30
0
 11
310.98326021324323
 21
72.701092666382479
 31
0
  0
ARC
  5
14A
330
2B
100
AcDbEntity
  8
LaserCutting
100
AcDbCircle
 10
14.150288400135249
 20
9.9358357992377151
 30
0
 40
306.375
100
AcDbArc
 50
11.127240098302012
 51
11.37275990169684
  0
ARC
  5
14B
330
2B
100
AcDbEntity
  8
LaserCutting
100
AcDbCircle
 10
285.4337792981151
 20
31.32001666280248
 30
0
 40
6.999999999999921
100
AcDbArc
 50
96.750000000000838
 51
184.50707513423151
  0
ARC
  5
14C
330
2B
100
AcDbEntity
  8
LaserCutting
100
AcDbCircle
 10
282.93023273226328
 20
52.472374795942287
 30
0
 40
6.9999999999999618
100
AcDbArc
 50
188.9929248657684
 51
276.7500000000008
  0
ARC
  5
14D
330
2B
100
AcDbEntity
  8
LaserCutting
100
AcDbCircle
 10
315.4981393301303
 20
44.948167410734968
 30
0
 40
3.0000000000000751
100
AcDbArc
 50
276.750000000004
 51
6.6272400983011064
  0
ARC
  5
14E
330
2B
100
AcDbEntity
  8
LaserCutting
100
AcDbCircle
 10
315.34534071343512
 20
46.239156404776132
 30
0
 40
3.0000000000001652
100
AcDbArc
 50
6.87275990170033
 51
96.749999999997556
  0
LINE
  5
14F
330
2B
100
AcDbEntity
  8
LaserCutting
100
AcDbLine
 10
284.61101751591042
 20
38.271495861486891
 30
0
 11
315.850751522504
 21
41.968962039870128
 31
0
  0
LINE
  5
150
330
2B
100
AcDbEntity
  8
LaserCutting
100
AcDbLine
 10
283.75299451446813
 20
45.520895597257848
 30
0
 11
314.99272852106168
 21
49.218361775641092
 31
0
  0
ARC
  5
151
330
2B
100
AcDbEntity
  8
LaserCutting
100
AcDbCircle
 10
14.15028840013531
 20
9.9358357992377151
 30
0
 40
306.37499999999989
100
AcDbArc
 50
6.6272400983027238
 51
6.8727599016970959
  0
ARC
  5
152
330
2B
100
AcDbEntity
  8
LaserCutting
100
AcDbCircle
 10
286.2752863254006
 20
9.9694389880614782
 30
0
 40
6.9999999999999218
100
AcDbArc
 50
92.2499999999999
 51
180.00707513423171
  0
ARC
  5
153
330
2B
100
AcDbEntity
  8
LaserCutting
100
AcDbCircle
 10
285.43905224973253
 20
31.253017459988762
 30
0
 40
6.9999999999999627
100
AcDbArc
 50
184.49292486576849
 51
272.24999999999989
  0
ARC
  5
154
330
2B
100
AcDbEntity
  8
LaserCutting
100
AcDbCircle
 10
317.31622035303548
 20
21.196756193655251
 30
0
 40
3.0000000000000759
100
AcDbArc
 50
272.25000000000318
 51
2.1272400983010318
  0
ARC
  5
155
330
2B
100
AcDbEntity
  8
LaserCutting
100
AcDbCircle
 10
317.2651825925488
 20
22.495753940767951
 30
0
 40
3.0000000000001652
100
AcDbArc
 50
2.3727599017005891
 51
92.24999999999666
  0
LINE
  5
156
330
2B
100
AcDbEntity
  8
LaserCutting
100
AcDbLine
 10
286.0004676150873
 20
16.964042241746458
 30
0
 11
317.4339998003129
 21
18.199069084933011
 31
0
  0
LINE
  5
157
330
2B
100
AcDbEntity
  8
LaserCutting
100
AcDbLine
 10
285.713870960046
 20
24.25841420630374
 30
0
 11
317.14740314527171
 21
25.49344104949029
 31
0
  0
ARC
  5
158
330
2B
100
AcDbEntity
  8
LaserCutting
100
AcDbCircle
 10
14.150288400135249
 20
9.9358357992377169
 30
0
 40
306.375
100
AcDbArc
 50
2.127240098302456
 51
2.3727599016973349
  0
ARC
  5
159
330
2B
100
AcDbEntity
  8
LaserCutting
100
AcDbCircle
 10
285.43905224973253
 20
-11.381345861513291
 30
0
 40
6.9999999999999218
100
AcDbArc
 50
87.750000000000114
 51
175.50707513423171
  0
ARC
  5
15A
330
2B
100
AcDbEntity
  8
LaserCutting
100
AcDbCircle
 10
286.2752863254006
 20
9.90223261041399
 30
0
 40
6.9999999999999627
100
AcDbArc
 50
179.9929248657684
 51
267.75000000000011
  0
ARC
  5
15B
330
2B
100
AcDbEntity
  8
LaserCutting
100
AcDbCircle
 10
317.2651825925488
 20
-2.6240823422926138
 30
0
 40
3.0000000000000759
100
AcDbArc
 50
267.7500000000033
 51
357.62724009830089
  0
ARC
  5
15C
330
2B
100
AcDbEntity
  8
LaserCutting
100
AcDbCircle
 10
317.31622035303548
 20
-1.3250845951799139
 30
0
 40
3.0000000000001652
100
AcDbArc
 50
357.87275990170059
 51
87.749999999996845
  0
LINE
  5
15D
330
2B
100
AcDbEntity
  8
LaserCutting
100
AcDbLine
 10
285.713870960046
 20
-4.386742607828312
 30
0
 11
317.14740314527171
 21
-5.621769451014865
 31
0
  0
LINE
  5
15E
330
2B
100
AcDbEntity
  8
LaserCutting
100
AcDbLine
 10
286.00046761508719
 20
2.9076293567289651
 30
0
 11
317.43399980031279
 21
1.672602513542413
 31
0
  0
ARC
  5
15F
330
2B
100
AcDbEntity
  8
LaserCutting
100
AcDbCircle
 10
14.150288400135249
 20
9.9358357992377151
 30
0
 40
306.375
100
AcDbArc
 50
357.62724009830242
 51
357.87275990169741
  0
ARC
  5
160
330
2B
100
AcDbEntity
  8
LaserCutting
100
AcDbCircle
 10
282.93023273226322
 20
-32.6007031974673
 30
0
 40
6.9999999999999218
100
AcDbArc
 50
83.24999999999919
 51
171.0070751342316
  0
ARC
  5
161
330
2B
100
AcDbEntity
  8
LaserCutting
100
AcDbCircle
 10
285.4337792981151
 20
-11.448345064327491
 30
0
 40
6.9999999999999627
100
AcDbArc
 50
175.49292486576849
 51
263.2499999999992
  0
ARC
  5
162
330
2B
100
AcDbEntity
  8
LaserCutting
100
AcDbCircle
 10
315.34534071343512
 20
-26.367484806301341
 30
0
 40
3.0000000000000759
100
AcDbArc
 50
263.2500000000025
 51
353.12724009830112
  0
ARC
  5
163
330
2B
100
AcDbEntity
  8
LaserCutting
100
AcDbCircle
 10
315.49813933013019
 20
-25.07649581226017
 30
0
 40
3.0000000000001652
100
AcDbArc
 50
353.37275990170076
 51
83.2499999999959
  0
LINE
  5
164
330
2B
100
AcDbEntity
  8
LaserCutting
100
AcDbLine
 10
283.75299451446813
 20
-25.6492239987829
 30
0
 11
314.99272852106168
 21
-29.346690177166209
 31
0
  0
LINE
  5
165
330
2B
100
AcDbEntity
  8
LaserCutting
100
AcDbLine
 10
284.61101751591031
 20
-18.39982426301194
 30
0
 11
315.85075152250391
 21
-22.097290441395248
 31
0
  0
ARC
  5
166
330
2B
100
AcDbEntity
  8
LaserCutting
100
AcDbCircle
 10
14.15028840013531
 20
9.9358357992377151
 30
0
 40
306.375
100
AcDbArc
 50
353.12724009830248
 51
353.372759901697
  0
ARC
  5
167
330
2B
100
AcDbEntity
  8
LaserCutting
100
AcDbCircle
 10
278.7642954795852
 20
-53.557808625672052
 30
0
 40
6.9999999999999218
100
AcDbArc
 50
78.749999999999233
 51
166.5070751342318
  0
ARC
  5
168
330
2B
100
AcDbEntity
  8
LaserCutting
100
AcDbCircle
 10
282.91971933852869
 20
-32.667082153083371
 30
0
 40
6.9999999999999627
100
AcDbArc
 50
170.99292486576829
 51
258.7499999999992
  0
ARC
  5
169
330
2B
100
AcDbEntity
  8
LaserCutting
100
AcDbCircle
 10
311.56853117929148
 20
-49.887065226697793
 30
0
 40
3.0000000000000759
100
AcDbArc
 50
258.75000000000256
 51
348.62724009830117
  0
ARC
  5
16A
330
2B
100
AcDbEntity
  8
LaserCutting
100
AcDbCircle
 10
311.82214859791242
 20
-48.612044362173819
 30
0
 40
3.0000000000001652
100
AcDbArc
 50
348.87275990170042
 51
78.7499999999959
  0
LINE
  5
16B
330
2B
100
AcDbEntity
  8
LaserCutting
100
AcDbLine
 10
280.12992773369808
 20
-46.692311662849519
 30
0
 11
310.98326021324323
 21
-52.829421067907589
 31
0
  0
LINE
  5
16C
330
2B
100
AcDbEntity
  8
LaserCutting
100
AcDbLine
 10
281.55408708441581
 20
-39.532579115905953
 30
0
 11
312.407419563961
 21
-45.669688520964
 31
0
  0
ARC
  5
16D
330
2B
100
AcDbEntity
  8
LaserCutting
100
AcDbCircle
 10
14.15028840013531
 20
9.9358357992377062
 30
0
 40
306.375
100
AcDbArc
 50
348.62724009830242
 51
348.87275990169718
  0
ARC
  5
16E
330
2B
100
AcDbEntity
  8
LaserCutting
100
AcDbCircle
 10
272.9669248801759
 20
-74.123454622217452
 30
0
 40
6.9999999999999218
100
AcDbArc
 50
74.250000000001165
 51
162.0070751342318
  0
ARC
  5
16F
330
2B
100
AcDbEntity
  8
LaserCutting
100
AcDbCircle
 10
278.748606462302
 20
-53.623158085754881
 30
0
 40
6.9999999999999627
100
AcDbArc
 50
166.4929248657682
 51
254.25000000000119
  0
ARC
  5
170
330
2B
100
AcDbEntity
  8
LaserCutting
100
AcDbCircle
 10
305.95803927681271
 20
-73.037817569135569
 30
0
 40
3.0000000000000759
100
AcDbArc
 50
254.25000000000449
 51
344.12724009830117
  0
ARC
  5
171
330
2B
100
AcDbEntity
  8
LaserCutting
100
AcDbCircle
 10
306.31091186163718
 20
-71.786625761746052
 30
0
 40
3.0000000000001652
100
AcDbArc
 50
344.37275990170059
 51
74.249999999997812
  0
LINE
  5
172
330
2B
100
AcDbEntity
  8
LaserCutting
100
AcDbLine
 10
274.86700802923139
 20
-67.386267967042016
 30
0
 11
305.14371792721761
 21
-75.925183278496618
 31
0
  0
LINE
  5
173
330
2B
100
AcDbEntity
  8
LaserCutting
100
AcDbLine
 10
276.8485233132464
 20
-60.360344740930387
 30
0
 11
307.12523321123263
 21
-68.899260052384989
 31
0
  0
ARC
  5
174
330
2B
100
AcDbEntity
  8
LaserCutting
100
AcDbCircle
 10
14.15028840013531
 20
9.9358357992377062
 30
0
 40
306.375
100
AcDbArc
 50
344.12724009830288
 51
344.37275990169741
  0
ARC
  5
175
330
2B
100
AcDbEntity
  8
LaserCutting
100
AcDbCircle
 10
265.57386365160193
 20
-94.1708471407645
 30
0
 40
6.9999999999999218
100
AcDbArc
 50
69.75
 51
157.5070751342316
  0
ARC
  5
176
330
2B
100
AcDbEntity
  8
LaserCutting
100
AcDbCircle
 10
272.94615696735241
 20
-74.187371685615716
 30
0
 40
6.9999999999999627
100
AcDbArc
 50
161.99292486576871
 51
249.75
  0
ARC
  5
177
330
2B
100
AcDbEntity
  8
LaserCutting
100
AcDbCircle
 10
298.5484555542551
 20
-95.677009747018246
 30
0
 40
3.0000000000000759
100
AcDbArc
 50
249.75000000000361
 51
339.62724009830038
  0
ARC
  5
178
330
2B
100
AcDbEntity
  8
LaserCutting
100
AcDbCircle
 10
298.99840772845567
 20
-94.457361010319246
 30
0
 40
3.0000000000001652
100
AcDbArc
 50
339.87275990170122
 51
69.74999999999666
  0
LINE
  5
179
330
2B
100
AcDbEntity
  8
LaserCutting
100
AcDbLine
 10
267.99668305114432
 20
-87.603507789307216
 30
0
 11
297.51010438302268
 21
-98.491583754785822
 31
0
  0
LINE
  5
17A
330
2B
100
AcDbEntity
  8
LaserCutting
100
AcDbLine
 10
270.52333756781
 20
-80.754711037073065
 30
0
 11
300.03675889968838
 21
-91.642787002551685
 31
0
  0
ARC
  5
17B
330
2B
100
AcDbEntity
  8
LaserCutting
100
AcDbCircle
 10
14.150288400135359
 20
9.9358357992376938
 30
0
 40
306.375
100
AcDbArc
 50
339.6272400983031
 51
339.87275990169712
  0
ARC
  5
17C
330
2B
100
AcDbEntity
  8
LaserCutting
100
AcDbCircle
 10
256.63069247477972
 20
-113.5763873400013
 30
0
 40
6.9999999999999218
100
AcDbArc
 50
65.249999999999446
 51
153.0070751342322
  0
ARC
  5
17D
330
2B
100
AcDbEntity
  8
LaserCutting
100
AcDbCircle
 10
265.54814488432692
 20
-94.232937737527266
 30
0
 40
6.9999999999999627
100
AcDbArc
 50
157.4929248657684
 51
245.24999999999952
  0
ARC
  5
17E
330
2B
100
AcDbEntity
  8
LaserCutting
100
AcDbCircle
 10
289.38546255920511
 20
-117.6650636122733
 30
0
 40
3.0000000000000759
100
AcDbArc
 50
245.25000000000313
 51
335.12724009830168
  0
ARC
  5
17F
330
2B
100
AcDbEntity
  8
LaserCutting
100
AcDbCircle
 10
289.92972021800352
 20
-116.4844774863009
 30
0
 40
3.0000000000001652
100
AcDbArc
 50
335.37275990170019
 51
65.249999999995808
  0
LINE
  5
180
330
2B
100
AcDbEntity
  8
LaserCutting
100
AcDbLine
 10
259.56131063754168
 20
-107.2193851232259
 30
0
 11
288.12948334659291
 21
-120.3894931337486
 31
0
  0
LINE
  5
181
330
2B
100
AcDbEntity
  8
LaserCutting
100
AcDbLine
 10
262.6175267215649
 20
-100.58993995430281
 30
0
 11
291.18569943061613
 21
-113.7600479648255
 31
0
  0
ARC
  5
182
330
2B
100
AcDbEntity
  8
LaserCutting
100
AcDbCircle
 10
14.150288400135359
 20
9.9358357992376938
 30
0
 40
306.375
100
AcDbArc
 50
335.12724009830242
 51
335.37275990169809
  0
ARC
  5
183
330
2B
100
AcDbEntity
  8
LaserCutting
100
AcDbCircle
 10
246.19254897392071
 20
-132.2204336116028
 30
0
 40
6.9999999999999218
100
AcDbArc
 50
60.749999999999872
 51
148.50707513423029
  0
ARC
  5
184
330
2B
100
AcDbEntity
  8
LaserCutting
100
AcDbCircle
 10
256.6001814178058
 20
-113.6362686609524
 30
0
 40
6.9999999999999627
100
AcDbArc
 50
152.99292486576871
 51
240.74999999999949
  0
ARC
  5
185
330
2B
100
AcDbEntity
  8
LaserCutting
100
AcDbCircle
 10
278.52555319048128
 20
-138.86641550105151
 30
0
 40
3.0000000000000759
100
AcDbArc
 50
240.7500000000031
 51
330.62724009830168
  0
ARC
  5
186
330
2B
100
AcDbEntity
  8
LaserCutting
100
AcDbCircle
 10
279.16076080442713
 20
-137.73217069185711
 30
0
 40
3.0000000000001652
100
AcDbArc
 50
330.87275990170059
 51
60.749999999996234
  0
LINE
  5
187
330
2B
100
AcDbEntity
  8
LaserCutting
100
AcDbLine
 10
249.61289766439941
 20
-126.1129615620933
 30
0
 11
277.05968946599052
 21
-141.48390352227011
 31
0
  0
LINE
  5
188
330
2B
100
AcDbEntity
  8
LaserCutting
100
AcDbLine
 10
253.1798327273271
 20
-119.74374071046191
 30
0
 11
280.62662452891823
 21
-135.11468267063859
 31
0
  0
ARC
  5
189
330
2B
100
AcDbEntity
  8
LaserCutting
100
AcDbCircle
 10
14.15028840013531
 20
9.93583579923768
 30
0
 40
306.375
100
AcDbArc
 50
330.62724009830168
 51
330.87275990169769
  0
ARC
  5
18A
330
2B
100
AcDbEntity
  8
LaserCutting
100
AcDbCircle
 10
234.323787774743
 20
-149.98803921052951
 30
0
 40
6.9999999999999218
100
AcDbArc
 50
56.250000000000028
 51
144.00707513423171
  0
ARC
  5
18B
330
2B
100
AcDbEntity
  8
LaserCutting
100
AcDbCircle
 10
246.1574337380604
 20
-132.27773646848539
 30
0
 40
6.9999999999999627
100
AcDbArc
 50
148.4929248657692
 51
236.25
  0
ARC
  5
18C
330
2B
100
AcDbEntity
  8
LaserCutting
100
AcDbCircle
 10
266.03568240062867
 20
-159.15035202879329
 30
0
 40
3.0000000000000759
100
AcDbArc
 50
236.25000000000367
 51
326.12724009830168
  0
ARC
  5
18D
330
2B
100
AcDbEntity
  8
LaserCutting
100
AcDbCircle
 10
266.75792370355413
 20
-158.0694415328002
 30
0
 40
3.0000000000001652
100
AcDbArc
 50
326.37275990169968
 51
56.249999999997783
  0
LINE
  5
18E
330
2B
100
AcDbEntity
  8
LaserCutting
100
AcDbLine
 10
238.2127794058801
 20
-144.16775192441179
 30
0
 11
264.36897170157
 21
-161.644760865701
 31
0
  0
LINE
  5
18F
330
2B
100
AcDbEntity
  8
LaserCutting
100
AcDbLine
 10
242.26844210692329
 20
-138.09802375460319
 30
0
 11
268.42463440261309
 21
-155.5750326958925
 31
0
  0
ARC
  5
190
330
2B
100
AcDbEntity
  8
LaserCutting
100
AcDbCircle
 10
14.150288400135331
 20
9.93583579923768
 30
0
 40
306.375
100
AcDbArc
 50
326.12724009830168
 51
326.37275990169741
  0
ARC
  5
191
330
2B
100
AcDbEntity
  8
LaserCutting
100
AcDbCircle
 10
221.09758373680239
 20
-166.7696609399365
 30
0
 40
6.9999999999999218
100
AcDbArc
 50
51.749999999999922
 51
139.50707513423109
  0
ARC
  5
192
330
2B
100
AcDbEntity
  8
LaserCutting
100
AcDbCircle
 10
234.2842848571018
 20
-150.04241031217671
 30
0
 40
6.9999999999999627
100
AcDbArc
 50
143.99292486576772
 51
231.74999999999989
  0
ARC
  5
193
330
2B
100
AcDbEntity
  8
LaserCutting
100
AcDbCircle
 10
251.99285439636969
 20
-178.3918159817126
 30
0
 40
3.0000000000000759
100
AcDbArc
 50
231.75000000000338
 51
321.62724009830117
  0
ARC
  5
194
330
2B
100
AcDbEntity
  8
LaserCutting
100
AcDbCircle
 10
252.7976765304723
 20
-177.3709039715678
 30
0
 40
3.0000000000001652
100
AcDbArc
 50
321.87275990169979
 51
51.749999999996632
  0
LINE
  5
195
330
2B
100
AcDbEntity
  8
LaserCutting
100
AcDbLine
 10
225.4312413819712
 20
-161.27244242377139
 30
0
 11
250.13557254844019
 21
-180.747766774355
 31
0
  0
LINE
  5
196
330
2B
100
AcDbEntity
  8
LaserCutting
100
AcDbLine
 10
229.950627211933
 20
-155.5396288283419
 30
0
 11
254.654958378402
 21
-175.01495317892551
 31
0
  0
ARC
  5
197
330
2B
100
AcDbEntity
  8
LaserCutting
100
AcDbCircle
 10
14.150288400135331
 20
9.93583579923768
 30
0
 40
306.375
100
AcDbArc
 50
321.62724009830339
 51
321.87275990169752
  0
ARC
  5
198
330
2B
100
AcDbEntity
  8
LaserCutting
100
AcDbCircle
 10
206.5954808061523
 20
-182.461834521406
 30
0
 40
6.9999999999999218
100
AcDbArc
 50
47.2499999999995
 51
135.0070751342316
  0
ARC
  5
199
330
2B
100
AcDbEntity
  8
LaserCutting
100
AcDbCircle
 10
221.05393668600391
 20
-166.820765070426
 30
0
 40
6.9999999999999627
100
AcDbArc
 50
139.492924865768
 51
227.24999999999952
  0
ARC
  5
19A
330
2B
100
AcDbEntity
  8
LaserCutting
100
AcDbCircle
 10
236.4836478820649
 20
-196.47217733610319
 30
0
 40
3.0000000000000759
100
AcDbArc
 50
227.250000000003
 51
317.12724009830191
  0
ARC
  5
19B
330
2B
100
AcDbEntity
  8
LaserCutting
100
AcDbCircle
 10
237.36608885125759
 20
-195.51755807383691
 30
0
 40
3.0000000000001652
100
AcDbArc
 50
317.37275990170082
 51
47.249999999997193
  0
LINE
  5
19C
330
2B
100
AcDbEntity
  8
LaserCutting
100
AcDbLine
 10
211.34708602488291
 20
-177.32157695535631
 30
0
 11
234.44724564546621
 21
-198.67514486441041
 31
0
  0
LINE
  5
19D
330
2B
100
AcDbEntity
  8
LaserCutting
100
AcDbLine
 10
216.3023314672734
 20
-171.9610226364758
 30
0
 11
239.40249108785659
 21
-193.31459054552991
 31
0
  0
ARC
  5
19E
330
2B
100
AcDbEntity
  8
LaserCutting
100
AcDbCircle
 10
14.150288400135359
 20
9.93583579923768
 30
0
 40
306.375
100
AcDbArc
 50
317.12724009830191
 51
317.37275990169741
  0
ARC
  5
19F
330
2B
100
AcDbEntity
  8
LaserCutting
100
AcDbCircle
 10
190.90688926979871
 20
-196.96781248663109
 30
0
 40
6.9999999999999218
100
AcDbArc
 50
42.7500000000005
 51
130.507075134232
  0
ARC
  5
1A0
330
2B
100
AcDbEntity
  8
LaserCutting
100
AcDbCircle
 10
206.54795872077881
 20
-182.50935660677959
 30
0
 40
6.9999999999999627
100
AcDbArc
 50
134.9929248657684
 51
222.75000000000051
  0
ARC
  5
1A1
330
2B
100
AcDbEntity
  8
LaserCutting
100
AcDbCircle
 10
219.60368227320961
 20
-213.279964651885
 30
0
 40
3.0000000000000759
100
AcDbArc
 50
222.75000000000281
 51
312.62724009830032
  0
ARC
  5
1A2
330
2B
100
AcDbEntity
  8
LaserCutting
100
AcDbCircle
 10
220.55830153547581
 20
-212.39752368269231
 30
0
 40
3.0000000000001652
100
AcDbArc
 50
312.87275990170042
 51
42.749999999997
  0
LINE
  5
1A3
330
2B
100
AcDbEntity
  8
LaserCutting
100
AcDbLine
 10
196.04714683584851
 20
-192.21620726790059
 30
0
 11
217.4007147449025
 21
-215.316366888484
 31
0
  0
LINE
  5
1A4
330
2B
100
AcDbEntity
  8
LaserCutting
100
AcDbLine
 10
201.4077011547291
 20
-187.26096182551009
 30
0
 11
222.76126906378309
 21
-210.36112144609351
 31
0
  0
ARC
  5
1A5
330
2B
100
AcDbEntity
  8
LaserCutting
100
AcDbCircle
 10
14.150288400135249
 20
9.9358357992375375
 30
0
 40
306.375
100
AcDbArc
 50
312.62724009830259
 51
312.87275990169809
  0
ARC
  5
1A6
330
2B
100
AcDbEntity
  8
LaserCutting
100
AcDbCircle
 10
174.12853451154959
 20
-210.19816065772889
 30
0
 40
6.9999999999999218
100
AcDbArc
 50
38.250000000000078
 51
126.00707513423229
  0
ARC
  5
1A7
330
2B
100
AcDbEntity
  8
LaserCutting
100
AcDbCircle
 10
190.8557851393094
 20
-197.01145953742949
 30
0
 40
6.9999999999999627
100
AcDbArc
 50
130.49292486576894
 51
218.25
  0
ARC
  5
1A8
330
2B
100
AcDbEntity
  8
LaserCutting
100
AcDbCircle
 10
201.45702817094059
 20
-228.71155233109951
 30
0
 40
3.0000000000000759
100
AcDbArc
 50
218.25000000000341
 51
308.12724009830021
  0
ARC
  5
1A9
330
2B
100
AcDbEntity
  8
LaserCutting
100
AcDbCircle
 10
202.47794018108539
 20
-227.9067301969969
 30
0
 40
3.0000000000001652
100
AcDbArc
 50
308.37275990170019
 51
38.249999999996511
  0
LINE
  5
1AA
330
2B
100
AcDbEntity
  8
LaserCutting
100
AcDbLine
 10
179.62575302771481
 20
-205.86450301256011
 30
0
 11
199.10107737829841
 21
-230.56883417902921
 31
0
  0
LINE
  5
1AB
330
2B
100
AcDbEntity
  8
LaserCutting
100
AcDbLine
 10
185.35856662314421
 20
-201.3451171825983
 30
0
 11
204.8338909737279
 21
-226.0494483490674
 31
0
  0
ARC
  5
1AC
330
2B
100
AcDbEntity
  8
LaserCutting
100
AcDbCircle
 10
14.150288400135279
 20
9.9358357992375659
 30
0
 40
306.375
100
AcDbArc
 50
308.12724009830248
 51
308.37275990169661
  0
ARC
  5
1AD
330
2B
100
AcDbEntity
  8
LaserCutting
100
AcDbCircle
 10
156.36386066785849
 20
-222.07130953868739
 30
0
 40
6.9999999999999218
100
AcDbArc
 50
33.749999999999972
 51
121.5070751342321
  0
ARC
  5
1AE
330
2B
100
AcDbEntity
  8
LaserCutting
100
AcDbCircle
 10
174.07416340990261
 20
-210.23766357536991
 30
0
 40
6.9999999999999627
100
AcDbArc
 50
125.99292486576832
 51
213.75
  0
ARC
  5
1AF
330
2B
100
AcDbEntity
  8
LaserCutting
100
AcDbCircle
 10
182.15556573217319
 20
-242.67179950418111
 30
0
 40
3.0000000000000759
100
AcDbArc
 50
213.7500000000031
 51
303.62724009830032
  0
ARC
  5
1B0
330
2B
100
AcDbEntity
  8
LaserCutting
100
AcDbCircle
 10
183.2364762281662
 20
-241.9495582012558
 30
0
 40
3.0000000000001652
100
AcDbArc
 50
303.87275990170053
 51
33.749999999996362
  0
LINE
  5
1B1
330
2B
100
AcDbEntity
  8
LaserCutting
100
AcDbLine
 10
162.18414795397629
 20
-218.1823179075503
 30
0
 11
179.66115689526561
 21
-244.33851020324011
 31
0
  0
LINE
  5
1B2
330
2B
100
AcDbEntity
  8
LaserCutting
100
AcDbLine
 10
168.25387612378481
 20
-214.12665520650719
 30
0
 11
185.73088506507409
 21
-240.282847502197
 31
0
  0
ARC
  5
1B3
330
2B
100
AcDbEntity
  8
LaserCutting
100
AcDbCircle
 10
14.150288400135279
 20
9.9358357992375659
 30
0
 40
306.375
100
AcDbArc
 50
303.62724009830259
 51
303.87275990169832
  0
ARC
  5
1B4
330
2B
100
AcDbEntity
  8
LaserCutting
100
AcDbCircle
 10
137.722392860325
 20
-232.514057218433
 30
0
 40
6.999999999999921
100
AcDbArc
 50
29.250000000000529
 51
117.0070751342313
  0
ARC
  5
1B5
330
2B
100
AcDbEntity
  8
LaserCutting
100
AcDbCircle
 10
156.30655781097551
 20
-222.106424774548
 30
0
 40
6.9999999999999618
100
AcDbArc
 50
121.4929248657689
 51
209.25000000000051
  0
ARC
  5
1B6
330
2B
100
AcDbEntity
  8
LaserCutting
100
AcDbCircle
 10
161.8182948912297
 20
-255.07463660505459
 30
0
 40
3.0000000000000751
100
AcDbArc
 50
209.25000000000412
 51
299.12724009830077
  0
ARC
  5
1B7
330
2B
100
AcDbEntity
  8
LaserCutting
100
AcDbCircle
 10
162.952539700424
 20
-254.4394289911086
 30
0
 40
3.0000000000001652
100
AcDbArc
 50
299.37275990170048
 51
29.249999999996902
  0
LINE
  5
1B8
330
2B
100
AcDbEntity
  8
LaserCutting
100
AcDbLine
 10
143.82986490983461
 20
-229.09370852795439
 30
0
 11
159.20080687001121
 21
-256.54050032954552
 31
0
  0
LINE
  5
1B9
330
2B
100
AcDbEntity
  8
LaserCutting
100
AcDbLine
 10
150.199085761466
 20
-225.52677346502671
 30
0
 11
165.5700277216427
 21
-252.97356526661781
 31
0
  0
ARC
  5
1BA
330
2B
100
AcDbEntity
  8
LaserCutting
100
AcDbCircle
 10
14.150288400135279
 20
9.9358357992375943
 30
0
 40
306.37499999999989
100
AcDbArc
 50
299.127240098303
 51
299.37275990169832
  0
ARC
  5
1BB
330
2B
100
AcDbEntity
  8
LaserCutting
100
AcDbCircle
 10
118.3190619368999
 20
-241.4620206849541
 30
0
 40
6.9999999999999218
100
AcDbArc
 50
24.750000000000909
 51
112.5070751342315
  0
ARC
  5
1BC
330
2B
100
AcDbEntity
  8
LaserCutting
100
AcDbCircle
 10
137.662511539374
 20
-232.5445682754069
 30
0
 40
6.9999999999999627
100
AcDbArc
 50
116.9929248657685
 51
204.75000000000091
  0
ARC
  5
1BD
330
2B
100
AcDbEntity
  8
LaserCutting
100
AcDbCircle
 10
140.57060168567341
 20
-265.84359601863088
 30
0
 40
3.0000000000000759
100
AcDbArc
 50
204.75000000000242
 51
294.62724009830117
  0
ARC
  5
1BE
330
2B
100
AcDbEntity
  8
LaserCutting
100
AcDbCircle
 10
141.75118781164579
 20
-265.29933835983229
 30
0
 40
3.0000000000001652
100
AcDbArc
 50
294.87275990169968
 51
24.749999999997272
  0
LINE
  5
1BF
330
2B
100
AcDbEntity
  8
LaserCutting
100
AcDbLine
 10
124.6760641536754
 20
-238.5314025221922
 30
0
 11
137.84617216419821
 21
-267.09957523124331
 31
0
  0
LINE
  5
1C0
330
2B
100
AcDbEntity
  8
LaserCutting
100
AcDbLine
 10
131.30550932259851
 20
-235.475186438169
 30
0
 11
144.47561733312131
 21
-264.04335914722009
 31
0
  0
ARC
  5
1C1
330
2B
100
AcDbEntity
  8
LaserCutting
100
AcDbCircle
 10
14.15028840013526
 20
9.9358357992375659
 30
0
 40
306.375
100
AcDbArc
 50
294.62724009830191
 51
294.87275990169758
  0
ARC
  5
1C2
330
2B
100
AcDbEntity
  8
LaserCutting
100
AcDbCircle
 10
98.2734958849886
 20
-248.8600327679795
 30
0
 40
6.9999999999999218
100
AcDbArc
 50
20.250000000000011
 51
108.0070751342312
  0
ARC
  5
1C3
330
2B
100
AcDbEntity
  8
LaserCutting
100
AcDbCircle
 10
118.2569713401374
 20
-241.487739452229
 30
0
 40
6.9999999999999627
100
AcDbArc
 50
112.4929248657683
 51
200.25
  0
ARC
  5
1C4
330
2B
100
AcDbEntity
  8
LaserCutting
100
AcDbCircle
 10
118.543485209692
 20
-274.912283529083
 30
0
 40
3.0000000000000759
100
AcDbArc
 50
200.25000000000341
 51
290.12724009830032
  0
ARC
  5
1C5
330
2B
100
AcDbEntity
  8
LaserCutting
100
AcDbCircle
 10
119.763133946391
 20
-274.46233135488228
 30
0
 40
3.0000000000001652
100
AcDbArc
 50
290.3727599017011
 51
20.249999999996675
  0
LINE
  5
1C6
330
2B
100
AcDbEntity
  8
LaserCutting
100
AcDbLine
 10
104.8408352364459
 20
-246.4372133684372
 30
0
 11
115.7289112019245
 21
-275.95063470031562
 31
0
  0
LINE
  5
1C7
330
2B
100
AcDbEntity
  8
LaserCutting
100
AcDbLine
 10
111.68963198868011
 20
-243.9105588517715
 30
0
 11
122.5777079541586
 21
-273.42398018364992
 31
0
  0
ARC
  5
1C8
330
2B
100
AcDbEntity
  8
LaserCutting
100
AcDbCircle
 10
14.15028840013526
 20
9.9358357992375659
 30
0
 40
306.375
100
AcDbArc
 50
290.127240098303
 51
290.3727599016969
  0
ARC
  5
1C9
330
2B
100
AcDbEntity
  8
LaserCutting
100
AcDbCircle
 10
77.70928228512804
 20
-254.662482262929
 30
0
 40
6.9999999999999218
100
AcDbArc
 50
15.749999999998829
 51
103.5070751342318
  0
ARC
  5
1CA
330
2B
100
AcDbEntity
  8
LaserCutting
100
AcDbCircle
 10
98.209578821590625
 20
-248.880800680803
 30
0
 40
6.9999999999999627
100
AcDbArc
 50
107.9929248657682
 51
195.74999999999881
  0
ARC
  5
1CB
330
2B
100
AcDbEntity
  8
LaserCutting
100
AcDbCircle
 10
95.8727499611191
 20
-282.22478766226442
 30
0
 40
3.0000000000000759
100
AcDbArc
 50
195.75000000000219
 51
285.627240098301
  0
ARC
  5
1CC
330
2B
100
AcDbEntity
  8
LaserCutting
100
AcDbCircle
 10
97.1239417685086
 20
-281.87191507743978
 30
0
 40
3.0000000000001652
100
AcDbArc
 50
285.87275990170042
 51
15.749999999995481
  0
LINE
  5
1CD
330
2B
100
AcDbEntity
  8
LaserCutting
100
AcDbLine
 10
84.4464689403035
 20
-252.7623991138735
 30
0
 11
92.9853842517581
 21
-283.03910901185969
 31
0
  0
LINE
  5
1CE
330
2B
100
AcDbEntity
  8
LaserCutting
100
AcDbLine
 10
91.472392166415133
 20
-250.78088382985851
 30
0
 11
100.01130747786971
 21
-281.05759372784468
 31
0
  0
ARC
  5
1CF
330
2B
100
AcDbEntity
  8
LaserCutting
100
AcDbCircle
 10
14.15028840013526
 20
9.9358357992375659
 30
0
 40
306.375
100
AcDbArc
 50
285.62724009830259
 51
285.87275990169718
  0
ARC
  5
1D0
330
2B
100
AcDbEntity
  8
LaserCutting
100
AcDbCircle
 10
56.75320635245604
 20
-258.83359513915582
 30
0
 40
6.9999999999999218
100
AcDbArc
 50
11.250000000000842
 51
99.007075134231712
  0
ARC
  5
1D1
330
2B
100
AcDbEntity
  8
LaserCutting
100
AcDbCircle
 10
77.643932825044743
 20
-254.67817128021241
 30
0
 40
6.9999999999999627
100
AcDbArc
 50
103.4929248657678
 51
191.2500000000008
  0
ARC
  5
1D2
330
2B
100
AcDbEntity
  8
LaserCutting
100
AcDbCircle
 10
72.698168561546353
 20
-287.73602439853971
 30
0
 40
3.0000000000000759
100
AcDbArc
 50
191.250000000004
 51
281.12724009830117
  0
ARC
  5
1D3
330
2B
100
AcDbEntity
  8
LaserCutting
100
AcDbCircle
 10
73.9731894260703
 20
-287.48240697991872
 30
0
 40
3.0000000000001652
100
AcDbArc
 50
281.3727599017
 51
11.24999999999749
  0
LINE
  5
1D4
330
2B
100
AcDbEntity
  8
LaserCutting
100
AcDbLine
 10
63.618703315278587
 20
-257.467962885043
 30
0
 11
69.7558127203366
 21
-288.32129536458808
 31
0
  0
LINE
  5
1D5
330
2B
100
AcDbEntity
  8
LaserCutting
100
AcDbLine
 10
70.778435862222167
 20
-256.04380353432532
 30
0
 11
76.91554526728018
 21
-286.89713601387041
 31
0
  0
ARC
  5
1D6
330
2B
100
AcDbEntity
  8
LaserCutting
100
AcDbCircle
 10
14.15028840013527
 20
9.9358357992375659
 30
0
 40
306.375
100
AcDbArc
 50
281.12724009830288
 51
281.3727599016969
  0
ARC
  5
1D7
330
2B
100
AcDbEntity
  8
LaserCutting
100
AcDbCircle
 10
35.534469263700181
 20
-261.34765509874228
 30
0
 40
6.999999999999921
100
AcDbArc
 50
6.7500000000008384
 51
94.507075134231513
  0
ARC
  5
1D8
330
2B
100
AcDbEntity
  8
LaserCutting
100
AcDbCircle
 10
56.686827396839988
 20
-258.8441085328904
 30
0
 40
6.9999999999999618
100
AcDbArc
 50
98.9929248657684
 51
186.7500000000008
  0
ARC
  5
1D9
330
2B
100
AcDbEntity
  8
LaserCutting
100
AcDbCircle
 10
49.16262001163269
 20
-291.41201513075742
 30
0
 40
3.0000000000000751
100
AcDbArc
 50
186.750000000004
 51
276.62724009830117
  0
ARC
  5
1DA
330
2B
100
AcDbEntity
  8
LaserCutting
100
AcDbCircle
 10
50.453609005673847
 20
-291.2592165140623
 30
0
 40
3.0000000000001652
100
AcDbArc
 50
276.87275990170042
 51
6.7499999999975557
  0
LINE
  5
1DB
330
2B
100
AcDbEntity
  8
LaserCutting
100
AcDbLine
 10
42.485948462384577
 20
-260.52489331653749
 30
0
 11
46.18341464076785
 21
-291.76462732313109
 31
0
  0
LINE
  5
1DC
330
2B
100
AcDbEntity
  8
LaserCutting
100
AcDbLine
 10
49.735348198155542
 20
-259.66687031509531
 30
0
 11
53.432814376538822
 21
-290.9066043216888
 31
0
  0
ARC
  5
1DD
330
2B
100
AcDbEntity
  8
LaserCutting
100
AcDbCircle
 10
14.15028840013527
 20
9.9358357992376227
 30
0
 40
306.37499999999989
100
AcDbArc
 50
276.62724009830271
 51
276.87275990169712
  0
ARC
  5
1DE
330
2B
100
AcDbEntity
  8
LaserCutting
100
AcDbCircle
 10
14.183891588958931
 20
-262.18916212602778
 30
0
 40
6.9999999999999218
100
AcDbArc
 50
2.2499999999998992
 51
90.0070751342317
  0
ARC
  5
1DF
330
2B
100
AcDbEntity
  8
LaserCutting
100
AcDbCircle
 10
35.467470060886207
 20
-261.35292805035971
 30
0
 40
6.9999999999999627
100
AcDbArc
 50
94.492924865768515
 51
182.24999999999989
  0
ARC
  5
1E0
330
2B
100
AcDbEntity
  8
LaserCutting
100
AcDbCircle
 10
25.411208794552689
 20
-293.23009615366271
 30
0
 40
3.0000000000000759
100
AcDbArc
 50
182.2500000000031
 51
272.127240098301
  0
ARC
  5
1E1
330
2B
100
AcDbEntity
  8
LaserCutting
100
AcDbCircle
 10
26.710206541665389
 20
-293.17905839317592
 30
0
 40
3.0000000000001652
100
AcDbArc
 50
272.37275990170059
 51
2.2499999999966449
  0
LINE
  5
1E2
330
2B
100
AcDbEntity
  8
LaserCutting
100
AcDbLine
 10
21.178494842643911
 20
-261.91434341571443
 30
0
 11
22.41352168583045
 21
-293.34787560094
 31
0
  0
LINE
  5
1E3
330
2B
100
AcDbEntity
  8
LaserCutting
100
AcDbLine
 10
28.472866807201189
 20
-261.62774676067318
 30
0
 11
29.707893650387732
 21
-293.06127894589878
 31
0
  0
ARC
  5
1E4
330
2B
100
AcDbEntity
  8
LaserCutting
100
AcDbCircle
 10
14.15028840013527
 20
9.935835799237509
 30
0
 40
306.375
100
AcDbArc
 50
272.12724009830242
 51
272.37275990169741
  0
ARC
  5
1E5
330
2B
100
AcDbEntity
  8
LaserCutting
100
AcDbCircle
 10
-7.1668932606155984
 20
-261.35292805035971
 30
0
 40
6.9999999999999218
100
AcDbArc
 50
357.75000000000011
 51
85.507075134231684
  0
ARC
  5
1E6
330
2B
100
AcDbEntity
  8
LaserCutting
100
AcDbCircle
 10
14.11668521131168
 20
-262.18916212602778
 30
0
 40
6.9999999999999627
100
AcDbArc
 50
89.992924865768487
 51
177.75000000000011
  0
ARC
  5
1E7
330
2B
100
AcDbEntity
  8
LaserCutting
100
AcDbCircle
 10
1.590370258605095
 20
-293.17905839317592
 30
0
 40
3.0000000000000759
100
AcDbArc
 50
177.75000000000341
 51
267.627240098301
  0
ARC
  5
1E8
330
2B
100
AcDbEntity
  8
LaserCutting
100
AcDbCircle
 10
2.8893680057177948
 20
-293.2300961536626
 30
0
 40
3.0000000000001652
100
AcDbArc
 50
267.87275990170059
 51
357.74999999999682
  0
LINE
  5
1E9
330
2B
100
AcDbEntity
  8
LaserCutting
100
AcDbLine
 10
-0.172290006930619
 20
-261.62774676067318
 30
0
 11
-1.4073168501171549
 21
-293.06127894589878
 31
0
  0
LINE
  5
1EA
330
2B
100
AcDbEntity
  8
LaserCutting
100
AcDbLine
 10
7.1220819576266594
 20
-261.91434341571443
 30
0
 11
5.8870551144401233
 21
-293.34787560094
 31
0
  0
ARC
  5
1EB
330
2B
100
AcDbEntity
  8
LaserCutting
100
AcDbCircle
 10
14.15028840013527
 20
9.9358357992375659
 30
0
 40
306.375
100
AcDbArc
 50
267.62724009830242
 51
267.87275990169741
  0
ARC
  5
1EC
330
2B
100
AcDbEntity
  8
LaserCutting
100
AcDbCircle
 10
-28.38625059656961
 20
-258.8441085328904
 30
0
 40
6.9999999999999218
100
AcDbArc
 50
353.2499999999992
 51
81.007075134231627
  0
ARC
  5
1ED
330
2B
100
AcDbEntity
  8
LaserCutting
100
AcDbCircle
 10
-7.2338924634298
 20
-261.34765509874239
 30
0
 40
6.9999999999999627
100
AcDbArc
 50
85.492924865768515
 51
173.2499999999992
  0
ARC
  5
1EE
330
2B
100
AcDbEntity
  8
LaserCutting
100
AcDbCircle
 10
-22.15303220540363
 20
-291.2592165140623
 30
0
 40
3.0000000000000759
100
AcDbArc
 50
173.25000000000239
 51
263.12724009830112
  0
ARC
  5
1EF
330
2B
100
AcDbEntity
  8
LaserCutting
100
AcDbCircle
 10
-20.862043211362462
 20
-291.41201513075742
 30
0
 40
3.0000000000001652
100
AcDbArc
 50
263.3727599017007
 51
353.24999999999591
  0
LINE
  5
1F0
330
2B
100
AcDbEntity
  8
LaserCutting
100
AcDbLine
 10
-21.434771397885211
 20
-259.66687031509531
 30
0
 11
-25.132237576268508
 21
-290.9066043216888
 31
0
  0
LINE
  5
1F1
330
2B
100
AcDbEntity
  8
LaserCutting
100
AcDbLine
 10
-14.185371662114241
 20
-260.52489331653749
 30
0
 11
-17.88283784049754
 21
-291.76462732313109
 31
0
  0
ARC
  5
1F2
330
2B
100
AcDbEntity
  8
LaserCutting
100
AcDbCircle
 10
14.15028840013527
 20
9.9358357992375659
 30
0
 40
306.375
100
AcDbArc
 50
263.12724009830248
 51
263.37275990169712
  0
ARC
  5
1F3
330
2B
100
AcDbEntity
  8
LaserCutting
100
AcDbCircle
 10
-49.343356024774359
 20
-254.6781712802123
 30
0
 40
6.9999999999999218
100
AcDbArc
 50
348.7499999999992
 51
76.507075134231741
  0
ARC
  5
1F4
330
2B
100
AcDbEntity
  8
LaserCutting
100
AcDbCircle
 10
-28.45262955218568
 20
-258.83359513915588
 30
0
 40
6.9999999999999627
100
AcDbArc
 50
80.992924865768273
 51
168.7499999999992
  0
ARC
  5
1F5
330
2B
100
AcDbEntity
  8
LaserCutting
100
AcDbCircle
 10
-45.672612625800092
 20
-287.48240697991872
 30
0
 40
3.0000000000000759
100
AcDbArc
 50
168.7500000000025
 51
258.62724009830117
  0
ARC
  5
1F6
330
2B
100
AcDbEntity
  8
LaserCutting
100
AcDbCircle
 10
-44.397591761276118
 20
-287.73602439853948
 30
0
 40
3.0000000000001652
100
AcDbArc
 50
258.87275990170031
 51
348.74999999999579
  0
LINE
  5
1F7
330
2B
100
AcDbEntity
  8
LaserCutting
100
AcDbLine
 10
-42.47785906195184
 20
-256.04380353432532
 30
0
 11
-48.614968467009881
 21
-286.89713601387041
 31
0
  0
LINE
  5
1F8
330
2B
100
AcDbEntity
  8
LaserCutting
100
AcDbLine
 10
-35.31812651500826
 20
-257.467962885043
 30
0
 11
-41.4552359200663
 21
-288.32129536458808
 31
0
  0
ARC
  5
1F9
330
2B
100
AcDbEntity
  8
LaserCutting
100
AcDbCircle
 10
14.15028840013526
 20
9.935835799237509
 30
0
 40
306.375
100
AcDbArc
 50
258.62724009830242
 51
258.87275990169718
  0
ARC
  5
1FA
330
2B
100
AcDbEntity
  8
LaserCutting
100
AcDbCircle
 10
-69.90900202132
 20
-248.880800680803
 30
0
 40
6.9999999999999218
100
AcDbArc
 50
344.25000000000119
 51
72.007075134232167
  0
ARC
  5
1FB
330
2B
100
AcDbEntity
  8
LaserCutting
100
AcDbCircle
 10
-49.408705484857443
 20
-254.662482262929
 30
0
 40
6.9999999999999627
100
AcDbArc
 50
76.492924865768217
 51
164.25000000000119
  0
ARC
  5
1FC
330
2B
100
AcDbEntity
  8
LaserCutting
100
AcDbCircle
 10
-68.823364968238138
 20
-281.87191507743978
 30
0
 40
3.0000000000000759
100
AcDbArc
 50
164.25000000000449
 51
254.12724009830123
  0
ARC
  5
1FD
330
2B
100
AcDbEntity
  8
LaserCutting
100
AcDbCircle
 10
-67.5721731608486
 20
-282.2247876622643
 30
0
 40
3.0000000000001652
100
AcDbArc
 50
254.37275990170016
 51
344.2499999999979
  0
LINE
  5
1FE
330
2B
100
AcDbEntity
  8
LaserCutting
100
AcDbLine
 10
-63.171815366144557
 20
-250.78088382985851
 30
0
 11
-71.710730677599173
 21
-281.05759372784468
 31
0
  0
LINE
  5
1FF
330
2B
100
AcDbEntity
  8
LaserCutting
100
AcDbLine
 10
-56.145892140032927
 20
-252.76239911387361
 30
0
 11
-64.684807451487558
 21
-283.03910901185969
 31
0
  0
ARC
  5
200
330
2B
100
AcDbEntity
  8
LaserCutting
100
AcDbCircle
 10
14.15028840013526
 20
9.935835799237509
 30
0
 40
306.375
100
AcDbArc
 50
254.12724009830228
 51
254.37275990169744
  0
ARC
  5
201
330
2B
100
AcDbEntity
  8
LaserCutting
100
AcDbCircle
 10
-89.9563945398668
 20
-241.487739452229
 30
0
 40
6.999999999999921
100
AcDbArc
 50
339.75
 51
67.507075134231656
  0
ARC
  5
202
330
2B
100
AcDbEntity
  8
LaserCutting
100
AcDbCircle
 10
-69.972919084718
 20
-248.86003276797959
 30
0
 40
6.9999999999999618
100
AcDbArc
 50
71.992924865768742
 51
159.75
  0
ARC
  5
203
330
2B
100
AcDbEntity
  8
LaserCutting
100
AcDbCircle
 10
-91.462557146120531
 20
-274.46233135488228
 30
0
 40
3.0000000000000751
100
AcDbArc
 50
159.75000000000361
 51
249.62724009830043
  0
ARC
  5
204
330
2B
100
AcDbEntity
  8
LaserCutting
100
AcDbCircle
 10
-90.242908409421517
 20
-274.91228352908291
 30
0
 40
3.0000000000001652
100
AcDbArc
 50
249.87275990170116
 51
339.7499999999967
  0
LINE
  5
205
330
2B
100
AcDbEntity
  8
LaserCutting
100
AcDbLine
 10
-83.389055188409515
 20
-243.9105588517715
 30
0
 11
-94.2771311538881
 21
-273.42398018364992
 31
0
  0
LINE
  5
206
330
2B
100
AcDbEntity
  8
LaserCutting
100
AcDbLine
 10
-76.540258436175364
 20
-246.4372133684372
 30
0
 11
-87.428334401653956
 21
-275.95063470031562
 31
0
  0
ARC
  5
207
330
2B
100
AcDbEntity
  8
LaserCutting
100
AcDbCircle
 10
14.150288400135279
 20
9.935835799237509
 30
0
 40
306.37499999999989
100
AcDbArc
 50
249.62724009830313
 51
249.872759901697
  0
ARC
  5
208
330
2B
100
AcDbEntity
  8
LaserCutting
100
AcDbCircle
 10
-109.3619347391036
 20
-232.5445682754069
 30
0
 40
6.9999999999999218
100
AcDbArc
 50
335.24999999999937
 51
63.007075134232231
  0
ARC
  5
209
330
2B
100
AcDbEntity
  8
LaserCutting
100
AcDbCircle
 10
-90.018485136629565
 20
-241.4620206849541
 30
0
 40
6.9999999999999627
100
AcDbArc
 50
67.492924865768472
 51
155.2499999999994
  0
ARC
  5
20A
330
2B
100
AcDbEntity
  8
LaserCutting
100
AcDbCircle
 10
-113.4506110113756
 20
-265.29933835983218
 30
0
 40
3.0000000000000759
100
AcDbArc
 50
155.250000000003
 51
245.12724009830103
  0
ARC
  5
20B
330
2B
100
AcDbEntity
  8
LaserCutting
100
AcDbCircle
 10
-112.2700248854032
 20
-265.84359601863071
 30
0
 40
3.0000000000001652
100
AcDbArc
 50
245.37275990170033
 51
335.24999999999733
  0
LINE
  5
20C
330
2B
100
AcDbEntity
  8
LaserCutting
100
AcDbLine
 10
-103.0049325223282
 20
-235.47518643816889
 30
0
 11
-116.1750405328509
 21
-264.04335914722
 31
0
  0
LINE
  5
20D
330
2B
100
AcDbEntity
  8
LaserCutting
100
AcDbLine
 10
-96.3754873534051
 20
-238.53140252219211
 30
0
 11
-109.5455953639278
 21
-267.09957523124319
 31
0
  0
ARC
  5
20E
330
2B
100
AcDbEntity
  8
LaserCutting
100
AcDbCircle
 10
14.15028840013526
 20
9.935835799237509
 30
0
 40
306.375
100
AcDbArc
 50
245.12724009830251
 51
245.37275990169726
  0
ARC
  5
20F
330
2B
100
AcDbEntity
  8
LaserCutting
100
AcDbCircle
 10
-128.00598101070511
 20
-222.10642477454789
 30
0
 40
6.999999999999921
100
AcDbArc
 50
330.74999999999989
 51
58.507075134231812
  0
ARC
  5
210
330
2B
100
AcDbEntity
  8
LaserCutting
100
AcDbCircle
 10
-109.4218160600546
 20
-232.514057218433
 30
0
 40
6.9999999999999618
100
AcDbArc
 50
62.9929248657687
 51
150.74999999999989
  0
ARC
  5
211
330
2B
100
AcDbEntity
  8
LaserCutting
100
AcDbCircle
 10
-134.65196290015379
 20
-254.43942899110851
 30
0
 40
3.0000000000000751
100
AcDbArc
 50
150.7500000000035
 51
240.627240098301
  0
ARC
  5
212
330
2B
100
AcDbEntity
  8
LaserCutting
100
AcDbCircle
 10
-133.51771809095939
 20
-255.07463660505439
 30
0
 40
3.0000000000001652
100
AcDbArc
 50
240.87275990170062
 51
330.74999999999625
  0
LINE
  5
213
330
2B
100
AcDbEntity
  8
LaserCutting
100
AcDbLine
 10
-121.8985089611956
 20
-225.52677346502659
 30
0
 11
-137.26945092137231
 21
-252.9735652666177
 31
0
  0
LINE
  5
214
330
2B
100
AcDbEntity
  8
LaserCutting
100
AcDbLine
 10
-115.52928810956421
 20
-229.09370852795439
 30
0
 11
-130.9002300697409
 21
-256.54050032954552
 31
0
  0
ARC
  5
215
330
2B
100
AcDbEntity
  8
LaserCutting
100
AcDbCircle
 10
14.150288400135249
 20
9.9358357992375375
 30
0
 40
306.37499999999989
100
AcDbArc
 50
240.62724009830251
 51
240.872759901697
  0
ARC
  5
216
330
2B
100
AcDbEntity
  8
LaserCutting
100
AcDbCircle
 10
-145.773586609632
 20
-210.23766357537
 30
0
 40
6.9999999999999218
100
AcDbArc
 50
326.25
 51
54.007075134231727
  0
ARC
  5
217
330
2B
100
AcDbEntity
  8
LaserCutting
100
AcDbCircle
 10
-128.0632838675879
 20
-222.0713095386875
 30
0
 40
6.9999999999999627
100
AcDbArc
 50
58.492924865769247
 51
146.25
  0
ARC
  5
218
330
2B
100
AcDbEntity
  8
LaserCutting
100
AcDbCircle
 10
-154.93589942789581
 20
-241.9495582012558
 30
0
 40
3.0000000000000759
100
AcDbArc
 50
146.25000000000361
 51
236.12724009830174
  0
ARC
  5
219
330
2B
100
AcDbEntity
  8
LaserCutting
100
AcDbCircle
 10
-153.85498893190271
 20
-242.67179950418111
 30
0
 40
3.0000000000001652
100
AcDbArc
 50
236.37275990169971
 51
326.24999999999778
  0
LINE
  5
21A
330
2B
100
AcDbEntity
  8
LaserCutting
100
AcDbLine
 10
-139.9532993235143
 20
-214.12665520650719
 30
0
 11
-157.43030826480361
 21
-240.282847502197
 31
0
  0
LINE
  5
21B
330
2B
100
AcDbEntity
  8
LaserCutting
100
AcDbLine
 10
-133.8835711537057
 20
-218.1823179075503
 30
0
 11
-151.360580094995
 21
-244.33851020324011
 31
0
  0
ARC
  5
21C
330
2B
100
AcDbEntity
  8
LaserCutting
100
AcDbCircle
 10
14.150288400135249
 20
9.9358357992375375
 30
0
 40
306.375
100
AcDbArc
 50
236.12724009830174
 51
236.37275990169749
  0
ARC
  5
21D
330
2B
100
AcDbEntity
  8
LaserCutting
100
AcDbCircle
 10
-162.55520833903881
 20
-197.0114595374296
 30
0
 40
6.9999999999999218
100
AcDbArc
 50
321.74999999999989
 51
49.507075134231108
  0
ARC
  5
21E
330
2B
100
AcDbEntity
  8
LaserCutting
100
AcDbCircle
 10
-145.827957711279
 20
-210.198160657729
 30
0
 40
6.9999999999999627
100
AcDbArc
 50
53.992924865767669
 51
141.74999999999989
  0
ARC
  5
21F
330
2B
100
AcDbEntity
  8
LaserCutting
100
AcDbCircle
 10
-174.17736338081491
 20
-227.9067301969969
 30
0
 40
3.0000000000000759
100
AcDbArc
 50
141.7500000000035
 51
231.62724009830109
  0
ARC
  5
220
330
2B
100
AcDbEntity
  8
LaserCutting
100
AcDbCircle
 10
-173.15645137067011
 20
-228.71155233109951
 30
0
 40
3.0000000000001652
100
AcDbArc
 50
231.87275990169979
 51
321.74999999999659
  0
LINE
  5
221
330
2B
100
AcDbEntity
  8
LaserCutting
100
AcDbLine
 10
-157.05798982287371
 20
-201.34511718259839
 30
0
 11
-176.5333141734572
 21
-226.04944834906749
 31
0
  0
LINE
  5
222
330
2B
100
AcDbEntity
  8
LaserCutting
100
AcDbLine
 10
-151.32517622744419
 20
-205.86450301256019
 30
0
 11
-170.80050057802779
 21
-230.56883417902921
 31
0
  0
ARC
  5
223
330
2B
100
AcDbEntity
  8
LaserCutting
100
AcDbCircle
 10
14.150288400135279
 20
9.9358357992375375
 30
0
 40
306.375
100
AcDbArc
 50
231.62724009830339
 51
231.87275990169749
  0
ARC
  5
224
330
2B
100
AcDbEntity
  8
LaserCutting
100
AcDbCircle
 10
-178.2473819205083
 20
-182.50935660677939
 30
0
 40
6.9999999999999218
100
AcDbArc
 50
317.24999999999949
 51
45.00707513423157
  0
ARC
  5
225
330
2B
100
AcDbEntity
  8
LaserCutting
100
AcDbCircle
 10
-162.60631246952829
 20
-196.96781248663109
 30
0
 40
6.9999999999999627
100
AcDbArc
 50
49.492924865767989
 51
137.24999999999952
  0
ARC
  5
226
330
2B
100
AcDbEntity
  8
LaserCutting
100
AcDbCircle
 10
-192.2577247352055
 20
-212.39752368269211
 30
0
 40
3.0000000000000759
100
AcDbArc
 50
137.250000000003
 51
227.1272400983018
  0
ARC
  5
227
330
2B
100
AcDbEntity
  8
LaserCutting
100
AcDbCircle
 10
-191.30310547293919
 20
-213.2799646518848
 30
0
 40
3.0000000000001652
100
AcDbArc
 50
227.3727599017009
 51
317.24999999999721
  0
LINE
  5
228
330
2B
100
AcDbEntity
  8
LaserCutting
100
AcDbLine
 10
-173.10712435445859
 20
-187.26096182551
 30
0
 11
-194.4606922635127
 21
-210.36112144609331
 31
0
  0
LINE
  5
229
330
2B
100
AcDbEntity
  8
LaserCutting
100
AcDbLine
 10
-167.74657003557809
 20
-192.2162072679005
 30
0
 11
-189.10013794463219
 21
-215.3163668884838
 31
0
  0
ARC
  5
22A
330
2B
100
AcDbEntity
  8
LaserCutting
100
AcDbCircle
 10
14.150288400135249
 20
9.9358357992375659
 30
0
 40
306.375
100
AcDbArc
 50
227.1272400983018
 51
227.37275990169729
  0
ARC
  5
22B
330
2B
100
AcDbEntity
  8
LaserCutting
100
AcDbCircle
 10
-192.7533598857334
 20
-166.820765070426
 30
0
 40
6.9999999999999218
100
AcDbArc
 50
312.75000000000051
 51
40.507075134232011
  0
ARC
  5
22C
330
2B
100
AcDbEntity
  8
LaserCutting
100
AcDbCircle
 10
-178.29490400588179
 20
-182.461834521406
 30
0
 40
6.9999999999999627
100
AcDbArc
 50
44.992924865768437
 51
132.75000000000051
  0
ARC
  5
22D
330
2B
100
AcDbEntity
  8
LaserCutting
100
AcDbCircle
 10
-209.06551205098719
 20
-195.51755807383691
 30
0
 40
3.0000000000000759
100
AcDbArc
 50
132.75000000000281
 51
222.62724009830032
  0
ARC
  5
22E
330
2B
100
AcDbEntity
  8
LaserCutting
100
AcDbCircle
 10
-208.18307108179451
 20
-196.472177336103
 30
0
 40
3.0000000000001652
100
AcDbArc
 50
222.87275990170039
 51
312.749999999997
  0
LINE
  5
22F
330
2B
100
AcDbEntity
  8
LaserCutting
100
AcDbLine
 10
-188.0017546670029
 20
-171.9610226364758
 30
0
 11
-211.1019142875862
 21
-193.3145905455298
 31
0
  0
LINE
  5
230
330
2B
100
AcDbEntity
  8
LaserCutting
100
AcDbLine
 10
-183.04650922461241
 20
-177.32157695535631
 30
0
 11
-206.14666884519571
 21
-198.6751448644103
 31
0
  0
ARC
  5
231
330
2B
100
AcDbEntity
  8
LaserCutting
100
AcDbCircle
 10
14.150288400135221
 20
9.9358357992375375
 30
0
 40
306.375
100
AcDbArc
 50
222.62724009830259
 51
222.87275990169809
  0
ARC
  5
232
330
2B
100
AcDbEntity
  8
LaserCutting
100
AcDbCircle
 10
-205.9837080568312
 20
-150.0424103121768
 30
0
 40
6.999999999999921
100
AcDbArc
 50
308.25
 51
36.007075134232338
  0
ARC
  5
233
330
2B
100
AcDbEntity
  8
LaserCutting
100
AcDbCircle
 10
-192.7970069365318
 20
-166.76966093993661
 30
0
 40
6.9999999999999618
100
AcDbArc
 50
40.492924865768892
 51
128.25000000000011
  0
ARC
  5
234
330
2B
100
AcDbEntity
  8
LaserCutting
100
AcDbCircle
 10
-224.49709973020191
 20
-177.3709039715678
 30
0
 40
3.0000000000000751
100
AcDbArc
 50
128.25000000000341
 51
218.12724009830021
  0
ARC
  5
235
330
2B
100
AcDbEntity
  8
LaserCutting
100
AcDbCircle
 10
-223.69227759609919
 20
-178.3918159817126
 30
0
 40
3.0000000000001652
100
AcDbArc
 50
218.37275990170119
 51
308.24999999999648
  0
LINE
  5
236
330
2B
100
AcDbEntity
  8
LaserCutting
100
AcDbLine
 10
-201.65005041166251
 20
-155.539628828342
 30
0
 11
-226.35438157813149
 21
-175.01495317892559
 31
0
  0
LINE
  5
237
330
2B
100
AcDbEntity
  8
LaserCutting
100
AcDbLine
 10
-197.13066458170061
 20
-161.27244242377151
 30
0
 11
-221.83499574816969
 21
-180.747766774355
 31
0
  0
ARC
  5
238
330
2B
100
AcDbEntity
  8
LaserCutting
100
AcDbCircle
 10
14.150288400135221
 20
9.935835799237509
 30
0
 40
306.37499999999989
100
AcDbArc
 50
218.12724009830251
 51
218.37275990169661
  0
ARC
  5
239
330
2B
100
AcDbEntity
  8
LaserCutting
100
AcDbCircle
 10
-217.85685693778979
 20
-132.27773646848561
 30
0
 40
6.999999999999921
100
AcDbArc
 50
303.75
 51
31.50707513423076
  0
ARC
  5
23A
330
2B
100
AcDbEntity
  8
LaserCutting
100
AcDbCircle
 10
-206.02321097447231
 20
-149.98803921052971
 30
0
 40
6.9999999999999618
100
AcDbArc
 50
35.992924865768281
 51
123.74999999999991
  0
ARC
  5
23B
330
2B
100
AcDbEntity
  8
LaserCutting
100
AcDbCircle
 10
-238.45734690328351
 20
-158.06944153280031
 30
0
 40
3.0000000000000751
100
AcDbArc
 50
123.7500000000031
 51
213.62724009830032
  0
ARC
  5
23C
330
2B
100
AcDbEntity
  8
LaserCutting
100
AcDbCircle
 10
-237.73510560035811
 20
-159.15035202879341
 30
0
 40
3.0000000000001652
100
AcDbArc
 50
213.87275990170059
 51
303.74999999999631
  0
LINE
  5
23D
330
2B
100
AcDbEntity
  8
LaserCutting
100
AcDbLine
 10
-213.96786530665261
 20
-138.09802375460339
 30
0
 11
-240.12405760234239
 21
-155.5750326958927
 31
0
  0
LINE
  5
23E
330
2B
100
AcDbEntity
  8
LaserCutting
100
AcDbLine
 10
-209.91220260560951
 20
-144.167751924412
 30
0
 11
-236.06839490129931
 21
-161.64476086570119
 31
0
  0
ARC
  5
23F
330
2B
100
AcDbEntity
  8
LaserCutting
100
AcDbCircle
 10
14.150288400135279
 20
9.935835799237509
 30
0
 40
306.37499999999989
100
AcDbArc
 50
213.62724009830259
 51
213.87275990169829
  0
ARC
  5
240
330
2B
100
AcDbEntity
  8
LaserCutting
100
AcDbCircle
 10
-228.29960461753541
 20
-113.6362686609522
 30
0
 40
6.9999999999999218
100
AcDbArc
 50
299.25000000000051
 51
27.007075134231311
  0
ARC
  5
241
330
2B
100
AcDbEntity
  8
LaserCutting
100
AcDbCircle
 10
-217.89197217365029
 20
-132.22043361160269
 30
0
 40
6.9999999999999627
100
AcDbArc
 50
31.492924865768885
 51
119.2500000000005
  0
ARC
  5
242
330
2B
100
AcDbEntity
  8
LaserCutting
100
AcDbCircle
 10
-250.86018400415679
 20
-137.73217069185691
 30
0
 40
3.0000000000000759
100
AcDbArc
 50
119.25000000000411
 51
209.1272400983008
  0
ARC
  5
243
330
2B
100
AcDbEntity
  8
LaserCutting
100
AcDbCircle
 10
-250.22497639021091
 20
-138.86641550105119
 30
0
 40
3.0000000000001652
100
AcDbArc
 50
209.37275990170039
 51
299.24999999999687
  0
LINE
  5
244
330
2B
100
AcDbEntity
  8
LaserCutting
100
AcDbLine
 10
-224.8792559270567
 20
-119.74374071046179
 30
0
 11
-252.32604772864781
 21
-135.1146826706385
 31
0
  0
LINE
  5
245
330
2B
100
AcDbEntity
  8
LaserCutting
100
AcDbLine
 10
-221.312320864129
 20
-126.1129615620932
 30
0
 11
-248.7591126657201
 21
-141.48390352226991
 31
0
  0
ARC
  5
246
330
2B
100
AcDbEntity
  8
LaserCutting
100
AcDbCircle
 10
14.150288400135279
 20
9.9358357992375375
 30
0
 40
306.375
100
AcDbArc
 50
209.127240098303
 51
209.3727599016982
  0
ARC
  5
247
330
2B
100
AcDbEntity
  8
LaserCutting
100
AcDbCircle
 10
-237.24756808405641
 20
-94.232937737527266
 30
0
 40
6.9999999999999218
100
AcDbArc
 50
294.75000000000063
 51
22.507075134231538
  0
ARC
  5
248
330
2B
100
AcDbEntity
  8
LaserCutting
100
AcDbCircle
 10
-228.33011567450919
 20
-113.5763873400014
 30
0
 40
6.9999999999999627
100
AcDbArc
 50
26.9929248657685
 51
114.7500000000005
  0
ARC
  5
249
330
2B
100
AcDbEntity
  8
LaserCutting
100
AcDbCircle
 10
-261.62914341773308
 20
-116.4844774863008
 30
0
 40
3.0000000000000759
100
AcDbArc
 50
114.75000000000271
 51
204.62724009830049
  0
ARC
  5
24A
330
2B
100
AcDbEntity
  8
LaserCutting
100
AcDbCircle
 10
-261.0848857589346
 20
-117.6650636122731
 30
0
 40
3.0000000000001652
100
AcDbArc
 50
204.8727599017005
 51
294.74999999999687
  0
LINE
  5
24B
330
2B
100
AcDbEntity
  8
LaserCutting
100
AcDbLine
 10
-234.31694992129439
 20
-100.58993995430281
 30
0
 11
-262.88512263034562
 21
-113.7600479648255
 31
0
  0
LINE
  5
24C
330
2B
100
AcDbEntity
  8
LaserCutting
100
AcDbLine
 10
-231.2607338372712
 20
-107.21938512322581
 30
0
 11
-259.8289065463224
 21
-120.3894931337486
 31
0
  0
ARC
  5
24D
330
2B
100
AcDbEntity
  8
LaserCutting
100
AcDbCircle
 10
14.150288400135191
 20
9.9358357992375375
 30
0
 40
306.375
100
AcDbArc
 50
204.62724009830259
 51
204.87275990169681
  0
ARC
  5
24E
330
2B
100
AcDbEntity
  8
LaserCutting
100
AcDbCircle
 10
-244.64558016708179
 20
-74.187371685615815
 30
0
 40
6.9999999999999218
100
AcDbArc
 50
290.25
 51
18.007075134232029
  0
ARC
  5
24F
330
2B
100
AcDbEntity
  8
LaserCutting
100
AcDbCircle
 10
-237.27328685133131
 20
-94.170847140764636
 30
0
 40
6.9999999999999627
100
AcDbArc
 50
22.492924865768341
 51
110.25
  0
ARC
  5
250
330
2B
100
AcDbEntity
  8
LaserCutting
100
AcDbCircle
 10
-270.69783092818528
 20
-94.457361010319246
 30
0
 40
3.0000000000000759
100
AcDbArc
 50
110.2500000000033
 51
200.12724009830089
  0
ARC
  5
251
330
2B
100
AcDbEntity
  8
LaserCutting
100
AcDbCircle
 10
-270.24787875398459
 20
-95.6770097470182
 30
0
 40
3.0000000000001652
100
AcDbArc
 50
200.37275990170113
 51
290.24999999999659
  0
LINE
  5
252
330
2B
100
AcDbEntity
  8
LaserCutting
100
AcDbLine
 10
-242.22276076753951
 20
-80.75471103707315
 30
0
 11
-271.73618209941787
 21
-91.642787002551742
 31
0
  0
LINE
  5
253
330
2B
100
AcDbEntity
  8
LaserCutting
100
AcDbLine
 10
-239.69610625087381
 20
-87.603507789307287
 30
0
 11
-269.20952758275217
 21
-98.491583754785864
 31
0
  0
ARC
  5
254
330
2B
100
AcDbEntity
  8
LaserCutting
100
AcDbCircle
 10
14.150288400135191
 20
9.9358357992375517
 30
0
 40
306.375
100
AcDbArc
 50
200.12724009830239
 51
200.37275990169749
  0
ARC
  5
255
330
2B
100
AcDbEntity
  8
LaserCutting
100
AcDbCircle
 10
-250.4480296620313
 20
-53.623158085755122
 30
0
 40
6.9999999999999218
100
AcDbArc
 50
285.74999999999881
 51
13.50707513423178
  0
ARC
  5
256
330
2B
100
AcDbEntity
  8
LaserCutting
100
AcDbCircle
 10
-244.6663480799053
 20
-74.123454622217707
 30
0
 40
6.9999999999999627
100
AcDbArc
 50
17.99292486576822
 51
105.74999999999881
  0
ARC
  5
257
330
2B
100
AcDbEntity
  8
LaserCutting
100
AcDbCircle
 10
-278.01033506136667
 20
-71.78662576174618
 30
0
 40
3.0000000000000759
100
AcDbArc
 50
105.7500000000022
 51
195.627240098301
  0
ARC
  5
258
330
2B
100
AcDbEntity
  8
LaserCutting
100
AcDbCircle
 10
-277.65746247654209
 20
-73.037817569135683
 30
0
 40
3.0000000000001652
100
AcDbArc
 50
195.87275990170031
 51
285.74999999999551
  0
LINE
  5
259
330
2B
100
AcDbEntity
  8
LaserCutting
100
AcDbLine
 10
-248.54794651297581
 20
-60.360344740930593
 30
0
 11
-278.824656410962
 21
-68.8992600523852
 31
0
  0
LINE
  5
25A
330
2B
100
AcDbEntity
  8
LaserCutting
100
AcDbLine
 10
-246.56643122896079
 20
-67.386267967042215
 30
0
 11
-276.843141126947
 21
-75.9251832784968
 31
0
  0
ARC
  5
25B
330
2B
100
AcDbEntity
  8
LaserCutting
100
AcDbCircle
 10
14.15028840013531
 20
9.9358357992375375
 30
0
 40
306.375
100
AcDbArc
 50
195.62724009830251
 51
195.87275990169721
  0
ARC
  5
25C
330
2B
100
AcDbEntity
  8
LaserCutting
100
AcDbCircle
 10
-254.6191425382581
 20
-32.667082153083243
 30
0
 40
6.9999999999999218
100
AcDbArc
 50
281.25000000000085
 51
9.0070751342317052
  0
ARC
  5
25D
330
2B
100
AcDbEntity
  8
LaserCutting
100
AcDbCircle
 10
-250.46371867931461
 20
-53.557808625671939
 30
0
 40
6.9999999999999627
100
AcDbArc
 50
13.492924865768259
 51
101.2500000000007
  0
ARC
  5
25E
330
2B
100
AcDbEntity
  8
LaserCutting
100
AcDbCircle
 10
-283.521571797642
 20
-48.612044362173549
 30
0
 40
3.0000000000000759
100
AcDbArc
 50
101.25000000000411
 51
191.1272400983012
  0
ARC
  5
25F
330
2B
100
AcDbEntity
  8
LaserCutting
100
AcDbCircle
 10
-283.267954379021
 20
-49.887065226697509
 30
0
 40
3.0000000000001652
100
AcDbArc
 50
191.37275990170039
 51
281.2499999999975
  0
LINE
  5
260
330
2B
100
AcDbEntity
  8
LaserCutting
100
AcDbLine
 10
-253.25351028414531
 20
-39.53257911590579
 30
0
 11
-284.10684276369051
 21
-45.66968852096381
 31
0
  0
LINE
  5
261
330
2B
100
AcDbEntity
  8
LaserCutting
100
AcDbLine
 10
-251.82935093342749
 20
-46.692311662849363
 30
0
 11
-282.68268341297272
 21
-52.82942106790739
 31
0
  0
ARC
  5
262
330
2B
100
AcDbEntity
  8
LaserCutting
100
AcDbCircle
 10
14.150288400135249
 20
9.9358357992375375
 30
0
 40
306.375
100
AcDbArc
 50
191.12724009830239
 51
191.37275990169721
  0
ARC
  5
263
330
2B
100
AcDbEntity
  8
LaserCutting
100
AcDbCircle
 10
-257.13320249784459
 20
-11.448345064327491
 30
0
 40
6.9999999999999218
100
AcDbArc
 50
276.7500000000008
 51
4.5070751342317159
  0
ARC
  5
264
330
2B
100
AcDbEntity
  8
LaserCutting
100
AcDbCircle
 10
-254.62965593199269
 20
-32.600703197467311
 30
0
 40
6.9999999999999627
100
AcDbArc
 50
8.9929248657685754
 51
96.750000000000824
  0
ARC
  5
265
330
2B
100
AcDbEntity
  8
LaserCutting
100
AcDbCircle
 10
-287.19756252985968
 20
-25.076495812260031
 30
0
 40
3.0000000000000759
100
AcDbArc
 50
96.750000000004093
 51
186.62724009830131
  0
ARC
  5
266
330
2B
100
AcDbEntity
  8
LaserCutting
100
AcDbCircle
 10
-287.04476391316462
 20
-26.367484806301189
 30
0
 40
3.0000000000001652
100
AcDbArc
 50
186.8727599017005
 51
276.74999999999761
  0
LINE
  5
267
330
2B
100
AcDbEntity
  8
LaserCutting
100
AcDbLine
 10
-256.3104407156398
 20
-18.3998242630119
 30
0
 11
-287.55017472223341
 21
-22.097290441395181
 31
0
  0
LINE
  5
268
330
2B
100
AcDbEntity
  8
LaserCutting
100
AcDbLine
 10
-255.45241771419751
 20
-25.649223998782869
 30
0
 11
-286.69215172079117
 21
-29.346690177166149
 31
0
  0
ARC
  5
269
330
2B
100
AcDbEntity
  8
LaserCutting
100
AcDbCircle
 10
14.15028840013531
 20
9.9358357992375446
 30
0
 40
306.375
100
AcDbArc
 50
186.62724009830271
 51
186.87275990169729
  0
ARC
  5
26A
330
2B
100
AcDbEntity
  8
LaserCutting
100
AcDbCircle
 10
-257.97470952513021
 20
9.9022326104138667
 30
0
 40
6.9999999999999218
100
AcDbArc
 50
272.24999999999989
 51
0.0070751342316998011
  0
ARC
  5
26B
330
2B
100
AcDbEntity
  8
LaserCutting
100
AcDbCircle
 10
-257.138475449462
 20
-11.38134586151341
 30
0
 40
6.9999999999999627
100
AcDbArc
 50
4.49292486576848
 51
92.249999999999915
  0
ARC
  5
26C
330
2B
100
AcDbEntity
  8
LaserCutting
100
AcDbCircle
 10
-289.015643552765
 20
-1.3250845951798951
 30
0
 40
3.0000000000000759
100
AcDbArc
 50
92.250000000003169
 51
182.127240098301
  0
ARC
  5
26D
330
2B
100
AcDbEntity
  8
LaserCutting
100
AcDbCircle
 10
-288.96460579227818
 20
-2.6240823422925921
 30
0
 40
3.0000000000001652
100
AcDbArc
 50
182.37275990170059
 51
272.24999999999659
  0
LINE
  5
26E
330
2B
100
AcDbEntity
  8
LaserCutting
100
AcDbLine
 10
-257.69989081481668
 20
2.9076293567288838
 30
0
 11
-289.1334230000424
 21
1.672602513542345
 31
0
  0
LINE
  5
26F
330
2B
100
AcDbEntity
  8
LaserCutting
100
AcDbLine
 10
-257.41329415977549
 20
-4.386742607828392
 30
0
 11
-288.84682634500109
 21
-5.6217694510149316
 31
0
  0
ARC
  5
270
330
2B
100
AcDbEntity
  8
LaserCutting
100
AcDbCircle
 10
14.150288400135191
 20
9.935835799237541
 30
0
 40
306.375
100
AcDbArc
 50
182.12724009830239
 51
182.37275990169741
  0
ARC
  5
271
330
2B
100
AcDbEntity
  8
LaserCutting
100
AcDbCircle
 10
-257.138475449462
 20
31.25301745998852
 30
0
 40
6.9999999999999218
100
AcDbArc
 50
267.75000000000011
 51
355.50707513423168
  0
ARC
  5
272
330
2B
100
AcDbEntity
  8
LaserCutting
100
AcDbCircle
 10
-257.97470952513021
 20
9.9694389880612349
 30
0
 40
6.9999999999999627
100
AcDbArc
 50
359.99292486576849
 51
87.750000000000114
  0
ARC
  5
273
330
2B
100
AcDbEntity
  8
LaserCutting
100
AcDbCircle
 10
-288.96460579227818
 20
22.49575394076783
 30
0
 40
3.0000000000000759
100
AcDbArc
 50
87.750000000003354
 51
177.627240098301
  0
ARC
  5
274
330
2B
100
AcDbEntity
  8
LaserCutting
100
AcDbCircle
 10
-289.015643552765
 20
21.19675619365513
 30
0
 40
3.0000000000001652
100
AcDbArc
 50
177.87275990170059
 51
267.74999999999682
  0
LINE
  5
275
330
2B
100
AcDbEntity
  8
LaserCutting
100
AcDbLine
 10
-257.41329415977549
 20
24.258414206303542
 30
0
 11
-288.84682634500109
 21
25.493441049490091
 31
0
  0
LINE
  5
276
330
2B
100
AcDbEntity
  8
LaserCutting
100
AcDbLine
 10
-257.69989081481668
 20
16.96404224174626
 30
0
 11
-289.1334230000424
 21
18.1990690849328
 31
0
  0
ARC
  5
277
330
2B
100
AcDbEntity
  8
LaserCutting
100
AcDbCircle
 10
14.150288400135249
 20
9.935835799237541
 30
0
 40
306.375
100
AcDbArc
 50
177.62724009830251
 51
177.87275990169729
  0
ARC
  5
278
330
2B
100
AcDbEntity
  8
LaserCutting
100
AcDbCircle
 10
-254.62965593199269
 20
52.4723747959424
 30
0
 40
6.9999999999999218
100
AcDbArc
 50
263.2499999999992
 51
351.00707513423163
  0
ARC
  5
279
330
2B
100
AcDbEntity
  8
LaserCutting
100
AcDbCircle
 10
-257.13320249784459
 20
31.3200166628026
 30
0
 40
6.9999999999999627
100
AcDbArc
 50
355.49292486576849
 51
83.2499999999992
  0
ARC
  5
27A
330
2B
100
AcDbEntity
  8
LaserCutting
100
AcDbCircle
 10
-287.04476391316462
 20
46.239156404776431
 30
0
 40
3.0000000000000759
100
AcDbArc
 50
83.250000000002444
 51
173.12724009830089
  0
ARC
  5
27B
330
2B
100
AcDbEntity
  8
LaserCutting
100
AcDbCircle
 10
-287.19756252985968
 20
44.948167410735259
 30
0
 40
3.0000000000001652
100
AcDbArc
 50
173.37275990170079
 51
263.249999999996
  0
LINE
  5
27C
330
2B
100
AcDbEntity
  8
LaserCutting
100
AcDbLine
 10
-255.45241771419759
 20
45.520895597258
 30
0
 11
-286.69215172079117
 21
49.2183617756413
 31
0
  0
LINE
  5
27D
330
2B
100
AcDbEntity
  8
LaserCutting
100
AcDbLine
 10
-256.3104407156398
 20
38.27149586148704
 30
0
 11
-287.55017472223341
 21
41.968962039870327
 31
0
  0
ARC
  5
27E
330
2B
100
AcDbEntity
  8
LaserCutting
100
AcDbCircle
 10
14.150288400135249
 20
9.9358357992375446
 30
0
 40
306.375
100
AcDbArc
 50
173.12724009830251
 51
173.37275990169721
  0
ARC
  5
27F
330
2B
100
AcDbEntity
  8
LaserCutting
100
AcDbCircle
 10
-250.46371867931461
 20
73.429480224147056
 30
0
 40
6.9999999999999218
100
AcDbArc
 50
258.7499999999992
 51
346.5070751342322
  0
ARC
  5
280
330
2B
100
AcDbEntity
  8
LaserCutting
100
AcDbCircle
 10
-254.6191425382581
 20
52.53875375155836
 30
0
 40
6.9999999999999627
100
AcDbArc
 50
350.99292486576832
 51
78.749999999999162
  0
ARC
  5
281
330
2B
100
AcDbEntity
  8
LaserCutting
100
AcDbCircle
 10
-283.267954379021
 20
69.758736825172761
 30
0
 40
3.0000000000000759
100
AcDbArc
 50
78.750000000002515
 51
168.62724009830154
  0
ARC
  5
282
330
2B
100
AcDbEntity
  8
LaserCutting
100
AcDbCircle
 10
-283.52157179764191
 20
68.4837159606488
 30
0
 40
3.0000000000001652
100
AcDbArc
 50
168.87275990170039
 51
258.74999999999591
  0
LINE
  5
283
330
2B
100
AcDbEntity
  8
LaserCutting
100
AcDbLine
 10
-251.82935093342749
 20
66.563983261324523
 30
0
 11
-282.68268341297272
 21
72.70109266638255
 31
0
  0
LINE
  5
284
330
2B
100
AcDbEntity
  8
LaserCutting
100
AcDbLine
 10
-253.25351028414531
 20
59.404250714380929
 30
0
 11
-284.10684276369051
 21
65.541360119438963
 31
0
  0
ARC
  5
285
330
2B
100
AcDbEntity
  8
LaserCutting
100
AcDbCircle
 10
14.150288400135249
 20
9.9358357992375588
 30
0
 40
306.375
100
AcDbArc
 50
168.62724009830231
 51
168.87275990169721
  0
ARC
  5
286
330
2B
100
AcDbEntity
  8
LaserCutting
100
AcDbCircle
 10
-244.6663480799053
 20
93.995126220692811
 30
0
 40
6.9999999999999218
100
AcDbArc
 50
254.25000000000119
 51
342.0070751342318
  0
ARC
  5
287
330
2B
100
AcDbEntity
  8
LaserCutting
100
AcDbCircle
 10
-250.44802966203139
 20
73.49482968423024
 30
0
 40
6.9999999999999627
100
AcDbArc
 50
346.4929248657682
 51
74.250000000001165
  0
ARC
  5
288
330
2B
100
AcDbEntity
  8
LaserCutting
100
AcDbCircle
 10
-277.65746247654221
 20
92.909489167610928
 30
0
 40
3.0000000000000759
100
AcDbArc
 50
74.250000000004533
 51
164.1272400983012
  0
ARC
  5
289
330
2B
100
AcDbEntity
  8
LaserCutting
100
AcDbCircle
 10
-278.01033506136662
 20
91.658297360221411
 30
0
 40
3.0000000000001652
100
AcDbArc
 50
164.37275990170059
 51
254.24999999999781
  0
LINE
  5
28A
330
2B
100
AcDbEntity
  8
LaserCutting
100
AcDbLine
 10
-246.56643122896079
 20
87.257939565517376
 30
0
 11
-276.843141126947
 21
95.796854876971992
 31
0
  0
LINE
  5
28B
330
2B
100
AcDbEntity
  8
LaserCutting
100
AcDbLine
 10
-248.5479465129759
 20
80.232016339405746
 30
0
 11
-278.82465641096212
 21
88.770931650860348
 31
0
  0
ARC
  5
28C
330
2B
100
AcDbEntity
  8
LaserCutting
100
AcDbCircle
 10
14.150288400135191
 20
9.9358357992375517
 30
0
 40
306.375
100
AcDbArc
 50
164.12724009830271
 51
164.37275990169741
  0
ARC
  5
28D
330
2B
100
AcDbEntity
  8
LaserCutting
100
AcDbCircle
 10
-237.27328685133131
 20
114.0425187392397
 30
0
 40
6.999999999999921
100
AcDbArc
 50
249.75
 51
337.50707513423168
  0
ARC
  5
28E
330
2B
100
AcDbEntity
  8
LaserCutting
100
AcDbCircle
 10
-244.6455801670819
 20
94.059043284090933
 30
0
 40
6.9999999999999618
100
AcDbArc
 50
341.99292486576871
 51
69.75
  0
ARC
  5
28F
330
2B
100
AcDbEntity
  8
LaserCutting
100
AcDbCircle
 10
-270.24787875398448
 20
115.54868134549341
 30
0
 40
3.0000000000000751
100
AcDbArc
 50
69.75000000000361
 51
159.627240098301
  0
ARC
  5
290
330
2B
100
AcDbEntity
  8
LaserCutting
100
AcDbCircle
 10
-270.69783092818523
 20
114.32903260879441
 30
0
 40
3.0000000000001652
100
AcDbArc
 50
159.87275990170059
 51
249.74999999999659
  0
LINE
  5
291
330
2B
100
AcDbEntity
  8
LaserCutting
100
AcDbLine
 10
-239.6961062508737
 20
107.4751793877824
 30
0
 11
-269.20952758275217
 21
118.363255353261
 31
0
  0
LINE
  5
292
330
2B
100
AcDbEntity
  8
LaserCutting
100
AcDbLine
 10
-242.22276076753951
 20
100.6263826355483
 30
0
 11
-271.73618209941787
 21
111.5144586010269
 31
0
  0
ARC
  5
293
330
2B
100
AcDbEntity
  8
LaserCutting
100
AcDbCircle
 10
14.150288400135191
 20
9.9358357992375659
 30
0
 40
306.37499999999989
100
AcDbArc
 50
159.62724009830251
 51
159.87275990169761
  0
ARC
  5
294
330
2B
100
AcDbEntity
  8
LaserCutting
100
AcDbCircle
 10
-228.33011567450919
 20
133.44805893847649
 30
0
 40
6.9999999999999218
100
AcDbArc
 50
245.24999999999952
 51
333.00707513423151
  0
ARC
  5
295
330
2B
100
AcDbEntity
  8
LaserCutting
100
AcDbCircle
 10
-237.24756808405641
 20
114.1046093360024
 30
0
 40
6.9999999999999627
100
AcDbArc
 50
337.49292486576837
 51
65.249999999999773
  0
ARC
  5
296
330
2B
100
AcDbEntity
  8
LaserCutting
100
AcDbCircle
 10
-261.0848857589346
 20
137.53673521074839
 30
0
 40
3.0000000000000759
100
AcDbArc
 50
65.250000000002728
 51
155.12724009830021
  0
ARC
  5
297
330
2B
100
AcDbEntity
  8
LaserCutting
100
AcDbCircle
 10
-261.62914341773308
 20
136.356149084776
 30
0
 40
3.0000000000001652
100
AcDbArc
 50
155.37275990170019
 51
245.24999999999733
  0
LINE
  5
298
330
2B
100
AcDbEntity
  8
LaserCutting
100
AcDbLine
 10
-231.2607338372712
 20
127.091056721701
 30
0
 11
-259.8289065463224
 21
140.26116473222379
 31
0
  0
LINE
  5
299
330
2B
100
AcDbEntity
  8
LaserCutting
100
AcDbLine
 10
-234.31694992129439
 20
120.4616115527779
 30
0
 11
-262.88512263034562
 21
133.63171956330069
 31
0
  0
ARC
  5
29A
330
2B
100
AcDbEntity
  8
LaserCutting
100
AcDbCircle
 10
14.150288400135191
 20
9.9358357992375659
 30
0
 40
306.375
100
AcDbArc
 50
155.12724009830171
 51
155.37275990169661
  0
ARC
  5
29B
330
2B
100
AcDbEntity
  8
LaserCutting
100
AcDbCircle
 10
-217.89197217365029
 20
152.09210521007779
 30
0
 40
6.999999999999921
100
AcDbArc
 50
240.7500000000002
 51
328.50707513423112
  0
ARC
  5
29C
330
2B
100
AcDbEntity
  8
LaserCutting
100
AcDbCircle
 10
-228.29960461753541
 20
133.50794025942739
 30
0
 40
6.9999999999999618
100
AcDbArc
 50
332.99292486576871
 51
60.75000000000027
  0
ARC
  5
29D
330
2B
100
AcDbEntity
  8
LaserCutting
100
AcDbCircle
 10
-250.22497639021091
 20
158.7380870995265
 30
0
 40
3.0000000000000751
100
AcDbArc
 50
60.750000000003119
 51
150.62724009830171
  0
ARC
  5
29E
330
2B
100
AcDbEntity
  8
LaserCutting
100
AcDbCircle
 10
-250.86018400415671
 20
157.6038422903321
 30
0
 40
3.0000000000001652
100
AcDbArc
 50
150.87275990170059
 51
240.74999999999659
  0
LINE
  5
29F
330
2B
100
AcDbEntity
  8
LaserCutting
100
AcDbLine
 10
-221.312320864129
 20
145.98463316056839
 30
0
 11
-248.7591126657201
 21
161.355575120745
 31
0
  0
LINE
  5
2A0
330
2B
100
AcDbEntity
  8
LaserCutting
100
AcDbLine
 10
-224.8792559270567
 20
139.6154123089369
 30
0
 11
-252.32604772864781
 21
154.9863542691136
 31
0
  0
ARC
  5
2A1
330
2B
100
AcDbEntity
  8
LaserCutting
100
AcDbCircle
 10
14.150288400135191
 20
9.9358357992375943
 30
0
 40
306.37499999999989
100
AcDbArc
 50
150.62724009830171
 51
150.872759901697
  0
ARC
  5
2A2
330
2B
100
AcDbEntity
  8
LaserCutting
100
AcDbCircle
 10
-206.02321097447231
 20
169.85971080900481
 30
0
 40
6.9999999999999218
100
AcDbArc
 50
236.25
 51
324.00707513423168
  0
ARC
  5
2A3
330
2B
100
AcDbEntity
  8
LaserCutting
100
AcDbCircle
 10
-217.85685693778979
 20
152.14940806696069
 30
0
 40
6.9999999999999627
100
AcDbArc
 50
328.49292486576928
 51
56.250000000000028
  0
ARC
  5
2A4
330
2B
100
AcDbEntity
  8
LaserCutting
100
AcDbCircle
 10
-237.73510560035811
 20
179.0220236272686
 30
0
 40
3.0000000000000759
100
AcDbArc
 50
56.250000000003652
 51
146.12724009830171
  0
ARC
  5
2A5
330
2B
100
AcDbEntity
  8
LaserCutting
100
AcDbCircle
 10
-238.45734690328339
 20
177.9411131312755
 30
0
 40
3.0000000000001652
100
AcDbArc
 50
146.37275990169971
 51
236.24999999999781
  0
LINE
  5
2A6
330
2B
100
AcDbEntity
  8
LaserCutting
100
AcDbLine
 10
-209.91220260560951
 20
164.03942352288709
 30
0
 11
-236.06839490129931
 21
181.5164324641764
 31
0
  0
LINE
  5
2A7
330
2B
100
AcDbEntity
  8
LaserCutting
100
AcDbLine
 10
-213.96786530665261
 20
157.96969535307849
 30
0
 11
-240.12405760234239
 21
175.44670429436781
 31
0
  0
ARC
  5
2A8
330
2B
100
AcDbEntity
  8
LaserCutting
100
AcDbCircle
 10
14.150288400135221
 20
9.9358357992375659
 30
0
 40
306.375
100
AcDbArc
 50
146.12724009830171
 51
146.37275990169741
  0
ARC
  5
2A9
330
2B
100
AcDbEntity
  8
LaserCutting
100
AcDbCircle
 10
-192.7970069365318
 20
186.64133253841169
 30
0
 40
6.9999999999999218
100
AcDbArc
 50
231.74999999999989
 51
319.50707513423112
  0
ARC
  5
2AA
330
2B
100
AcDbEntity
  8
LaserCutting
100
AcDbCircle
 10
-205.98370805683129
 20
169.9140819106519
 30
0
 40
6.9999999999999627
100
AcDbArc
 50
323.99292486576758
 51
51.749999999999922
  0
ARC
  5
2AB
330
2B
100
AcDbEntity
  8
LaserCutting
100
AcDbCircle
 10
-223.69227759609919
 20
198.26348758018781
 30
0
 40
3.0000000000000759
100
AcDbArc
 50
51.750000000003489
 51
141.62724009830109
  0
ARC
  5
2AC
330
2B
100
AcDbEntity
  8
LaserCutting
100
AcDbCircle
 10
-224.4970997302018
 20
197.242575570043
 30
0
 40
3.0000000000001652
100
AcDbArc
 50
141.87275990169979
 51
231.74999999999659
  0
LINE
  5
2AD
330
2B
100
AcDbEntity
  8
LaserCutting
100
AcDbLine
 10
-197.1306645817007
 20
181.14411402224661
 30
0
 11
-221.83499574816969
 21
200.61943837283019
 31
0
  0
LINE
  5
2AE
330
2B
100
AcDbEntity
  8
LaserCutting
100
AcDbLine
 10
-201.65005041166251
 20
175.41130042681709
 30
0
 11
-226.35438157813149
 21
194.8866247774007
 31
0
  0
ARC
  5
2AF
330
2B
100
AcDbEntity
  8
LaserCutting
100
AcDbCircle
 10
14.150288400135221
 20
9.9358357992375375
 30
0
 40
306.375
100
AcDbArc
 50
141.62724009830339
 51
141.87275990169749
  0
ARC
  5
2B0
330
2B
100
AcDbEntity
  8
LaserCutting
100
AcDbCircle
 10
-178.29490400588179
 20
202.33350611988121
 30
0
 40
6.9999999999999218
100
AcDbArc
 50
227.24999999999952
 51
315.00707513423163
  0
ARC
  5
2B1
330
2B
100
AcDbEntity
  8
LaserCutting
100
AcDbCircle
 10
-192.7533598857334
 20
186.69243666890111
 30
0
 40
6.9999999999999627
100
AcDbArc
 50
319.492924865768
 51
47.2499999999995
  0
ARC
  5
2B2
330
2B
100
AcDbEntity
  8
LaserCutting
100
AcDbCircle
 10
-208.18307108179451
 20
216.34384893457829
 30
0
 40
3.0000000000000759
100
AcDbArc
 50
47.250000000002991
 51
137.12724009830191
  0
ARC
  5
2B3
330
2B
100
AcDbEntity
  8
LaserCutting
100
AcDbCircle
 10
-209.06551205098711
 20
215.3892296723121
 30
0
 40
3.0000000000001652
100
AcDbArc
 50
137.3727599017009
 51
227.24999999999719
  0
LINE
  5
2B4
330
2B
100
AcDbEntity
  8
LaserCutting
100
AcDbLine
 10
-183.04650922461241
 20
197.19324855383141
 30
0
 11
-206.14666884519571
 21
218.54681646288549
 31
0
  0
LINE
  5
2B5
330
2B
100
AcDbEntity
  8
LaserCutting
100
AcDbLine
 10
-188.0017546670029
 20
191.83269423495091
 30
0
 11
-211.1019142875862
 21
213.186262144005
 31
0
  0
ARC
  5
2B6
330
2B
100
AcDbEntity
  8
LaserCutting
100
AcDbCircle
 10
14.150288400135221
 20
9.9358357992375659
 30
0
 40
306.375
100
AcDbArc
 50
137.12724009830191
 51
137.37275990169729
  0
ARC
  5
2B7
330
2B
100
AcDbEntity
  8
LaserCutting
100
AcDbCircle
 10
-162.60631246952829
 20
216.83948408510619
 30
0
 40
6.9999999999999218
100
AcDbArc
 50
222.75000000000051
 51
310.507075134232
  0
ARC
  5
2B8
330
2B
100
AcDbEntity
  8
LaserCutting
100
AcDbCircle
 10
-178.24738192050839
 20
202.38102820525461
 30
0
 40
6.9999999999999627
100
AcDbArc
 50
314.99292486576837
 51
42.7500000000005
  0
ARC
  5
2B9
330
2B
100
AcDbEntity
  8
LaserCutting
100
AcDbCircle
 10
-191.30310547293919
 20
233.15163625036
 30
0
 40
3.0000000000000759
100
AcDbArc
 50
42.750000000002807
 51
132.62724009830029
  0
ARC
  5
2BA
330
2B
100
AcDbEntity
  8
LaserCutting
100
AcDbCircle
 10
-192.25772473520539
 20
232.2691952811673
 30
0
 40
3.0000000000001652
100
AcDbArc
 50
132.87275990170039
 51
222.749999999997
  0
LINE
  5
2BB
330
2B
100
AcDbEntity
  8
LaserCutting
100
AcDbLine
 10
-167.74657003557809
 20
212.08787886637569
 30
0
 11
-189.10013794463219
 21
235.1880384869589
 31
0
  0
LINE
  5
2BC
330
2B
100
AcDbEntity
  8
LaserCutting
100
AcDbLine
 10
-173.10712435445859
 20
207.1326334239852
 30
0
 11
-194.4606922635127
 21
230.2327930445685
 31
0
  0
ARC
  5
2BD
330
2B
100
AcDbEntity
  8
LaserCutting
100
AcDbCircle
 10
14.150288400135221
 20
9.9358357992375659
 30
0
 40
306.375
100
AcDbArc
 50
132.62724009830259
 51
132.87275990169809
  0
ARC
  5
2BE
330
2B
100
AcDbEntity
  8
LaserCutting
100
AcDbCircle
 10
-145.82795771127911
 20
230.069832256204
 30
0
 40
6.9999999999999218
100
AcDbArc
 50
218.25
 51
306.00707513423231
  0
ARC
  5
2BF
330
2B
100
AcDbEntity
  8
LaserCutting
100
AcDbCircle
 10
-162.5552083390389
 20
216.88313113590459
 30
0
 40
6.9999999999999627
100
AcDbArc
 50
310.49292486576888
 51
38.250000000000078
  0
ARC
  5
2C0
330
2B
100
AcDbEntity
  8
LaserCutting
100
AcDbCircle
 10
-173.15645137067011
 20
248.5832239295747
 30
0
 40
3.0000000000000759
100
AcDbArc
 50
38.250000000003368
 51
128.12724009830021
  0
ARC
  5
2C1
330
2B
100
AcDbEntity
  8
LaserCutting
100
AcDbCircle
 10
-174.17736338081491
 20
247.778401795472
 30
0
 40
3.0000000000001652
100
AcDbArc
 50
128.3727599017011
 51
218.2499999999965
  0
LINE
  5
2C2
330
2B
100
AcDbEntity
  8
LaserCutting
100
AcDbLine
 10
-151.3251762274443
 20
225.7361746110353
 30
0
 11
-170.80050057802791
 21
250.44050577750431
 31
0
  0
LINE
  5
2C3
330
2B
100
AcDbEntity
  8
LaserCutting
100
AcDbLine
 10
-157.05798982287379
 20
221.21678878107349
 30
0
 11
-176.53331417345731
 21
245.92111994754251
 31
0
  0
ARC
  5
2C4
330
2B
100
AcDbEntity
  8
LaserCutting
100
AcDbCircle
 10
14.150288400135221
 20
9.9358357992375943
 30
0
 40
306.375
100
AcDbArc
 50
128.12724009830251
 51
128.37275990169661
  0
ARC
  5
2C5
330
2B
100
AcDbEntity
  8
LaserCutting
100
AcDbCircle
 10
-128.0632838675879
 20
241.9429811371626
 30
0
 40
6.9999999999999218
100
AcDbArc
 50
213.75
 51
301.50707513423072
  0
ARC
  5
2C6
330
2B
100
AcDbEntity
  8
LaserCutting
100
AcDbCircle
 10
-145.7735866096321
 20
230.1093351738451
 30
0
 40
6.9999999999999627
100
AcDbArc
 50
305.99292486576832
 51
33.749999999999972
  0
ARC
  5
2C7
330
2B
100
AcDbEntity
  8
LaserCutting
100
AcDbCircle
 10
-153.8549889319026
 20
262.54347110265633
 30
0
 40
3.0000000000000759
100
AcDbArc
 50
33.750000000003133
 51
123.62724009830031
  0
ARC
  5
2C8
330
2B
100
AcDbEntity
  8
LaserCutting
100
AcDbCircle
 10
-154.93589942789569
 20
261.82122979973087
 30
0
 40
3.0000000000001652
100
AcDbArc
 50
123.8727599017006
 51
213.74999999999631
  0
LINE
  5
2C9
330
2B
100
AcDbEntity
  8
LaserCutting
100
AcDbLine
 10
-133.8835711537057
 20
238.0539895060254
 30
0
 11
-151.360580094995
 21
264.21018180171518
 31
0
  0
LINE
  5
2CA
330
2B
100
AcDbEntity
  8
LaserCutting
100
AcDbLine
 10
-139.9532993235143
 20
233.99832680498241
 30
0
 11
-157.43030826480361
 21
260.15451910067208
 31
0
  0
ARC
  5
2CB
330
2B
100
AcDbEntity
  8
LaserCutting
100
AcDbCircle
 10
14.150288400135221
 20
9.9358357992375375
 30
0
 40
306.375
100
AcDbArc
 50
123.62724009830249
 51
123.87275990169829
  0
ARC
  5
2CC
330
2B
100
AcDbEntity
  8
LaserCutting
100
AcDbCircle
 10
-109.4218160600546
 20
252.3857288169082
 30
0
 40
6.9999999999999218
100
AcDbArc
 50
209.25000000000011
 51
297.00707513423129
  0
ARC
  5
2CD
330
2B
100
AcDbEntity
  8
LaserCutting
100
AcDbCircle
 10
-128.00598101070511
 20
241.97809637302319
 30
0
 40
6.9999999999999627
100
AcDbArc
 50
301.492924865769
 51
29.250000000000139
  0
ARC
  5
2CE
330
2B
100
AcDbEntity
  8
LaserCutting
100
AcDbCircle
 10
-133.51771809095919
 20
274.94630820352972
 30
0
 40
3.0000000000000759
100
AcDbArc
 50
29.250000000003773
 51
119.12724009830082
  0
ARC
  5
2CF
330
2B
100
AcDbEntity
  8
LaserCutting
100
AcDbCircle
 10
-134.65196290015359
 20
274.3111005895837
 30
0
 40
3.0000000000001652
100
AcDbArc
 50
119.37275990170031
 51
209.2499999999965
  0
LINE
  5
2D0
330
2B
100
AcDbEntity
  8
LaserCutting
100
AcDbLine
 10
-115.52928810956411
 20
248.96538012642961
 30
0
 11
-130.90023006974079
 21
276.41217192802071
 31
0
  0
LINE
  5
2D1
330
2B
100
AcDbEntity
  8
LaserCutting
100
AcDbLine
 10
-121.8985089611955
 20
245.39844506350181
 30
0
 11
-137.2694509213722
 21
272.845236865093
 31
0
  0
ARC
  5
2D2
330
2B
100
AcDbEntity
  8
LaserCutting
100
AcDbCircle
 10
14.150288400135191
 20
9.9358357992375659
 30
0
 40
306.375
100
AcDbArc
 50
119.1272400983015
 51
119.37275990169751
  0
ARC
  5
2D3
330
2B
100
AcDbEntity
  8
LaserCutting
100
AcDbCircle
 10
-90.018485136629579
 20
261.33369228342917
 30
0
 40
6.9999999999999218
100
AcDbArc
 50
204.7500000000006
 51
292.50707513423168
  0
ARC
  5
2D4
330
2B
100
AcDbEntity
  8
LaserCutting
100
AcDbCircle
 10
-109.3619347391037
 20
252.416239873882
 30
0
 40
6.9999999999999627
100
AcDbArc
 50
296.9929248657686
 51
24.750000000000568
  0
ARC
  5
2D5
330
2B
100
AcDbEntity
  8
LaserCutting
100
AcDbCircle
 10
-112.2700248854031
 20
285.715267617106
 30
0
 40
3.0000000000000759
100
AcDbArc
 50
24.75000000000421
 51
114.6272400983005
  0
ARC
  5
2D6
330
2B
100
AcDbEntity
  8
LaserCutting
100
AcDbCircle
 10
-113.4506110113755
 20
285.17100995830731
 30
0
 40
3.0000000000001652
100
AcDbArc
 50
114.87275990170119
 51
204.7499999999969
  0
LINE
  5
2D7
330
2B
100
AcDbEntity
  8
LaserCutting
100
AcDbLine
 10
-96.3754873534051
 20
258.40307412066733
 30
0
 11
-109.5455953639278
 21
286.97124682971838
 31
0
  0
LINE
  5
2D8
330
2B
100
AcDbEntity
  8
LaserCutting
100
AcDbLine
 10
-103.0049325223282
 20
255.34685803664411
 30
0
 11
-116.1750405328509
 21
283.91503074569522
 31
0
  0
ARC
  5
2D9
330
2B
100
AcDbEntity
  8
LaserCutting
100
AcDbCircle
 10
14.15028840013521
 20
9.9358357992376227
 30
0
 40
306.375
100
AcDbArc
 50
114.62724009830201
 51
114.8727599016968
  0
ARC
  5
2DA
330
2B
100
AcDbEntity
  8
LaserCutting
100
AcDbCircle
 10
-69.972919084718143
 20
268.73170436645472
 30
0
 40
6.9999999999999218
100
AcDbArc
 50
200.25
 51
288.007075134232
  0
ARC
  5
2DB
330
2B
100
AcDbEntity
  8
LaserCutting
100
AcDbCircle
 10
-89.956394539866949
 20
261.35941105070413
 30
0
 40
6.9999999999999627
100
AcDbArc
 50
292.49292486576832
 51
20.250000000000011
  0
ARC
  5
2DC
330
2B
100
AcDbEntity
  8
LaserCutting
100
AcDbCircle
 10
-90.242908409421545
 20
294.7839551275581
 30
0
 40
3.0000000000000759
100
AcDbArc
 50
20.25000000000335
 51
110.12724009830031
  0
ARC
  5
2DD
330
2B
100
AcDbEntity
  8
LaserCutting
100
AcDbCircle
 10
-91.462557146120545
 20
294.33400295335741
 30
0
 40
3.0000000000001652
100
AcDbArc
 50
110.3727599017011
 51
200.2499999999967
  0
LINE
  5
2DE
330
2B
100
AcDbEntity
  8
LaserCutting
100
AcDbLine
 10
-76.540258436175478
 20
266.30888496691227
 30
0
 11
-87.42833440165407
 21
295.82230629879069
 31
0
  0
LINE
  5
2DF
330
2B
100
AcDbEntity
  8
LaserCutting
100
AcDbLine
 10
-83.389055188409614
 20
263.78223045024657
 30
0
 11
-94.2771311538882
 21
293.295651782125
 31
0
  0
ARC
  5
2E0
330
2B
100
AcDbEntity
  8
LaserCutting
100
AcDbCircle
 10
14.15028840013524
 20
9.9358357992376227
 30
0
 40
306.375
100
AcDbArc
 50
110.12724009830291
 51
110.3727599016969
  0
ARC
  5
2E1
330
2B
100
AcDbEntity
  8
LaserCutting
100
AcDbCircle
 10
-49.40870548485745
 20
274.53415386140409
 30
0
 40
6.999999999999921
100
AcDbArc
 50
195.74999999999881
 51
283.50707513423208
  0
ARC
  5
2E2
330
2B
100
AcDbEntity
  8
LaserCutting
100
AcDbCircle
 10
-69.909002021320035
 20
268.75247227927809
 30
0
 40
6.9999999999999618
100
AcDbArc
 50
287.9929248657682
 51
15.749999999998829
  0
ARC
  5
2E3
330
2B
100
AcDbEntity
  8
LaserCutting
100
AcDbCircle
 10
-67.572173160848507
 20
302.09645926073949
 30
0
 40
3.0000000000000751
100
AcDbArc
 50
15.750000000002299
 51
105.627240098301
  0
ARC
  5
2E4
330
2B
100
AcDbEntity
  8
LaserCutting
100
AcDbCircle
 10
-68.82336496823801
 20
301.74358667591491
 30
0
 40
3.0000000000001652
100
AcDbArc
 50
105.87275990170031
 51
195.7499999999954
  0
LINE
  5
2E5
330
2B
100
AcDbEntity
  8
LaserCutting
100
AcDbLine
 10
-56.14589214003292
 20
272.63407071234872
 30
0
 11
-64.684807451487515
 21
302.91078061033483
 31
0
  0
LINE
  5
2E6
330
2B
100
AcDbEntity
  8
LaserCutting
100
AcDbLine
 10
-63.171815366144543
 20
270.65255542833359
 30
0
 11
-71.710730677599145
 21
300.92926532631981
 31
0
  0
ARC
  5
2E7
330
2B
100
AcDbEntity
  8
LaserCutting
100
AcDbCircle
 10
14.150288400135221
 20
9.9358357992375659
 30
0
 40
306.37499999999989
100
AcDbArc
 50
105.62724009830249
 51
105.87275990169719
  0
ARC
  5
2E8
330
2B
100
AcDbEntity
  8
LaserCutting
100
AcDbCircle
 10
-28.452629552185581
 20
278.70526673763089
 30
0
 40
6.9999999999999218
100
AcDbArc
 50
191.25000000000071
 51
279.00707513423168
  0
ARC
  5
2E9
330
2B
100
AcDbEntity
  8
LaserCutting
100
AcDbCircle
 10
-49.34335602477428
 20
274.5498428786874
 30
0
 40
6.9999999999999627
100
AcDbArc
 50
283.49292486576832
 51
11.25000000000076
  0
ARC
  5
2EA
330
2B
100
AcDbEntity
  8
LaserCutting
100
AcDbCircle
 10
-44.397591761275891
 20
307.60769599701479
 30
0
 40
3.0000000000000759
100
AcDbArc
 50
11.25000000000411
 51
101.1272400983012
  0
ARC
  5
2EB
330
2B
100
AcDbEntity
  8
LaserCutting
100
AcDbCircle
 10
-45.672612625799843
 20
307.3540785783938
 30
0
 40
3.0000000000001652
100
AcDbArc
 50
101.37275990170041
 51
191.2499999999975
  0
LINE
  5
2EC
330
2B
100
AcDbEntity
  8
LaserCutting
100
AcDbLine
 10
-35.318126515008132
 20
277.33963448351813
 30
0
 11
-41.455235920066137
 21
308.19296696306333
 31
0
  0
LINE
  5
2ED
330
2B
100
AcDbEntity
  8
LaserCutting
100
AcDbLine
 10
-42.4778590619517
 20
275.9154751328004
 30
0
 11
-48.614968467009732
 21
306.76880761234548
 31
0
  0
ARC
  5
2EE
330
2B
100
AcDbEntity
  8
LaserCutting
100
AcDbCircle
 10
14.150288400135221
 20
9.9358357992376227
 30
0
 40
306.375
100
AcDbArc
 50
101.12724009830239
 51
101.37275990169719
  0
ARC
  5
2EF
330
2B
100
AcDbEntity
  8
LaserCutting
100
AcDbCircle
 10
-7.2338924634298207
 20
281.21932669721741
 30
0
 40
6.9999999999999218
100
AcDbArc
 50
186.7500000000008
 51
274.50707513423168
  0
ARC
  5
2F0
330
2B
100
AcDbEntity
  8
LaserCutting
100
AcDbCircle
 10
-28.386250596569639
 20
278.71578013136548
 30
0
 40
6.9999999999999627
100
AcDbArc
 50
278.99292486576849
 51
6.7500000000008136
  0
ARC
  5
2F1
330
2B
100
AcDbEntity
  8
LaserCutting
100
AcDbCircle
 10
-20.862043211362359
 20
311.28368672923261
 30
0
 40
3.0000000000000759
100
AcDbArc
 50
6.7500000000040963
 51
96.627240098301314
  0
ARC
  5
2F2
330
2B
100
AcDbEntity
  8
LaserCutting
100
AcDbCircle
 10
-22.15303220540352
 20
311.13088811253738
 30
0
 40
3.0000000000001652
100
AcDbArc
 50
96.872759901700533
 51
186.7499999999975
  0
LINE
  5
2F3
330
2B
100
AcDbEntity
  8
LaserCutting
100
AcDbLine
 10
-14.18537166211423
 20
280.39656491501262
 30
0
 11
-17.882837840497508
 21
311.63629892160623
 31
0
  0
LINE
  5
2F4
330
2B
100
AcDbEntity
  8
LaserCutting
100
AcDbLine
 10
-21.434771397885189
 20
279.53854191357038
 30
0
 11
-25.13223757626848
 21
310.778275920164
 31
0
  0
ARC
  5
2F5
330
2B
100
AcDbEntity
  8
LaserCutting
100
AcDbCircle
 10
14.15028840013523
 20
9.935835799237509
 30
0
 40
306.375
100
AcDbArc
 50
96.627240098302721
 51
96.872759901697307
  0
ARC
  5
2F6
330
2B
100
AcDbEntity
  8
LaserCutting
100
AcDbCircle
 10
14.11668521131153
 20
282.060833724503
 30
0
 40
6.9999999999999218
100
AcDbArc
 50
182.24999999999989
 51
270.00707513423168
  0
ARC
  5
2F7
330
2B
100
AcDbEntity
  8
LaserCutting
100
AcDbCircle
 10
-7.1668932606157494
 20
281.22459964883478
 30
0
 40
6.9999999999999627
100
AcDbArc
 50
274.49292486576849
 51
2.249999999999901
  0
ARC
  5
2F8
330
2B
100
AcDbEntity
  8
LaserCutting
100
AcDbCircle
 10
2.8893680057177691
 20
313.10176775213779
 30
0
 40
3.0000000000000759
100
AcDbArc
 50
2.250000000003161
 51
92.127240098301016
  0
ARC
  5
2F9
330
2B
100
AcDbEntity
  8
LaserCutting
100
AcDbCircle
 10
1.5903702586050721
 20
313.050729991651
 30
0
 40
3.0000000000001652
100
AcDbArc
 50
92.372759901700675
 51
182.24999999999659
  0
LINE
  5
2FA
330
2B
100
AcDbEntity
  8
LaserCutting
100
AcDbLine
 10
7.1220819576265511
 20
281.7860150141895
 30
0
 11
5.8870551144400087
 21
313.21954719941522
 31
0
  0
LINE
  5
2FB
330
2B
100
AcDbEntity
  8
LaserCutting
100
AcDbLine
 10
-0.17229000693072649
 20
281.49941835914831
 30
0
 11
-1.4073168501172679
 21
312.932950544374
 31
0
  0
ARC
  5
2FC
330
2B
100
AcDbEntity
  8
LaserCutting
100
AcDbCircle
 10
14.150288400135221
 20
9.9358357992376227
 30
0
 40
306.375
100
AcDbArc
 50
92.127240098302437
 51
92.372759901697435
  0
ARC
  5
2FD
330
2B
100
AcDbEntity
  8
LaserCutting
100
AcDbCircle
 10
35.467470060886193
 20
281.22459964883478
 30
0
 40
6.9999999999999218
100
AcDbArc
 50
177.75000000000011
 51
265.50707513423168
  0
ARC
  5
2FE
330
2B
100
AcDbEntity
  8
LaserCutting
100
AcDbCircle
 10
14.1838915889589
 20
282.060833724503
 30
0
 40
6.9999999999999627
100
AcDbArc
 50
269.99292486576849
 51
357.75000000000011
  0
ARC
  5
2FF
330
2B
100
AcDbEntity
  8
LaserCutting
100
AcDbCircle
 10
26.7102065416655
 20
313.050729991651
 30
0
 40
3.0000000000000759
100
AcDbArc
 50
357.7500000000033
 51
87.627240098301044
  0
ARC
  5
300
330
2B
100
AcDbEntity
  8
LaserCutting
100
AcDbCircle
 10
25.4112087945528
 20
313.10176775213779
 30
0
 40
3.0000000000001652
100
AcDbArc
 50
87.87275990170059
 51
177.74999999999679
  0
LINE
  5
301
330
2B
100
AcDbEntity
  8
LaserCutting
100
AcDbLine
 10
28.472866807201211
 20
281.49941835914831
 30
0
 11
29.707893650387749
 21
312.932950544374
 31
0
  0
LINE
  5
302
330
2B
100
AcDbEntity
  8
LaserCutting
100
AcDbLine
 10
21.178494842643929
 20
281.7860150141895
 30
0
 11
22.413521685830471
 21
313.21954719941522
 31
0
  0
ARC
  5
303
330
2B
100
AcDbEntity
  8
LaserCutting
100
AcDbCircle
 10
14.150288400135221
 20
9.9358357992375659
 30
0
 40
306.375
100
AcDbArc
 50
87.627240098302465
 51
87.872759901697336
  0
ARC
  5
304
330
2B
100
AcDbEntity
  8
LaserCutting
100
AcDbCircle
 10
14.150288400135249
 20
9.9358357992375943
 30
0
 40
265.125
100
AcDbArc
 50
85.492924865768742
 51
85.5070751342312
  0
ARC
  5
305
330
2B
100
AcDbEntity
  8
LaserCutting
100
AcDbCircle
 10
14.150288400135249
 20
9.9358357992375943
 30
0
 40
265.125
100
AcDbArc
 50
80.992924865768757
 51
81.007075134231215
  0
ARC
  5
306
330
2B
100
AcDbEntity
  8
LaserCutting
100
AcDbCircle
 10
14.150288400135249
 20
9.9358357992375943
 30
0
 40
265.125
100
AcDbArc
 50
76.492924865768842
 51
76.5070751342312
  0
ARC
  5
307
330
2B
100
AcDbEntity
  8
LaserCutting
100
AcDbCircle
 10
14.150288400135249
 20
9.9358357992375943
 30
0
 40
265.125
100
AcDbArc
 50
71.992924865768785
 51
72.007075134231243
  0
ARC
  5
308
330
2B
100
AcDbEntity
  8
LaserCutting
100
AcDbCircle
 10
14.150288400135249
 20
9.9358357992375943
 30
0
 40
265.125
100
AcDbArc
 50
67.492924865768771
 51
67.507075134231243
  0
ARC
  5
309
330
2B
100
AcDbEntity
  8
LaserCutting
100
AcDbCircle
 10
14.150288400135249
 20
9.9358357992375943
 30
0
 40
265.125
100
AcDbArc
 50
62.992924865768749
 51
63.007075134231222
  0
ARC
  5
30A
330
2B
100
AcDbEntity
  8
LaserCutting
100
AcDbCircle
 10
14.150288400135249
 20
9.9358357992375943
 30
0
 40
265.125
100
AcDbArc
 50
58.492924865768828
 51
58.5070751342312
  0
ARC
  5
30B
330
2B
100
AcDbEntity
  8
LaserCutting
100
AcDbCircle
 10
14.150288400135249
 20
9.9358357992375943
 30
0
 40
265.125
100
AcDbArc
 50
53.9929248657688
 51
54.007075134231279
  0
ARC
  5
30C
330
2B
100
AcDbEntity
  8
LaserCutting
100
AcDbCircle
 10
14.150288400135249
 20
9.9358357992375943
 30
0
 40
265.125
100
AcDbArc
 50
49.492924865768778
 51
49.507075134231243
  0
ARC
  5
30D
330
2B
100
AcDbEntity
  8
LaserCutting
100
AcDbCircle
 10
14.150288400135249
 20
9.9358357992375943
 30
0
 40
265.125
100
AcDbArc
 50
44.992924865768742
 51
45.007075134231222
  0
ARC
  5
30E
330
2B
100
AcDbEntity
  8
LaserCutting
100
AcDbCircle
 10
14.150288400135249
 20
9.9358357992375943
 30
0
 40
265.125
100
AcDbArc
 50
40.492924865768813
 51
40.507075134231179
  0
ARC
  5
30F
330
2B
100
AcDbEntity
  8
LaserCutting
100
AcDbCircle
 10
14.150288400135249
 20
9.9358357992375943
 30
0
 40
265.125
100
AcDbArc
 50
35.992924865768792
 51
36.007075134231272
  0
ARC
  5
310
330
2B
100
AcDbEntity
  8
LaserCutting
100
AcDbCircle
 10
14.150288400135249
 20
9.9358357992375943
 30
0
 40
265.125
100
AcDbArc
 50
31.492924865768767
 51
31.507075134231236
  0
ARC
  5
311
330
2B
100
AcDbEntity
  8
LaserCutting
100
AcDbCircle
 10
14.150288400135249
 20
9.9358357992375943
 30
0
 40
265.125
100
AcDbArc
 50
26.992924865768749
 51
27.007075134231219
  0
ARC
  5
312
330
2B
100
AcDbEntity
  8
LaserCutting
100
AcDbCircle
 10
14.150288400135249
 20
9.9358357992375943
 30
0
 40
265.125
100
AcDbArc
 50
22.492924865768821
 51
22.50707513423119
  0
ARC
  5
313
330
2B
100
AcDbEntity
  8
LaserCutting
100
AcDbCircle
 10
14.150288400135249
 20
9.9358357992375943
 30
0
 40
265.125
100
AcDbArc
 50
17.992924865768789
 51
18.007075134231265
  0
ARC
  5
314
330
2B
100
AcDbEntity
  8
LaserCutting
100
AcDbCircle
 10
14.150288400135249
 20
9.9358357992375943
 30
0
 40
265.125
100
AcDbArc
 50
13.492924865768773
 51
13.507075134231229
  0
ARC
  5
315
330
2B
100
AcDbEntity
  8
LaserCutting
100
AcDbCircle
 10
14.150288400135249
 20
9.9358357992375943
 30
0
 40
265.125
100
AcDbArc
 50
8.9929248657687424
 51
9.0070751342312132
  0
ARC
  5
316
330
2B
100
AcDbEntity
  8
LaserCutting
100
AcDbCircle
 10
14.150288400135249
 20
9.9358357992375943
 30
0
 40
265.125
100
AcDbArc
 50
4.4929248657688
 51
4.5070751342311857
  0
ARC
  5
317
330
2B
100
AcDbEntity
  8
LaserCutting
100
AcDbCircle
 10
14.150288400135249
 20
9.9358357992375943
 30
0
 40
265.125
100
AcDbArc
 50
359.99292486576883
 51
0.0070751342312758
  0
ARC
  5
318
330
2B
100
AcDbEntity
  8
LaserCutting
100
AcDbCircle
 10
14.150288400135249
 20
9.9358357992375943
 30
0
 40
265.125
100
AcDbArc
 50
355.49292486576883
 51
355.50707513423117
  0
ARC
  5
319
330
2B
100
AcDbEntity
  8
LaserCutting
100
AcDbCircle
 10
14.150288400135249
 20
9.9358357992375943
 30
0
 40
265.125
100
AcDbArc
 50
350.99292486576871
 51
351.00707513423117
  0
ARC
  5
31A
330
2B
100
AcDbEntity
  8
LaserCutting
100
AcDbCircle
 10
14.150288400135249
 20
9.9358357992375943
 30
0
 40
265.125
100
AcDbArc
 50
346.49292486576883
 51
346.50707513423117
  0
ARC
  5
31B
330
2B
100
AcDbEntity
  8
LaserCutting
100
AcDbCircle
 10
14.150288400135249
 20
9.9358357992375943
 30
0
 40
265.125
100
AcDbArc
 50
341.99292486576883
 51
342.00707513423129
  0
ARC
  5
31C
330
2B
100
AcDbEntity
  8
LaserCutting
100
AcDbCircle
 10
14.150288400135249
 20
9.9358357992375943
 30
0
 40
265.125
100
AcDbArc
 50
337.49292486576883
 51
337.50707513423117
  0
ARC
  5
31D
330
2B
100
AcDbEntity
  8
LaserCutting
100
AcDbCircle
 10
14.150288400135249
 20
9.9358357992375943
 30
0
 40
265.125
100
AcDbArc
 50
332.99292486576871
 51
333.00707513423117
  0
ARC
  5
31E
330
2B
100
AcDbEntity
  8
LaserCutting
100
AcDbCircle
 10
14.150288400135249
 20
9.9358357992375943
 30
0
 40
265.125
100
AcDbArc
 50
328.49292486576883
 51
328.50707513423117
  0
ARC
  5
31F
330
2B
100
AcDbEntity
  8
LaserCutting
100
AcDbCircle
 10
14.150288400135249
 20
9.9358357992375943
 30
0
 40
265.125
100
AcDbArc
 50
323.99292486576883
 51
324.00707513423129
  0
ARC
  5
320
330
2B
100
AcDbEntity
  8
LaserCutting
100
AcDbCircle
 10
14.150288400135249
 20
9.9358357992375943
 30
0
 40
265.125
100
AcDbArc
 50
319.49292486576883
 51
319.50707513423117
  0
ARC
  5
321
330
2B
100
AcDbEntity
  8
LaserCutting
100
AcDbCircle
 10
14.150288400135249
 20
9.9358357992375943
 30
0
 40
265.125
100
AcDbArc
 50
314.99292486576871
 51
315.00707513423117
  0
ARC
  5
322
330
2B
100
AcDbEntity
  8
LaserCutting
100
AcDbCircle
 10
14.150288400135249
 20
9.9358357992375943
 30
0
 40
265.125
100
AcDbArc
 50
310.49292486576883
 51
310.50707513423117
  0
ARC
  5
323
330
2B
100
AcDbEntity
  8
LaserCutting
100
AcDbCircle
 10
14.150288400135249
 20
9.9358357992375943
 30
0
 40
265.125
100
AcDbArc
 50
305.99292486576883
 51
306.00707513423117
  0
ARC
  5
324
330
2B
100
AcDbEntity
  8
LaserCutting
100
AcDbCircle
 10
14.150288400135249
 20
9.9358357992375943
 30
0
 40
265.125
100
AcDbArc
 50
301.49292486576883
 51
301.50707513423117
  0
ARC
  5
325
330
2B
100
AcDbEntity
  8
LaserCutting
100
AcDbCircle
 10
14.150288400135249
 20
9.9358357992375943
 30
0
 40
265.125
100
AcDbArc
 50
296.99292486576871
 51
297.00707513423117
  0
ARC
  5
326
330
2B
100
AcDbEntity
  8
LaserCutting
100
AcDbCircle
 10
14.150288400135249
 20
9.9358357992375943
 30
0
 40
265.125
100
AcDbArc
 50
292.49292486576883
 51
292.50707513423117
  0
ARC
  5
327
330
2B
100
AcDbEntity
  8
LaserCutting
100
AcDbCircle
 10
14.150288400135249
 20
9.9358357992375943
 30
0
 40
265.125
100
AcDbArc
 50
287.99292486576883
 51
288.00707513423117
  0
ARC
  5
328
330
2B
100
AcDbEntity
  8
LaserCutting
100
AcDbCircle
 10
14.150288400135249
 20
9.9358357992375943
 30
0
 40
265.125
100
AcDbArc
 50
283.49292486576883
 51
283.50707513423117
  0
ARC
  5
329
330
2B
100
AcDbEntity
  8
LaserCutting
100
AcDbCircle
 10
14.150288400135249
 20
9.9358357992375943
 30
0
 40
265.125
100
AcDbArc
 50
278.99292486576871
 51
279.00707513423117
  0
ARC
  5
32A
330
2B
100
AcDbEntity
  8
LaserCutting
100
AcDbCircle
 10
14.150288400135249
 20
9.9358357992375943
 30
0
 40
265.125
100
AcDbArc
 50
274.49292486576883
 51
274.50707513423117
  0
ARC
  5
32B
330
2B
100
AcDbEntity
  8
LaserCutting
100
AcDbCircle
 10
14.150288400135249
 20
9.9358357992375943
 30
0
 40
265.125
100
AcDbArc
 50
269.99292486576883
 51
270.00707513423129
  0
ARC
  5
32C
330
2B
100
AcDbEntity
  8
LaserCutting
100
AcDbCircle
 10
14.150288400135249
 20
9.9358357992375943
 30
0
 40
265.125
100
AcDbArc
 50
265.49292486576883
 51
265.50707513423117
  0
ARC
  5
32D
330
2B
100
AcDbEntity
  8
LaserCutting
100
AcDbCircle
 10
14.150288400135249
 20
9.9358357992375943
 30
0
 40
265.125
100
AcDbArc
 50
260.99292486576871
 51
261.00707513423117
  0
ARC
  5
32E
330
2B
100
AcDbEntity
  8
LaserCutting
100
AcDbCircle
 10
14.150288400135249
 20
9.9358357992375943
 30
0
 40
265.125
100
AcDbArc
 50
256.49292486576883
 51
256.50707513423117
  0
ARC
  5
32F
330
2B
100
AcDbEntity
  8
LaserCutting
100
AcDbCircle
 10
14.150288400135249
 20
9.9358357992375943
 30
0
 40
265.125
100
AcDbArc
 50
251.99292486576883
 51
252.00707513423123
  0
ARC
  5
330
330
2B
100
AcDbEntity
  8
LaserCutting
100
AcDbCircle
 10
14.150288400135249
 20
9.9358357992375943
 30
0
 40
265.125
100
AcDbArc
 50
247.49292486576869
 51
247.5070751342312
  0
ARC
  5
331
330
2B
100
AcDbEntity
  8
LaserCutting
100
AcDbCircle
 10
14.150288400135249
 20
9.9358357992375943
 30
0
 40
265.125
100
AcDbArc
 50
242.99292486576871
 51
243.00707513423123
  0
ARC
  5
332
330
2B
100
AcDbEntity
  8
LaserCutting
100
AcDbCircle
 10
14.150288400135249
 20
9.9358357992375943
 30
0
 40
265.125
100
AcDbArc
 50
238.4929248657688
 51
238.5070751342312
  0
ARC
  5
333
330
2B
100
AcDbEntity
  8
LaserCutting
100
AcDbCircle
 10
14.150288400135249
 20
9.9358357992375943
 30
0
 40
265.125
100
AcDbArc
 50
233.99292486576883
 51
234.00707513423123
  0
ARC
  5
334
330
2B
100
AcDbEntity
  8
LaserCutting
100
AcDbCircle
 10
14.150288400135249
 20
9.9358357992375943
 30
0
 40
265.125
100
AcDbArc
 50
229.49292486576869
 51
229.50707513423131
  0
ARC
  5
335
330
2B
100
AcDbEntity
  8
LaserCutting
100
AcDbCircle
 10
14.150288400135249
 20
9.9358357992375943
 30
0
 40
265.125
100
AcDbArc
 50
224.9929248657688
 51
225.0070751342312
  0
ARC
  5
336
330
2B
100
AcDbEntity
  8
LaserCutting
100
AcDbCircle
 10
14.150288400135249
 20
9.9358357992375943
 30
0
 40
265.125
100
AcDbArc
 50
220.4929248657688
 51
220.5070751342312
  0
ARC
  5
337
330
2B
100
AcDbEntity
  8
LaserCutting
100
AcDbCircle
 10
14.150288400135249
 20
9.9358357992375943
 30
0
 40
265.125
100
AcDbArc
 50
215.9929248657688
 51
216.0070751342312
  0
ARC
  5
338
330
2B
100
AcDbEntity
  8
LaserCutting
100
AcDbCircle
 10
14.150288400135249
 20
9.9358357992375943
 30
0
 40
265.125
100
AcDbArc
 50
211.4929248657688
 51
211.5070751342312
  0
ARC
  5
339
330
2B
100
AcDbEntity
  8
LaserCutting
100
AcDbCircle
 10
14.150288400135249
 20
9.9358357992375943
 30
0
 40
265.125
100
AcDbArc
 50
206.9929248657688
 51
207.0070751342312
  0
ARC
  5
33A
330
2B
100
AcDbEntity
  8
LaserCutting
100
AcDbCircle
 10
14.150288400135249
 20
9.9358357992375943
 30
0
 40
265.125
100
AcDbArc
 50
202.49292486576871
 51
202.5070751342312
  0
ARC
  5
33B
330
2B
100
AcDbEntity
  8
LaserCutting
100
AcDbCircle
 10
14.150288400135249
 20
9.9358357992375943
 30
0
 40
265.125
100
AcDbArc
 50
197.9929248657688
 51
198.0070751342312
  0
ARC
  5
33C
330
2B
100
AcDbEntity
  8
LaserCutting
100
AcDbCircle
 10
14.150288400135249
 20
9.9358357992375943
 30
0
 40
265.125
100
AcDbArc
 50
193.49292486576871
 51
193.5070751342312
  0
ARC
  5
33D
330
2B
100
AcDbEntity
  8
LaserCutting
100
AcDbCircle
 10
14.150288400135249
 20
9.9358357992375943
 30
0
 40
265.125
100
AcDbArc
 50
188.99292486576871
 51
189.0070751342312
  0
ARC
  5
33E
330
2B
100
AcDbEntity
  8
LaserCutting
100
AcDbCircle
 10
14.150288400135249
 20
9.9358357992375943
 30
0
 40
265.125
100
AcDbArc
 50
184.49292486576871
 51
184.5070751342312
  0
ARC
  5
33F
330
2B
100
AcDbEntity
  8
LaserCutting
100
AcDbCircle
 10
14.150288400135249
 20
9.9358357992375943
 30
0
 40
265.125
100
AcDbArc
 50
179.9929248657688
 51
180.0070751342312
  0
ARC
  5
340
330
2B
100
AcDbEntity
  8
LaserCutting
100
AcDbCircle
 10
14.150288400135249
 20
9.9358357992375943
 30
0
 40
265.125
100
AcDbArc
 50
175.4929248657688
 51
175.5070751342312
  0
ARC
  5
341
330
2B
100
AcDbEntity
  8
LaserCutting
100
AcDbCircle
 10
14.150288400135249
 20
9.9358357992375943
 30
0
 40
265.125
100
AcDbArc
 50
170.9929248657688
 51
171.0070751342312
  0
ARC
  5
342
330
2B
100
AcDbEntity
  8
LaserCutting
100
AcDbCircle
 10
14.150288400135249
 20
9.9358357992375943
 30
0
 40
265.125
100
AcDbArc
 50
166.4929248657688
 51
166.5070751342312
  0
ARC
  5
343
330
2B
100
AcDbEntity
  8
LaserCutting
100
AcDbCircle
 10
14.150288400135249
 20
9.9358357992375943
 30
0
 40
265.125
100
AcDbArc
 50
161.9929248657688
 51
162.0070751342312
  0
ARC
  5
344
330
2B
100
AcDbEntity
  8
LaserCutting
100
AcDbCircle
 10
14.150288400135249
 20
9.9358357992375943
 30
0
 40
265.125
100
AcDbArc
 50
157.4929248657688
 51
157.5070751342312
  0
ARC
  5
345
330
2B
100
AcDbEntity
  8
LaserCutting
100
AcDbCircle
 10
14.150288400135249
 20
9.9358357992375943
 30
0
 40
265.125
100
AcDbArc
 50
152.9929248657688
 51
153.0070751342312
  0
ARC
  5
346
330
2B
100
AcDbEntity
  8
LaserCutting
100
AcDbCircle
 10
14.150288400135249
 20
9.9358357992375943
 30
0
 40
265.125
100
AcDbArc
 50
148.49292486576871
 51
148.5070751342312
  0
ARC
  5
347
330
2B
100
AcDbEntity
  8
LaserCutting
100
AcDbCircle
 10
14.150288400135249
 20
9.9358357992375943
 30
0
 40
265.125
100
AcDbArc
 50
143.9929248657688
 51
144.0070751342312
  0
ARC
  5
348
330
2B
100
AcDbEntity
  8
LaserCutting
100
AcDbCircle
 10
14.150288400135249
 20
9.9358357992375943
 30
0
 40
265.125
100
AcDbArc
 50
139.4929248657688
 51
139.5070751342312
  0
ARC
  5
349
330
2B
100
AcDbEntity
  8
LaserCutting
100
AcDbCircle
 10
14.150288400135249
 20
9.9358357992375943
 30
0
 40
265.125
100
AcDbArc
 50
134.9929248657688
 51
135.0070751342312
  0
ARC
  5
34A
330
2B
100
AcDbEntity
  8
LaserCutting
100
AcDbCircle
 10
14.150288400135249
 20
9.9358357992375943
 30
0
 40
265.125
100
AcDbArc
 50
130.4929248657688
 51
130.5070751342312
  0
ARC
  5
34B
330
2B
100
AcDbEntity
  8
LaserCutting
100
AcDbCircle
 10
14.150288400135249
 20
9.9358357992375943
 30
0
 40
265.125
100
AcDbArc
 50
125.9929248657688
 51
126.0070751342312
  0
ARC
  5
34C
330
2B
100
AcDbEntity
  8
LaserCutting
100
AcDbCircle
 10
14.150288400135249
 20
9.9358357992375943
 30
0
 40
265.125
100
AcDbArc
 50
121.4929248657687
 51
121.5070751342312
  0
ARC
  5
34D
330
2B
100
AcDbEntity
  8
LaserCutting
100
AcDbCircle
 10
14.150288400135249
 20
9.9358357992375943
 30
0
 40
265.125
100
AcDbArc
 50
116.9929248657688
 51
117.0070751342312
  0
ARC
  5
34E
330
2B
100
AcDbEntity
  8
LaserCutting
100
AcDbCircle
 10
14.150288400135249
 20
9.9358357992375943
 30
0
 40
265.125
100
AcDbArc
 50
112.4929248657688
 51
112.5070751342312
  0
ARC
  5
34F
330
2B
100
AcDbEntity
  8
LaserCutting
100
AcDbCircle
 10
14.150288400135249
 20
9.9358357992375943
 30
0
 40
265.125
100
AcDbArc
 50
107.9929248657688
 51
108.0070751342312
  0
ARC
  5
350
330
2B
100
AcDbEntity
  8
LaserCutting
100
AcDbCircle
 10
14.150288400135249
 20
9.9358357992375943
 30
0
 40
265.125
100
AcDbArc
 50
103.4929248657687
 51
103.5070751342312
  0
ARC
  5
351
330
2B
100
AcDbEntity
  8
LaserCutting
100
AcDbCircle
 10
14.150288400135249
 20
9.9358357992375943
 30
0
 40
265.125
100
AcDbArc
 50
98.992924865768785
 51
99.007075134231243
  0
ARC
  5
352
330
2B
100
AcDbEntity
  8
LaserCutting
100
AcDbCircle
 10
14.150288400135249
 20
9.9358357992375943
 30
0
 40
265.125
100
AcDbArc
 50
94.492924865768785
 51
94.507075134231229
  0
ARC
  5
353
330
2B
100
AcDbEntity
  8
LaserCutting
100
AcDbCircle
 10
14.150288400135249
 20
9.9358357992375943
 30
0
 40
265.125
100
AcDbArc
 50
89.992924865768785
 51
90.007075134231243
  0
ARC
  5
354
330
2B
100
AcDbEntity
  8
LaserCutting
100
AcDbCircle
 10
14.150288400135249
 20
9.9358357992375943
 30
0
 40
115.025
100
AcDbArc
 50
93.513919384531647
 51
86.486080615468339
  0
ENDSEC
  0
SECTION
  2
OBJECTS
  0
DICTIONARY
  5
C
330
0
100
AcDbDictionary
280
0
281
1
  3
ACAD_COLOR
350
359
  3
ACAD_GROUP
350
D
  3
ACAD_LAYOUT
350
1A
  3
ACAD_MATERIAL
350
35A
  3
ACAD_MLEADERSTYLE
350
35B
  3
ACAD_MLINESTYLE
350
17
  3
ACAD_PLOTSETTINGS
350
19
  3
ACAD_PLOTSTYLENAME
350
E
  3
ACAD_SCALELIST
350
35D
  3
ACAD_TABLESTYLE
350
37F
  3
ACAD_VISUALSTYLE
350
381
  3
AcDbVariableDictionary
350
382
  3
ACAD_FIELDLIST
350
38D
  3
ACAD_IMAGE_DICT
350
38E
  3
ACDB_RECOMPOSE_DATA
350
38F
  0
DICTIONARY
  5
2C
330
2B
100
AcDbDictionary
280
1
281
1
  3
ACAD_SORTENTS
360
2D
  0
DICTIONARY
  5
359
102
{ACAD_REACTORS
330
C
102
}
330
C
100
AcDbDictionary
280
0
281
1
  0
DICTIONARY
  5
D
102
{ACAD_REACTORS
330
C
102
}
330
C
100
AcDbDictionary
280
0
281
1
  0
DICTIONARY
  5
1A
102
{ACAD_REACTORS
330
C
102
}
330
C
100
AcDbDictionary
280
0
281
1
  3
Layout1
350
1E
  3
Model
350
22
  0
DICTIONARY
  5
35A
102
{ACAD_REACTORS
330
C
102
}
330
C
100
AcDbDictionary
280
0
281
1
  0
DICTIONARY
  5
35B
330
C
100
AcDbDictionary
280
0
281
1
  0
DICTIONARY
  5
17
102
{ACAD_REACTORS
330
C
102
}
330
C
100
AcDbDictionary
280
0
281
1
  3
STANDARD
350
35C
  0
DICTIONARY
  5
19
102
{ACAD_REACTORS
330
C
102
}
330
C
100
AcDbDictionary
280
0
281
1
  0
ACDBDICTIONARYWDFLT
  5
E
330
C
100
AcDbDictionary
280
0
281
1
  3
Normal
350
F
100
AcDbDictionaryWithDefault
340
F
  0
ACDBPLACEHOLDER
  5
F
330
E
  0
DICTIONARY
  5
35D
102
{ACAD_REACTORS
330
C
102
}
330
C
100
AcDbDictionary
280
0
281
1
  3
A0
350
35E
  3
A1
350
35F
  3
A2
350
360
  3
A3
350
361
  3
A4
350
362
  3
A5
350
363
  3
A6
350
364
  3
A7
350
365
  3
A8
350
366
  3
A9
350
367
  3
B0
350
368
  3
B1
350
369
  3
B2
350
36A
  3
B3
350
36B
  3
B4
350
36C
  3
B5
350
36D
  3
B6
350
36E
  3
B7
350
36F
  3
B8
350
370
  3
B9
350
371
  3
C0
350
372
  3
C1
350
373
  3
C2
350
374
  3
C3
350
375
  3
C4
350
376
  3
C5
350
377
  3
C6
350
378
  3
C7
350
379
  3
C8
350
37A
  3
C9
350
37B
  3
D0
350
37C
  3
D1
350
37D
  3
D2
350
37E
  0
DICTIONARY
  5
37F
330
C
100
AcDbDictionary
280
0
281
1
  3
Standard
350
380
  0
DICTIONARY
  5
381
102
{ACAD_REACTORS
330
C
102
}
330
C
100
AcDbDictionary
280
0
281
1
  0
DICTIONARY
  5
382
102
{ACAD_REACTORS
330
C
102
}
330
C
100
AcDbDictionary
280
0
281
1
  3
CANNOSCALE
350
383
  3
CMLEADERSTYLE
350
384
  3
CTABLESTYLE
350
385
  3
CVIEWDETAILSTYLE
350
386
  3
CVIEWSECTIONSTYLE
350
387
  3
DIMASSOC
350
388
  3
HIDETEXT
350
389
  3
XCLIPFRAME
350
38A
  3
ANNOALLVISIBLE
350
38B
  3
ANNOTATIVEDWG
350
38C
  0
FIELDLIST
  5
38D
102
{ACAD_REACTORS
330
C
102
}
330
C
100
AcDbIdSet
100
AcDbFieldList
  0
DICTIONARY
  5
38E
102
{ACAD_REACTORS
330
C
102
}
330
C
100
AcDbDictionary
280
0
281
1
  0
XRECORD
  5
38F
102
{ACAD_REACTORS
330
C
102
}
330
C
100
AcDbXrecord
280
1
 90
1
330
380
  0
SORTENTSTABLE
  5
2D
102
{ACAD_REACTORS
330
2C
102
}
330
2C
100
AcDbSortentsTable
330
2B
331
350
  5
103
331
348
  5
10B
331
2FA
  5
159
331
24C
  5
207
331
349
  5
10A
331
247
  5
20C
331
1F6
  5
25D
331
34A
  5
109
331
34B
  5
108
331
2F7
  5
15C
331
2A6
  5
1AD
331
249
  5
20A
331
1F8
  5
25B
331
34C
  5
107
331
34D
  5
106
331
34E
  5
105
331
2A4
  5
1AF
331
29D
  5
1B6
331
24A
  5
209
331
347
  5
10C
331
34F
  5
104
331
33E
  5
115
331
294
  5
1BF
331
243
  5
210
331
199
  5
2BA
331
2ED
  5
166
331
346
  5
10D
331
33D
  5
116
331
345
  5
10E
331
2EE
  5
165
331
240
  5
213
331
2E7
  5
16C
331
296
  5
1BD
331
1E8
  5
26B
331
33C
  5
117
331
344
  5
10F
331
343
  5
110
331
23E
  5
215
331
342
  5
111
331
E8
  5
36B
331
196
  5
2BD
331
341
  5
112
331
340
  5
113
331
245
  5
20E
331
33F
  5
114
331
18C
  5
2C7
331
333
  5
120
331
289
  5
1CA
331
33B
  5
118
331
18D
  5
2C6
331
332
  5
121
331
237
  5
21C
331
1E6
  5
26D
331
33A
  5
119
331
331
  5
122
331
1E5
  5
26E
331
339
  5
11A
331
338
  5
11B
331
28D
  5
1C6
331
23A
  5
219
331
337
  5
11C
331
2DD
  5
176
331
336
  5
11D
331
335
  5
11E
331
2DE
  5
175
331
334
  5
11F
331
328
  5
12B
331
330
  5
123
331
27D
  5
1D6
331
22A
  5
229
331
327
  5
12C
331
32F
  5
124
331
32E
  5
125
331
284
  5
1CF
331
32D
  5
126
331
2D7
  5
17C
331
286
  5
1CD
331
229
  5
22A
331
1D8
  5
27B
331
32C
  5
127
331
32B
  5
128
331
227
  5
22C
331
1D6
  5
27D
331
32A
  5
129
331
2DA
  5
179
331
22C
  5
227
331
329
  5
12A
331
31E
  5
135
331
274
  5
1DF
331
223
  5
230
331
179
  5
2DA
331
2CD
  5
186
331
326
  5
12D
331
31D
  5
136
331
325
  5
12E
331
2CE
  5
185
331
220
  5
233
331
2C7
  5
18C
331
276
  5
1DD
331
1C8
  5
28B
331
31C
  5
137
331
324
  5
12F
331
323
  5
130
331
21E
  5
235
331
322
  5
131
331
176
  5
2DD
331
321
  5
132
331
320
  5
133
331
225
  5
22E
331
31F
  5
134
331
313
  5
140
331
31B
  5
138
331
26D
  5
1E6
331
118
  5
33B
331
312
  5
141
331
1C6
  5
28D
331
31A
  5
139
331
26C
  5
1E7
331
311
  5
142
331
2C0
  5
193
331
319
  5
13A
331
112
  5
341
331
318
  5
13B
331
217
  5
23C
331
317
  5
13C
331
2C6
  5
18D
331
269
  5
1EA
331
218
  5
23B
331
316
  5
13D
331
268
  5
1EB
331
315
  5
13E
331
314
  5
13F
331
10A
  5
349
331
310
  5
143
331
20F
  5
244
331
15D
  5
2F6
331
30F
  5
144
331
261
  5
1F2
331
210
  5
243
331
30E
  5
145
331
260
  5
1F3
331
30D
  5
146
331
30C
  5
147
331
30B
  5
148
331
25D
  5
1F6
331
110
  5
343
331
30A
  5
149
331
25C
  5
1F7
331
309
  5
14A
331
2B8
  5
19B
331
308
  5
14B
331
207
  5
24C
331
307
  5
14C
331
2B6
  5
19D
331
208
  5
24B
331
306
  5
14D
331
258
  5
1FB
331
153
  5
300
331
305
  5
14E
331
304
  5
14F
331
303
  5
150
331
255
  5
1FE
331
302
  5
151
331
254
  5
1FF
331
301
  5
152
331
2B0
  5
1A3
331
300
  5
153
331
1FF
  5
254
331
2FF
  5
154
331
2AE
  5
1A5
331
251
  5
202
331
200
  5
253
331
2FE
  5
155
331
2FD
  5
156
331
2FC
  5
157
331
1B0
  5
2A3
331
2FB
  5
158
331
24D
  5
206
331
2F9
  5
15A
331
F2
  5
361
331
2F8
  5
15B
331
1F7
  5
25C
331
2F6
  5
15D
331
248
  5
20B
331
2F5
  5
15E
331
2F4
  5
15F
331
2F3
  5
160
331
F8
  5
35B
331
2F2
  5
161
331
1A6
  5
2AD
331
2F1
  5
162
331
2A0
  5
1B3
331
EA
  5
369
331
13D
  5
316
331
2F0
  5
163
331
1EF
  5
264
331
2EF
  5
164
331
241
  5
212
331
1F0
  5
263
331
2EC
  5
167
331
2EB
  5
168
331
23D
  5
216
331
F0
  5
363
331
2EA
  5
169
331
23C
  5
217
331
2E9
  5
16A
331
298
  5
1BB
331
2E8
  5
16B
331
1E7
  5
26C
331
133
  5
320
331
2E6
  5
16D
331
238
  5
21B
331
2E5
  5
16E
331
2E4
  5
16F
331
2E3
  5
170
331
235
  5
21E
331
2E2
  5
171
331
234
  5
21F
331
2E1
  5
172
331
290
  5
1C3
331
2E0
  5
173
331
1DF
  5
274
331
2DF
  5
174
331
28E
  5
1C5
331
231
  5
222
331
1E0
  5
273
331
2DC
  5
177
331
190
  5
2C3
331
2DB
  5
178
331
22D
  5
226
331
2D9
  5
17A
331
D2
  5
381
331
2D8
  5
17B
331
1D7
  5
27C
331
2D6
  5
17D
331
228
  5
22B
331
2D5
  5
17E
331
2D4
  5
17F
331
2D3
  5
180
331
D8
  5
37B
331
2D2
  5
181
331
186
  5
2CD
331
2D1
  5
182
331
280
  5
1D3
331
11D
  5
336
331
2D0
  5
183
331
1CF
  5
284
331
2CF
  5
184
331
221
  5
232
331
1D0
  5
283
331
2CC
  5
187
331
2CB
  5
188
331
21D
  5
236
331
D0
  5
383
331
2CA
  5
189
331
21C
  5
237
331
2C9
  5
18A
331
278
  5
1DB
331
2C8
  5
18B
331
1C7
  5
28C
331
2C5
  5
18E
331
2C4
  5
18F
331
2C3
  5
190
331
215
  5
23E
331
119
  5
33A
331
2C2
  5
191
331
214
  5
23F
331
2C1
  5
192
331
1BC
  5
297
331
2BF
  5
194
331
211
  5
242
331
2BE
  5
195
331
2BD
  5
196
331
26A
  5
1E9
331
2BC
  5
197
331
26B
  5
1E8
331
1C1
  5
292
331
170
  5
2E3
331
2BB
  5
198
331
20D
  5
246
331
2BA
  5
199
331
20C
  5
247
331
2B9
  5
19A
331
1B4
  5
29F
331
2B7
  5
19C
331
209
  5
24A
331
1B2
  5
2A1
331
2B5
  5
19E
331
262
  5
1F1
331
2B4
  5
19F
331
263
  5
1F0
331
1B9
  5
29A
331
2B3
  5
1A0
331
109
  5
34A
331
2B2
  5
1A1
331
1B7
  5
29C
331
166
  5
2ED
331
2B1
  5
1A2
331
FC
  5
357
331
2AF
  5
1A4
331
201
  5
252
331
1AA
  5
2A9
331
2AD
  5
1A6
331
25A
  5
1F9
331
2AC
  5
1A7
331
25B
  5
1F8
331
2AB
  5
1A8
331
1FD
  5
256
331
101
  5
352
331
2AA
  5
1A9
331
1FC
  5
257
331
1AF
  5
2A4
331
2A9
  5
1AA
331
2A8
  5
1AB
331
2A7
  5
1AC
331
2A5
  5
1AE
331
2A3
  5
1B0
331
1F5
  5
25E
331
F9
  5
35A
331
2A2
  5
1B1
331
1F4
  5
25F
331
2A1
  5
1B2
331
19C
  5
2B7
331
29F
  5
1B4
331
1F1
  5
262
331
29E
  5
1B5
331
29C
  5
1B7
331
24B
  5
208
331
1A1
  5
2B2
331
150
  5
303
331
29B
  5
1B8
331
1ED
  5
266
331
29A
  5
1B9
331
1EC
  5
267
331
299
  5
1BA
331
194
  5
2BF
331
297
  5
1BC
331
1E9
  5
26A
331
192
  5
2C1
331
295
  5
1BE
331
242
  5
211
331
293
  5
1C0
331
E9
  5
36A
331
146
  5
30D
331
292
  5
1C1
331
197
  5
2BC
331
291
  5
1C2
331
DC
  5
377
331
28F
  5
1C4
331
1E1
  5
272
331
18A
  5
2C9
331
28C
  5
1C7
331
23B
  5
218
331
28B
  5
1C8
331
1DD
  5
276
331
E1
  5
372
331
28A
  5
1C9
331
1DC
  5
277
331
18F
  5
2C4
331
288
  5
1CB
331
287
  5
1CC
331
285
  5
1CE
331
283
  5
1D0
331
1D5
  5
27E
331
D9
  5
37A
331
282
  5
1D1
331
1D4
  5
27F
331
281
  5
1D2
331
17C
  5
2D7
331
27F
  5
1D4
331
1D1
  5
282
331
27E
  5
1D5
331
130
  5
323
331
27C
  5
1D7
331
22B
  5
228
331
181
  5
2D2
331
27B
  5
1D8
331
1CD
  5
286
331
27A
  5
1D9
331
1CC
  5
287
331
279
  5
1DA
331
174
  5
2DF
331
277
  5
1DC
331
1C9
  5
28A
331
172
  5
2E1
331
275
  5
1DE
331
222
  5
231
331
273
  5
1E0
331
126
  5
32D
331
272
  5
1E1
331
177
  5
2DC
331
271
  5
1E2
331
270
  5
1E3
331
16B
  5
2E8
331
26F
  5
1E4
331
1BD
  5
296
331
26E
  5
1E5
331
267
  5
1EC
331
216
  5
23D
331
266
  5
1ED
331
265
  5
1EE
331
264
  5
1EF
331
25F
  5
1F4
331
20E
  5
245
331
25E
  5
1F5
331
259
  5
1FA
331
257
  5
1FC
331
206
  5
24D
331
256
  5
1FD
331
253
  5
200
331
1A9
  5
2AA
331
158
  5
2FB
331
106
  5
34D
331
252
  5
201
331
14B
  5
308
331
250
  5
203
331
24F
  5
204
331
19D
  5
2B6
331
24E
  5
205
331
246
  5
20D
331
244
  5
20F
331
23F
  5
214
331
1EE
  5
265
331
239
  5
21A
331
236
  5
21D
331
138
  5
31B
331
233
  5
220
331
189
  5
2CA
331
E6
  5
36D
331
232
  5
221
331
12B
  5
328
331
230
  5
223
331
22F
  5
224
331
17D
  5
2D6
331
22E
  5
225
331
226
  5
22D
331
224
  5
22F
331
21F
  5
234
331
1CE
  5
285
331
21B
  5
238
331
21A
  5
239
331
114
  5
33F
331
219
  5
23A
331
1C2
  5
291
331
213
  5
240
331
169
  5
2EA
331
117
  5
33C
331
212
  5
241
331
20B
  5
248
331
161
  5
2F2
331
10F
  5
344
331
20A
  5
249
331
205
  5
24E
331
204
  5
24F
331
203
  5
250
331
159
  5
2FA
331
202
  5
251
331
1FE
  5
255
331
1FB
  5
258
331
1FA
  5
259
331
F4
  5
35F
331
1F9
  5
25A
331
1A2
  5
2B1
331
149
  5
30A
331
1F3
  5
260
331
F7
  5
35C
331
1F2
  5
261
331
141
  5
312
331
1EB
  5
268
331
EF
  5
364
331
1EA
  5
269
331
1E4
  5
26F
331
139
  5
31A
331
1E3
  5
270
331
1E2
  5
271
331
1DE
  5
275
331
1DB
  5
278
331
1DA
  5
279
331
D4
  5
37F
331
1D9
  5
27A
331
182
  5
2D1
331
129
  5
32A
331
1D3
  5
280
331
D7
  5
37C
331
1D2
  5
281
331
121
  5
332
331
1CB
  5
288
331
CF
  5
384
331
1CA
  5
289
331
1C5
  5
28E
331
1C4
  5
28F
331
115
  5
33E
331
1C3
  5
290
331
1C0
  5
293
331
111
  5
342
331
1BF
  5
294
331
16E
  5
2E5
331
1BE
  5
295
331
10D
  5
346
331
1BB
  5
298
331
10C
  5
347
331
1BA
  5
299
331
1B8
  5
29B
331
108
  5
34B
331
1B6
  5
29D
331
1B5
  5
29E
331
1B3
  5
2A0
331
1B1
  5
2A2
331
160
  5
2F3
331
100
  5
353
331
1AE
  5
2A5
331
1AD
  5
2A6
331
1AC
  5
2A7
331
FD
  5
356
331
1AB
  5
2A8
331
1A8
  5
2AB
331
1A7
  5
2AC
331
156
  5
2FD
331
1A5
  5
2AE
331
1A4
  5
2AF
331
F5
  5
35E
331
1A3
  5
2B0
331
1A0
  5
2B3
331
F1
  5
362
331
14E
  5
305
331
19F
  5
2B4
331
19E
  5
2B5
331
ED
  5
366
331
19B
  5
2B8
331
EC
  5
367
331
19A
  5
2B9
331
198
  5
2BB
331
195
  5
2BE
331
193
  5
2C0
331
140
  5
313
331
191
  5
2C2
331
E0
  5
373
331
18E
  5
2C5
331
DD
  5
376
331
18B
  5
2C8
331
188
  5
2CB
331
136
  5
31D
331
187
  5
2CC
331
185
  5
2CE
331
184
  5
2CF
331
D5
  5
37E
331
183
  5
2D0
331
180
  5
2D3
331
D1
  5
382
331
12E
  5
325
331
17F
  5
2D4
331
17E
  5
2D5
331
17B
  5
2D8
331
17A
  5
2D9
331
178
  5
2DB
331
175
  5
2DE
331
173
  5
2E0
331
120
  5
333
331
171
  5
2E2
331
16F
  5
2E4
331
11A
  5
339
331
16D
  5
2E6
331
11B
  5
338
331
16C
  5
2E7
331
16A
  5
2E9
331
168
  5
2EB
331
167
  5
2EC
331
165
  5
2EE
331
164
  5
2EF
331
163
  5
2F0
331
162
  5
2F1
331
15F
  5
2F4
331
15E
  5
2F5
331
10B
  5
348
331
15C
  5
2F7
331
15B
  5
2F8
331
15A
  5
2F9
331
157
  5
2FC
331
102
  5
351
331
155
  5
2FE
331
103
  5
350
331
154
  5
2FF
331
152
  5
301
331
151
  5
302
331
14F
  5
304
331
FA
  5
359
331
14D
  5
306
331
FB
  5
358
331
14C
  5
307
331
14A
  5
309
331
148
  5
30B
331
147
  5
30C
331
145
  5
30E
331
144
  5
30F
331
143
  5
310
331
142
  5
311
331
13F
  5
314
331
13E
  5
315
331
EB
  5
368
331
13C
  5
317
331
13B
  5
318
331
13A
  5
319
331
137
  5
31C
331
E2
  5
371
331
135
  5
31E
331
E3
  5
370
331
134
  5
31F
331
132
  5
321
331
131
  5
322
331
12F
  5
324
331
DA
  5
379
331
12D
  5
326
331
DB
  5
378
331
12C
  5
327
331
12A
  5
329
331
128
  5
32B
331
127
  5
32C
331
125
  5
32E
331
124
  5
32F
331
123
  5
330
331
122
  5
331
331
11F
  5
334
331
11E
  5
335
331
11C
  5
337
331
116
  5
33D
331
113
  5
340
331
10E
  5
345
331
107
  5
34C
331
105
  5
34E
331
104
  5
34F
331
FF
  5
354
331
FE
  5
355
331
F6
  5
35D
331
F3
  5
360
331
EE
  5
365
331
E7
  5
36C
331
E5
  5
36E
331
E4
  5
36F
331
DF
  5
374
331
DE
  5
375
331
D6
  5
37D
331
D3
  5
380
  0
LAYOUT
  5
1E
102
{ACAD_REACTORS
330
1A
102
}
330
1A
100
AcDbPlotSettings
  1

  2
Microsoft XPS Document Writer#:1
  4

  6

 40
0
 41
0
 42
0
 43
0
 44
0
 45
0
 46
0
 47
0
 48
0
 49
0
140
0
141
0
142
1
143
1
 70
688
 72
0
 73
0
 74
5
  7

 75
16
 76
0
 77
2
 78
300
147
1
148
0
149
0
100
AcDbLayout
  1
Layout1
 70
1
 71
1
 10
0
 20
0
 11
12
 21
9
 12
0
 22
0
 32
0
 14
0
 24
0
 34
0
 15
0
 25
0
 35
0
146
0
 13
0
 23
0
 33
0
 16
1
 26
0
 36
0
 17
0
 27
1
 37
0
 76
0
330
1B
  0
LAYOUT
  5
22
102
{ACAD_REACTORS
330
1A
102
}
330
1A
100
AcDbPlotSettings
  1

  2
none_device
  4
Letter_(8.50_x_11.00_Inches)
  6

 40
6.3499999046325684
 41
6.3499999046325684
 42
6.350006103515625
 43
6.350006103515625
 44
215.8999938964844
 45
279.39999389648438
 46
0
 47
0
 48
0
 49
0
140
0
141
0
142
1
143
4.295634387151658
 70
11952
 72
0
 73
0
 74
0
  7

 75
0
 76
0
 77
2
 78
300
147
0.23279448618602719
148
121.9009075683386
149
-21.530253356214871
100
AcDbLayout
  1
Model
 70
1
 71
0
 10
0
 20
0
 11
12
 21
9
 12
0
 22
0
 32
0
 14
0
 24
0
 34
0
 15
12
 25
9
 35
0
146
0
 13
0
 23
0
 33
0
 16
1
 26
0
 36
0
 17
0
 27
1
 37
0
 76
0
330
2B
1001
ACAD_PSEXT
1000
None
1000
None
1000
Not applicable
1000
Select a new plotter configuration name to plot the layout.
1070
0
  0
MLINESTYLE
  5
35C
330
17
100
AcDbMlineStyle
  2
STANDARD
 70
0
  3

 51
90
 52
90
 71
2
 49
0.5
  6
ByLayer
 49
-0.5
  6
ByLayer
  0
SCALE
  5
35E
102
{ACAD_REACTORS
330
35D
102
}
330
35D
100
AcDbScale
 70
0
300
1:1
140
1
141
1
290
1
  0
SCALE
  5
35F
102
{ACAD_REACTORS
330
35D
102
}
330
35D
100
AcDbScale
 70
0
300
1:2
140
1
141
2
290
0
  0
SCALE
  5
360
102
{ACAD_REACTORS
330
35D
102
}
330
35D
100
AcDbScale
 70
0
300
1:4
140
1
141
4
290
0
  0
SCALE
  5
361
102
{ACAD_REACTORS
330
35D
102
}
330
35D
100
AcDbScale
 70
0
300
1:5
140
1
141
5
290
0
  0
SCALE
  5
362
102
{ACAD_REACTORS
330
35D
102
}
330
35D
100
AcDbScale
 70
0
300
1:8
140
1
141
8
290
0
  0
SCALE
  5
363
102
{ACAD_REACTORS
330
35D
102
}
330
35D
100
AcDbScale
 70
0
300
1:10
140
1
141
10
290
0
  0
SCALE
  5
364
102
{ACAD_REACTORS
330
35D
102
}
330
35D
100
AcDbScale
 70
0
300
1:16
140
1
141
16
290
0
  0
SCALE
  5
365
102
{ACAD_REACTORS
330
35D
102
}
330
35D
100
AcDbScale
 70
0
300
1:20
140
1
141
20
290
0
  0
SCALE
  5
366
102
{ACAD_REACTORS
330
35D
102
}
330
35D
100
AcDbScale
 70
0
300
1:30
140
1
141
30
290
0
  0
SCALE
  5
367
102
{ACAD_REACTORS
330
35D
102
}
330
35D
100
AcDbScale
 70
0
300
1:40
140
1
141
40
290
0
  0
SCALE
  5
368
102
{ACAD_REACTORS
330
35D
102
}
330
35D
100
AcDbScale
 70
0
300
1:50
140
1
141
50
290
0
  0
SCALE
  5
369
102
{ACAD_REACTORS
330
35D
102
}
330
35D
100
AcDbScale
 70
0
300
1:100
140
1
141
100
290
0
  0
SCALE
  5
36A
102
{ACAD_REACTORS
330
35D
102
}
330
35D
100
AcDbScale
 70
0
300
2:1
140
2
141
1
290
0
  0
SCALE
  5
36B
102
{ACAD_REACTORS
330
35D
102
}
330
35D
100
AcDbScale
 70
0
300
4:1
140
4
141
1
290
0
  0
SCALE
  5
36C
102
{ACAD_REACTORS
330
35D
102
}
330
35D
100
AcDbScale
 70
0
300
8:1
140
8
141
1
290
0
  0
SCALE
  5
36D
102
{ACAD_REACTORS
330
35D
102
}
330
35D
100
AcDbScale
 70
0
300
10:1
140
10
141
1
290
0
  0
SCALE
  5
36E
102
{ACAD_REACTORS
330
35D
102
}
330
35D
100
AcDbScale
 70
0
300
100:1
140
100
141
1
290
0
  0
SCALE
  5
36F
102
{ACAD_REACTORS
330
35D
102
}
330
35D
100
AcDbScale
 70
0
300
1/128" = 1'-0"
140
0.0078125
141
12
290
0
  0
SCALE
  5
370
102
{ACAD_REACTORS
330
35D
102
}
330
35D
100
AcDbScale
 70
0
300
1/64" = 1'-0"
140
0.015625
141
12
290
0
  0
SCALE
  5
371
102
{ACAD_REACTORS
330
35D
102
}
330
35D
100
AcDbScale
 70
0
300
1/32" = 1'-0"
140
0.03125
141
12
290
0
  0
SCALE
  5
372
102
{ACAD_REACTORS
330
35D
102
}
330
35D
100
AcDbScale
 70
0
300
1/16" = 1'-0"
140
0.0625
141
12
290
0
  0
SCALE
  5
373
102
{ACAD_REACTORS
330
35D
102
}
330
35D
100
AcDbScale
 70
0
300
3/32" = 1'-0"
140
0.09375
141
12
290
0
  0
SCALE
  5
374
102
{ACAD_REACTORS
330
35D
102
}
330
35D
100
AcDbScale
 70
0
300
1/8" = 1'-0"
140
0.125
141
12
290
0
  0
SCALE
  5
375
102
{ACAD_REACTORS
330
35D
102
}
330
35D
100
AcDbScale
 70
0
300
3/16" = 1'-0"
140
0.1875
141
12
290
0
  0
SCALE
  5
376
102
{ACAD_REACTORS
330
35D
102
}
330
35D
100
AcDbScale
 70
0
300
1/4" = 1'-0"
140
0.25
141
12
290
0
  0
SCALE
  5
377
102
{ACAD_REACTORS
330
35D
102
}
330
35D
100
AcDbScale
 70
0
300
3/8" = 1'-0"
140
0.375
141
12
290
0
  0
SCALE
  5
378
102
{ACAD_REACTORS
330
35D
102
}
330
35D
100
AcDbScale
 70
0
300
1/2" = 1'-0"
140
0.5
141
12
290
0
  0
SCALE
  5
379
102
{ACAD_REACTORS
330
35D
102
}
330
35D
100
AcDbScale
 70
0
300
3/4" = 1'-0"
140
0.75
141
12
290
0
  0
SCALE
  5
37A
102
{ACAD_REACTORS
330
35D
102
}
330
35D
100
AcDbScale
 70
0
300
1" = 1'-0"
140
1
141
12
290
0
  0
SCALE
  5
37B
102
{ACAD_REACTORS
330
35D
102
}
330
35D
100
AcDbScale
 70
0
300
1-1/2" = 1'-0"
140
1.5
141
12
290
0
  0
SCALE
  5
37C
102
{ACAD_REACTORS
330
35D
102
}
330
35D
100
AcDbScale
 70
0
300
3" = 1'-0"
140
3
141
12
290
0
  0
SCALE
  5
37D
102
{ACAD_REACTORS
330
35D
102
}
330
35D
100
AcDbScale
 70
0
300
6" = 1'-0"
140
6
141
12
290
0
  0
SCALE
  5
37E
102
{ACAD_REACTORS
330
35D
102
}
330
35D
100
AcDbScale
 70
0
300
1'-0" = 1'-0"
140
12
141
12
290
0
  0
TABLESTYLE
  5
380
330
37F
100
AcDbTableStyle
  3
Standard
 70
0
 71
0
 40
0.06
 41
0.06
280
0
281
0
  7
Standard
140
0.18
170
2
 62
0
283
0
 90
512
 91
0
274
-2
284
1
 64
0
275
-2
285
1
 65
0
276
-2
286
1
 66
0
277
-2
287
1
 67
0
278
-2
288
1
 68
0
279
-2
289
1
 69
0
  7
Standard
140
0.25
170
5
 62
0
283
0
 90
512
 91
0
274
-2
284
1
 64
0
275
-2
285
1
 65
0
276
-2
286
1
 66
0
277
-2
287
1
 67
0
278
-2
288
1
 68
0
279
-2
289
1
 69
0
  7
Standard
140
0.18
170
5
 62
0
283
0
 90
512
 91
0
274
-2
284
1
 64
0
275
-2
285
1
 65
0
276
-2
286
1
 66
0
277
-2
287
1
 67
0
278
-2
288
1
 68
0
279
-2
289
1
 69
0
  0
DICTIONARYVAR
  5
383
330
382
100
DictionaryVariables
280
0
  1
1:1
  0
DICTIONARYVAR
  5
384
330
382
100
DictionaryVariables
280
0
  1
STANDARD
  0
DICTIONARYVAR
  5
385
330
382
100
DictionaryVariables
280
0
  1
STANDARD
  0
DICTIONARYVAR
  5
386
330
382
100
DictionaryVariables
280
0
  1
Imperial24
  0
DICTIONARYVAR
  5
387
330
382
100
DictionaryVariables
280
0
  1
Imperial24
  0
DICTIONARYVAR
  5
388
330
382
100
DictionaryVariables
280
0
  1
2
  0
DICTIONARYVAR
  5
389
330
382
100
DictionaryVariables
280
0
  1
1
  0
DICTIONARYVAR
  5
38A
330
382
100
DictionaryVariables
280
0
  1
2
  0
DICTIONARYVAR
  5
38B
102
{ACAD_REACTORS
330
382
102
}
330
382
100
DictionaryVariables
280
0
  1
1
  0
DICTIONARYVAR
  5
38C
102
{ACAD_REACTORS
330
382
102
}
330
382
100
DictionaryVariables
280
0
  1
0
  0
ENDSEC
999
Created By CadLib version 4.0.36.72
999
CadLib website: www.woutware.com
  0
EOF
