  0
SECTION
  2
HEADER
  9
$ACADVER
  1
AC1015
  9
$ACADMAINTVER
 70
6
  9
$DWGCODEPAGE
  3
ansi_1252
  9
$INSBASE
 10
0
 20
0
 30
0
  9
$EXTMIN
 10
197.85992473248447
 20
189.0209746674897
 30
0
  9
$EXTMAX
 10
1039.1864729782851
 20
1443.5579703148469
 30
0
  9
$LIMMIN
 10
0
 20
0
  9
$LIMMAX
 10
420
 20
297
  9
$SNAPMODE
 70
0
  9
$SNAPUNIT
 10
1
 20
1
  9
$SNAPBASE
 10
0
 20
0
  9
$SNAPANG
 50
0
  9
$SNAPSTYLE
 70
0
  9
$SNAPISOPAIR
 70
0
  9
$ORTHOMODE
 70
0
  9
$REGENMODE
 70
1
  9
$FILLMODE
 70
1
  9
$QTEXTMODE
 70
0
  9
$MIRRTEXT
 70
1
  9
$LTSCALE
 40
1
  9
$OSMODE
 70
0
  9
$ATTMODE
 70
1
  9
$TEXTSIZE
 40
3.5
  9
$TRACEWID
 40
1
  9
$TEXTSTYLE
  7
Standard
  9
$CLAYER
  8
0
  9
$CELTYPE
  6
ByLayer
  9
$CECOLOR
 62
256
  9
$CELTSCALE
 40
1
  9
$DISPSILH
 70
0
  9
$DIMSCALE
 40
1
  9
$DIMASZ
 40
3.302
  9
$DIMEXO
 40
0
  9
$DIMDLI
 40
3.75
  9
$DIMRND
 40
0
  9
$DIMDLE
 40
0
  9
$DIMEXE
 40
1
  9
$DIMTP
 40
0
  9
$DIMTM
 40
0
  9
$DIMTXT
 40
3.5
  9
$DIMCEN
 40
2.5
  9
$DIMTSZ
 40
0
  9
$DIMTOL
 70
0
  9
$DIMLIM
 70
0
  9
$DIMTIH
 70
0
  9
$DIMTOH
 70
0
  9
$DIMSE1
 70
0
  9
$DIMSE2
 70
0
  9
$DIMTAD
 70
1
  9
$DIMZIN
 70
1
  9
$DIMBLK
  1

  9
$DIMASO
 70
1
  9
$DIMSHO
 70
1
  9
$DIMPOST
  1

  9
$DIMAPOST
  1

  9
$DIMALT
 70
0
  9
$DIMALTD
 70
3
  9
$DIMALTF
 40
0.0393700787
  9
$DIMLFAC
 40
1
  9
$DIMTOFL
 70
1
  9
$DIMTVP
 40
0
  9
$DIMTIX
 70
0
  9
$DIMSOXD
 70
0
  9
$DIMSAH
 70
0
  9
$DIMBLK1
  1

  9
$DIMBLK2
  1

  9
$DIMSTYLE
  2
ISO-25
  9
$DIMCLRD
 70
0
  9
$DIMCLRE
 70
0
  9
$DIMCLRT
 70
0
  9
$DIMTFAC
 40
1
  9
$DIMGAP
 40
1.524
  9
$DIMJUST
 70
0
  9
$DIMSD1
 70
0
  9
$DIMSD2
 70
0
  9
$DIMTOLJ
 70
0
  9
$DIMTZIN
 70
1
  9
$DIMALTZ
 70
0
  9
$DIMALTTZ
 70
0
  9
$DIMUPT
 70
0
  9
$DIMDEC
 70
2
  9
$DIMTDEC
 70
2
  9
$DIMALTU
 70
2
  9
$DIMALTTD
 70
3
  9
$DIMTXSTY
  7
Standard
  9
$DIMAUNIT
 70
0
  9
$DIMADEC
 70
2
  9
$DIMALTRND
 40
0
  9
$DIMAZIN
 70
0
  9
$DIMDSEP
 70
44
  9
$DIMATFIT
 70
3
  9
$DIMFRAC
 70
0
  9
$DIMLDRBLK
  1

  9
$DIMLUNIT
 70
2
  9
$DIMLWD
 70
-2
  9
$DIMLWE
 70
-2
  9
$LUNITS
 70
2
  9
$LUPREC
 70
6
  9
$SKETCHINC
 40
1
  9
$FILLETRAD
 40
0
  9
$AUNITS
 70
0
  9
$AUPREC
 70
3
  9
$MENU
  1
.
  9
$ELEVATION
 40
0
  9
$PELEVATION
 40
0
  9
$THICKNESS
 40
0
  9
$LIMCHECK
 70
0
  9
$CHAMFERA
 40
0
  9
$CHAMFERB
 40
0
  9
$CHAMFERC
 40
0
  9
$CHAMFERD
 40
0
  9
$SKPOLY
 70
0
  9
$TDCREATE
 40
2460364.4732004977
  9
$TDUCREATE
 40
2460364.2440338312
  9
$TDUPDATE
 40
2460364.49805897
  9
$TDUUPDATE
 40
2460364.2688923031
  9
$TDINDWG
 40
4.363425925925926E-05
  9
$TDUSRTIMER
 40
4.3622685185185184E-05
  9
$USRTIMER
 70
1
  9
$ANGBASE
 50
0
  9
$ANGDIR
 70
0
  9
$PDMODE
 70
2
  9
$PDSIZE
 40
0
  9
$PLINEWID
 40
0
  9
$SPLFRAME
 70
0
  9
$SPLINETYPE
 70
6
  9
$SPLINESEGS
 70
8
  9
$HANDSEED
  5
127
  9
$SURFTAB1
 70
6
  9
$SURFTAB2
 70
6
  9
$SURFTYPE
 70
6
  9
$SURFU
 70
6
  9
$SURFV
 70
6
  9
$UCSORG
 10
0
 20
0
 30
0
  9
$UCSXDIR
 10
1
 20
0
 30
0
  9
$UCSYDIR
 10
0
 20
1
 30
0
  9
$UCSORTHOREF
  2

  9
$UCSORTHOVIEW
 70
0
  9
$UCSORGTOP
 10
0
 20
0
 30
0
  9
$UCSORGBOTTOM
 10
0
 20
0
 30
0
  9
$UCSORGLEFT
 10
0
 20
0
 30
0
  9
$UCSORGRIGHT
 10
0
 20
0
 30
0
  9
$UCSORGFRONT
 10
0
 20
0
 30
0
  9
$UCSORGBACK
 10
0
 20
0
 30
0
  9
$PUCSORG
 10
0
 20
0
 30
0
  9
$PUCSXDIR
 10
1
 20
0
 30
0
  9
$PUCSYDIR
 10
0
 20
1
 30
0
  9
$PUCSORTHOREF
  2

  9
$PUCSORTHOVIEW
 70
0
  9
$PUCSORGTOP
 10
0
 20
0
 30
0
  9
$PUCSORGBOTTOM
 10
0
 20
0
 30
0
  9
$PUCSORGLEFT
 10
0
 20
0
 30
0
  9
$PUCSORGRIGHT
 10
0
 20
0
 30
0
  9
$PUCSORGFRONT
 10
0
 20
0
 30
0
  9
$PUCSORGBACK
 10
0
 20
0
 30
0
  9
$USERI1
 70
0
  9
$USERI2
 70
0
  9
$USERI3
 70
0
  9
$USERI4
 70
0
  9
$USERI5
 70
0
  9
$USERR1
 40
0
  9
$USERR2
 40
0
  9
$USERR3
 40
0
  9
$USERR4
 40
0
  9
$USERR5
 40
0
  9
$WORLDVIEW
 70
1
  9
$SHADEDGE
 70
3
  9
$SHADEDIF
 70
70
  9
$TILEMODE
 70
1
  9
$MAXACTVP
 70
64
  9
$PINSBASE
 10
0
 20
0
 30
0
  9
$PLIMCHECK
 70
0
  9
$PEXTMIN
 10
1E+20
 20
1E+20
 30
1E+20
  9
$PEXTMAX
 10
-1E+20
 20
-1E+20
 30
-1E+20
  9
$PLIMMAX
 10
0
 20
0
  9
$PLIMMIN
 10
0
 20
0
  9
$UNITMODE
 70
0
  9
$VISRETAIN
 70
1
  9
$PLINEGEN
 70
0
  9
$PSLTSCALE
 70
1
  9
$TREEDEPTH
 70
3020
  9
$CMLSTYLE
  2
STANDARD
  9
$CMLJUST
 70
0
  9
$CMLSCALE
 40
20
  9
$PROXYGRAPHICS
 70
1
  9
$MEASUREMENT
 70
1
  9
$CELWEIGHT
370
-1
  9
$ENDCAPS
280
0
  9
$JOINSTYLE
280
0
  9
$LWDISPLAY
290
1
  9
$INSUNITS
 70
4
  9
$HYPERLINKBASE
  1

  9
$XEDIT
290
1
  9
$CEPSNTYPE
380
0
  9
$PSTYLEMODE
290
1
  9
$FINGERPRINTGUID
  2
{23141d7b-9eaa-4f4d-9ac7-734a7bb25b2b}
  9
$VERSIONGUID
  2
{FAEB1C32-E019-11D5-929B-00C0DF256EC4}
  9
$EXTNAMES
290
1
  9
$PSVPSCALE
 40
0
  9
$CSHADOW
280
0
  9
$SHADOWPLANELOCATION
 40
0
  9
$STYLESHEET
  1

  9
$OLESTARTUP
290
     0
  0
ENDSEC
  0
SECTION
  2
CLASSES
  0
CLASS
  1
ACDBDICTIONARYWDFLT
  2
AcDbDictionaryWithDefault
  3
ObjectDBX Classes
 90
0
280
0
281
0
  0
CLASS
  1
VISUALSTYLE
  2
AcDbVisualStyle
  3
ObjectDBX Classes
 90
4095
280
0
281
0
  0
CLASS
  1
MATERIAL
  2
AcDbMaterial
  3
ObjectDBX Classes
 90
1153
280
0
281
0
  0
CLASS
  1
SCALE
  2
AcDbScale
  3
ObjectDBX Classes
 90
1153
280
0
281
0
  0
CLASS
  1
TABLESTYLE
  2
AcDbTableStyle
  3
ObjectDBX Classes
 90
4095
280
0
281
0
  0
CLASS
  1
MLEADERSTYLE
  2
AcDbMLeaderStyle
  3
ACDB_MLEADERSTYLE_CLASS
 90
4095
280
0
281
0
  0
CLASS
  1
SUN
  2
AcDbSun
  3
SCENEOE
 90
1153
280
0
281
0
  0
CLASS
  1
ACDBPLACEHOLDER
  2
AcDbPlaceHolder
  3
ObjectDBX Classes
 90
0
280
0
281
0
  0
CLASS
  1
LAYOUT
  2
AcDbLayout
  3
ObjectDBX Classes
 90
0
280
0
281
0
  0
CLASS
  1
DICTIONARYVAR
  2
AcDbDictionaryVar
  3
ObjectDBX Classes
 90
0
280
0
281
0
  0
CLASS
  1
DIMASSOC
  2
AcDbDimAssoc
  3
"AcDbDimAssoc|Product Desc:     AcDim ARX App For Dimension|Company:          Autodesk, Inc.|WEB Address:      www.autodesk.com"
 90
0
280
0
281
0
  0
CLASS
  1
BREAKDATA
  2
AcDbBreakData
  3
ObjectDBX Classes
 90
1024
280
0
281
0
  0
CLASS
  1
RASTERVARIABLES
  2
AcDbRasterVariables
  3
ISM
 90
0
280
0
281
0
  0
CLASS
  1
IMAGEDEF
  2
AcDbRasterImageDef
  3
ISM
 90
0
280
0
281
0
  0
CLASS
  1
IMAGEDEF_REACTOR
  2
AcDbRasterImageDefReactor
  3
ISM
 90
1
280
0
281
0
  0
CLASS
  1
IMAGE
  2
AcDbRasterImage
  3
ISM
 90
127
280
0
281
1
  0
CLASS
  1
ACAD_EVALUATION_GRAPH
  2
AcDbEvalGraph
  3
ObjectDBX Classes
 90
1153
280
0
281
0
  0
CLASS
  1
BLOCKPOINTPARAMETER
  2
AcDbBlockPointParameter
  3
ObjectDBX Classes
 90
1153
280
0
281
0
  0
CLASS
  1
BLOCKBASEPOINTPARAMETER
  2
AcDbBlockBasepointParameter
  3
ObjectDBX Classes
 90
1153
280
0
281
0
  0
CLASS
  1
BLOCKLOOKUPPARAMETER
  2
AcDbBlockLookupParameter
  3
ObjectDBX Classes
 90
1153
280
0
281
0
  0
CLASS
  1
BLOCKVISIBILITYPARAMETER
  2
AcDbBlockVisibilityParameter
  3
ObjectDBX Classes
 90
1153
280
0
281
0
  0
CLASS
  1
BLOCKPROPERTIESTABLE
  2
AcDbBlockPropertiesTable
  3
ObjectDBX Classes
 90
1153
280
0
281
0
  0
CLASS
  1
BLOCKPOLARPARAMETER
  2
AcDbBlockPolarParameter
  3
ObjectDBX Classes
 90
1153
280
0
281
0
  0
CLASS
  1
BLOCKROTATIONPARAMETER
  2
AcDbBlockRotationParameter
  3
ObjectDBX Classes
 90
1153
280
0
281
0
  0
CLASS
  1
BLOCKLINEARPARAMETER
  2
AcDbBlockLinearParameter
  3
ObjectDBX Classes
 90
1153
280
0
281
0
  0
CLASS
  1
BLOCKXYPARAMETER
  2
AcDbBlockXYParameter
  3
ObjectDBX Classes
 90
1153
280
0
281
0
  0
CLASS
  1
BLOCKFLIPPARAMETER
  2
AcDbBlockFlipParameter
  3
ObjectDBX Classes
 90
1153
280
0
281
0
  0
CLASS
  1
BLOCKALIGNMENTPARAMETER
  2
AcDbBlockAlignmentParameter
  3
ObjectDBX Classes
 90
1153
280
0
281
0
  0
CLASS
  1
BLOCKROTATEACTION
  2
AcDbBlockRotateAction
  3
ObjectDBX Classes
 90
1153
280
0
281
0
  0
CLASS
  1
BLOCKSCALEACTION
  2
AcDbBlockScaleAction
  3
ObjectDBX Classes
 90
1153
280
0
281
0
  0
CLASS
  1
BLOCKARRAYACTION
  2
AcDbBlockArrayAction
  3
ObjectDBX Classes
 90
1153
280
0
281
0
  0
CLASS
  1
BLOCKFLIPACTION
  2
AcDbBlockFlipAction
  3
ObjectDBX Classes
 90
1153
280
0
281
0
  0
CLASS
  1
BLOCKLOOKUPACTION
  2
AcDbBlockLookupAction
  3
ObjectDBX Classes
 90
1153
280
0
281
0
  0
CLASS
  1
BLOCKMOVEACTION
  2
AcDbBlockMoveAction
  3
ObjectDBX Classes
 90
1153
280
0
281
0
  0
CLASS
  1
BLOCKPOLARSTRETCHACTION
  2
AcDbBlockPolarStretchAction
  3
ObjectDBX Classes
 90
1153
280
0
281
0
  0
CLASS
  1
BLOCKSTRETCHACTION
  2
AcDbBlockStretchAction
  3
ObjectDBX Classes
 90
1153
280
0
281
0
  0
CLASS
  1
BLOCKALIGNMENTGRIP
  2
AcDbBlockAlignmentGrip
  3
ObjectDBX Classes
 90
1153
280
0
281
0
  0
CLASS
  1
BLOCKFLIPGRIP
  2
AcDbBlockFlipGrip
  3
ObjectDBX Classes
 90
1153
280
0
281
0
  0
CLASS
  1
ACDB_BLOCKREPRESENTATION_DATA
  2
AcDbBlockRepresentationData
  3
ObjectDBX Classes
 90
1153
280
0
281
0
  0
CLASS
  1
ACDB_DYNAMICBLOCKPURGEPREVENTER_VERSION
  2
AcDbDynamicBlockPurgePreventer
  3
ObjectDBX Classes
 90
1153
280
0
281
0
  0
CLASS
  1
BLOCKLINEARGRIP
  2
AcDbBlockLinearGrip
  3
ObjectDBX Classes
 90
1153
280
0
281
0
  0
CLASS
  1
BLOCKLOOKUPGRIP
  2
AcDbBlockLookupGrip
  3
ObjectDBX Classes
 90
1153
280
0
281
0
  0
CLASS
  1
BLOCKPOLARGRIP
  2
AcDbBlockPolarGrip
  3
ObjectDBX Classes
 90
1153
280
0
281
0
  0
CLASS
  1
BLOCKPROPERTIESTABLEGRIP
  2
AcDbBlockPropertiesTableGrip
  3
ObjectDBX Classes
 90
1153
280
0
281
0
  0
CLASS
  1
BLOCKROTATIONGRIP
  2
AcDbBlockRotationGrip
  3
ObjectDBX Classes
 90
1153
280
0
281
0
  0
CLASS
  1
BLOCKVISIBILITYGRIP
  2
AcDbBlockVisibilityGrip
  3
ObjectDBX Classes
 90
1153
280
0
281
0
  0
CLASS
  1
BLOCKXYGRIP
  2
AcDbBlockXYGrip
  3
ObjectDBX Classes
 90
1153
280
0
281
0
  0
CLASS
  1
BLOCKGRIPLOCATIONCOMPONENT
  2
AcDbBlockGripExpr
  3
ObjectDBX Classes
 90
1153
280
0
281
0
  0
CLASS
  1
ACDB_DYNAMICBLOCKPROXYNODE
  2
AcDbDynamicBlockProxyNode
  3
ObjectDBX Classes
 90
1153
280
0
281
0
  0
ENDSEC
  0
SECTION
  2
TABLES
  0
TABLE
  2
VPORT
  5
8
330
0
100
AcDbSymbolTable
 70
1
  0
VPORT
  5
F9
330
8
100
AcDbSymbolTableRecord
100
AcDbViewportTableRecord
  2
*Active
 70
0
 10
0
 20
0
 11
1
 21
1
 12
707.545976903186
 22
735.84251380403487
 13
0
 23
0
 14
10
 24
10
 15
10
 25
10
 16
0
 26
0
 36
1
 17
0
 27
0
 37
0
 40
2133.6857015833971
 41
1.91578947368421
 42
50
 43
0
 44
0
 50
0
 51
0
 71
16
 72
100
 73
1
 74
0
 75
0
 76
0
 77
0
 78
0
281
0
 65
1
110
0
120
0
130
0
111
1
121
0
131
0
112
0
122
1
132
0
 79
0
146
0
  0
ENDTAB
  0
TABLE
  2
LTYPE
  5
5
100
AcDbSymbolTable
 70
8
  0
LTYPE
  5
14
330
5
100
AcDbSymbolTableRecord
100
AcDbLinetypeTableRecord
  2
ByBlock
  3

 70
0
 72
65
 73
0
 40
0
  0
LTYPE
  5
15
330
5
100
AcDbSymbolTableRecord
100
AcDbLinetypeTableRecord
  2
ByLayer
  3

 70
0
 72
65
 73
0
 40
0
  0
LTYPE
  5
16
330
5
100
AcDbSymbolTableRecord
100
AcDbLinetypeTableRecord
  2
Continuous
  3
Solid line
 70
0
 72
65
 73
0
 40
0
  0
LTYPE
  5
F2
330
5
100
AcDbSymbolTableRecord
100
AcDbLinetypeTableRecord
  2
HIDDEN
  3
Hidden __ __ __ __ __ __ __ __ __ __ __ __ __ __
 70
0
 72
65
 73
2
 40
1.905
 49
1.27
 74
0
 49
-0.635
 74
0
  0
LTYPE
  5
F3
330
5
100
AcDbSymbolTableRecord
100
AcDbLinetypeTableRecord
  2
PHANTOM
  3
Phantom ______  __  __  ______  __  __  ______
 70
0
 72
65
 73
6
 40
12.699999999999998
 49
6.35
 74
0
 49
-1.27
 74
0
 49
1.27
 74
0
 49
-1.27
 74
0
 49
1.27
 74
0
 49
-1.27
 74
0
  0
LTYPE
  5
F4
330
5
100
AcDbSymbolTableRecord
100
AcDbLinetypeTableRecord
  2
CENTER
  3
Center ____ _ ____ _ ____ _ ____ _ ____ _ ____
 70
0
 72
65
 73
4
 40
10.159999999999998
 49
6.35
 74
0
 49
-1.27
 74
0
 49
1.27
 74
0
 49
-1.27
 74
0
  0
LTYPE
  5
F5
330
5
100
AcDbSymbolTableRecord
100
AcDbLinetypeTableRecord
  2
CENTERX2
  3
Center (2x) ________  __  ________  __  _____
 70
0
 72
65
 73
4
 40
20.319999999999997
 49
12.7
 74
0
 49
-2.54
 74
0
 49
2.54
 74
0
 49
-2.54
 74
0
  0
LTYPE
  5
F6
330
5
100
AcDbSymbolTableRecord
100
AcDbLinetypeTableRecord
  2
DOT2
  3
Dot (.5x) ........................................
 70
0
 72
65
 73
2
 40
0.635
 49
0
 74
0
 49
-0.635
 74
0
  0
ENDTAB
  0
TABLE
  2
LAYER
  5
2
100
AcDbSymbolTable
 70
5
  0
LAYER
  5
10
330
2
100
AcDbSymbolTableRecord
100
AcDbLayerTableRecord
 70
0
  2
0
 62
7
  6
Continuous
370
-3
390
F
  0
LAYER
  5
27
330
2
100
AcDbSymbolTableRecord
100
AcDbLayerTableRecord
 70
0
  2
Defpoints
 62
151
  6
Continuous
290
0
370
-3
390
F
  0
LAYER
  5
28
330
2
100
AcDbSymbolTableRecord
100
AcDbLayerTableRecord
 70
64
  2
LaserCutting
 62
3
  6
Continuous
370
-3
390
F
  0
LAYER
  5
29
330
2
100
AcDbSymbolTableRecord
100
AcDbLayerTableRecord
 70
64
  2
Marking
 62
6
  6
Continuous
370
-3
390
F
  0
LAYER
  5
2A
330
2
100
AcDbSymbolTableRecord
100
AcDbLayerTableRecord
 70
64
  2
Dimention
 62
9
  6
Continuous
370
-3
390
F
  0
ENDTAB
  0
TABLE
  2
STYLE
  5
3
100
AcDbSymbolTable
 70
1
  0
STYLE
  5
11
330
3
100
AcDbSymbolTableRecord
100
AcDbTextStyleTableRecord
  2
Standard
 70
0
 40
0
 41
1
 50
0
 71
0
 42
3.5
  3
txt
  0
ENDTAB
  0
TABLE
  2
VIEW
  5
6
100
AcDbSymbolTable
 70
0
  0
ENDTAB
  0
TABLE
  2
UCS
  5
7
100
AcDbSymbolTable
 70
0
  0
ENDTAB
  0
TABLE
  2
APPID
  5
9
330
0
100
AcDbSymbolTable
 70
4
  0
APPID
  5
12
330
0
100
AcDbSymbolTableRecord
100
AcDbRegAppTableRecord
  2
ACAD
 70
0
  0
APPID
  5
123
330
0
100
AcDbSymbolTableRecord
100
AcDbRegAppTableRecord
  2
ENABLE_CUSTOM_SPLIT
 70
0
  0
APPID
  5
124
330
0
100
AcDbSymbolTableRecord
100
AcDbRegAppTableRecord
  2
ACAD_MLEADERVER
 70
0
  0
APPID
  5
125
330
0
100
AcDbSymbolTableRecord
100
AcDbRegAppTableRecord
  2
AcadAnnotative
 70
64
  0
ENDTAB
  0
TABLE
  2
DIMSTYLE
  5
A
330
0
100
AcDbSymbolTable
 70
2
100
AcDbDimStyleTable
 71
0
  0
DIMSTYLE
105
F7
102
{ACAD_REACTORS
330
15C
330
16E
102
}
330
A
100
AcDbSymbolTableRecord
100
AcDbDimStyleTableRecord
  2
ISO-25
 70
0
  3

  4

 40
1
 41
2.5
 42
0.625
 43
3.75
 44
1.25
 45
0
 46
0
 47
0
 48
0
140
2.5
141
2.5
142
0
143
0.0393700787
144
1
145
0
146
1
147
0.625
148
0
 71
0
 72
0
 73
0
 74
0
 75
0
 76
0
 77
1
 78
8
 79
0
170
0
171
3
172
1
173
0
174
0
175
0
179
0
271
2
272
2
273
2
274
3
275
0
276
0
277
2
278
44
279
0
280
0
281
0
282
0
283
0
284
8
285
0
286
0
288
0
289
0
340
11
371
-2
372
-2
  0
DIMSTYLE
105
F8
330
A
100
AcDbSymbolTableRecord
100
AcDbDimStyleTableRecord
  2
Standard
 70
64
  3

  4

 40
1
 41
0.18
 42
0.0625
 43
0.38
 44
0.18
 45
0
 46
0
 47
0
 48
0
140
0.18
141
0.09
142
0
143
1
144
1
145
0
146
1
147
0.09
148
0
 71
0
 72
0
 73
1
 74
1
 75
0
 76
0
 77
0
 78
0
 79
0
170
0
171
2
172
0
173
0
174
0
175
0
179
0
271
4
272
4
273
2
274
0
275
0
276
0
277
2
278
46
279
0
280
0
281
0
282
0
283
1
284
0
285
0
286
0
288
0
289
0
340
11
371
-2
372
-2
  0
ENDTAB
  0
TABLE
  2
BLOCK_RECORD
  5
1
330
0
100
AcDbSymbolTable
 70
3
  0
BLOCK_RECORD
  5
2B
102
{ACAD_XDICTIONARY
360
2C
102
}
330
1
100
AcDbSymbolTableRecord
100
AcDbBlockTableRecord
  2
*Model_Space
340
22
  0
BLOCK_RECORD
  5
1B
330
1
100
AcDbSymbolTableRecord
100
AcDbBlockTableRecord
  2
*Paper_Space
340
1E
  0
BLOCK_RECORD
  5
D5
330
1
100
AcDbSymbolTableRecord
100
AcDbBlockTableRecord
  2
*Paper_Space0
340
FA
  0
BLOCK_RECORD
  5
D8
330
1
100
AcDbSymbolTableRecord
100
AcDbBlockTableRecord
  2
*D1
  0
BLOCK_RECORD
  5
E5
330
1
100
AcDbSymbolTableRecord
100
AcDbBlockTableRecord
  2
*D2
  0
ENDTAB
  0
ENDSEC
  0
SECTION
  2
BLOCKS
  0
BLOCK
  5
2E
330
2B
100
AcDbEntity
  8
0
100
AcDbBlockBegin
  2
*Model_Space
 70
0
 10
0
 20
0
 30
0
  3
*Model_Space
  0
ENDBLK
  5
D4
330
2B
100
AcDbEntity
  8
0
100
AcDbBlockEnd
  0
BLOCK
  5
1C
330
1B
100
AcDbEntity
  8
0
 67
1
100
AcDbBlockBegin
  2
*Paper_Space
 70
0
 10
0
 20
0
 30
0
  3
*Paper_Space
  0
ENDBLK
  5
1D
330
1B
100
AcDbEntity
  8
0
100
AcDbBlockEnd
  0
BLOCK
  5
D6
330
D5
100
AcDbEntity
  8
0
100
AcDbBlockBegin
  2
*Paper_Space0
 70
0
 10
0
 20
0
 30
0
  3
*Paper_Space0
  0
ENDBLK
  5
D7
330
D5
100
AcDbEntity
  8
0
100
AcDbBlockEnd
  0
BLOCK
  5
D9
330
D8
100
AcDbEntity
  8
0
100
AcDbBlockBegin
  2
*D1
 70
1
 10
0
 20
0
 30
0
  3
*D1
  0
LINE
  5
DA
330
D8
100
AcDbEntity
  8
0
 62
0
370
-2
100
AcDbLine
 10
197.85992473248459
 20
1397.044696191947
 30
0
 11
197.85992473248459
 21
1559.4446961919471
 31
0
  0
LINE
  5
DB
330
D8
100
AcDbEntity
  8
0
 62
0
370
-2
100
AcDbLine
 10
1039.1864729782851
 20
1397.044696191947
 30
0
 11
1039.1864729782851
 21
1559.4446961919471
 31
0
  0
LINE
  5
DC
330
D8
100
AcDbEntity
  8
0
 62
0
370
-2
100
AcDbLine
 10
201.16192473248461
 20
1558.4446961919471
 30
0
 11
1035.884472978285
 21
1558.4446961919471
 31
0
  0
LINE
  5
DD
330
D8
100
AcDbEntity
  8
0
 62
0
370
-2
100
AcDbLine
 10
1035.884472978285
 20
1558.4446961919471
 30
0
 11
201.16192473248461
 21
1558.4446961919471
 31
0
  0
SOLID
  5
DE
330
D8
100
AcDbEntity
  8
0
 62
0
100
AcDbTrace
 10
201.16192473248461
 20
1558.99502952528
 30
0
 11
201.16192473248461
 21
1557.8943628586139
 31
0
 12
197.85992473248459
 22
1558.4446961919471
 32
0
 13
197.85992473248459
 23
1558.4446961919471
 33
0
  0
SOLID
  5
DF
330
D8
100
AcDbEntity
  8
0
 62
0
100
AcDbTrace
 10
1035.884472978285
 20
1557.8943628586139
 30
0
 11
1035.884472978285
 21
1558.99502952528
 31
0
 12
1039.1864729782851
 22
1558.4446961919471
 32
0
 13
1039.1864729782851
 23
1558.4446961919471
 33
0
  0
MTEXT
  5
E0
330
D8
100
AcDbEntity
  8
0
 62
0
100
AcDbMText
 10
618.52319885538463
 20
1562.0103628586139
 30
0
 11
1
 21
0
 31
0
 40
3.5
 41
0
 71
5
 72
1
  1
841,33
  7
Standard
 73
1
  0
POINT
  5
E1
330
D8
100
AcDbEntity
  8
Defpoints
 62
0
100
AcDbPoint
 10
197.85992473248459
 20
1387.450291370779
 30
0
 50
0
  0
POINT
  5
E2
330
D8
100
AcDbEntity
  8
Defpoints
 62
0
100
AcDbPoint
 10
1039.1864729782851
 20
1387.450291370779
 30
0
 50
0
  0
POINT
  5
E3
330
D8
100
AcDbEntity
  8
Defpoints
 62
0
100
AcDbPoint
 10
1039.1864729782851
 20
1558.4446961919471
 30
0
 50
0
  0
ENDBLK
  5
E4
330
D8
100
AcDbEntity
  8
0
100
AcDbBlockEnd
  0
BLOCK
  5
E6
330
E5
100
AcDbEntity
  8
0
100
AcDbBlockBegin
  2
*D2
 70
1
 10
0
 20
0
 30
0
  3
*D2
  0
LINE
  5
E7
330
E5
100
AcDbEntity
  8
0
 62
0
370
-2
100
AcDbLine
 10
1013.673198855385
 20
1443.5579703148469
 30
0
 11
1184.323198855385
 21
1443.5579703148469
 31
0
  0
LINE
  5
E8
330
E5
100
AcDbEntity
  8
0
 62
0
370
-2
100
AcDbLine
 10
1013.673198855385
 20
372.53142206904721
 30
0
 11
1184.323198855385
 21
372.53142206904721
 31
0
  0
LINE
  5
E9
330
E5
100
AcDbEntity
  8
0
 62
0
370
-2
100
AcDbLine
 10
1183.323198855385
 20
1440.255970314847
 30
0
 11
1183.323198855385
 21
911.61036285861383
 31
0
  0
LINE
  5
EA
330
E5
100
AcDbEntity
  8
0
 62
0
370
-2
100
AcDbLine
 10
1183.323198855385
 20
375.83342206904717
 30
0
 11
1183.323198855385
 21
904.47902952528057
 31
0
  0
SOLID
  5
EB
330
E5
100
AcDbEntity
  8
0
 62
0
100
AcDbTrace
 10
1183.873532188718
 20
1440.255970314847
 30
0
 11
1182.772865522051
 21
1440.255970314847
 31
0
 12
1183.323198855385
 22
1443.5579703148469
 32
0
 13
1183.323198855385
 23
1443.5579703148469
 33
0
  0
SOLID
  5
EC
330
E5
100
AcDbEntity
  8
0
 62
0
100
AcDbTrace
 10
1182.772865522051
 20
375.83342206904717
 30
0
 11
1183.873532188718
 21
375.83342206904717
 31
0
 12
1183.323198855385
 22
372.53142206904721
 32
0
 13
1183.323198855385
 23
372.53142206904721
 33
0
  0
MTEXT
  5
ED
330
E5
100
AcDbEntity
  8
0
 62
0
100
AcDbMText
 10
1183.323198855385
 20
908.0446961919472
 30
0
 11
1
 21
0
 31
0
 40
3.5
 41
0
 71
5
 72
1
  1
1071,03
  7
Standard
 73
1
  0
POINT
  5
EE
330
E5
100
AcDbEntity
  8
Defpoints
 62
0
100
AcDbPoint
 10
991.96487718365984
 20
1443.5579703148469
 30
0
 50
0
  0
POINT
  5
EF
330
E5
100
AcDbEntity
  8
Defpoints
 62
0
100
AcDbPoint
 10
991.96487718365984
 20
372.53142206904721
 30
0
 50
0
  0
POINT
  5
F0
330
E5
100
AcDbEntity
  8
Defpoints
 62
0
100
AcDbPoint
 10
1183.323198855385
 20
372.53142206904721
 30
0
 50
0
  0
ENDBLK
  5
F1
330
E5
100
AcDbEntity
  8
0
100
AcDbBlockEnd
  0
ENDSEC
  0
SECTION
  2
ENTITIES
  0
CIRCLE
  5
2F
330
2B
100
AcDbEntity
  8
LaserCutting
  6
Continuous
370
25
100
AcDbCircle
 10
396.77319885538458
 20
397.5446961919472
 30
0
 40
1.6999999999999891
  0
CIRCLE
  5
30
330
2B
100
AcDbEntity
  8
LaserCutting
  6
Continuous
370
25
100
AcDbCircle
 10
873.37319885538466
 20
683.0446961919472
 30
0
 40
1.7000000000000171
  0
CIRCLE
  5
31
330
2B
100
AcDbEntity
  8
LaserCutting
  6
Continuous
370
25
100
AcDbCircle
 10
1005.873198855385
 20
460.0446961919472
 30
0
 40
1.699999999999932
  0
CIRCLE
  5
32
330
2B
100
AcDbEntity
  8
LaserCutting
  6
Continuous
370
25
100
AcDbCircle
 10
1005.873198855385
 20
1210.044696191947
 30
0
 40
1.699999999999932
  0
CIRCLE
  5
33
330
2B
100
AcDbEntity
  8
LaserCutting
  6
Continuous
370
25
100
AcDbCircle
 10
1005.873198855385
 20
710.0446961919472
 30
0
 40
1.699999999999932
  0
CIRCLE
  5
34
330
2B
100
AcDbEntity
  8
LaserCutting
  6
Continuous
370
25
100
AcDbCircle
 10
850.67319885538461
 20
397.5446961919472
 30
0
 40
1.7000000000000171
  0
CIRCLE
  5
35
330
2B
100
AcDbEntity
  8
LaserCutting
  6
Continuous
370
25
100
AcDbCircle
 10
944.67319885538461
 20
397.5446961919472
 30
0
 40
1.699999999999932
  0
CIRCLE
  5
36
330
2B
100
AcDbEntity
  8
LaserCutting
  6
Continuous
370
25
100
AcDbCircle
 10
914.67319885538461
 20
397.5446961919472
 30
0
 40
1.699999999999932
  0
CIRCLE
  5
37
330
2B
100
AcDbEntity
  8
LaserCutting
  6
Continuous
370
25
100
AcDbCircle
 10
1005.873198855385
 20
960.0446961919472
 30
0
 40
1.699999999999932
  0
CIRCLE
  5
38
330
2B
100
AcDbEntity
  8
LaserCutting
  6
Continuous
370
25
100
AcDbCircle
 10
730.37319885538466
 20
735.5446961919472
 30
0
 40
1.6999999999999891
  0
CIRCLE
  5
39
330
2B
100
AcDbEntity
  8
LaserCutting
  6
Continuous
370
25
100
AcDbCircle
 10
968.37319885538466
 20
781.44469619194717
 30
0
 40
1.699999999999932
  0
CIRCLE
  5
3A
330
2B
100
AcDbEntity
  8
LaserCutting
  6
Continuous
370
25
100
AcDbCircle
 10
657.37319885538466
 20
781.44469619194717
 30
0
 40
1.699999999999982
  0
CIRCLE
  5
3B
330
2B
100
AcDbEntity
  8
LaserCutting
  6
Continuous
370
25
100
AcDbCircle
 10
909.37319885538466
 20
580.64469619194722
 30
0
 40
1.6999999999999891
  0
CIRCLE
  5
3C
330
2B
100
AcDbEntity
  8
LaserCutting
  6
Continuous
370
25
100
AcDbCircle
 10
825.37319885538466
 20
438.74469619194718
 30
0
 40
1.6999999999999891
  0
CIRCLE
  5
3D
330
2B
100
AcDbEntity
  8
LaserCutting
  6
Continuous
370
25
100
AcDbCircle
 10
963.37319885538466
 20
683.0446961919472
 30
0
 40
1.699999999999932
  0
CIRCLE
  5
3E
330
2B
100
AcDbEntity
  8
LaserCutting
  6
Continuous
370
25
100
AcDbCircle
 10
873.37319885538466
 20
483.0446961919472
 30
0
 40
1.7000000000000171
  0
CIRCLE
  5
3F
330
2B
100
AcDbEntity
  8
LaserCutting
  6
Continuous
370
25
100
AcDbCircle
 10
760.37319885538466
 20
735.5446961919472
 30
0
 40
1.6999999999999891
  0
CIRCLE
  5
40
330
2B
100
AcDbEntity
  8
LaserCutting
  6
Continuous
370
25
100
AcDbCircle
 10
405.37319885538471
 20
676.0446961919472
 30
0
 40
1.7000000000000171
  0
CIRCLE
  5
41
330
2B
100
AcDbEntity
  8
LaserCutting
  6
Continuous
370
25
100
AcDbCircle
 10
557.87319885538466
 20
596.0446961919472
 30
0
 40
1.699999999999974
  0
CIRCLE
  5
42
330
2B
100
AcDbEntity
  8
LaserCutting
  6
Continuous
370
25
100
AcDbCircle
 10
405.37319885538471
 20
702.0446961919472
 30
0
 40
1.7000000000000171
  0
CIRCLE
  5
43
330
2B
100
AcDbEntity
  8
LaserCutting
  6
Continuous
370
25
100
AcDbCircle
 10
525.37319885538466
 20
676.0446961919472
 30
0
 40
1.7000000000000171
  0
CIRCLE
  5
44
330
2B
100
AcDbEntity
  8
LaserCutting
  6
Continuous
370
25
100
AcDbCircle
 10
405.37319885538471
 20
966.0446961919472
 30
0
 40
1.7000000000000171
  0
CIRCLE
  5
45
330
2B
100
AcDbEntity
  8
LaserCutting
  6
Continuous
370
25
100
AcDbCircle
 10
525.37319885538466
 20
702.0446961919472
 30
0
 40
1.6999999999999891
  0
CIRCLE
  5
46
330
2B
100
AcDbEntity
  8
LaserCutting
  6
Continuous
370
25
100
AcDbCircle
 10
405.37319885538471
 20
940.0446961919472
 30
0
 40
1.7000000000000171
  0
CIRCLE
  5
47
330
2B
100
AcDbEntity
  8
LaserCutting
  6
Continuous
370
25
100
AcDbCircle
 10
525.37319885538466
 20
966.0446961919472
 30
0
 40
1.6999999999999891
  0
CIRCLE
  5
48
330
2B
100
AcDbEntity
  8
LaserCutting
  6
Continuous
370
25
100
AcDbCircle
 10
272.37319885538471
 20
434.0446961919472
 30
0
 40
1.699999999999932
  0
CIRCLE
  5
49
330
2B
100
AcDbEntity
  8
LaserCutting
  6
Continuous
370
25
100
AcDbCircle
 10
322.37319885538471
 20
1177.044696191947
 30
0
 40
1.699999999999932
  0
CIRCLE
  5
4A
330
2B
100
AcDbEntity
  8
LaserCutting
  6
Continuous
370
25
100
AcDbCircle
 10
272.37319885538471
 20
1177.044696191947
 30
0
 40
1.699999999999932
  0
CIRCLE
  5
4B
330
2B
100
AcDbEntity
  8
LaserCutting
  6
Continuous
370
25
100
AcDbCircle
 10
880.67319885538461
 20
397.5446961919472
 30
0
 40
1.699999999999932
  0
CIRCLE
  5
4C
330
2B
100
AcDbEntity
  8
LaserCutting
  6
Continuous
370
25
100
AcDbCircle
 10
426.77319885538458
 20
397.5446961919472
 30
0
 40
1.7000000000000171
  0
CIRCLE
  5
4D
330
2B
100
AcDbEntity
  8
LaserCutting
  6
Continuous
370
25
100
AcDbCircle
 10
816.67319885538461
 20
397.5446961919472
 30
0
 40
1.6999999999999891
  0
CIRCLE
  5
4E
330
2B
100
AcDbEntity
  8
LaserCutting
  6
Continuous
370
25
100
AcDbCircle
 10
786.67319885538461
 20
397.5446961919472
 30
0
 40
1.7000000000000171
  0
CIRCLE
  5
4F
330
2B
100
AcDbEntity
  8
LaserCutting
  6
Continuous
370
25
100
AcDbCircle
 10
322.37319885538471
 20
434.0446961919472
 30
0
 40
1.699999999999932
  0
CIRCLE
  5
50
330
2B
100
AcDbEntity
  8
LaserCutting
  6
Continuous
370
25
100
AcDbCircle
 10
557.87319885538466
 20
626.0446961919472
 30
0
 40
1.6999999999999671
  0
CIRCLE
  5
51
330
2B
100
AcDbEntity
  8
LaserCutting
  6
Continuous
370
25
100
AcDbCircle
 10
602.37319885538466
 20
1380.044696191947
 30
0
 40
1.6999999999999691
  0
CIRCLE
  5
52
330
2B
100
AcDbEntity
  8
LaserCutting
  6
Continuous
370
25
100
AcDbCircle
 10
602.37319885538466
 20
432.0446961919472
 30
0
 40
1.699999999999976
  0
CIRCLE
  5
53
330
2B
100
AcDbEntity
  8
LaserCutting
  6
Continuous
370
25
100
AcDbCircle
 10
557.87319885538466
 20
860.0446961919472
 30
0
 40
1.699999999999974
  0
CIRCLE
  5
54
330
2B
100
AcDbEntity
  8
LaserCutting
  6
Continuous
370
25
100
AcDbCircle
 10
557.87319885538466
 20
1154.044696191947
 30
0
 40
1.6999999999999531
  0
CIRCLE
  5
55
330
2B
100
AcDbEntity
  8
LaserCutting
  6
Continuous
370
25
100
AcDbCircle
 10
557.87319885538466
 20
1124.044696191947
 30
0
 40
1.70000000000001
  0
CIRCLE
  5
56
330
2B
100
AcDbEntity
  8
LaserCutting
  6
Continuous
370
25
100
AcDbCircle
 10
405.37319885538471
 20
1204.044696191947
 30
0
 40
1.7000000000000171
  0
CIRCLE
  5
57
330
2B
100
AcDbEntity
  8
LaserCutting
  6
Continuous
370
25
100
AcDbCircle
 10
879.37319885538466
 20
580.64469619194722
 30
0
 40
1.6999999999999891
  0
CIRCLE
  5
58
330
2B
100
AcDbEntity
  8
LaserCutting
  6
Continuous
370
25
100
AcDbCircle
 10
973.37319885538466
 20
580.64469619194722
 30
0
 40
1.700000000000045
  0
CIRCLE
  5
59
330
2B
100
AcDbEntity
  8
LaserCutting
  6
Continuous
370
25
100
AcDbCircle
 10
943.37319885538466
 20
580.64469619194722
 30
0
 40
1.699999999999932
  0
CIRCLE
  5
5A
330
2B
100
AcDbEntity
  8
LaserCutting
  6
Continuous
370
25
100
AcDbCircle
 10
557.87319885538466
 20
890.0446961919472
 30
0
 40
1.699999999999974
  0
CIRCLE
  5
5B
330
2B
100
AcDbEntity
  8
LaserCutting
  6
Continuous
370
25
100
AcDbCircle
 10
665.37319885538466
 20
676.0446961919472
 30
0
 40
1.7000000000000031
  0
CIRCLE
  5
5C
330
2B
100
AcDbEntity
  8
LaserCutting
  6
Continuous
370
25
100
AcDbCircle
 10
825.37319885538466
 20
676.0446961919472
 30
0
 40
1.6999999999999891
  0
CIRCLE
  5
5D
330
2B
100
AcDbEntity
  8
LaserCutting
  6
Continuous
370
25
100
AcDbCircle
 10
665.37319885538466
 20
438.74469619194718
 30
0
 40
1.699999999999996
  0
CIRCLE
  5
5E
330
2B
100
AcDbEntity
  8
LaserCutting
  6
Continuous
370
25
100
AcDbCircle
 10
602.37319885538466
 20
1082.044696191947
 30
0
 40
1.700000000000006
  0
CIRCLE
  5
5F
330
2B
100
AcDbEntity
  8
LaserCutting
  6
Continuous
370
25
100
AcDbCircle
 10
525.37319885538466
 20
940.0446961919472
 30
0
 40
1.7000000000000171
  0
CIRCLE
  5
60
330
2B
100
AcDbEntity
  8
LaserCutting
  6
Continuous
370
25
100
AcDbCircle
 10
602.37319885538466
 20
732.0446961919472
 30
0
 40
1.70000000000001
  0
CIRCLE
  5
61
330
2B
100
AcDbEntity
  8
LaserCutting
  6
Continuous
370
25
100
AcDbCircle
 10
525.37319885538466
 20
1204.044696191947
 30
0
 40
1.6999999999999891
  0
CIRCLE
  5
62
330
2B
100
AcDbEntity
  8
LaserCutting
  6
Continuous
370
25
100
AcDbCircle
 10
963.37319885538466
 20
483.0446961919472
 30
0
 40
1.699999999999932
  0
CIRCLE
  5
63
330
2B
100
AcDbEntity
  8
LaserCutting
  6
Continuous
370
25
100
AcDbCircle
 10
557.37319885538466
 20
1314.744696191947
 30
0
 40
2.1499999999999839
  0
CIRCLE
  5
64
330
2B
100
AcDbEntity
  8
LaserCutting
  6
Continuous
370
25
100
AcDbCircle
 10
512.37319885538466
 20
1314.744696191947
 30
0
 40
2.1499999999999768
  0
CIRCLE
  5
65
330
2B
100
AcDbEntity
  8
LaserCutting
  6
Continuous
370
25
100
AcDbCircle
 10
441.07319885538459
 20
1399.044696191947
 30
0
 40
1.69999999999996
  0
CIRCLE
  5
66
330
2B
100
AcDbEntity
  8
LaserCutting
  6
Continuous
370
25
100
AcDbCircle
 10
478.17319885538461
 20
1369.044696191947
 30
0
 40
1.6999999999999891
  0
CIRCLE
  5
67
330
2B
100
AcDbEntity
  8
LaserCutting
  6
Continuous
370
25
100
AcDbCircle
 10
585.37319885538466
 20
1420.9446961919471
 30
0
 40
1.6999999999999209
  0
CIRCLE
  5
68
330
2B
100
AcDbEntity
  8
LaserCutting
  6
Continuous
370
25
100
AcDbCircle
 10
288.37319885538471
 20
1420.9446961919471
 30
0
 40
1.699999999999932
  0
CIRCLE
  5
69
330
2B
100
AcDbEntity
  8
LaserCutting
  6
Continuous
370
25
100
AcDbCircle
 10
557.37319885538466
 20
1344.8446961919469
 30
0
 40
2.1499999999999839
  0
CIRCLE
  5
6A
330
2B
100
AcDbEntity
  8
LaserCutting
  6
Continuous
370
25
100
AcDbCircle
 10
512.37319885538466
 20
1344.8446961919469
 30
0
 40
2.1499999999999768
  0
CIRCLE
  5
6B
330
2B
100
AcDbEntity
  8
LaserCutting
  6
Continuous
370
25
100
AcDbCircle
 10
534.87319885538466
 20
1369.044696191947
 30
0
 40
1.69999999999996
  0
CIRCLE
  5
6C
330
2B
100
AcDbEntity
  8
LaserCutting
  6
Continuous
370
25
100
AcDbCircle
 10
310.27319885538458
 20
1369.044696191947
 30
0
 40
1.6999999999999891
  0
CIRCLE
  5
6D
330
2B
100
AcDbEntity
  8
LaserCutting
  6
Continuous
370
25
100
AcDbCircle
 10
534.87319885538466
 20
1399.044696191947
 30
0
 40
1.6999999999999891
  0
CIRCLE
  5
6E
330
2B
100
AcDbEntity
  8
LaserCutting
  6
Continuous
370
25
100
AcDbCircle
 10
310.27319885538458
 20
1399.044696191947
 30
0
 40
1.6999999999999891
  0
CIRCLE
  5
6F
330
2B
100
AcDbEntity
  8
LaserCutting
  6
Continuous
370
25
100
AcDbCircle
 10
397.37319885538471
 20
1403.9446961919471
 30
0
 40
1.699999999999932
  0
CIRCLE
  5
70
330
2B
100
AcDbEntity
  8
LaserCutting
  6
Continuous
370
25
100
AcDbCircle
 10
345.37319885538471
 20
1403.9446961919471
 30
0
 40
1.699999999999932
  0
CIRCLE
  5
71
330
2B
100
AcDbEntity
  8
LaserCutting
  6
Continuous
370
25
100
AcDbCircle
 10
397.37319885538471
 20
1383.9446961919471
 30
0
 40
1.6999999999999891
  0
CIRCLE
  5
72
330
2B
100
AcDbEntity
  8
LaserCutting
  6
Continuous
370
25
100
AcDbCircle
 10
345.37319885538471
 20
1383.9446961919471
 30
0
 40
1.700000000000045
  0
CIRCLE
  5
73
330
2B
100
AcDbEntity
  8
LaserCutting
  6
Continuous
370
25
100
AcDbCircle
 10
441.07319885538459
 20
1369.044696191947
 30
0
 40
1.69999999999996
  0
CIRCLE
  5
74
330
2B
100
AcDbEntity
  8
LaserCutting
  6
Continuous
370
25
100
AcDbCircle
 10
478.17319885538461
 20
1399.044696191947
 30
0
 40
1.7000000000000171
  0
CIRCLE
  5
75
330
2B
100
AcDbEntity
  8
LaserCutting
  6
Continuous
370
25
100
AcDbCircle
 10
269.87319885538471
 20
1378.044696191947
 30
0
 40
1.699999999999932
  0
CIRCLE
  5
76
330
2B
100
AcDbEntity
  8
LaserCutting
  6
Continuous
370
25
100
AcDbCircle
 10
550.37319885538466
 20
1239.544696191947
 30
0
 40
1.7000000000000171
  0
CIRCLE
  5
77
330
2B
100
AcDbEntity
  8
LaserCutting
  6
Continuous
370
25
100
AcDbCircle
 10
312.37319885538471
 20
1330.044696191947
 30
0
 40
1.699999999999932
  0
CIRCLE
  5
78
330
2B
100
AcDbEntity
  8
LaserCutting
  6
Continuous
370
25
100
AcDbCircle
 10
447.37319885538471
 20
1330.044696191947
 30
0
 40
1.6999999999999891
  0
CIRCLE
  5
79
330
2B
100
AcDbEntity
  8
LaserCutting
  6
Continuous
370
25
100
AcDbCircle
 10
269.87319885538471
 20
1282.044696191947
 30
0
 40
1.699999999999932
  0
CIRCLE
  5
7A
330
2B
100
AcDbEntity
  8
LaserCutting
  6
Continuous
370
25
100
AcDbCircle
 10
300.37319885538471
 20
1239.544696191947
 30
0
 40
1.700000000000045
  0
CIRCLE
  5
7B
330
2B
100
AcDbEntity
  8
LaserCutting
  6
Continuous
370
25
100
AcDbCircle
 10
371.37319885538471
 20
943.34469619194715
 30
0
 40
2.1499999999999488
  0
CIRCLE
  5
7C
330
2B
100
AcDbEntity
  8
LaserCutting
  6
Continuous
370
25
100
AcDbCircle
 10
371.37319885538471
 20
1205.8446961919469
 30
0
 40
2.149999999999892
  0
CIRCLE
  5
7D
330
2B
100
AcDbEntity
  8
LaserCutting
  6
Continuous
370
25
100
AcDbCircle
 10
371.37319885538471
 20
693.34469619194715
 30
0
 40
2.1499999999999768
  0
CIRCLE
  5
7E
330
2B
100
AcDbEntity
  8
LaserCutting
  6
Continuous
370
25
100
AcDbCircle
 10
371.37319885538471
 20
430.84469619194721
 30
0
 40
2.149999999999892
  0
CIRCLE
  5
7F
330
2B
100
AcDbEntity
  8
LaserCutting
  6
Continuous
370
25
100
AcDbCircle
 10
405.37319885538471
 20
438.0446961919472
 30
0
 40
1.69999999999996
  0
CIRCLE
  5
80
330
2B
100
AcDbEntity
  8
LaserCutting
  6
Continuous
370
25
100
AcDbCircle
 10
525.37319885538466
 20
438.0446961919472
 30
0
 40
1.699999999999974
  0
CIRCLE
  5
81
330
2B
100
AcDbEntity
  8
LaserCutting
  6
Continuous
370
25
100
AcDbCircle
 10
297.37319885538471
 20
884.0446961919472
 30
0
 40
1.6999999999999891
  0
CIRCLE
  5
82
330
2B
100
AcDbEntity
  8
LaserCutting
  6
Continuous
370
25
100
AcDbCircle
 10
297.37319885538471
 20
684.0446961919472
 30
0
 40
1.7000000000001021
  0
CIRCLE
  5
83
330
2B
100
AcDbEntity
  8
LaserCutting
  6
Continuous
370
25
100
AcDbCircle
 10
900.37319885538466
 20
1212.744696191947
 30
0
 40
1.6999999999999891
  0
CIRCLE
  5
84
330
2B
100
AcDbEntity
  8
LaserCutting
  6
Continuous
370
25
100
AcDbCircle
 10
788.37319885538466
 20
1212.744696191947
 30
0
 40
1.6999999999999891
  0
CIRCLE
  5
85
330
2B
100
AcDbEntity
  8
LaserCutting
  6
Continuous
370
25
100
AcDbCircle
 10
930.37319885538466
 20
1212.744696191947
 30
0
 40
1.699999999999932
  0
CIRCLE
  5
86
330
2B
100
AcDbEntity
  8
LaserCutting
  6
Continuous
370
25
100
AcDbCircle
 10
655.87319885538466
 20
1212.744696191947
 30
0
 40
1.699999999999982
  0
CIRCLE
  5
87
330
2B
100
AcDbEntity
  8
LaserCutting
  6
Continuous
370
25
100
AcDbCircle
 10
743.37319885538466
 20
1413.544696191947
 30
0
 40
1.700000000000045
  0
CIRCLE
  5
88
330
2B
100
AcDbEntity
  8
LaserCutting
  6
Continuous
370
25
100
AcDbCircle
 10
773.37319885538466
 20
1413.544696191947
 30
0
 40
1.6999999999999891
  0
CIRCLE
  5
89
330
2B
100
AcDbEntity
  8
LaserCutting
  6
Continuous
370
25
100
AcDbCircle
 10
653.67319885538461
 20
1393.544696191947
 30
0
 40
2.1500000000000341
  0
CIRCLE
  5
8A
330
2B
100
AcDbEntity
  8
LaserCutting
  6
Continuous
370
25
100
AcDbCircle
 10
653.67319885538461
 20
1288.544696191947
 30
0
 40
2.1500000000000341
  0
CIRCLE
  5
8B
330
2B
100
AcDbEntity
  8
LaserCutting
  6
Continuous
370
25
100
AcDbCircle
 10
862.37319885538466
 20
1178.044696191947
 30
0
 40
1.6999999999999891
  0
CIRCLE
  5
8C
330
2B
100
AcDbEntity
  8
LaserCutting
  6
Continuous
370
25
100
AcDbCircle
 10
758.37319885538466
 20
1212.744696191947
 30
0
 40
1.6999999999999891
  0
CIRCLE
  5
8D
330
2B
100
AcDbEntity
  8
LaserCutting
  6
Continuous
370
25
100
AcDbCircle
 10
720.37319885538466
 20
1178.044696191947
 30
0
 40
1.700000000000031
  0
CIRCLE
  5
8E
330
2B
100
AcDbEntity
  8
LaserCutting
  6
Continuous
370
25
100
AcDbCircle
 10
826.37319885538466
 20
1178.044696191947
 30
0
 40
1.700000000000045
  0
CIRCLE
  5
8F
330
2B
100
AcDbEntity
  8
LaserCutting
  6
Continuous
370
25
100
AcDbCircle
 10
862.37319885538466
 20
1045.044696191947
 30
0
 40
1.7000000000000171
  0
CIRCLE
  5
90
330
2B
100
AcDbEntity
  8
LaserCutting
  6
Continuous
370
25
100
AcDbCircle
 10
826.37319885538466
 20
1045.044696191947
 30
0
 40
1.7000000000000171
  0
CIRCLE
  5
91
330
2B
100
AcDbEntity
  8
LaserCutting
  6
Continuous
370
25
100
AcDbCircle
 10
684.37319885538466
 20
1178.044696191947
 30
0
 40
1.7000000000000171
  0
CIRCLE
  5
92
330
2B
100
AcDbEntity
  8
LaserCutting
  6
Continuous
370
25
100
AcDbCircle
 10
685.87319885538466
 20
1212.744696191947
 30
0
 40
1.699999999999974
  0
CIRCLE
  5
93
330
2B
100
AcDbEntity
  8
LaserCutting
  6
Continuous
370
25
100
AcDbCircle
 10
662.37319885538466
 20
867.0446961919472
 30
0
 40
1.7000000000000031
  0
CIRCLE
  5
94
330
2B
100
AcDbEntity
  8
LaserCutting
  6
Continuous
370
25
100
AcDbCircle
 10
754.97319885538468
 20
901.0446961919472
 30
0
 40
1.7000000000000171
  0
CIRCLE
  5
95
330
2B
100
AcDbEntity
  8
LaserCutting
  6
Continuous
370
25
100
AcDbCircle
 10
720.37319885538466
 20
1045.044696191947
 30
0
 40
1.700000000000031
  0
CIRCLE
  5
96
330
2B
100
AcDbEntity
  8
LaserCutting
  6
Continuous
370
25
100
AcDbCircle
 10
684.37319885538466
 20
1045.044696191947
 30
0
 40
1.7000000000000171
  0
CIRCLE
  5
97
330
2B
100
AcDbEntity
  8
LaserCutting
  6
Continuous
370
25
100
AcDbCircle
 10
696.87319885538466
 20
931.0446961919472
 30
0
 40
1.7000000000000031
  0
CIRCLE
  5
98
330
2B
100
AcDbEntity
  8
LaserCutting
  6
Continuous
370
25
100
AcDbCircle
 10
754.97319885538468
 20
931.0446961919472
 30
0
 40
1.7000000000000171
  0
CIRCLE
  5
99
330
2B
100
AcDbEntity
  8
LaserCutting
  6
Continuous
370
25
100
AcDbCircle
 10
968.37319885538466
 20
1178.044696191947
 30
0
 40
1.699999999999932
  0
CIRCLE
  5
9A
330
2B
100
AcDbEntity
  8
LaserCutting
  6
Continuous
370
25
100
AcDbCircle
 10
696.87319885538466
 20
901.0446961919472
 30
0
 40
1.7000000000000031
  0
CIRCLE
  5
9B
330
2B
100
AcDbEntity
  8
LaserCutting
  6
Continuous
370
25
100
AcDbCircle
 10
968.37319885538466
 20
1045.044696191947
 30
0
 40
1.699999999999932
  0
CIRCLE
  5
9C
330
2B
100
AcDbEntity
  8
LaserCutting
  6
Continuous
370
25
100
AcDbCircle
 10
657.37319885538466
 20
1178.044696191947
 30
0
 40
1.699999999999996
  0
CIRCLE
  5
9D
330
2B
100
AcDbEntity
  8
LaserCutting
  6
Continuous
370
25
100
AcDbCircle
 10
968.37319885538466
 20
982.44469619194717
 30
0
 40
1.699999999999932
  0
CIRCLE
  5
9E
330
2B
100
AcDbEntity
  8
LaserCutting
  6
Continuous
370
25
100
AcDbCircle
 10
657.37319885538466
 20
1045.044696191947
 30
0
 40
1.70000000000001
  0
CIRCLE
  5
9F
330
2B
100
AcDbEntity
  8
LaserCutting
  6
Continuous
370
25
100
AcDbCircle
 10
968.37319885538466
 20
952.44469619194717
 30
0
 40
1.699999999999932
  0
CIRCLE
  5
A0
330
2B
100
AcDbEntity
  8
LaserCutting
  6
Continuous
370
25
100
AcDbCircle
 10
657.37319885538466
 20
982.44469619194717
 30
0
 40
1.70000000000001
  0
CIRCLE
  5
A1
330
2B
100
AcDbEntity
  8
LaserCutting
  6
Continuous
370
25
100
AcDbCircle
 10
963.37319885538466
 20
867.0446961919472
 30
0
 40
1.699999999999932
  0
CIRCLE
  5
A2
330
2B
100
AcDbEntity
  8
LaserCutting
  6
Continuous
370
25
100
AcDbCircle
 10
657.37319885538466
 20
952.44469619194717
 30
0
 40
1.7000000000000031
  0
LINE
  5
A3
330
2B
100
AcDbEntity
  8
LaserCutting
  6
Continuous
370
25
100
AcDbLine
 10
1003.673198855385
 20
1402.044696191947
 30
0
 11
1034.1864729782851
 21
1402.044696191947
 31
0
  0
LINE
  5
A4
330
2B
100
AcDbEntity
  8
LaserCutting
  6
Continuous
370
25
100
AcDbLine
 10
1039.1864729782851
 20
1397.044696191947
 30
0
 11
1039.1864729782851
 21
419.0446961919472
 31
0
  0
LINE
  5
A5
330
2B
100
AcDbEntity
  8
LaserCutting
  6
Continuous
370
25
100
AcDbLine
 10
1034.1864729782851
 20
414.0446961919472
 30
0
 11
1003.673198855385
 21
414.0446961919472
 31
0
  0
LINE
  5
A6
330
2B
100
AcDbEntity
  8
LaserCutting
  6
Continuous
370
25
100
AcDbLine
 10
1003.673198855385
 20
402.0446961919472
 30
0
 11
1013.673198855385
 21
402.0446961919472
 31
0
  0
LINE
  5
A7
330
2B
100
AcDbEntity
  8
LaserCutting
  6
Continuous
370
25
100
AcDbLine
 10
1018.673198855385
 20
397.0446961919472
 30
0
 11
1018.673198855385
 21
377.53142206904721
 31
0
  0
LINE
  5
A8
330
2B
100
AcDbEntity
  8
LaserCutting
  6
Continuous
370
25
100
AcDbLine
 10
1013.673198855385
 20
372.53142206904721
 30
0
 11
223.37319885538469
 21
372.53142206904721
 31
0
  0
LINE
  5
A9
330
2B
100
AcDbEntity
  8
LaserCutting
  6
Continuous
370
25
100
AcDbLine
 10
218.37319885538469
 20
377.53142206904721
 30
0
 11
218.37319885538469
 21
397.0446961919472
 31
0
  0
LINE
  5
AA
330
2B
100
AcDbEntity
  8
LaserCutting
  6
Continuous
370
25
100
AcDbLine
 10
223.37319885538469
 20
402.0446961919472
 30
0
 11
233.37319885538469
 21
402.0446961919472
 31
0
  0
LINE
  5
AB
330
2B
100
AcDbEntity
  8
LaserCutting
  6
Continuous
370
25
100
AcDbLine
 10
233.37319885538469
 20
414.0446961919472
 30
0
 11
202.85992473248459
 21
414.0446961919472
 31
0
  0
LINE
  5
AC
330
2B
100
AcDbEntity
  8
LaserCutting
  6
Continuous
370
25
100
AcDbLine
 10
197.85992473248459
 20
419.0446961919472
 30
0
 11
197.85992473248459
 21
1397.044696191947
 31
0
  0
LINE
  5
AD
330
2B
100
AcDbEntity
  8
LaserCutting
  6
Continuous
370
25
100
AcDbLine
 10
202.85992473248459
 20
1402.044696191947
 30
0
 11
233.37319885538469
 21
1402.044696191947
 31
0
  0
LINE
  5
AE
330
2B
100
AcDbEntity
  8
LaserCutting
  6
Continuous
370
25
100
AcDbLine
 10
233.37319885538469
 20
1414.044696191947
 30
0
 11
223.37319885538469
 21
1414.044696191947
 31
0
  0
LINE
  5
AF
330
2B
100
AcDbEntity
  8
LaserCutting
  6
Continuous
370
25
100
AcDbLine
 10
218.37319885538469
 20
1419.044696191947
 30
0
 11
218.37319885538469
 21
1438.5579703148469
 31
0
  0
LINE
  5
B0
330
2B
100
AcDbEntity
  8
LaserCutting
  6
Continuous
370
25
100
AcDbLine
 10
1018.673198855385
 20
1438.5579703148469
 30
0
 11
1018.673198855385
 21
1419.044696191947
 31
0
  0
LINE
  5
B1
330
2B
100
AcDbEntity
  8
LaserCutting
  6
Continuous
370
25
100
AcDbLine
 10
1013.673198855385
 20
1414.044696191947
 30
0
 11
1003.673198855385
 21
1414.044696191947
 31
0
  0
LINE
  5
B2
330
2B
100
AcDbEntity
  8
LaserCutting
  6
Continuous
370
25
100
AcDbLine
 10
1003.673198855385
 20
902.0446961919472
 30
0
 11
1008.673198855385
 21
902.0446961919472
 31
0
  0
LINE
  5
B3
330
2B
100
AcDbEntity
  8
LaserCutting
  6
Continuous
370
25
100
AcDbLine
 10
1008.673198855385
 20
914.0446961919472
 30
0
 11
1003.673198855385
 21
914.0446961919472
 31
0
  0
LINE
  5
B4
330
2B
100
AcDbEntity
  8
LaserCutting
  6
Continuous
370
25
100
AcDbLine
 10
233.37319885538469
 20
914.0446961919472
 30
0
 11
228.37319885538469
 21
914.0446961919472
 31
0
  0
LINE
  5
B5
330
2B
100
AcDbEntity
  8
LaserCutting
  6
Continuous
370
25
100
AcDbLine
 10
228.37319885538469
 20
902.0446961919472
 30
0
 11
233.37319885538469
 21
902.0446961919472
 31
0
  0
LINE
  5
B6
330
2B
100
AcDbEntity
  8
LaserCutting
  6
Continuous
370
25
100
AcDbLine
 10
621.02319885538463
 20
414.0446961919472
 30
0
 11
616.02319885538463
 21
414.0446961919472
 31
0
  0
LINE
  5
B7
330
2B
100
AcDbEntity
  8
LaserCutting
  6
Continuous
370
25
100
AcDbLine
 10
616.02319885538463
 20
402.0446961919472
 30
0
 11
621.02319885538463
 21
402.0446961919472
 31
0
  0
LINE
  5
B8
330
2B
100
AcDbEntity
  8
LaserCutting
  6
Continuous
370
25
100
AcDbLine
 10
621.02319885538463
 20
1414.044696191947
 30
0
 11
616.02319885538463
 21
1414.044696191947
 31
0
  0
LINE
  5
B9
330
2B
100
AcDbEntity
  8
LaserCutting
  6
Continuous
370
25
100
AcDbLine
 10
616.02319885538463
 20
1402.044696191947
 30
0
 11
621.02319885538463
 21
1402.044696191947
 31
0
  0
LINE
  5
BA
330
2B
100
AcDbEntity
  8
LaserCutting
  6
Continuous
370
25
100
AcDbLine
 10
223.37319885538469
 20
1443.5579703148469
 30
0
 11
1013.673198855385
 21
1443.5579703148469
 31
0
  0
ARC
  5
BB
330
2B
100
AcDbEntity
  8
LaserCutting
  6
Continuous
370
25
100
AcDbCircle
 10
1003.673198855385
 20
1408.044696191947
 30
0
 40
6
100
AcDbArc
 50
90
 51
270
  0
ARC
  5
BC
330
2B
100
AcDbEntity
  8
LaserCutting
  6
Continuous
370
25
100
AcDbCircle
 10
1034.1864729782851
 20
1397.044696191947
 30
0
 40
5.0000000000001137
100
AcDbArc
 50
0
 51
90
  0
ARC
  5
BD
330
2B
100
AcDbEntity
  8
LaserCutting
  6
Continuous
370
25
100
AcDbCircle
 10
1034.1864729782851
 20
419.0446961919472
 30
0
 40
5.0000000000001137
100
AcDbArc
 50
270
 51
0
  0
ARC
  5
BE
330
2B
100
AcDbEntity
  8
LaserCutting
  6
Continuous
370
25
100
AcDbCircle
 10
1003.673198855385
 20
408.0446961919472
 30
0
 40
6
100
AcDbArc
 50
90
 51
270
  0
ARC
  5
BF
330
2B
100
AcDbEntity
  8
LaserCutting
  6
Continuous
370
25
100
AcDbCircle
 10
1013.673198855385
 20
397.0446961919472
 30
0
 40
5.0000000000000568
100
AcDbArc
 50
0
 51
90
  0
ARC
  5
C0
330
2B
100
AcDbEntity
  8
LaserCutting
  6
Continuous
370
25
100
AcDbCircle
 10
1013.673198855385
 20
377.53142206904721
 30
0
 40
5
100
AcDbArc
 50
270
 51
0
  0
ARC
  5
C1
330
2B
100
AcDbEntity
  8
LaserCutting
  6
Continuous
370
25
100
AcDbCircle
 10
223.37319885538469
 20
377.53142206904721
 30
0
 40
5.0000000000000568
100
AcDbArc
 50
180
 51
270
  0
ARC
  5
C2
330
2B
100
AcDbEntity
  8
LaserCutting
  6
Continuous
370
25
100
AcDbCircle
 10
223.37319885538469
 20
397.0446961919472
 30
0
 40
5
100
AcDbArc
 50
90
 51
180
  0
ARC
  5
C3
330
2B
100
AcDbEntity
  8
LaserCutting
  6
Continuous
370
25
100
AcDbCircle
 10
233.37319885538469
 20
408.0446961919472
 30
0
 40
6
100
AcDbArc
 50
270
 51
90
  0
ARC
  5
C4
330
2B
100
AcDbEntity
  8
LaserCutting
  6
Continuous
370
25
100
AcDbCircle
 10
202.85992473248459
 20
419.0446961919472
 30
0
 40
5.0000000000001137
100
AcDbArc
 50
180
 51
270
  0
ARC
  5
C5
330
2B
100
AcDbEntity
  8
LaserCutting
  6
Continuous
370
25
100
AcDbCircle
 10
202.85992473248459
 20
1397.044696191947
 30
0
 40
5.0000000000001137
100
AcDbArc
 50
90
 51
180
  0
ARC
  5
C6
330
2B
100
AcDbEntity
  8
LaserCutting
  6
Continuous
370
25
100
AcDbCircle
 10
233.37319885538469
 20
1408.044696191947
 30
0
 40
6
100
AcDbArc
 50
270
 51
90
  0
ARC
  5
C7
330
2B
100
AcDbEntity
  8
LaserCutting
  6
Continuous
370
25
100
AcDbCircle
 10
223.37319885538469
 20
1419.044696191947
 30
0
 40
5.0000000000000568
100
AcDbArc
 50
180
 51
270
  0
ARC
  5
C8
330
2B
100
AcDbEntity
  8
LaserCutting
  6
Continuous
370
25
100
AcDbCircle
 10
223.37319885538469
 20
1438.5579703148469
 30
0
 40
5
100
AcDbArc
 50
90
 51
180
  0
ARC
  5
C9
330
2B
100
AcDbEntity
  8
LaserCutting
  6
Continuous
370
25
100
AcDbCircle
 10
1013.673198855385
 20
1438.5579703148469
 30
0
 40
5.0000000000000568
100
AcDbArc
 50
0
 51
90
  0
ARC
  5
CA
330
2B
100
AcDbEntity
  8
LaserCutting
  6
Continuous
370
25
100
AcDbCircle
 10
1013.673198855385
 20
1419.044696191947
 30
0
 40
5
100
AcDbArc
 50
270
 51
0
  0
ARC
  5
CB
330
2B
100
AcDbEntity
  8
LaserCutting
  6
Continuous
370
25
100
AcDbCircle
 10
1003.673198855385
 20
908.0446961919472
 30
0
 40
5.9999999999999059
100
AcDbArc
 50
90
 51
270
  0
ARC
  5
CC
330
2B
100
AcDbEntity
  8
LaserCutting
  6
Continuous
370
25
100
AcDbCircle
 10
1008.673198855385
 20
908.0446961919472
 30
0
 40
5.9999999999999059
100
AcDbArc
 50
270
 51
90
  0
ARC
  5
CD
330
2B
100
AcDbEntity
  8
LaserCutting
  6
Continuous
370
25
100
AcDbCircle
 10
233.37319885538469
 20
908.0446961919472
 30
0
 40
5.9999999999999059
100
AcDbArc
 50
270
 51
90
  0
ARC
  5
CE
330
2B
100
AcDbEntity
  8
LaserCutting
  6
Continuous
370
25
100
AcDbCircle
 10
228.37319885538469
 20
908.0446961919472
 30
0
 40
5.9999999999999059
100
AcDbArc
 50
90
 51
270
  0
ARC
  5
CF
330
2B
100
AcDbEntity
  8
LaserCutting
  6
Continuous
370
25
100
AcDbCircle
 10
621.02319885538463
 20
408.0446961919472
 30
0
 40
6
100
AcDbArc
 50
270
 51
90
  0
ARC
  5
D0
330
2B
100
AcDbEntity
  8
LaserCutting
  6
Continuous
370
25
100
AcDbCircle
 10
616.02319885538463
 20
408.0446961919472
 30
0
 40
6
100
AcDbArc
 50
90
 51
270
  0
ARC
  5
D1
330
2B
100
AcDbEntity
  8
LaserCutting
  6
Continuous
370
25
100
AcDbCircle
 10
621.02319885538463
 20
1408.044696191947
 30
0
 40
6
100
AcDbArc
 50
270
 51
90
  0
ARC
  5
D2
330
2B
100
AcDbEntity
  8
LaserCutting
  6
Continuous
370
25
100
AcDbCircle
 10
616.02319885538463
 20
1408.044696191947
 30
0
 40
6
100
AcDbArc
 50
90
 51
270
  0
MTEXT
  5
D3
330
2B
100
AcDbEntity
  8
0
100
AcDbMText
 10
222.55360197090741
 20
272.39750323524578
 30
0
 11
1
 21
0
 31
0
 40
30
 41
918.25345356291041
 71
1
 72
5
  1
{MATERIAL: SS316L, 3MM\PQTY: 3NOS}
  7
Standard
 73
1
1001
ACAD
1000
ACAD_MTEXT_DEFINED_HEIGHT_BEGIN
1070
46
1040
80
1000
ACAD_MTEXT_DEFINED_HEIGHT_END
  0
ENDSEC
  0
SECTION
  2
OBJECTS
  0
DICTIONARY
  5
C
330
0
100
AcDbDictionary
280
0
281
1
  3
ACAD_GROUP
350
D
  3
ACAD_LAYOUT
350
1A
  3
ACAD_MATERIAL
350
FB
  3
ACAD_MLEADERSTYLE
350
FC
  3
ACAD_MLINESTYLE
350
17
  3
ACAD_PLOTSETTINGS
350
19
  3
ACAD_PLOTSTYLENAME
350
E
  3
ACAD_SCALELIST
350
FE
  3
ACAD_TABLESTYLE
350
110
  3
ACAD_VISUALSTYLE
350
112
  3
AcDbVariableDictionary
350
113
  3
APPDATA
350
11C
  3
DWGPROPS
350
11D
  3
PRINTCONFIG
350
11E
  3
ACAD_COLOR
350
11F
  3
ACAD_FIELDLIST
350
120
  3
ACAD_IMAGE_DICT
350
121
  3
ACDB_RECOMPOSE_DATA
350
122
  0
DICTIONARY
  5
2C
330
2B
100
AcDbDictionary
280
1
281
1
  3
DIM_BOUNDING_BOXES_V1
360
2D
  0
DICTIONARY
  5
D
102
{ACAD_REACTORS
330
C
102
}
330
C
100
AcDbDictionary
280
0
281
1
  0
DICTIONARY
  5
1A
102
{ACAD_REACTORS
330
C
102
}
330
C
100
AcDbDictionary
280
0
281
1
  3
Layout1
350
1E
  3
Layout2
350
FA
  3
Model
350
22
  0
DICTIONARY
  5
FB
102
{ACAD_REACTORS
330
C
102
}
330
C
100
AcDbDictionary
280
0
281
1
  0
DICTIONARY
  5
FC
102
{ACAD_REACTORS
330
C
102
}
330
C
100
AcDbDictionary
280
0
281
1
  0
DICTIONARY
  5
17
102
{ACAD_REACTORS
330
C
102
}
330
C
100
AcDbDictionary
280
0
281
1
  3
Standard
350
FD
  0
DICTIONARY
  5
19
102
{ACAD_REACTORS
330
C
102
}
330
C
100
AcDbDictionary
280
0
281
1
  0
ACDBDICTIONARYWDFLT
  5
E
102
{ACAD_REACTORS
330
C
102
}
330
C
100
AcDbDictionary
280
0
281
1
  3
Normal
350
F
100
AcDbDictionaryWithDefault
340
F
  0
ACDBPLACEHOLDER
  5
F
102
{ACAD_REACTORS
330
E
102
}
330
E
  0
DICTIONARY
  5
FE
102
{ACAD_REACTORS
330
C
102
}
330
C
100
AcDbDictionary
280
0
281
1
  0
DICTIONARY
  5
110
102
{ACAD_REACTORS
330
C
102
}
330
C
100
AcDbDictionary
280
0
281
1
  0
DICTIONARY
  5
112
102
{ACAD_REACTORS
330
C
102
}
330
C
100
AcDbDictionary
280
0
281
1
  0
DICTIONARY
  5
113
102
{ACAD_REACTORS
330
C
102
}
330
C
100
AcDbDictionary
280
0
281
1
  3
CANNOSCALE
350
114
  3
CMLEADERSTYLE
350
115
  3
CTABLESTYLE
350
116
  3
DIMASSOC
350
117
  3
HIDETEXT
350
118
  3
MSLTSCALE
350
119
  3
ANNOALLVISIBLE
350
11A
  3
ANNOTATIVEDWG
350
11B
  0
DICTIONARY
  5
11C
102
{ACAD_REACTORS
330
C
102
}
330
C
100
AcDbDictionary
280
0
281
1
  0
XRECORD
  5
11D
102
{ACAD_REACTORS
330
C
102
}
330
C
100
AcDbXrecord
280
1
  1
DWGPROPS COOKIE
  2

  3

  4

  6

  7

  8
ADMIN
  9

300
=
301
=
302
=
303
=
304
=
305
=
306
=
307
=
308
=
309
=
 40
0
 41
2460364.2440338312
 42
2460364.2688923031
  1

 90
0
  0
DICTIONARYVAR
  5
11E
102
{ACAD_REACTORS
330
C
102
}
330
C
100
DictionaryVariables
280
0
  1
0
  0
DICTIONARY
  5
11F
102
{ACAD_REACTORS
330
C
102
}
330
C
100
AcDbDictionary
280
0
281
1
  0
FIELDLIST
  5
120
102
{ACAD_REACTORS
330
C
102
}
330
C
100
AcDbIdSet
100
AcDbFieldList
  0
DICTIONARY
  5
121
102
{ACAD_REACTORS
330
C
102
}
330
C
100
AcDbDictionary
280
0
281
1
  0
XRECORD
  5
122
102
{ACAD_REACTORS
330
C
102
}
330
C
100
AcDbXrecord
280
1
 90
1
330
111
  0
DICTIONARY
  5
2D
102
{ACAD_REACTORS
330
2C
102
}
330
2C
100
AcDbDictionary
280
0
281
1
  0
LAYOUT
  5
1E
102
{ACAD_REACTORS
330
1A
102
}
330
1A
100
AcDbPlotSettings
  1

  2
none_device
  4

  6

 40
0
 41
0
 42
0
 43
0
 44
0
 45
0
 46
0
 47
0
 48
0
 49
0
140
0
141
0
142
1
143
1
 70
688
 72
1
 73
0
 74
5
  7

 75
16
 76
0
 77
0
 78
0
147
1
148
0
149
0
100
AcDbLayout
  1
Layout1
 70
1
 71
1
 10
0
 20
0
 11
420
 21
297
 12
0
 22
0
 32
0
 14
1E+20
 24
1E+20
 34
1E+20
 15
-1E+20
 25
-1E+20
 35
-1E+20
146
0
 13
0
 23
0
 33
0
 16
1
 26
0
 36
0
 17
0
 27
1
 37
0
 76
0
330
1B
  0
LAYOUT
  5
FA
102
{ACAD_REACTORS
330
1A
102
}
330
1A
100
AcDbPlotSettings
  1

  2
none_device
  4

  6

 40
0
 41
0
 42
0
 43
0
 44
0
 45
0
 46
0
 47
0
 48
0
 49
0
140
0
141
0
142
1
143
1
 70
688
 72
1
 73
0
 74
5
  7

 75
16
 76
0
 77
0
 78
0
147
1
148
0
149
0
100
AcDbLayout
  1
Layout2
 70
1
 71
2
 10
0
 20
0
 11
0
 21
0
 12
0
 22
0
 32
0
 14
0
 24
0
 34
0
 15
0
 25
0
 35
0
146
0
 13
0
 23
0
 33
0
 16
1
 26
0
 36
0
 17
0
 27
1
 37
0
 76
0
330
D5
  0
LAYOUT
  5
22
102
{ACAD_REACTORS
330
1A
102
}
330
1A
100
AcDbPlotSettings
  1

  2
none_device
  4
ANSI_A_(11.00_x_8.50_Inches)
  6

 40
6.35
 41
19.05
 42
6.35000508
 43
19.05000254
 44
279.4
 45
215.9
 46
133.34999746
 47
88.89999873
 48
0
 49
0
140
0
141
0
142
0.0078569481
143
1
 70
1696
 72
0
 73
0
 74
0
  7

 75
0
 76
0
 77
0
 78
0
147
0.0179189148
148
-1300.4909072572
149
0
100
AcDbLayout
  1
Model
 70
1
 71
0
 10
0
 20
0
 11
420
 21
297
 12
0
 22
0
 32
0
 14
197.8599247324845
 24
192.39750323524581
 34
0
 15
1192.364865522052
 25
1564.05202952528
 35
0
146
0
 13
0
 23
0
 33
0
 16
1
 26
0
 36
0
 17
0
 27
1
 37
0
 76
0
330
2B
331
F9
  0
MLINESTYLE
  5
FD
102
{ACAD_REACTORS
330
17
102
}
330
17
100
AcDbMlineStyle
  2
Standard
 70
0
  3

 51
90
 52
90
 71
2
 49
0.5
  6
ByLayer
 49
-0.5
  6
ByLayer
  0
DICTIONARYVAR
  5
114
102
{ACAD_REACTORS
330
113
102
}
330
113
100
DictionaryVariables
280
0
  1
1:1
  0
DICTIONARYVAR
  5
115
102
{ACAD_REACTORS
330
113
102
}
330
113
100
DictionaryVariables
280
0
  1
Standard
  0
DICTIONARYVAR
  5
116
102
{ACAD_REACTORS
330
113
102
}
330
113
100
DictionaryVariables
280
0
  1
Standard
  0
DICTIONARYVAR
  5
117
102
{ACAD_REACTORS
330
113
102
}
330
113
100
DictionaryVariables
280
0
  1
1
  0
DICTIONARYVAR
  5
118
102
{ACAD_REACTORS
330
113
102
}
330
113
100
DictionaryVariables
280
0
  1
1
  0
DICTIONARYVAR
  5
119
102
{ACAD_REACTORS
330
113
102
}
330
113
100
DictionaryVariables
280
0
  1
0
  0
DICTIONARYVAR
  5
11A
102
{ACAD_REACTORS
330
113
102
}
330
113
100
DictionaryVariables
280
0
  1
1
  0
DICTIONARYVAR
  5
11B
102
{ACAD_REACTORS
330
113
102
}
330
113
100
DictionaryVariables
280
0
  1
0
  0
ENDSEC
999
Created By CadLib version 4.0.36.72
999
CadLib website: www.woutware.com
  0
EOF

