  0
SECTION
  2
HEADER
  9
$ACADVER
  1
AC1015
  9
$ACADMAINTVER
 70
6
  9
$DWGCODEPAGE
  3
ansi_1252
  9
$INSBASE
 10
0
 20
0
 30
0
  9
$EXTMIN
 10
1455.8334342102551
 20
940.71061882054494
 30
0
  9
$EXTMAX
 10
3191.682990131857
 20
3266.3735018558
 30
0
  9
$LIMMIN
 10
0
 20
0
  9
$LIMMAX
 10
420
 20
297
  9
$SNAPMODE
 70
0
  9
$SNAPUNIT
 10
1
 20
1
  9
$SNAPBASE
 10
0
 20
0
  9
$SNAPANG
 50
0
  9
$SNAPSTYLE
 70
0
  9
$SNAPISOPAIR
 70
0
  9
$ORTHOMODE
 70
1
  9
$REGENMODE
 70
1
  9
$FILLMODE
 70
1
  9
$QTEXTMODE
 70
0
  9
$MIRRTEXT
 70
1
  9
$LTSCALE
 40
1
  9
$OSMODE
 70
0
  9
$ATTMODE
 70
1
  9
$TEXTSIZE
 40
3.5
  9
$TRACEWID
 40
1
  9
$TEXTSTYLE
  7
Standard
  9
$CLAYER
  8
0
  9
$CELTYPE
  6
ByLayer
  9
$CECOLOR
 62
256
  9
$CELTSCALE
 40
1
  9
$DISPSILH
 70
0
  9
$DIMSCALE
 40
1
  9
$DIMASZ
 40
3.302
  9
$DIMEXO
 40
0
  9
$DIMDLI
 40
3.75
  9
$DIMRND
 40
0
  9
$DIMDLE
 40
0
  9
$DIMEXE
 40
1
  9
$DIMTP
 40
0
  9
$DIMTM
 40
0
  9
$DIMTXT
 40
3.5
  9
$DIMCEN
 40
2.5
  9
$DIMTSZ
 40
0
  9
$DIMTOL
 70
0
  9
$DIMLIM
 70
0
  9
$DIMTIH
 70
0
  9
$DIMTOH
 70
0
  9
$DIMSE1
 70
0
  9
$DIMSE2
 70
0
  9
$DIMTAD
 70
1
  9
$DIMZIN
 70
1
  9
$DIMBLK
  1

  9
$DIMASO
 70
1
  9
$DIMSHO
 70
1
  9
$DIMPOST
  1

  9
$DIMAPOST
  1

  9
$DIMALT
 70
0
  9
$DIMALTD
 70
3
  9
$DIMALTF
 40
0.0393700787
  9
$DIMLFAC
 40
1
  9
$DIMTOFL
 70
1
  9
$DIMTVP
 40
0
  9
$DIMTIX
 70
0
  9
$DIMSOXD
 70
0
  9
$DIMSAH
 70
0
  9
$DIMBLK1
  1

  9
$DIMBLK2
  1

  9
$DIMSTYLE
  2
ISO-25
  9
$DIMCLRD
 70
0
  9
$DIMCLRE
 70
0
  9
$DIMCLRT
 70
0
  9
$DIMTFAC
 40
1
  9
$DIMGAP
 40
1.524
  9
$DIMJUST
 70
0
  9
$DIMSD1
 70
0
  9
$DIMSD2
 70
0
  9
$DIMTOLJ
 70
0
  9
$DIMTZIN
 70
1
  9
$DIMALTZ
 70
0
  9
$DIMALTTZ
 70
0
  9
$DIMUPT
 70
0
  9
$DIMDEC
 70
2
  9
$DIMTDEC
 70
2
  9
$DIMALTU
 70
2
  9
$DIMALTTD
 70
3
  9
$DIMTXSTY
  7
Standard
  9
$DIMAUNIT
 70
0
  9
$DIMADEC
 70
2
  9
$DIMALTRND
 40
0
  9
$DIMAZIN
 70
0
  9
$DIMDSEP
 70
44
  9
$DIMATFIT
 70
3
  9
$DIMFRAC
 70
0
  9
$DIMLDRBLK
  1

  9
$DIMLUNIT
 70
2
  9
$DIMLWD
 70
-2
  9
$DIMLWE
 70
-2
  9
$LUNITS
 70
2
  9
$LUPREC
 70
6
  9
$SKETCHINC
 40
1
  9
$FILLETRAD
 40
3
  9
$AUNITS
 70
0
  9
$AUPREC
 70
2
  9
$MENU
  1
.
  9
$ELEVATION
 40
0
  9
$PELEVATION
 40
0
  9
$THICKNESS
 40
0
  9
$LIMCHECK
 70
0
  9
$CHAMFERA
 40
0
  9
$CHAMFERB
 40
0
  9
$CHAMFERC
 40
0
  9
$CHAMFERD
 40
0
  9
$SKPOLY
 70
0
  9
$TDCREATE
 40
2460363.738228044
  9
$TDUCREATE
 40
2460363.5090613775
  9
$TDUPDATE
 40
2460367.5941035184
  9
$TDUUPDATE
 40
2460367.3649368519
  9
$TDINDWG
 40
0.0055638541666666666
  9
$TDUSRTIMER
 40
0.00012818287037037038
  9
$USRTIMER
 70
1
  9
$ANGBASE
 50
0
  9
$ANGDIR
 70
0
  9
$PDMODE
 70
2
  9
$PDSIZE
 40
0
  9
$PLINEWID
 40
0
  9
$SPLFRAME
 70
0
  9
$SPLINETYPE
 70
6
  9
$SPLINESEGS
 70
8
  9
$HANDSEED
  5
D4
  9
$SURFTAB1
 70
6
  9
$SURFTAB2
 70
6
  9
$SURFTYPE
 70
6
  9
$SURFU
 70
6
  9
$SURFV
 70
6
  9
$UCSORG
 10
0
 20
0
 30
0
  9
$UCSXDIR
 10
1
 20
0
 30
0
  9
$UCSYDIR
 10
0
 20
1
 30
0
  9
$UCSORTHOREF
  2

  9
$UCSORTHOVIEW
 70
0
  9
$UCSORGTOP
 10
0
 20
0
 30
0
  9
$UCSORGBOTTOM
 10
0
 20
0
 30
0
  9
$UCSORGLEFT
 10
0
 20
0
 30
0
  9
$UCSORGRIGHT
 10
0
 20
0
 30
0
  9
$UCSORGFRONT
 10
0
 20
0
 30
0
  9
$UCSORGBACK
 10
0
 20
0
 30
0
  9
$PUCSORG
 10
0
 20
0
 30
0
  9
$PUCSXDIR
 10
1
 20
0
 30
0
  9
$PUCSYDIR
 10
0
 20
1
 30
0
  9
$PUCSORTHOREF
  2

  9
$PUCSORTHOVIEW
 70
0
  9
$PUCSORGTOP
 10
0
 20
0
 30
0
  9
$PUCSORGBOTTOM
 10
0
 20
0
 30
0
  9
$PUCSORGLEFT
 10
0
 20
0
 30
0
  9
$PUCSORGRIGHT
 10
0
 20
0
 30
0
  9
$PUCSORGFRONT
 10
0
 20
0
 30
0
  9
$PUCSORGBACK
 10
0
 20
0
 30
0
  9
$USERI1
 70
0
  9
$USERI2
 70
0
  9
$USERI3
 70
0
  9
$USERI4
 70
0
  9
$USERI5
 70
0
  9
$USERR1
 40
0
  9
$USERR2
 40
0
  9
$USERR3
 40
0
  9
$USERR4
 40
0
  9
$USERR5
 40
0
  9
$WORLDVIEW
 70
1
  9
$SHADEDGE
 70
3
  9
$SHADEDIF
 70
70
  9
$TILEMODE
 70
1
  9
$MAXACTVP
 70
64
  9
$PINSBASE
 10
0
 20
0
 30
0
  9
$PLIMCHECK
 70
0
  9
$PEXTMIN
 10
1E+20
 20
1E+20
 30
1E+20
  9
$PEXTMAX
 10
-1E+20
 20
-1E+20
 30
-1E+20
  9
$PLIMMAX
 10
0
 20
0
  9
$PLIMMIN
 10
0
 20
0
  9
$UNITMODE
 70
0
  9
$VISRETAIN
 70
1
  9
$PLINEGEN
 70
0
  9
$PSLTSCALE
 70
1
  9
$TREEDEPTH
 70
3020
  9
$CMLSTYLE
  2
STANDARD
  9
$CMLJUST
 70
0
  9
$CMLSCALE
 40
20
  9
$PROXYGRAPHICS
 70
1
  9
$MEASUREMENT
 70
1
  9
$CELWEIGHT
370
-1
  9
$ENDCAPS
280
0
  9
$JOINSTYLE
280
0
  9
$LWDISPLAY
290
1
  9
$INSUNITS
 70
4
  9
$HYPERLINKBASE
  1

  9
$XEDIT
290
1
  9
$CEPSNTYPE
380
0
  9
$PSTYLEMODE
290
1
  9
$FINGERPRINTGUID
  2
{cdf75f79-d651-4ed6-bf84-5e51c16629b8}
  9
$VERSIONGUID
  2
{FAEB1C32-E019-11D5-929B-00C0DF256EC4}
  9
$EXTNAMES
290
1
  9
$PSVPSCALE
 40
0
  9
$CSHADOW
280
0
  9
$SHADOWPLANELOCATION
 40
0
  9
$STYLESHEET
  1

  9
$OLESTARTUP
290
     0
  0
ENDSEC
  0
SECTION
  2
CLASSES
  0
CLASS
  1
ACDBDICTIONARYWDFLT
  2
AcDbDictionaryWithDefault
  3
ObjectDBX Classes
 90
0
280
0
281
0
  0
CLASS
  1
VISUALSTYLE
  2
AcDbVisualStyle
  3
ObjectDBX Classes
 90
4095
280
0
281
0
  0
CLASS
  1
MATERIAL
  2
AcDbMaterial
  3
ObjectDBX Classes
 90
1153
280
0
281
0
  0
CLASS
  1
SCALE
  2
AcDbScale
  3
ObjectDBX Classes
 90
1153
280
0
281
0
  0
CLASS
  1
TABLESTYLE
  2
AcDbTableStyle
  3
ObjectDBX Classes
 90
4095
280
0
281
0
  0
CLASS
  1
MLEADERSTYLE
  2
AcDbMLeaderStyle
  3
ACDB_MLEADERSTYLE_CLASS
 90
4095
280
0
281
0
  0
CLASS
  1
SUN
  2
AcDbSun
  3
SCENEOE
 90
1153
280
0
281
0
  0
CLASS
  1
ACDBPLACEHOLDER
  2
AcDbPlaceHolder
  3
ObjectDBX Classes
 90
0
280
0
281
0
  0
CLASS
  1
LAYOUT
  2
AcDbLayout
  3
ObjectDBX Classes
 90
0
280
0
281
0
  0
CLASS
  1
DICTIONARYVAR
  2
AcDbDictionaryVar
  3
ObjectDBX Classes
 90
0
280
0
281
0
  0
CLASS
  1
DIMASSOC
  2
AcDbDimAssoc
  3
"AcDbDimAssoc|Product Desc:     AcDim ARX App For Dimension|Company:          Autodesk, Inc.|WEB Address:      www.autodesk.com"
 90
0
280
0
281
0
  0
CLASS
  1
BREAKDATA
  2
AcDbBreakData
  3
ObjectDBX Classes
 90
1024
280
0
281
0
  0
CLASS
  1
RASTERVARIABLES
  2
AcDbRasterVariables
  3
ISM
 90
0
280
0
281
0
  0
CLASS
  1
IMAGEDEF
  2
AcDbRasterImageDef
  3
ISM
 90
0
280
0
281
0
  0
CLASS
  1
IMAGEDEF_REACTOR
  2
AcDbRasterImageDefReactor
  3
ISM
 90
1
280
0
281
0
  0
CLASS
  1
IMAGE
  2
AcDbRasterImage
  3
ISM
 90
127
280
0
281
1
  0
CLASS
  1
ACAD_EVALUATION_GRAPH
  2
AcDbEvalGraph
  3
ObjectDBX Classes
 90
1153
280
0
281
0
  0
CLASS
  1
BLOCKPOINTPARAMETER
  2
AcDbBlockPointParameter
  3
ObjectDBX Classes
 90
1153
280
0
281
0
  0
CLASS
  1
BLOCKBASEPOINTPARAMETER
  2
AcDbBlockBasepointParameter
  3
ObjectDBX Classes
 90
1153
280
0
281
0
  0
CLASS
  1
BLOCKLOOKUPPARAMETER
  2
AcDbBlockLookupParameter
  3
ObjectDBX Classes
 90
1153
280
0
281
0
  0
CLASS
  1
BLOCKVISIBILITYPARAMETER
  2
AcDbBlockVisibilityParameter
  3
ObjectDBX Classes
 90
1153
280
0
281
0
  0
CLASS
  1
BLOCKPROPERTIESTABLE
  2
AcDbBlockPropertiesTable
  3
ObjectDBX Classes
 90
1153
280
0
281
0
  0
CLASS
  1
BLOCKPOLARPARAMETER
  2
AcDbBlockPolarParameter
  3
ObjectDBX Classes
 90
1153
280
0
281
0
  0
CLASS
  1
BLOCKROTATIONPARAMETER
  2
AcDbBlockRotationParameter
  3
ObjectDBX Classes
 90
1153
280
0
281
0
  0
CLASS
  1
BLOCKLINEARPARAMETER
  2
AcDbBlockLinearParameter
  3
ObjectDBX Classes
 90
1153
280
0
281
0
  0
CLASS
  1
BLOCKXYPARAMETER
  2
AcDbBlockXYParameter
  3
ObjectDBX Classes
 90
1153
280
0
281
0
  0
CLASS
  1
BLOCKFLIPPARAMETER
  2
AcDbBlockFlipParameter
  3
ObjectDBX Classes
 90
1153
280
0
281
0
  0
CLASS
  1
BLOCKALIGNMENTPARAMETER
  2
AcDbBlockAlignmentParameter
  3
ObjectDBX Classes
 90
1153
280
0
281
0
  0
CLASS
  1
BLOCKROTATEACTION
  2
AcDbBlockRotateAction
  3
ObjectDBX Classes
 90
1153
280
0
281
0
  0
CLASS
  1
BLOCKSCALEACTION
  2
AcDbBlockScaleAction
  3
ObjectDBX Classes
 90
1153
280
0
281
0
  0
CLASS
  1
BLOCKARRAYACTION
  2
AcDbBlockArrayAction
  3
ObjectDBX Classes
 90
1153
280
0
281
0
  0
CLASS
  1
BLOCKFLIPACTION
  2
AcDbBlockFlipAction
  3
ObjectDBX Classes
 90
1153
280
0
281
0
  0
CLASS
  1
BLOCKLOOKUPACTION
  2
AcDbBlockLookupAction
  3
ObjectDBX Classes
 90
1153
280
0
281
0
  0
CLASS
  1
BLOCKMOVEACTION
  2
AcDbBlockMoveAction
  3
ObjectDBX Classes
 90
1153
280
0
281
0
  0
CLASS
  1
BLOCKPOLARSTRETCHACTION
  2
AcDbBlockPolarStretchAction
  3
ObjectDBX Classes
 90
1153
280
0
281
0
  0
CLASS
  1
BLOCKSTRETCHACTION
  2
AcDbBlockStretchAction
  3
ObjectDBX Classes
 90
1153
280
0
281
0
  0
CLASS
  1
BLOCKALIGNMENTGRIP
  2
AcDbBlockAlignmentGrip
  3
ObjectDBX Classes
 90
1153
280
0
281
0
  0
CLASS
  1
BLOCKFLIPGRIP
  2
AcDbBlockFlipGrip
  3
ObjectDBX Classes
 90
1153
280
0
281
0
  0
CLASS
  1
ACDB_BLOCKREPRESENTATION_DATA
  2
AcDbBlockRepresentationData
  3
ObjectDBX Classes
 90
1153
280
0
281
0
  0
CLASS
  1
ACDB_DYNAMICBLOCKPURGEPREVENTER_VERSION
  2
AcDbDynamicBlockPurgePreventer
  3
ObjectDBX Classes
 90
1153
280
0
281
0
  0
CLASS
  1
BLOCKLINEARGRIP
  2
AcDbBlockLinearGrip
  3
ObjectDBX Classes
 90
1153
280
0
281
0
  0
CLASS
  1
BLOCKLOOKUPGRIP
  2
AcDbBlockLookupGrip
  3
ObjectDBX Classes
 90
1153
280
0
281
0
  0
CLASS
  1
BLOCKPOLARGRIP
  2
AcDbBlockPolarGrip
  3
ObjectDBX Classes
 90
1153
280
0
281
0
  0
CLASS
  1
BLOCKPROPERTIESTABLEGRIP
  2
AcDbBlockPropertiesTableGrip
  3
ObjectDBX Classes
 90
1153
280
0
281
0
  0
CLASS
  1
BLOCKROTATIONGRIP
  2
AcDbBlockRotationGrip
  3
ObjectDBX Classes
 90
1153
280
0
281
0
  0
CLASS
  1
BLOCKVISIBILITYGRIP
  2
AcDbBlockVisibilityGrip
  3
ObjectDBX Classes
 90
1153
280
0
281
0
  0
CLASS
  1
BLOCKXYGRIP
  2
AcDbBlockXYGrip
  3
ObjectDBX Classes
 90
1153
280
0
281
0
  0
CLASS
  1
BLOCKGRIPLOCATIONCOMPONENT
  2
AcDbBlockGripExpr
  3
ObjectDBX Classes
 90
1153
280
0
281
0
  0
CLASS
  1
ACDB_DYNAMICBLOCKPROXYNODE
  2
AcDbDynamicBlockProxyNode
  3
ObjectDBX Classes
 90
1153
280
0
281
0
  0
ENDSEC
  0
SECTION
  2
TABLES
  0
TABLE
  2
VPORT
  5
8
330
0
100
AcDbSymbolTable
 70
1
  0
VPORT
  5
A6
330
8
100
AcDbSymbolTableRecord
100
AcDbViewportTableRecord
  2
*Active
 70
0
 10
0
 20
0
 11
1
 21
1
 12
2749.282802885662
 22
1952.3506472551369
 13
0
 23
0
 14
10
 24
10
 15
10
 25
10
 16
0
 26
0
 36
1
 17
0
 27
0
 37
0
 40
3090.3808593749882
 41
1.91578947368421
 42
50
 43
0
 44
0
 50
0
 51
0
 71
16
 72
100
 73
1
 74
0
 75
0
 76
0
 77
0
 78
0
281
0
 65
1
110
0
120
0
130
0
111
1
121
0
131
0
112
0
122
1
132
0
 79
0
146
0
  0
ENDTAB
  0
TABLE
  2
LTYPE
  5
5
100
AcDbSymbolTable
 70
8
  0
LTYPE
  5
14
330
5
100
AcDbSymbolTableRecord
100
AcDbLinetypeTableRecord
  2
ByBlock
  3

 70
0
 72
65
 73
0
 40
0
  0
LTYPE
  5
15
330
5
100
AcDbSymbolTableRecord
100
AcDbLinetypeTableRecord
  2
ByLayer
  3

 70
0
 72
65
 73
0
 40
0
  0
LTYPE
  5
16
330
5
100
AcDbSymbolTableRecord
100
AcDbLinetypeTableRecord
  2
Continuous
  3
Solid line
 70
0
 72
65
 73
0
 40
0
  0
LTYPE
  5
9F
330
5
100
AcDbSymbolTableRecord
100
AcDbLinetypeTableRecord
  2
HIDDEN
  3
Hidden __ __ __ __ __ __ __ __ __ __ __ __ __ __
 70
0
 72
65
 73
2
 40
1.905
 49
1.27
 74
0
 49
-0.635
 74
0
  0
LTYPE
  5
A0
330
5
100
AcDbSymbolTableRecord
100
AcDbLinetypeTableRecord
  2
PHANTOM
  3
Phantom ______  __  __  ______  __  __  ______
 70
0
 72
65
 73
6
 40
12.699999999999998
 49
6.35
 74
0
 49
-1.27
 74
0
 49
1.27
 74
0
 49
-1.27
 74
0
 49
1.27
 74
0
 49
-1.27
 74
0
  0
LTYPE
  5
A1
330
5
100
AcDbSymbolTableRecord
100
AcDbLinetypeTableRecord
  2
CENTER
  3
Center ____ _ ____ _ ____ _ ____ _ ____ _ ____
 70
0
 72
65
 73
4
 40
10.159999999999998
 49
6.35
 74
0
 49
-1.27
 74
0
 49
1.27
 74
0
 49
-1.27
 74
0
  0
LTYPE
  5
A2
330
5
100
AcDbSymbolTableRecord
100
AcDbLinetypeTableRecord
  2
CENTERX2
  3
Center (2x) ________  __  ________  __  _____
 70
0
 72
65
 73
4
 40
20.319999999999997
 49
12.7
 74
0
 49
-2.54
 74
0
 49
2.54
 74
0
 49
-2.54
 74
0
  0
LTYPE
  5
A3
330
5
100
AcDbSymbolTableRecord
100
AcDbLinetypeTableRecord
  2
DOT2
  3
Dot (.5x) ........................................
 70
0
 72
65
 73
2
 40
0.635
 49
0
 74
0
 49
-0.635
 74
0
  0
ENDTAB
  0
TABLE
  2
LAYER
  5
2
100
AcDbSymbolTable
 70
5
  0
LAYER
  5
10
330
2
100
AcDbSymbolTableRecord
100
AcDbLayerTableRecord
 70
0
  2
0
 62
7
  6
Continuous
370
-3
390
F
  0
LAYER
  5
27
330
2
100
AcDbSymbolTableRecord
100
AcDbLayerTableRecord
 70
0
  2
Defpoints
 62
151
  6
Continuous
290
0
370
-3
390
F
  0
LAYER
  5
28
330
2
100
AcDbSymbolTableRecord
100
AcDbLayerTableRecord
 70
64
  2
LaserCutting
 62
3
  6
Continuous
370
-3
390
F
  0
LAYER
  5
29
330
2
100
AcDbSymbolTableRecord
100
AcDbLayerTableRecord
 70
64
  2
Marking
 62
6
  6
Continuous
370
-3
390
F
  0
LAYER
  5
2A
330
2
100
AcDbSymbolTableRecord
100
AcDbLayerTableRecord
 70
64
  2
Dimention
 62
9
  6
Continuous
370
-3
390
F
  0
ENDTAB
  0
TABLE
  2
STYLE
  5
3
100
AcDbSymbolTable
 70
1
  0
STYLE
  5
11
330
3
100
AcDbSymbolTableRecord
100
AcDbTextStyleTableRecord
  2
Standard
 70
0
 40
0
 41
1
 50
0
 71
0
 42
3.5
  3
txt
  0
ENDTAB
  0
TABLE
  2
VIEW
  5
6
100
AcDbSymbolTable
 70
0
  0
ENDTAB
  0
TABLE
  2
UCS
  5
7
100
AcDbSymbolTable
 70
0
  0
ENDTAB
  0
TABLE
  2
APPID
  5
9
330
0
100
AcDbSymbolTable
 70
4
  0
APPID
  5
12
330
0
100
AcDbSymbolTableRecord
100
AcDbRegAppTableRecord
  2
ACAD
 70
0
  0
APPID
  5
D0
330
0
100
AcDbSymbolTableRecord
100
AcDbRegAppTableRecord
  2
ENABLE_CUSTOM_SPLIT
 70
0
  0
APPID
  5
D1
330
0
100
AcDbSymbolTableRecord
100
AcDbRegAppTableRecord
  2
ACAD_MLEADERVER
 70
0
  0
APPID
  5
D2
330
0
100
AcDbSymbolTableRecord
100
AcDbRegAppTableRecord
  2
AcadAnnotative
 70
64
  0
ENDTAB
  0
TABLE
  2
DIMSTYLE
  5
A
330
0
100
AcDbSymbolTable
 70
2
100
AcDbDimStyleTable
 71
0
  0
DIMSTYLE
105
A4
102
{ACAD_REACTORS
330
119
330
12B
102
}
330
A
100
AcDbSymbolTableRecord
100
AcDbDimStyleTableRecord
  2
ISO-25
 70
0
  3

  4

 40
1
 41
2.5
 42
0.625
 43
3.75
 44
1.25
 45
0
 46
0
 47
0
 48
0
140
2.5
141
2.5
142
0
143
0.0393700787
144
1
145
0
146
1
147
0.625
148
0
 71
0
 72
0
 73
0
 74
0
 75
0
 76
0
 77
1
 78
8
 79
0
170
0
171
3
172
1
173
0
174
0
175
0
179
0
271
2
272
2
273
2
274
3
275
0
276
0
277
2
278
44
279
0
280
0
281
0
282
0
283
0
284
8
285
0
286
0
288
0
289
0
340
11
371
-2
372
-2
  0
DIMSTYLE
105
A5
330
A
100
AcDbSymbolTableRecord
100
AcDbDimStyleTableRecord
  2
Standard
 70
64
  3

  4

 40
1
 41
0.18
 42
0.0625
 43
0.38
 44
0.18
 45
0
 46
0
 47
0
 48
0
140
0.18
141
0.09
142
0
143
1
144
1
145
0
146
1
147
0.09
148
0
 71
0
 72
0
 73
1
 74
1
 75
0
 76
0
 77
0
 78
0
 79
0
170
0
171
2
172
0
173
0
174
0
175
0
179
0
271
4
272
4
273
2
274
0
275
0
276
0
277
2
278
46
279
0
280
0
281
0
282
0
283
1
284
0
285
0
286
0
288
0
289
0
340
11
371
-2
372
-2
  0
ENDTAB
  0
TABLE
  2
BLOCK_RECORD
  5
1
330
0
100
AcDbSymbolTable
 70
3
  0
BLOCK_RECORD
  5
2B
102
{ACAD_XDICTIONARY
360
2C
102
}
330
1
100
AcDbSymbolTableRecord
100
AcDbBlockTableRecord
  2
*Model_Space
340
22
  0
BLOCK_RECORD
  5
1B
330
1
100
AcDbSymbolTableRecord
100
AcDbBlockTableRecord
  2
*Paper_Space
340
1E
  0
BLOCK_RECORD
  5
76
330
1
100
AcDbSymbolTableRecord
100
AcDbBlockTableRecord
  2
*Paper_Space0
340
A7
  0
BLOCK_RECORD
  5
79
330
1
100
AcDbSymbolTableRecord
100
AcDbBlockTableRecord
  2
*D1
  0
BLOCK_RECORD
  5
86
330
1
100
AcDbSymbolTableRecord
100
AcDbBlockTableRecord
  2
*D2
  0
BLOCK_RECORD
  5
93
330
1
100
AcDbSymbolTableRecord
100
AcDbBlockTableRecord
  2
*D3
  0
ENDTAB
  0
ENDSEC
  0
SECTION
  2
BLOCKS
  0
BLOCK
  5
2E
330
2B
100
AcDbEntity
  8
0
100
AcDbBlockBegin
  2
*Model_Space
 70
0
 10
0
 20
0
 30
0
  3
*Model_Space
  0
ENDBLK
  5
75
330
2B
100
AcDbEntity
  8
0
100
AcDbBlockEnd
  0
BLOCK
  5
1C
330
1B
100
AcDbEntity
  8
0
 67
1
100
AcDbBlockBegin
  2
*Paper_Space
 70
0
 10
0
 20
0
 30
0
  3
*Paper_Space
  0
ENDBLK
  5
1D
330
1B
100
AcDbEntity
  8
0
100
AcDbBlockEnd
  0
BLOCK
  5
77
330
76
100
AcDbEntity
  8
0
100
AcDbBlockBegin
  2
*Paper_Space0
 70
0
 10
0
 20
0
 30
0
  3
*Paper_Space0
  0
ENDBLK
  5
78
330
76
100
AcDbEntity
  8
0
100
AcDbBlockEnd
  0
BLOCK
  5
7A
330
79
100
AcDbEntity
  8
0
100
AcDbBlockBegin
  2
*D1
 70
1
 10
0
 20
0
 30
0
  3
*D1
  0
LINE
  5
7B
330
79
100
AcDbEntity
  8
0
 62
0
370
-2
100
AcDbLine
 10
1455.833434210256
 20
2530.9584562496129
 30
0
 11
1455.833434210256
 21
2682.358456249613
 31
0
  0
LINE
  5
7C
330
79
100
AcDbEntity
  8
0
 62
0
370
-2
100
AcDbLine
 10
3191.6829901318561
 20
2530.9584562496129
 30
0
 11
3191.6829901318561
 21
2682.358456249613
 31
0
  0
LINE
  5
7D
330
79
100
AcDbEntity
  8
0
 62
0
370
-2
100
AcDbLine
 10
1459.1354342102561
 20
2681.358456249613
 30
0
 11
3188.3809901318559
 21
2681.358456249613
 31
0
  0
LINE
  5
7E
330
79
100
AcDbEntity
  8
0
 62
0
370
-2
100
AcDbLine
 10
3188.3809901318559
 20
2681.358456249613
 30
0
 11
1459.1354342102561
 21
2681.358456249613
 31
0
  0
SOLID
  5
7F
330
79
100
AcDbEntity
  8
0
 62
0
100
AcDbTrace
 10
1459.1354342102561
 20
2681.9087895829462
 30
0
 11
1459.1354342102561
 21
2680.80812291628
 31
0
 12
1455.833434210256
 22
2681.358456249613
 32
0
 13
1455.833434210256
 23
2681.358456249613
 33
0
  0
SOLID
  5
80
330
79
100
AcDbEntity
  8
0
 62
0
100
AcDbTrace
 10
3188.3809901318559
 20
2680.80812291628
 30
0
 11
3188.3809901318559
 21
2681.9087895829462
 31
0
 12
3191.6829901318561
 22
2681.358456249613
 32
0
 13
3191.6829901318561
 23
2681.358456249613
 33
0
  0
MTEXT
  5
81
330
79
100
AcDbEntity
  8
0
 62
0
100
AcDbMText
 10
2323.7582121710561
 20
2684.924122916279
 30
0
 11
1
 21
0
 31
0
 40
3.5
 41
0
 71
5
 72
1
  1
1735,85
  7
Standard
 73
1
  0
POINT
  5
82
330
79
100
AcDbEntity
  8
Defpoints
 62
0
100
AcDbPoint
 10
1455.833434210256
 20
2526.38385760661
 30
0
 50
0
  0
POINT
  5
83
330
79
100
AcDbEntity
  8
Defpoints
 62
0
100
AcDbPoint
 10
3191.6829901318561
 20
2526.3838576066109
 30
0
 50
0
  0
POINT
  5
84
330
79
100
AcDbEntity
  8
Defpoints
 62
0
100
AcDbPoint
 10
3191.6829901318561
 20
2681.358456249613
 30
0
 50
0
  0
ENDBLK
  5
85
330
79
100
AcDbEntity
  8
0
100
AcDbBlockEnd
  0
BLOCK
  5
87
330
86
100
AcDbEntity
  8
0
100
AcDbBlockBegin
  2
*D2
 70
1
 10
0
 20
0
 30
0
  3
*D2
  0
LINE
  5
88
330
86
100
AcDbEntity
  8
0
 62
0
370
-2
100
AcDbLine
 10
3133.614406661256
 20
2559.4584562496129
 30
0
 11
3387.014406661257
 21
2559.4584562496129
 31
0
  0
LINE
  5
89
330
86
100
AcDbEntity
  8
0
 62
0
370
-2
100
AcDbLine
 10
3133.614406661256
 20
1318.4584562496129
 30
0
 11
3387.014406661257
 21
1318.4584562496129
 31
0
  0
LINE
  5
8A
330
86
100
AcDbEntity
  8
0
 62
0
370
-2
100
AcDbLine
 10
3386.014406661257
 20
2556.1564562496128
 30
0
 11
3386.014406661257
 21
1942.52412291628
 31
0
  0
LINE
  5
8B
330
86
100
AcDbEntity
  8
0
 62
0
370
-2
100
AcDbLine
 10
3386.014406661257
 20
1321.7604562496131
 30
0
 11
3386.014406661257
 21
1935.3927895829461
 31
0
  0
SOLID
  5
8C
330
86
100
AcDbEntity
  8
0
 62
0
100
AcDbTrace
 10
3386.56473999459
 20
2556.1564562496128
 30
0
 11
3385.464073327923
 21
2556.1564562496128
 31
0
 12
3386.014406661257
 22
2559.4584562496129
 32
0
 13
3386.014406661257
 23
2559.4584562496129
 33
0
  0
SOLID
  5
8D
330
86
100
AcDbEntity
  8
0
 62
0
100
AcDbTrace
 10
3385.464073327923
 20
1321.7604562496131
 30
0
 11
3386.56473999459
 21
1321.7604562496131
 31
0
 12
3386.014406661257
 22
1318.4584562496129
 32
0
 13
3386.014406661257
 23
1318.4584562496129
 33
0
  0
MTEXT
  5
8E
330
86
100
AcDbEntity
  8
0
 62
0
100
AcDbMText
 10
3386.014406661257
 20
1938.9584562496129
 30
0
 11
1
 21
0
 31
0
 40
3.5
 41
0
 71
5
 72
1
  1
1241,00
  7
Standard
 73
1
  0
POINT
  5
8F
330
86
100
AcDbEntity
  8
Defpoints
 62
0
100
AcDbPoint
 10
3106.3263112462382
 20
2559.4584562496129
 30
0
 50
0
  0
POINT
  5
90
330
86
100
AcDbEntity
  8
Defpoints
 62
0
100
AcDbPoint
 10
3106.3263112462382
 20
1318.4584562496129
 30
0
 50
0
  0
POINT
  5
91
330
86
100
AcDbEntity
  8
Defpoints
 62
0
100
AcDbPoint
 10
3386.014406661257
 20
1318.4584562496129
 30
0
 50
0
  0
ENDBLK
  5
92
330
86
100
AcDbEntity
  8
0
100
AcDbBlockEnd
  0
BLOCK
  5
94
330
93
100
AcDbEntity
  8
0
100
AcDbBlockBegin
  2
*D3
 70
1
 10
0
 20
0
 30
0
  3
*D3
  0
LINE
  5
95
330
93
100
AcDbEntity
  8
0
 62
0
370
-2
100
AcDbLine
 10
2019.7582121710559
 20
2535.4584562496129
 30
0
 11
2019.7582121710559
 21
2482.504284109817
 31
0
  0
LINE
  5
96
330
93
100
AcDbEntity
  8
0
 62
0
370
-2
100
AcDbLine
 10
1459.1354342102561
 20
2483.504284109817
 30
0
 11
2016.456212171056
 21
2483.504284109817
 31
0
  0
LINE
  5
97
330
93
100
AcDbEntity
  8
0
 62
0
370
-2
100
AcDbLine
 10
2016.456212171056
 20
2483.504284109817
 30
0
 11
1459.1354342102561
 21
2483.504284109817
 31
0
  0
SOLID
  5
98
330
93
100
AcDbEntity
  8
0
 62
0
100
AcDbTrace
 10
1459.1354342102561
 20
2484.05461744315
 30
0
 11
1459.1354342102561
 21
2482.9539507764839
 31
0
 12
1455.833434210256
 22
2483.504284109817
 32
0
 13
1455.833434210256
 23
2483.504284109817
 33
0
  0
SOLID
  5
99
330
93
100
AcDbEntity
  8
0
 62
0
100
AcDbTrace
 10
2016.456212171056
 20
2482.9539507764839
 30
0
 11
2016.456212171056
 21
2484.05461744315
 31
0
 12
2019.7582121710559
 22
2483.504284109817
 32
0
 13
2019.7582121710559
 23
2483.504284109817
 33
0
  0
MTEXT
  5
9A
330
93
100
AcDbEntity
  8
0
 62
0
100
AcDbMText
 10
1737.7958231906559
 20
2487.069950776483
 30
0
 11
1
 21
0
 31
0
 40
3.5
 41
0
 71
5
 72
1
  1
563,92
  7
Standard
 73
1
  0
POINT
  5
9B
330
93
100
AcDbEntity
  8
Defpoints
 62
0
100
AcDbPoint
 10
1455.833434210256
 20
2501.24175341508
 30
0
 50
0
  0
POINT
  5
9C
330
93
100
AcDbEntity
  8
Defpoints
 62
0
100
AcDbPoint
 10
2019.7582121710559
 20
2541.49216453087
 30
0
 50
0
  0
POINT
  5
9D
330
93
100
AcDbEntity
  8
Defpoints
 62
0
100
AcDbPoint
 10
2019.7582121710559
 20
2483.504284109817
 30
0
 50
0
  0
ENDBLK
  5
9E
330
93
100
AcDbEntity
  8
0
100
AcDbBlockEnd
  0
ENDSEC
  0
SECTION
  2
ENTITIES
  0
LINE
  5
2F
330
2B
100
AcDbEntity
  8
LaserCutting
  6
Continuous
370
25
100
AcDbLine
 10
3135.9706011514559
 20
1319.4584562496129
 30
0
 11
3161.9706011514559
 21
1345.4584562496129
 31
0
  0
LINE
  5
30
330
2B
100
AcDbEntity
  8
LaserCutting
  6
Continuous
370
25
100
AcDbLine
 10
3161.9706011514559
 20
1345.4584562496129
 30
0
 11
3164.3267956416562
 21
1348.9584562496129
 31
0
  0
LINE
  5
31
330
2B
100
AcDbEntity
  8
LaserCutting
  6
Continuous
370
25
100
AcDbLine
 10
3164.3267956416562
 20
1348.9584562496129
 30
0
 11
3180.8267956416562
 21
1348.9584562496129
 31
0
  0
LINE
  5
32
330
2B
100
AcDbEntity
  8
LaserCutting
  6
Continuous
370
25
100
AcDbLine
 10
3180.8267956416562
 20
1348.9584562496129
 30
0
 11
3183.1829901318561
 21
1345.4584562496129
 31
0
  0
LINE
  5
33
330
2B
100
AcDbEntity
  8
LaserCutting
  6
Continuous
370
25
100
AcDbLine
 10
3188.7540579436559
 20
1339.8873884377131
 30
0
 11
3183.1829901318561
 21
1345.4584562496129
 31
0
  0
LINE
  5
34
330
2B
100
AcDbEntity
  8
LaserCutting
  6
Continuous
370
25
100
AcDbLine
 10
3191.6829901318561
 20
1346.9584562496129
 30
0
 11
3191.6829901318561
 21
2530.9584562496129
 31
0
  0
LINE
  5
35
330
2B
100
AcDbEntity
  8
LaserCutting
  6
Continuous
370
25
100
AcDbLine
 10
3188.7540579436559
 20
2538.0295240615128
 30
0
 11
3183.1829901318561
 21
2532.4584562496129
 31
0
  0
LINE
  5
36
330
2B
100
AcDbEntity
  8
LaserCutting
  6
Continuous
370
25
100
AcDbLine
 10
3183.1829901318561
 20
2532.4584562496129
 30
0
 11
3180.8267956416562
 21
2528.9584562496129
 31
0
  0
LINE
  5
37
330
2B
100
AcDbEntity
  8
LaserCutting
  6
Continuous
370
25
100
AcDbLine
 10
3164.3267956416562
 20
2528.9584562496129
 30
0
 11
3180.8267956416562
 21
2528.9584562496129
 31
0
  0
LINE
  5
38
330
2B
100
AcDbEntity
  8
LaserCutting
  6
Continuous
370
25
100
AcDbLine
 10
3164.3267956416562
 20
2528.9584562496129
 30
0
 11
3161.9706011514559
 21
2532.4584562496129
 31
0
  0
LINE
  5
39
330
2B
100
AcDbEntity
  8
LaserCutting
  6
Continuous
370
25
100
AcDbLine
 10
3161.9706011514559
 20
2532.4584562496129
 30
0
 11
3135.9706011514559
 21
2558.4584562496129
 31
0
  0
LINE
  5
3A
330
2B
100
AcDbEntity
  8
LaserCutting
  6
Continuous
370
25
100
AcDbLine
 10
3135.9706011514559
 20
2558.4584562496129
 30
0
 11
3133.614406661256
 21
2559.4584562496129
 31
0
  0
LINE
  5
3B
330
2B
100
AcDbEntity
  8
LaserCutting
  6
Continuous
370
25
100
AcDbLine
 10
1513.902017680856
 20
2559.4584562496129
 30
0
 11
3133.614406661256
 21
2559.4584562496129
 31
0
  0
LINE
  5
3C
330
2B
100
AcDbEntity
  8
LaserCutting
  6
Continuous
370
25
100
AcDbLine
 10
1513.902017680856
 20
2559.4584562496129
 30
0
 11
1511.5458231906559
 21
2558.4584562496129
 31
0
  0
LINE
  5
3D
330
2B
100
AcDbEntity
  8
LaserCutting
  6
Continuous
370
25
100
AcDbLine
 10
1511.5458231906559
 20
2558.4584562496129
 30
0
 11
1485.5458231906559
 21
2532.4584562496129
 31
0
  0
LINE
  5
3E
330
2B
100
AcDbEntity
  8
LaserCutting
  6
Continuous
370
25
100
AcDbLine
 10
1485.5458231906559
 20
2532.4584562496129
 30
0
 11
1483.1896287004561
 21
2528.9584562496129
 31
0
  0
LINE
  5
3F
330
2B
100
AcDbEntity
  8
LaserCutting
  6
Continuous
370
25
100
AcDbLine
 10
1483.1896287004561
 20
2528.9584562496129
 30
0
 11
1466.6896287004561
 21
2528.9584562496129
 31
0
  0
LINE
  5
40
330
2B
100
AcDbEntity
  8
LaserCutting
  6
Continuous
370
25
100
AcDbLine
 10
1466.6896287004561
 20
2528.9584562496129
 30
0
 11
1464.333434210256
 21
2532.4584562496129
 31
0
  0
LINE
  5
41
330
2B
100
AcDbEntity
  8
LaserCutting
  6
Continuous
370
25
100
AcDbLine
 10
1464.333434210256
 20
2532.4584562496129
 30
0
 11
1458.7623663984559
 21
2538.0295240615128
 31
0
  0
LINE
  5
42
330
2B
100
AcDbEntity
  8
LaserCutting
  6
Continuous
370
25
100
AcDbLine
 10
1455.833434210256
 20
2530.9584562496129
 30
0
 11
1455.833434210256
 21
1346.9584562496129
 31
0
  0
LINE
  5
43
330
2B
100
AcDbEntity
  8
LaserCutting
  6
Continuous
370
25
100
AcDbLine
 10
1458.7623663984559
 20
1339.8873884377131
 30
0
 11
1464.333434210256
 21
1345.4584562496129
 31
0
  0
LINE
  5
44
330
2B
100
AcDbEntity
  8
LaserCutting
  6
Continuous
370
25
100
AcDbLine
 10
1464.333434210256
 20
1345.4584562496129
 30
0
 11
1466.6896287004561
 21
1348.9584562496129
 31
0
  0
LINE
  5
45
330
2B
100
AcDbEntity
  8
LaserCutting
  6
Continuous
370
25
100
AcDbLine
 10
1483.1896287004561
 20
1348.9584562496129
 30
0
 11
1466.6896287004561
 21
1348.9584562496129
 31
0
  0
LINE
  5
46
330
2B
100
AcDbEntity
  8
LaserCutting
  6
Continuous
370
25
100
AcDbLine
 10
1483.1896287004561
 20
1348.9584562496129
 30
0
 11
1485.5458231906559
 21
1345.4584562496129
 31
0
  0
LINE
  5
47
330
2B
100
AcDbEntity
  8
LaserCutting
  6
Continuous
370
25
100
AcDbLine
 10
1485.5458231906559
 20
1345.4584562496129
 30
0
 11
1511.5458231906559
 21
1319.4584562496129
 31
0
  0
LINE
  5
48
330
2B
100
AcDbEntity
  8
LaserCutting
  6
Continuous
370
25
100
AcDbLine
 10
1511.5458231906559
 20
1319.4584562496129
 30
0
 11
1513.902017680856
 21
1318.4584562496129
 31
0
  0
LINE
  5
49
330
2B
100
AcDbEntity
  8
LaserCutting
  6
Continuous
370
25
100
AcDbLine
 10
3133.614406661256
 20
1318.4584562496129
 30
0
 11
1513.902017680856
 21
1318.4584562496129
 31
0
  0
LINE
  5
4A
330
2B
100
AcDbEntity
  8
LaserCutting
  6
Continuous
370
25
100
AcDbLine
 10
3133.614406661256
 20
1318.4584562496129
 30
0
 11
3135.9706011514559
 21
1319.4584562496129
 31
0
  0
ARC
  5
4B
330
2B
100
AcDbEntity
  8
LaserCutting
  6
Continuous
370
25
100
AcDbCircle
 10
3181.6829901318561
 20
1346.9584562496129
 30
0
 40
9.9999999999993179
100
AcDbArc
 50
314.99999999999909
 51
0
  0
ARC
  5
4C
330
2B
100
AcDbEntity
  8
LaserCutting
  6
Continuous
370
25
100
AcDbCircle
 10
3181.6829901318561
 20
2530.9584562496129
 30
0
 40
10.00000000000091
100
AcDbArc
 50
0
 51
45
  0
ARC
  5
4D
330
2B
100
AcDbEntity
  8
LaserCutting
  6
Continuous
370
25
100
AcDbCircle
 10
1465.833434210256
 20
2530.9584562496129
 30
0
 40
9.9999999999991971
100
AcDbArc
 50
135
 51
180
  0
ARC
  5
4E
330
2B
100
AcDbEntity
  8
LaserCutting
  6
Continuous
370
25
100
AcDbCircle
 10
1465.833434210256
 20
1346.9584562496129
 30
0
 40
10.000000000000959
100
AcDbArc
 50
180
 51
225
  0
MTEXT
  5
4F
330
2B
100
AcDbEntity
  8
0
100
AcDbMText
 10
1546.2700441385291
 20
1024.087147388301
 30
0
 11
1
 21
0
 31
0
 40
30
 41
918.25345356291041
 71
1
 72
5
  1
{MATERIAL: SS316L, 2.5MM\PQTY: 3NOS}
  7
Standard
 73
1
1001
ACAD
1000
ACAD_MTEXT_DEFINED_HEIGHT_BEGIN
1070
46
1040
80
1000
ACAD_MTEXT_DEFINED_HEIGHT_END
  0
LINE
  5
50
330
2B
100
AcDbEntity
  8
Marking
  6
Continuous
370
25
100
AcDbLine
 10
2577.2582121710561
 20
1342.4584562496129
 30
0
 11
2577.2582121710561
 21
1318.4584562496129
 31
0
  0
LINE
  5
51
330
2B
100
AcDbEntity
  8
Marking
  6
Continuous
370
25
100
AcDbLine
 10
2623.2582121710561
 20
1347.4584562496129
 30
0
 11
2582.2582121710561
 21
1347.4584562496129
 31
0
  0
LINE
  5
52
330
2B
100
AcDbEntity
  8
Marking
  6
Continuous
370
25
100
AcDbLine
 10
2628.2582121710561
 20
1318.4584562496129
 30
0
 11
2628.2582121710561
 21
1342.4584562496129
 31
0
  0
LINE
  5
53
330
2B
100
AcDbEntity
  8
Marking
  6
Continuous
370
25
100
AcDbLine
 10
2019.2582121710559
 20
1342.4584562496129
 30
0
 11
2019.2582121710559
 21
1318.4584562496129
 31
0
  0
LINE
  5
54
330
2B
100
AcDbEntity
  8
Marking
  6
Continuous
370
25
100
AcDbLine
 10
2065.2582121710561
 20
1347.4584562496129
 30
0
 11
2024.2582121710559
 21
1347.4584562496129
 31
0
  0
LINE
  5
55
330
2B
100
AcDbEntity
  8
Marking
  6
Continuous
370
25
100
AcDbLine
 10
2070.2582121710561
 20
1318.4584562496129
 30
0
 11
2070.2582121710561
 21
1342.4584562496129
 31
0
  0
LINE
  5
56
330
2B
100
AcDbEntity
  8
Marking
  6
Continuous
370
25
100
AcDbLine
 10
2627.7582121710561
 20
2535.4584562496129
 30
0
 11
2627.7582121710561
 21
2559.4584562496129
 31
0
  0
LINE
  5
57
330
2B
100
AcDbEntity
  8
Marking
  6
Continuous
370
25
100
AcDbLine
 10
2582.7582121710561
 20
2530.4584562496129
 30
0
 11
2622.7582121710561
 21
2530.4584562496129
 31
0
  0
LINE
  5
58
330
2B
100
AcDbEntity
  8
Marking
  6
Continuous
370
25
100
AcDbLine
 10
2577.7582121710561
 20
2559.4584562496129
 30
0
 11
2577.7582121710561
 21
2535.4584562496129
 31
0
  0
LINE
  5
59
330
2B
100
AcDbEntity
  8
Marking
  6
Continuous
370
25
100
AcDbLine
 10
2024.7582121710559
 20
2530.4584562496129
 30
0
 11
2064.7582121710561
 21
2530.4584562496129
 31
0
  0
LINE
  5
5A
330
2B
100
AcDbEntity
  8
Marking
  6
Continuous
370
25
100
AcDbLine
 10
2019.7582121710559
 20
2559.4584562496129
 30
0
 11
2019.7582121710559
 21
2535.4584562496129
 31
0
  0
LINE
  5
5B
330
2B
100
AcDbEntity
  8
Marking
  6
Continuous
370
25
100
AcDbLine
 10
2069.7582121710561
 20
2535.4584562496129
 30
0
 11
2069.7582121710561
 21
2559.4584562496129
 31
0
  0
ARC
  5
5C
330
2B
100
AcDbEntity
  8
Marking
  6
Continuous
370
25
100
AcDbCircle
 10
2582.2582121710561
 20
1342.4584562496129
 30
0
 40
4.9999999999999432
100
AcDbArc
 50
90
 51
180
  0
ARC
  5
5D
330
2B
100
AcDbEntity
  8
Marking
  6
Continuous
370
25
100
AcDbCircle
 10
2623.2582121710561
 20
1342.4584562496129
 30
0
 40
5
100
AcDbArc
 50
0
 51
90
  0
ARC
  5
5E
330
2B
100
AcDbEntity
  8
Marking
  6
Continuous
370
25
100
AcDbCircle
 10
2024.2582121710559
 20
1342.4584562496129
 30
0
 40
4.9999999999998863
100
AcDbArc
 50
90
 51
180
  0
ARC
  5
5F
330
2B
100
AcDbEntity
  8
Marking
  6
Continuous
370
25
100
AcDbCircle
 10
2065.2582121710561
 20
1342.4584562496129
 30
0
 40
5
100
AcDbArc
 50
0
 51
90
  0
ARC
  5
60
330
2B
100
AcDbEntity
  8
Marking
  6
Continuous
370
25
100
AcDbCircle
 10
2622.7582121710561
 20
2535.4584562496129
 30
0
 40
4.9999999999998863
100
AcDbArc
 50
270
 51
0
  0
ARC
  5
61
330
2B
100
AcDbEntity
  8
Marking
  6
Continuous
370
25
100
AcDbCircle
 10
2582.7582121710561
 20
2535.4584562496129
 30
0
 40
4.9999999999999432
100
AcDbArc
 50
180
 51
270
  0
ARC
  5
62
330
2B
100
AcDbEntity
  8
Marking
  6
Continuous
370
25
100
AcDbCircle
 10
2024.7582121710559
 20
2535.4584562496129
 30
0
 40
4.9999999999999432
100
AcDbArc
 50
180
 51
270
  0
ARC
  5
63
330
2B
100
AcDbEntity
  8
Marking
  6
Continuous
370
25
100
AcDbCircle
 10
2064.7582121710561
 20
2535.4584562496129
 30
0
 40
4.9999999999998863
100
AcDbArc
 50
270
 51
0
  0
LINE
  5
64
330
2B
100
AcDbEntity
  8
Marking
  6
Continuous
370
25
100
AcDbLine
 10
1639.9034342102559
 20
2559.4584562496129
 30
0
 11
1639.9034342102559
 21
2448.9584562496129
 31
0
  0
LINE
  5
65
330
2B
100
AcDbEntity
  8
Marking
  6
Continuous
370
25
100
AcDbLine
 10
1741.9034342102559
 20
2559.4584562496129
 30
0
 11
1741.9034342102559
 21
2448.9584562496129
 31
0
  0
LINE
  5
66
330
2B
100
AcDbEntity
  8
Marking
  6
Continuous
370
25
100
AcDbLine
 10
1642.9034342102559
 20
2445.9584562496129
 30
0
 11
1738.9034342102559
 21
2445.9584562496129
 31
0
  0
ARC
  5
67
330
2B
100
AcDbEntity
  8
Marking
  6
Continuous
370
25
100
AcDbCircle
 10
1642.9034342102559
 20
2448.9584562496129
 30
0
 40
3
100
AcDbArc
 50
180
 51
270
  0
ARC
  5
68
330
2B
100
AcDbEntity
  8
Marking
  6
Continuous
370
25
100
AcDbCircle
 10
1738.9034342102559
 20
2448.9584562496129
 30
0
 40
3
100
AcDbArc
 50
270
 51
5.09E-14
  0
LINE
  5
69
330
2B
100
AcDbEntity
  8
Marking
  6
Continuous
370
25
100
AcDbLine
 10
3007.6129901318559
 20
2559.4584562496129
 30
0
 11
3007.6129901318559
 21
2448.9584562496129
 31
0
  0
LINE
  5
6A
330
2B
100
AcDbEntity
  8
Marking
  6
Continuous
370
25
100
AcDbLine
 10
2905.6129901318559
 20
2559.4584562496129
 30
0
 11
2905.6129901318559
 21
2448.9584562496129
 31
0
  0
LINE
  5
6B
330
2B
100
AcDbEntity
  8
Marking
  6
Continuous
370
25
100
AcDbLine
 10
3004.6129901318559
 20
2445.9584562496129
 30
0
 11
2908.6129901318559
 21
2445.9584562496129
 31
0
  0
ARC
  5
6C
330
2B
100
AcDbEntity
  8
Marking
  6
Continuous
370
25
100
AcDbCircle
 10
3004.6129901318559
 20
2448.9584562496129
 30
0
 40
3
100
AcDbArc
 50
270
 51
0
  0
ARC
  5
6D
330
2B
100
AcDbEntity
  8
Marking
  6
Continuous
370
25
100
AcDbCircle
 10
2908.6129901318559
 20
2448.9584562496129
 30
0
 40
3
100
AcDbArc
 50
180
 51
270
  0
MTEXT
  5
6E
330
2B
100
AcDbEntity
  8
0
 62
6
100
AcDbMText
 10
1659.5065719682641
 20
3266.37349182742
 30
0
 11
1
 21
0
 31
0
 40
90
 41
3507.1756463301731
 71
1
 72
5
  1
{MARKING LINES ONLY}
  7
Standard
 73
1
1001
ACAD
1000
ACAD_MTEXT_DEFINED_HEIGHT_BEGIN
1070
46
1040
30
1000
ACAD_MTEXT_DEFINED_HEIGHT_END
  0
LINE
  5
6F
330
2B
100
AcDbEntity
  8
Marking
  6
Continuous
370
25
100
AcDbLine
 10
3111.9329901318561
 20
1361.658456249613
 30
0
 11
3111.9329901318561
 21
1371.658456249613
 31
0
  0
LINE
  5
70
330
2B
100
AcDbEntity
  8
Marking
  6
Continuous
370
25
100
AcDbLine
 10
3116.9329901318561
 20
1366.658456249613
 30
0
 11
3106.9329901318561
 21
1366.658456249613
 31
0
  0
LINE
  5
71
330
2B
100
AcDbEntity
  8
LaserCutting
  6
Continuous
370
25
100
AcDbLine
 10
3135.9706011514559
 20
2544.9584562496129
 30
0
 11
3149.4706011514559
 21
2544.9584562496129
 31
0
  0
CIRCLE
  5
72
330
2B
100
AcDbEntity
  8
LaserCutting
  6
Continuous
370
25
100
AcDbCircle
 10
3148.020601151457
 20
2510.4584562496129
 30
0
 40
2.5800000000000409
  0
CIRCLE
  5
73
330
2B
100
AcDbEntity
  8
LaserCutting
  6
Continuous
370
25
100
AcDbCircle
 10
3148.020601151457
 20
1977.0584562496131
 30
0
 40
2.5800000000000409
  0
CIRCLE
  5
74
330
2B
100
AcDbEntity
  8
LaserCutting
  6
Continuous
370
25
100
AcDbCircle
 10
3148.020601151457
 20
1367.4584562496129
 30
0
 40
2.579999999999814
  0
ENDSEC
  0
SECTION
  2
OBJECTS
  0
DICTIONARY
  5
C
330
0
100
AcDbDictionary
280
0
281
1
  3
ACAD_GROUP
350
D
  3
ACAD_LAYOUT
350
1A
  3
ACAD_MATERIAL
350
A8
  3
ACAD_MLEADERSTYLE
350
A9
  3
ACAD_MLINESTYLE
350
17
  3
ACAD_PLOTSETTINGS
350
19
  3
ACAD_PLOTSTYLENAME
350
E
  3
ACAD_SCALELIST
350
AB
  3
ACAD_TABLESTYLE
350
BD
  3
ACAD_VISUALSTYLE
350
BF
  3
AcDbVariableDictionary
350
C0
  3
APPDATA
350
C9
  3
DWGPROPS
350
CA
  3
PRINTCONFIG
350
CB
  3
ACAD_COLOR
350
CC
  3
ACAD_FIELDLIST
350
CD
  3
ACAD_IMAGE_DICT
350
CE
  3
ACDB_RECOMPOSE_DATA
350
CF
  0
DICTIONARY
  5
2C
330
2B
100
AcDbDictionary
280
1
281
1
  3
DIM_BOUNDING_BOXES_V1
360
2D
  0
DICTIONARY
  5
D
102
{ACAD_REACTORS
330
C
102
}
330
C
100
AcDbDictionary
280
0
281
1
  0
DICTIONARY
  5
1A
102
{ACAD_REACTORS
330
C
102
}
330
C
100
AcDbDictionary
280
0
281
1
  3
Layout1
350
1E
  3
Layout2
350
A7
  3
Model
350
22
  0
DICTIONARY
  5
A8
102
{ACAD_REACTORS
330
C
102
}
330
C
100
AcDbDictionary
280
0
281
1
  0
DICTIONARY
  5
A9
102
{ACAD_REACTORS
330
C
102
}
330
C
100
AcDbDictionary
280
0
281
1
  0
DICTIONARY
  5
17
102
{ACAD_REACTORS
330
C
102
}
330
C
100
AcDbDictionary
280
0
281
1
  3
Standard
350
AA
  0
DICTIONARY
  5
19
102
{ACAD_REACTORS
330
C
102
}
330
C
100
AcDbDictionary
280
0
281
1
  0
ACDBDICTIONARYWDFLT
  5
E
102
{ACAD_REACTORS
330
C
102
}
330
C
100
AcDbDictionary
280
0
281
1
  3
Normal
350
F
100
AcDbDictionaryWithDefault
340
F
  0
ACDBPLACEHOLDER
  5
F
102
{ACAD_REACTORS
330
E
102
}
330
E
  0
DICTIONARY
  5
AB
102
{ACAD_REACTORS
330
C
102
}
330
C
100
AcDbDictionary
280
0
281
1
  0
DICTIONARY
  5
BD
102
{ACAD_REACTORS
330
C
102
}
330
C
100
AcDbDictionary
280
0
281
1
  0
DICTIONARY
  5
BF
102
{ACAD_REACTORS
330
C
102
}
330
C
100
AcDbDictionary
280
0
281
1
  0
DICTIONARY
  5
C0
102
{ACAD_REACTORS
330
C
102
}
330
C
100
AcDbDictionary
280
0
281
1
  3
CANNOSCALE
350
C1
  3
CMLEADERSTYLE
350
C2
  3
CTABLESTYLE
350
C3
  3
DIMASSOC
350
C4
  3
HIDETEXT
350
C5
  3
MSLTSCALE
350
C6
  3
ANNOALLVISIBLE
350
C7
  3
ANNOTATIVEDWG
350
C8
  0
DICTIONARY
  5
C9
102
{ACAD_REACTORS
330
C
102
}
330
C
100
AcDbDictionary
280
0
281
1
  0
XRECORD
  5
CA
102
{ACAD_REACTORS
330
C
102
}
330
C
100
AcDbXrecord
280
1
  1
DWGPROPS COOKIE
  2

  3

  4

  6

  7

  8
ADMIN
  9

300
=
301
=
302
=
303
=
304
=
305
=
306
=
307
=
308
=
309
=
 40
0
 41
2460363.509061377
 42
2460367.3649368519
  1

 90
0
  0
DICTIONARYVAR
  5
CB
102
{ACAD_REACTORS
330
C
102
}
330
C
100
DictionaryVariables
280
0
  1
0
  0
DICTIONARY
  5
CC
102
{ACAD_REACTORS
330
C
102
}
330
C
100
AcDbDictionary
280
0
281
1
  0
FIELDLIST
  5
CD
102
{ACAD_REACTORS
330
C
102
}
330
C
100
AcDbIdSet
100
AcDbFieldList
  0
DICTIONARY
  5
CE
102
{ACAD_REACTORS
330
C
102
}
330
C
100
AcDbDictionary
280
0
281
1
  0
XRECORD
  5
CF
102
{ACAD_REACTORS
330
C
102
}
330
C
100
AcDbXrecord
280
1
 90
1
330
BE
  0
DICTIONARY
  5
2D
102
{ACAD_REACTORS
330
2C
102
}
330
2C
100
AcDbDictionary
280
0
281
1
  0
LAYOUT
  5
1E
102
{ACAD_REACTORS
330
1A
102
}
330
1A
100
AcDbPlotSettings
  1

  2
none_device
  4

  6

 40
0
 41
0
 42
0
 43
0
 44
0
 45
0
 46
0
 47
0
 48
0
 49
0
140
0
141
0
142
1
143
1
 70
688
 72
1
 73
0
 74
5
  7

 75
16
 76
0
 77
0
 78
0
147
1
148
0
149
0
100
AcDbLayout
  1
Layout1
 70
1
 71
1
 10
0
 20
0
 11
420
 21
297
 12
0
 22
0
 32
0
 14
1E+20
 24
1E+20
 34
1E+20
 15
-1E+20
 25
-1E+20
 35
-1E+20
146
0
 13
0
 23
0
 33
0
 16
1
 26
0
 36
0
 17
0
 27
1
 37
0
 76
0
330
1B
  0
LAYOUT
  5
A7
102
{ACAD_REACTORS
330
1A
102
}
330
1A
100
AcDbPlotSettings
  1

  2
none_device
  4

  6

 40
0
 41
0
 42
0
 43
0
 44
0
 45
0
 46
0
 47
0
 48
0
 49
0
140
0
141
0
142
1
143
1
 70
688
 72
1
 73
0
 74
5
  7

 75
16
 76
0
 77
0
 78
0
147
1
148
0
149
0
100
AcDbLayout
  1
Layout2
 70
1
 71
2
 10
0
 20
0
 11
0
 21
0
 12
0
 22
0
 32
0
 14
0
 24
0
 34
0
 15
0
 25
0
 35
0
146
0
 13
0
 23
0
 33
0
 16
1
 26
0
 36
0
 17
0
 27
1
 37
0
 76
0
330
76
  0
LAYOUT
  5
22
102
{ACAD_REACTORS
330
1A
102
}
330
1A
100
AcDbPlotSettings
  1

  2
none_device
  4
ANSI_A_(11.00_x_8.50_Inches)
  6

 40
6.35
 41
19.05
 42
6.35000508
 43
19.05000254
 44
279.4
 45
215.9
 46
133.34999746
 47
88.89999873
 48
0
 49
0
140
0
141
0
142
0.0062735852
143
1
 70
1696
 72
0
 73
0
 74
0
  7

 75
0
 76
0
 77
0
 78
0
147
0.0179189148
148
-1300.4909072572
149
0
100
AcDbLayout
  1
Model
 70
1
 71
0
 10
0
 20
0
 11
420
 21
297
 12
0
 22
0
 32
0
 14
1455.8334342102551
 24
944.08714738830076
 34
0
 15
3395.056073327924
 25
3266.37349182742
 35
0
146
0
 13
0
 23
0
 33
0
 16
1
 26
0
 36
0
 17
0
 27
1
 37
0
 76
0
330
2B
331
A6
  0
MLINESTYLE
  5
AA
102
{ACAD_REACTORS
330
17
102
}
330
17
100
AcDbMlineStyle
  2
Standard
 70
0
  3

 51
90
 52
90
 71
2
 49
0.5
  6
ByLayer
 49
-0.5
  6
ByLayer
  0
DICTIONARYVAR
  5
C1
102
{ACAD_REACTORS
330
C0
102
}
330
C0
100
DictionaryVariables
280
0
  1
1:1
  0
DICTIONARYVAR
  5
C2
102
{ACAD_REACTORS
330
C0
102
}
330
C0
100
DictionaryVariables
280
0
  1
Standard
  0
DICTIONARYVAR
  5
C3
102
{ACAD_REACTORS
330
C0
102
}
330
C0
100
DictionaryVariables
280
0
  1
Standard
  0
DICTIONARYVAR
  5
C4
102
{ACAD_REACTORS
330
C0
102
}
330
C0
100
DictionaryVariables
280
0
  1
1
  0
DICTIONARYVAR
  5
C5
102
{ACAD_REACTORS
330
C0
102
}
330
C0
100
DictionaryVariables
280
0
  1
1
  0
DICTIONARYVAR
  5
C6
102
{ACAD_REACTORS
330
C0
102
}
330
C0
100
DictionaryVariables
280
0
  1
0
  0
DICTIONARYVAR
  5
C7
102
{ACAD_REACTORS
330
C0
102
}
330
C0
100
DictionaryVariables
280
0
  1
1
  0
DICTIONARYVAR
  5
C8
102
{ACAD_REACTORS
330
C0
102
}
330
C0
100
DictionaryVariables
280
0
  1
0
  0
ENDSEC
999
Created By CadLib version 4.0.36.72
999
CadLib website: www.woutware.com
  0
EOF

