  0
SECTION
  2
HEADER
  9
$ACADVER
  1
AC1015
  9
$ACADMAINTVER
 70
6
  9
$DWGCODEPAGE
  3
ansi_1252
  9
$INSBASE
 10
0
 20
0
 30
0
  9
$EXTMIN
 10
-479.7342385962628
 20
-445.42279513178983
 30
0
  9
$EXTMAX
 10
449.97281770281751
 20
237.99544192752163
 30
0
  9
$LIMMIN
 10
0
 20
0
  9
$LIMMAX
 10
420
 20
297
  9
$SNAPMODE
 70
0
  9
$SNAPUNIT
 10
1
 20
1
  9
$SNAPBASE
 10
0
 20
0
  9
$SNAPANG
 50
0
  9
$SNAPSTYLE
 70
0
  9
$SNAPISOPAIR
 70
0
  9
$ORTHOMODE
 70
0
  9
$REGENMODE
 70
1
  9
$FILLMODE
 70
1
  9
$QTEXTMODE
 70
0
  9
$MIRRTEXT
 70
1
  9
$LTSCALE
 40
1
  9
$OSMODE
 70
0
  9
$ATTMODE
 70
1
  9
$TEXTSIZE
 40
3.5
  9
$TRACEWID
 40
1
  9
$TEXTSTYLE
  7
Standard
  9
$CLAYER
  8
0
  9
$CELTYPE
  6
ByLayer
  9
$CECOLOR
 62
256
  9
$CELTSCALE
 40
1
  9
$DISPSILH
 70
0
  9
$DIMSCALE
 40
1
  9
$DIMASZ
 40
3.302
  9
$DIMEXO
 40
0
  9
$DIMDLI
 40
3.75
  9
$DIMRND
 40
0
  9
$DIMDLE
 40
0
  9
$DIMEXE
 40
1
  9
$DIMTP
 40
0
  9
$DIMTM
 40
0
  9
$DIMTXT
 40
3.5
  9
$DIMCEN
 40
2.5
  9
$DIMTSZ
 40
0
  9
$DIMTOL
 70
0
  9
$DIMLIM
 70
0
  9
$DIMTIH
 70
0
  9
$DIMTOH
 70
0
  9
$DIMSE1
 70
0
  9
$DIMSE2
 70
0
  9
$DIMTAD
 70
1
  9
$DIMZIN
 70
1
  9
$DIMBLK
  1

  9
$DIMASO
 70
1
  9
$DIMSHO
 70
1
  9
$DIMPOST
  1

  9
$DIMAPOST
  1

  9
$DIMALT
 70
0
  9
$DIMALTD
 70
3
  9
$DIMALTF
 40
0.0393700787
  9
$DIMLFAC
 40
1
  9
$DIMTOFL
 70
1
  9
$DIMTVP
 40
0
  9
$DIMTIX
 70
0
  9
$DIMSOXD
 70
0
  9
$DIMSAH
 70
0
  9
$DIMBLK1
  1

  9
$DIMBLK2
  1

  9
$DIMSTYLE
  2
ISO-25
  9
$DIMCLRD
 70
0
  9
$DIMCLRE
 70
0
  9
$DIMCLRT
 70
0
  9
$DIMTFAC
 40
1
  9
$DIMGAP
 40
1.524
  9
$DIMJUST
 70
0
  9
$DIMSD1
 70
0
  9
$DIMSD2
 70
0
  9
$DIMTOLJ
 70
0
  9
$DIMTZIN
 70
1
  9
$DIMALTZ
 70
0
  9
$DIMALTTZ
 70
0
  9
$DIMUPT
 70
0
  9
$DIMDEC
 70
2
  9
$DIMTDEC
 70
2
  9
$DIMALTU
 70
2
  9
$DIMALTTD
 70
3
  9
$DIMTXSTY
  7
Standard
  9
$DIMAUNIT
 70
0
  9
$DIMADEC
 70
2
  9
$DIMALTRND
 40
0
  9
$DIMAZIN
 70
0
  9
$DIMDSEP
 70
44
  9
$DIMATFIT
 70
3
  9
$DIMFRAC
 70
0
  9
$DIMLDRBLK
  1

  9
$DIMLUNIT
 70
2
  9
$DIMLWD
 70
-2
  9
$DIMLWE
 70
-2
  9
$LUNITS
 70
2
  9
$LUPREC
 70
6
  9
$SKETCHINC
 40
1
  9
$FILLETRAD
 40
0
  9
$AUNITS
 70
0
  9
$AUPREC
 70
2
  9
$MENU
  1
.
  9
$ELEVATION
 40
0
  9
$PELEVATION
 40
0
  9
$THICKNESS
 40
0
  9
$LIMCHECK
 70
0
  9
$CHAMFERA
 40
0
  9
$CHAMFERB
 40
0
  9
$CHAMFERC
 40
0
  9
$CHAMFERD
 40
0
  9
$SKPOLY
 70
0
  9
$TDCREATE
 40
2460363.7545808335
  9
$TDUCREATE
 40
2460363.5254141665
  9
$TDUPDATE
 40
2460364.5744551159
  9
$TDUUPDATE
 40
2460364.345288449
  9
$TDINDWG
 40
0.0021719328703703705
  9
$TDUSRTIMER
 40
0.00037288194444444445
  9
$USRTIMER
 70
1
  9
$ANGBASE
 50
0
  9
$ANGDIR
 70
0
  9
$PDMODE
 70
2
  9
$PDSIZE
 40
0
  9
$PLINEWID
 40
0
  9
$SPLFRAME
 70
0
  9
$SPLINETYPE
 70
6
  9
$SPLINESEGS
 70
8
  9
$HANDSEED
  5
A3
  9
$SURFTAB1
 70
6
  9
$SURFTAB2
 70
6
  9
$SURFTYPE
 70
6
  9
$SURFU
 70
6
  9
$SURFV
 70
6
  9
$UCSORG
 10
0
 20
0
 30
0
  9
$UCSXDIR
 10
1
 20
0
 30
0
  9
$UCSYDIR
 10
0
 20
1
 30
0
  9
$UCSORTHOREF
  2

  9
$UCSORTHOVIEW
 70
0
  9
$UCSORGTOP
 10
0
 20
0
 30
0
  9
$UCSORGBOTTOM
 10
0
 20
0
 30
0
  9
$UCSORGLEFT
 10
0
 20
0
 30
0
  9
$UCSORGRIGHT
 10
0
 20
0
 30
0
  9
$UCSORGFRONT
 10
0
 20
0
 30
0
  9
$UCSORGBACK
 10
0
 20
0
 30
0
  9
$PUCSORG
 10
0
 20
0
 30
0
  9
$PUCSXDIR
 10
1
 20
0
 30
0
  9
$PUCSYDIR
 10
0
 20
1
 30
0
  9
$PUCSORTHOREF
  2

  9
$PUCSORTHOVIEW
 70
0
  9
$PUCSORGTOP
 10
0
 20
0
 30
0
  9
$PUCSORGBOTTOM
 10
0
 20
0
 30
0
  9
$PUCSORGLEFT
 10
0
 20
0
 30
0
  9
$PUCSORGRIGHT
 10
0
 20
0
 30
0
  9
$PUCSORGFRONT
 10
0
 20
0
 30
0
  9
$PUCSORGBACK
 10
0
 20
0
 30
0
  9
$USERI1
 70
0
  9
$USERI2
 70
0
  9
$USERI3
 70
0
  9
$USERI4
 70
0
  9
$USERI5
 70
0
  9
$USERR1
 40
0
  9
$USERR2
 40
0
  9
$USERR3
 40
0
  9
$USERR4
 40
0
  9
$USERR5
 40
0
  9
$WORLDVIEW
 70
1
  9
$SHADEDGE
 70
3
  9
$SHADEDIF
 70
70
  9
$TILEMODE
 70
1
  9
$MAXACTVP
 70
64
  9
$PINSBASE
 10
0
 20
0
 30
0
  9
$PLIMCHECK
 70
0
  9
$PEXTMIN
 10
1E+20
 20
1E+20
 30
1E+20
  9
$PEXTMAX
 10
-1E+20
 20
-1E+20
 30
-1E+20
  9
$PLIMMAX
 10
0
 20
0
  9
$PLIMMIN
 10
0
 20
0
  9
$UNITMODE
 70
0
  9
$VISRETAIN
 70
1
  9
$PLINEGEN
 70
0
  9
$PSLTSCALE
 70
1
  9
$TREEDEPTH
 70
3020
  9
$CMLSTYLE
  2
STANDARD
  9
$CMLJUST
 70
0
  9
$CMLSCALE
 40
20
  9
$PROXYGRAPHICS
 70
1
  9
$MEASUREMENT
 70
1
  9
$CELWEIGHT
370
-1
  9
$ENDCAPS
280
0
  9
$JOINSTYLE
280
0
  9
$LWDISPLAY
290
1
  9
$INSUNITS
 70
4
  9
$HYPERLINKBASE
  1

  9
$XEDIT
290
1
  9
$CEPSNTYPE
380
0
  9
$PSTYLEMODE
290
1
  9
$FINGERPRINTGUID
  2
{09ee5f55-434b-4b20-8817-5f9ed464c583}
  9
$VERSIONGUID
  2
{FAEB1C32-E019-11D5-929B-00C0DF256EC4}
  9
$EXTNAMES
290
1
  9
$PSVPSCALE
 40
0
  9
$CSHADOW
280
0
  9
$SHADOWPLANELOCATION
 40
0
  9
$STYLESHEET
  1

  9
$OLESTARTUP
290
     0
  0
ENDSEC
  0
SECTION
  2
CLASSES
  0
CLASS
  1
ACDBDICTIONARYWDFLT
  2
AcDbDictionaryWithDefault
  3
ObjectDBX Classes
 90
0
280
0
281
0
  0
CLASS
  1
VISUALSTYLE
  2
AcDbVisualStyle
  3
ObjectDBX Classes
 90
4095
280
0
281
0
  0
CLASS
  1
MATERIAL
  2
AcDbMaterial
  3
ObjectDBX Classes
 90
1153
280
0
281
0
  0
CLASS
  1
SCALE
  2
AcDbScale
  3
ObjectDBX Classes
 90
1153
280
0
281
0
  0
CLASS
  1
TABLESTYLE
  2
AcDbTableStyle
  3
ObjectDBX Classes
 90
4095
280
0
281
0
  0
CLASS
  1
MLEADERSTYLE
  2
AcDbMLeaderStyle
  3
ACDB_MLEADERSTYLE_CLASS
 90
4095
280
0
281
0
  0
CLASS
  1
SUN
  2
AcDbSun
  3
SCENEOE
 90
1153
280
0
281
0
  0
CLASS
  1
ACDBPLACEHOLDER
  2
AcDbPlaceHolder
  3
ObjectDBX Classes
 90
0
280
0
281
0
  0
CLASS
  1
LAYOUT
  2
AcDbLayout
  3
ObjectDBX Classes
 90
0
280
0
281
0
  0
CLASS
  1
DICTIONARYVAR
  2
AcDbDictionaryVar
  3
ObjectDBX Classes
 90
0
280
0
281
0
  0
CLASS
  1
DIMASSOC
  2
AcDbDimAssoc
  3
"AcDbDimAssoc|Product Desc:     AcDim ARX App For Dimension|Company:          Autodesk, Inc.|WEB Address:      www.autodesk.com"
 90
0
280
0
281
0
  0
CLASS
  1
BREAKDATA
  2
AcDbBreakData
  3
ObjectDBX Classes
 90
1024
280
0
281
0
  0
CLASS
  1
RASTERVARIABLES
  2
AcDbRasterVariables
  3
ISM
 90
0
280
0
281
0
  0
CLASS
  1
IMAGEDEF
  2
AcDbRasterImageDef
  3
ISM
 90
0
280
0
281
0
  0
CLASS
  1
IMAGEDEF_REACTOR
  2
AcDbRasterImageDefReactor
  3
ISM
 90
1
280
0
281
0
  0
CLASS
  1
IMAGE
  2
AcDbRasterImage
  3
ISM
 90
127
280
0
281
1
  0
CLASS
  1
ACAD_EVALUATION_GRAPH
  2
AcDbEvalGraph
  3
ObjectDBX Classes
 90
1153
280
0
281
0
  0
CLASS
  1
BLOCKPOINTPARAMETER
  2
AcDbBlockPointParameter
  3
ObjectDBX Classes
 90
1153
280
0
281
0
  0
CLASS
  1
BLOCKBASEPOINTPARAMETER
  2
AcDbBlockBasepointParameter
  3
ObjectDBX Classes
 90
1153
280
0
281
0
  0
CLASS
  1
BLOCKLOOKUPPARAMETER
  2
AcDbBlockLookupParameter
  3
ObjectDBX Classes
 90
1153
280
0
281
0
  0
CLASS
  1
BLOCKVISIBILITYPARAMETER
  2
AcDbBlockVisibilityParameter
  3
ObjectDBX Classes
 90
1153
280
0
281
0
  0
CLASS
  1
BLOCKPROPERTIESTABLE
  2
AcDbBlockPropertiesTable
  3
ObjectDBX Classes
 90
1153
280
0
281
0
  0
CLASS
  1
BLOCKPOLARPARAMETER
  2
AcDbBlockPolarParameter
  3
ObjectDBX Classes
 90
1153
280
0
281
0
  0
CLASS
  1
BLOCKROTATIONPARAMETER
  2
AcDbBlockRotationParameter
  3
ObjectDBX Classes
 90
1153
280
0
281
0
  0
CLASS
  1
BLOCKLINEARPARAMETER
  2
AcDbBlockLinearParameter
  3
ObjectDBX Classes
 90
1153
280
0
281
0
  0
CLASS
  1
BLOCKXYPARAMETER
  2
AcDbBlockXYParameter
  3
ObjectDBX Classes
 90
1153
280
0
281
0
  0
CLASS
  1
BLOCKFLIPPARAMETER
  2
AcDbBlockFlipParameter
  3
ObjectDBX Classes
 90
1153
280
0
281
0
  0
CLASS
  1
BLOCKALIGNMENTPARAMETER
  2
AcDbBlockAlignmentParameter
  3
ObjectDBX Classes
 90
1153
280
0
281
0
  0
CLASS
  1
BLOCKROTATEACTION
  2
AcDbBlockRotateAction
  3
ObjectDBX Classes
 90
1153
280
0
281
0
  0
CLASS
  1
BLOCKSCALEACTION
  2
AcDbBlockScaleAction
  3
ObjectDBX Classes
 90
1153
280
0
281
0
  0
CLASS
  1
BLOCKARRAYACTION
  2
AcDbBlockArrayAction
  3
ObjectDBX Classes
 90
1153
280
0
281
0
  0
CLASS
  1
BLOCKFLIPACTION
  2
AcDbBlockFlipAction
  3
ObjectDBX Classes
 90
1153
280
0
281
0
  0
CLASS
  1
BLOCKLOOKUPACTION
  2
AcDbBlockLookupAction
  3
ObjectDBX Classes
 90
1153
280
0
281
0
  0
CLASS
  1
BLOCKMOVEACTION
  2
AcDbBlockMoveAction
  3
ObjectDBX Classes
 90
1153
280
0
281
0
  0
CLASS
  1
BLOCKPOLARSTRETCHACTION
  2
AcDbBlockPolarStretchAction
  3
ObjectDBX Classes
 90
1153
280
0
281
0
  0
CLASS
  1
BLOCKSTRETCHACTION
  2
AcDbBlockStretchAction
  3
ObjectDBX Classes
 90
1153
280
0
281
0
  0
CLASS
  1
BLOCKALIGNMENTGRIP
  2
AcDbBlockAlignmentGrip
  3
ObjectDBX Classes
 90
1153
280
0
281
0
  0
CLASS
  1
BLOCKFLIPGRIP
  2
AcDbBlockFlipGrip
  3
ObjectDBX Classes
 90
1153
280
0
281
0
  0
CLASS
  1
ACDB_BLOCKREPRESENTATION_DATA
  2
AcDbBlockRepresentationData
  3
ObjectDBX Classes
 90
1153
280
0
281
0
  0
CLASS
  1
ACDB_DYNAMICBLOCKPURGEPREVENTER_VERSION
  2
AcDbDynamicBlockPurgePreventer
  3
ObjectDBX Classes
 90
1153
280
0
281
0
  0
CLASS
  1
BLOCKLINEARGRIP
  2
AcDbBlockLinearGrip
  3
ObjectDBX Classes
 90
1153
280
0
281
0
  0
CLASS
  1
BLOCKLOOKUPGRIP
  2
AcDbBlockLookupGrip
  3
ObjectDBX Classes
 90
1153
280
0
281
0
  0
CLASS
  1
BLOCKPOLARGRIP
  2
AcDbBlockPolarGrip
  3
ObjectDBX Classes
 90
1153
280
0
281
0
  0
CLASS
  1
BLOCKPROPERTIESTABLEGRIP
  2
AcDbBlockPropertiesTableGrip
  3
ObjectDBX Classes
 90
1153
280
0
281
0
  0
CLASS
  1
BLOCKROTATIONGRIP
  2
AcDbBlockRotationGrip
  3
ObjectDBX Classes
 90
1153
280
0
281
0
  0
CLASS
  1
BLOCKVISIBILITYGRIP
  2
AcDbBlockVisibilityGrip
  3
ObjectDBX Classes
 90
1153
280
0
281
0
  0
CLASS
  1
BLOCKXYGRIP
  2
AcDbBlockXYGrip
  3
ObjectDBX Classes
 90
1153
280
0
281
0
  0
CLASS
  1
BLOCKGRIPLOCATIONCOMPONENT
  2
AcDbBlockGripExpr
  3
ObjectDBX Classes
 90
1153
280
0
281
0
  0
CLASS
  1
ACDB_DYNAMICBLOCKPROXYNODE
  2
AcDbDynamicBlockProxyNode
  3
ObjectDBX Classes
 90
1153
280
0
281
0
  0
ENDSEC
  0
SECTION
  2
TABLES
  0
TABLE
  2
VPORT
  5
8
330
0
100
AcDbSymbolTable
 70
1
  0
VPORT
  5
74
330
8
100
AcDbSymbolTableRecord
100
AcDbViewportTableRecord
  2
*Active
 70
0
 10
0
 20
0
 11
1
 21
1
 12
48.167908625658413
 22
-192.74933221767981
 13
0
 23
0
 14
10
 24
10
 15
10
 25
10
 16
0
 26
0
 36
1
 17
0
 27
0
 37
0
 40
1852.282848972832
 41
1.91578947368421
 42
50
 43
0
 44
0
 50
0
 51
0
 71
16
 72
100
 73
1
 74
0
 75
0
 76
0
 77
0
 78
0
281
0
 65
1
110
0
120
0
130
0
111
1
121
0
131
0
112
0
122
1
132
0
 79
0
146
0
  0
ENDTAB
  0
TABLE
  2
LTYPE
  5
5
100
AcDbSymbolTable
 70
8
  0
LTYPE
  5
14
330
5
100
AcDbSymbolTableRecord
100
AcDbLinetypeTableRecord
  2
ByBlock
  3

 70
0
 72
65
 73
0
 40
0
  0
LTYPE
  5
15
330
5
100
AcDbSymbolTableRecord
100
AcDbLinetypeTableRecord
  2
ByLayer
  3

 70
0
 72
65
 73
0
 40
0
  0
LTYPE
  5
16
330
5
100
AcDbSymbolTableRecord
100
AcDbLinetypeTableRecord
  2
Continuous
  3
Solid line
 70
0
 72
65
 73
0
 40
0
  0
LTYPE
  5
6D
330
5
100
AcDbSymbolTableRecord
100
AcDbLinetypeTableRecord
  2
HIDDEN
  3
Hidden __ __ __ __ __ __ __ __ __ __ __ __ __ __
 70
0
 72
65
 73
2
 40
1.905
 49
1.27
 74
0
 49
-0.635
 74
0
  0
LTYPE
  5
6E
330
5
100
AcDbSymbolTableRecord
100
AcDbLinetypeTableRecord
  2
PHANTOM
  3
Phantom ______  __  __  ______  __  __  ______
 70
0
 72
65
 73
6
 40
12.699999999999998
 49
6.35
 74
0
 49
-1.27
 74
0
 49
1.27
 74
0
 49
-1.27
 74
0
 49
1.27
 74
0
 49
-1.27
 74
0
  0
LTYPE
  5
6F
330
5
100
AcDbSymbolTableRecord
100
AcDbLinetypeTableRecord
  2
CENTER
  3
Center ____ _ ____ _ ____ _ ____ _ ____ _ ____
 70
0
 72
65
 73
4
 40
10.159999999999998
 49
6.35
 74
0
 49
-1.27
 74
0
 49
1.27
 74
0
 49
-1.27
 74
0
  0
LTYPE
  5
70
330
5
100
AcDbSymbolTableRecord
100
AcDbLinetypeTableRecord
  2
CENTERX2
  3
Center (2x) ________  __  ________  __  _____
 70
0
 72
65
 73
4
 40
20.319999999999997
 49
12.7
 74
0
 49
-2.54
 74
0
 49
2.54
 74
0
 49
-2.54
 74
0
  0
LTYPE
  5
71
330
5
100
AcDbSymbolTableRecord
100
AcDbLinetypeTableRecord
  2
DOT2
  3
Dot (.5x) ........................................
 70
0
 72
65
 73
2
 40
0.635
 49
0
 74
0
 49
-0.635
 74
0
  0
ENDTAB
  0
TABLE
  2
LAYER
  5
2
100
AcDbSymbolTable
 70
5
  0
LAYER
  5
10
330
2
100
AcDbSymbolTableRecord
100
AcDbLayerTableRecord
 70
0
  2
0
 62
7
  6
Continuous
370
-3
390
F
  0
LAYER
  5
27
330
2
100
AcDbSymbolTableRecord
100
AcDbLayerTableRecord
 70
0
  2
Defpoints
 62
151
  6
Continuous
290
0
370
-3
390
F
  0
LAYER
  5
28
330
2
100
AcDbSymbolTableRecord
100
AcDbLayerTableRecord
 70
64
  2
LaserCutting
 62
3
  6
Continuous
370
-3
390
F
  0
LAYER
  5
29
330
2
100
AcDbSymbolTableRecord
100
AcDbLayerTableRecord
 70
64
  2
Marking
 62
6
  6
Continuous
370
-3
390
F
  0
LAYER
  5
2A
330
2
100
AcDbSymbolTableRecord
100
AcDbLayerTableRecord
 70
64
  2
Dimention
 62
9
  6
Continuous
370
-3
390
F
  0
ENDTAB
  0
TABLE
  2
STYLE
  5
3
100
AcDbSymbolTable
 70
1
  0
STYLE
  5
11
330
3
100
AcDbSymbolTableRecord
100
AcDbTextStyleTableRecord
  2
Standard
 70
0
 40
0
 41
1
 50
0
 71
0
 42
3.5
  3
txt
  0
ENDTAB
  0
TABLE
  2
VIEW
  5
6
100
AcDbSymbolTable
 70
0
  0
ENDTAB
  0
TABLE
  2
UCS
  5
7
100
AcDbSymbolTable
 70
0
  0
ENDTAB
  0
TABLE
  2
APPID
  5
9
330
0
100
AcDbSymbolTable
 70
5
  0
APPID
  5
12
330
0
100
AcDbSymbolTableRecord
100
AcDbRegAppTableRecord
  2
ACAD
 70
0
  0
APPID
  5
9E
330
0
100
AcDbSymbolTableRecord
100
AcDbRegAppTableRecord
  2
ENABLE_CUSTOM_SPLIT
 70
0
  0
APPID
  5
9F
330
0
100
AcDbSymbolTableRecord
100
AcDbRegAppTableRecord
  2
ACAD_DSTYLE_DIMRADIAL_EXTENSION
 70
0
  0
APPID
  5
A0
330
0
100
AcDbSymbolTableRecord
100
AcDbRegAppTableRecord
  2
ACAD_MLEADERVER
 70
0
  0
APPID
  5
A1
330
0
100
AcDbSymbolTableRecord
100
AcDbRegAppTableRecord
  2
AcadAnnotative
 70
64
  0
ENDTAB
  0
TABLE
  2
DIMSTYLE
  5
A
330
0
100
AcDbSymbolTable
 70
2
100
AcDbDimStyleTable
 71
0
  0
DIMSTYLE
105
72
102
{ACAD_REACTORS
330
D3
330
E5
102
}
330
A
100
AcDbSymbolTableRecord
100
AcDbDimStyleTableRecord
  2
ISO-25
 70
0
  3

  4

 40
1
 41
2.5
 42
0.625
 43
3.75
 44
1.25
 45
0
 46
0
 47
0
 48
0
140
2.5
141
2.5
142
0
143
0.0393700787
144
1
145
0
146
1
147
0.625
148
0
 71
0
 72
0
 73
0
 74
0
 75
0
 76
0
 77
1
 78
8
 79
0
170
0
171
3
172
1
173
0
174
0
175
0
179
0
271
2
272
2
273
2
274
3
275
0
276
0
277
2
278
44
279
0
280
0
281
0
282
0
283
0
284
8
285
0
286
0
288
0
289
0
340
11
371
-2
372
-2
  0
DIMSTYLE
105
73
330
A
100
AcDbSymbolTableRecord
100
AcDbDimStyleTableRecord
  2
Standard
 70
64
  3

  4

 40
1
 41
0.18
 42
0.0625
 43
0.38
 44
0.18
 45
0
 46
0
 47
0
 48
0
140
0.18
141
0.09
142
0
143
1
144
1
145
0
146
1
147
0.09
148
0
 71
0
 72
0
 73
1
 74
1
 75
0
 76
0
 77
0
 78
0
 79
0
170
0
171
2
172
0
173
0
174
0
175
0
179
0
271
4
272
4
273
2
274
0
275
0
276
0
277
2
278
46
279
0
280
0
281
0
282
0
283
1
284
0
285
0
286
0
288
0
289
0
340
11
371
-2
372
-2
  0
ENDTAB
  0
TABLE
  2
BLOCK_RECORD
  5
1
330
0
100
AcDbSymbolTable
 70
3
  0
BLOCK_RECORD
  5
2B
102
{ACAD_XDICTIONARY
360
2C
102
}
330
1
100
AcDbSymbolTableRecord
100
AcDbBlockTableRecord
  2
*Model_Space
340
22
  0
BLOCK_RECORD
  5
1B
330
1
100
AcDbSymbolTableRecord
100
AcDbBlockTableRecord
  2
*Paper_Space
340
1E
  0
BLOCK_RECORD
  5
50
330
1
100
AcDbSymbolTableRecord
100
AcDbBlockTableRecord
  2
*Paper_Space0
340
75
  0
BLOCK_RECORD
  5
53
330
1
100
AcDbSymbolTableRecord
100
AcDbBlockTableRecord
  2
*D1
  0
BLOCK_RECORD
  5
60
330
1
100
AcDbSymbolTableRecord
100
AcDbBlockTableRecord
  2
*D2
  0
ENDTAB
  0
ENDSEC
  0
SECTION
  2
BLOCKS
  0
BLOCK
  5
2E
330
2B
100
AcDbEntity
  8
0
100
AcDbBlockBegin
  2
*Model_Space
 70
0
 10
0
 20
0
 30
0
  3
*Model_Space
  0
ENDBLK
  5
4F
330
2B
100
AcDbEntity
  8
0
100
AcDbBlockEnd
  0
BLOCK
  5
1C
330
1B
100
AcDbEntity
  8
0
 67
1
100
AcDbBlockBegin
  2
*Paper_Space
 70
0
 10
0
 20
0
 30
0
  3
*Paper_Space
  0
ENDBLK
  5
1D
330
1B
100
AcDbEntity
  8
0
100
AcDbBlockEnd
  0
BLOCK
  5
51
330
50
100
AcDbEntity
  8
0
100
AcDbBlockBegin
  2
*Paper_Space0
 70
0
 10
0
 20
0
 30
0
  3
*Paper_Space0
  0
ENDBLK
  5
52
330
50
100
AcDbEntity
  8
0
100
AcDbBlockEnd
  0
BLOCK
  5
54
330
53
100
AcDbEntity
  8
0
100
AcDbBlockBegin
  2
*D1
 70
1
 10
0
 20
0
 30
0
  3
*D1
  0
LINE
  5
55
330
53
100
AcDbEntity
  8
0
 62
0
370
-2
100
AcDbLine
 10
449.97281770281751
 20
-173.54438044107911
 30
0
 11
449.97281770281751
 21
-268.19438044107909
 31
0
  0
LINE
  5
56
330
53
100
AcDbEntity
  8
0
 62
0
370
-2
100
AcDbLine
 10
-462.02718229718249
 20
-173.54438044107891
 30
0
 11
-462.02718229718249
 21
-268.194380441079
 31
0
  0
LINE
  5
57
330
53
100
AcDbEntity
  8
0
 62
0
370
-2
100
AcDbLine
 10
446.67081770281737
 20
-267.19438044107909
 30
0
 11
-458.72518229718253
 21
-267.194380441079
 31
0
  0
LINE
  5
58
330
53
100
AcDbEntity
  8
0
 62
0
370
-2
100
AcDbLine
 10
-458.72518229718253
 20
-267.194380441079
 30
0
 11
446.67081770281737
 21
-267.19438044107909
 31
0
  0
SOLID
  5
59
330
53
100
AcDbEntity
  8
0
 62
0
100
AcDbTrace
 10
446.67081770281737
 20
-267.74471377441239
 30
0
 11
446.67081770281737
 21
-266.64404710774568
 31
0
 12
449.97281770281751
 22
-267.19438044107909
 32
0
 13
449.97281770281751
 23
-267.19438044107909
 33
0
  0
SOLID
  5
5A
330
53
100
AcDbEntity
  8
0
 62
0
100
AcDbTrace
 10
-458.72518229718253
 20
-266.64404710774562
 30
0
 11
-458.72518229718253
 21
-267.74471377441228
 31
0
 12
-462.02718229718249
 22
-267.194380441079
 32
0
 13
-462.02718229718249
 23
-267.194380441079
 33
0
  0
MTEXT
  5
5B
330
53
100
AcDbEntity
  8
0
 62
0
100
AcDbMText
 10
-6.0271822971825477
 20
-263.62871377441229
 30
0
 11
1
 21
0
 31
0
 40
3.5
 41
0
 71
5
 72
1
  1
912,00
  7
Standard
 73
1
  0
POINT
  5
5C
330
53
100
AcDbEntity
  8
Defpoints
 62
0
100
AcDbPoint
 10
449.97281770281751
 20
-148.17839696832411
 30
0
 50
0
  0
POINT
  5
5D
330
53
100
AcDbEntity
  8
Defpoints
 62
0
100
AcDbPoint
 10
-462.02718229718249
 20
-148.17839696832391
 30
0
 50
0
  0
POINT
  5
5E
330
53
100
AcDbEntity
  8
Defpoints
 62
0
100
AcDbPoint
 10
-462.02718229718249
 20
-267.194380441079
 30
0
 50
0
  0
ENDBLK
  5
5F
330
53
100
AcDbEntity
  8
0
100
AcDbBlockEnd
  0
BLOCK
  5
61
330
60
100
AcDbEntity
  8
0
100
AcDbBlockBegin
  2
*D2
 70
1
 10
0
 20
0
 30
0
  3
*D2
  0
LINE
  5
62
330
60
100
AcDbEntity
  8
0
 62
0
370
-2
100
AcDbLine
 10
-460.02718229718249
 20
-175.54438044107891
 30
0
 11
-550.92718229718264
 21
-175.54438044107891
 31
0
  0
LINE
  5
63
330
60
100
AcDbEntity
  8
0
 62
0
370
-2
100
AcDbLine
 10
-429.62718229718251
 20
237.99544192752111
 30
0
 11
-550.92718229718253
 21
237.99544192752111
 31
0
  0
LINE
  5
64
330
60
100
AcDbEntity
  8
0
 62
0
370
-2
100
AcDbLine
 10
-549.92718229718264
 20
-172.242380441079
 30
0
 11
-549.92718229718264
 21
27.659864076554381
 31
0
  0
LINE
  5
65
330
60
100
AcDbEntity
  8
0
 62
0
370
-2
100
AcDbLine
 10
-549.92718229718253
 20
234.69344192752109
 30
0
 11
-549.92718229718253
 21
34.791197409887729
 31
0
  0
SOLID
  5
66
330
60
100
AcDbEntity
  8
0
 62
0
100
AcDbTrace
 10
-550.477515630516
 20
-172.242380441079
 30
0
 11
-549.37684896384928
 21
-172.242380441079
 31
0
 12
-549.92718229718264
 22
-175.54438044107891
 32
0
 13
-549.92718229718264
 23
-175.54438044107891
 33
0
  0
SOLID
  5
67
330
60
100
AcDbEntity
  8
0
 62
0
100
AcDbTrace
 10
-549.37684896384917
 20
234.69344192752109
 30
0
 11
-550.47751563051588
 21
234.69344192752109
 31
0
 12
-549.92718229718253
 22
237.99544192752111
 32
0
 13
-549.92718229718253
 23
237.99544192752111
 33
0
  0
MTEXT
  5
68
330
60
100
AcDbEntity
  8
0
 62
0
100
AcDbMText
 10
-549.92718229718253
 20
31.225530743221071
 30
0
 11
1
 21
0
 31
0
 40
3.5
 41
0
 71
5
 72
1
  1
413,54
  7
Standard
 73
1
  0
POINT
  5
69
330
60
100
AcDbEntity
  8
Defpoints
 62
0
100
AcDbPoint
 10
-427.0873396171196
 20
-175.54438044107891
 30
0
 50
0
  0
POINT
  5
6A
330
60
100
AcDbEntity
  8
Defpoints
 62
0
100
AcDbPoint
 10
-399.79053973752
 20
237.99544192752111
 30
0
 50
0
  0
POINT
  5
6B
330
60
100
AcDbEntity
  8
Defpoints
 62
0
100
AcDbPoint
 10
-549.92718229718253
 20
237.99544192752111
 30
0
 50
0
  0
ENDBLK
  5
6C
330
60
100
AcDbEntity
  8
0
100
AcDbBlockEnd
  0
ENDSEC
  0
SECTION
  2
ENTITIES
  0
CIRCLE
  5
2F
330
2B
100
AcDbEntity
  8
LaserCutting
  6
Continuous
370
25
100
AcDbCircle
 10
425.97281770281751
 20
154.45561955892089
 30
0
 40
10.049999999999949
  0
SPLINE
  5
30
330
2B
100
AcDbEntity
  8
LaserCutting
  6
Continuous
370
25
100
AcDbSpline
 70
8
 71
3
 72
40
 73
36
 42
1E-09
 43
1E-08
 40
0
 40
0
 40
0
 40
0
 40
0.25
 40
0.25
 40
0.375
 40
0.375
 40
0.4375
 40
0.4375
 40
0.46875
 40
0.46875
 40
0.484375
 40
0.484375
 40
0.4921875
 40
0.4921875
 40
0.5
 40
0.5
 40
0.625
 40
0.625
 40
0.6875
 40
0.6875
 40
0.71875
 40
0.71875
 40
0.734375
 40
0.734375
 40
0.75
 40
0.75
 40
0.8125
 40
0.8125
 40
0.84375
 40
0.84375
 40
0.859375
 40
0.859375
 40
0.875
 40
0.875
 40
1
 40
1
 40
1
 40
1
 10
-434.02718229718232
 20
207.96889368179279
 30
0
 10
-433.49995648269947
 20
208.1797834955832
 30
0
 10
-433.04899103408172
 20
208.364811234291
 30
0
 10
-432.48693340995248
 20
208.603559729729
 30
0
 10
-432.31864596004237
 20
208.676677042771
 30
0
 10
-432.09481242237649
 20
208.7766547341781
 30
0
 10
-432.02496751602109
 20
208.80836425162121
 30
0
 10
-431.92734956578778
 20
208.85350395824679
 30
0
 10
-431.89600181726013
 20
208.86814643219881
 30
0
 10
-431.85076754679352
 20
208.88950400074211
 30
0
 10
-431.835987348692
 20
208.89652216652581
 30
0
 10
-431.814263889621
 20
208.906897879605
 30
0
 10
-431.80709720961107
 20
208.91033119469881
 30
0
 10
-431.79291279561778
 20
208.91714731302079
 30
0
 10
-431.792754615372
 20
208.91721304719471
 30
0
 10
-431.55810676536157
 20
209.03068152514669
 30
0
 10
-431.359304931644
 20
209.13437522812069
 30
0
 10
-431.09416698344688
 20
209.28526554464031
 30
0
 10
-431.01129846777792
 20
209.33478727715649
 30
0
 10
-430.895261894869
 20
209.40790731644529
 30
0
 10
-430.85796073733178
 20
209.43208690296069
 30
0
 10
-430.80407555117478
 20
209.4680656428626
 30
0
 10
-430.78645824748048
 20
209.48001011618459
 30
0
 10
-430.75191249014182
 20
209.5038021828716
 30
0
 10
-430.74246166920778
 20
209.51032961324449
 30
0
 10
-430.62215336255451
 20
209.59592619513609
 30
0
 10
-430.53599370927333
 20
209.66381474314761
 30
0
 10
-430.42188471741349
 20
209.76476448891191
 30
0
 10
-430.38637013480388
 20
209.79826722479109
 30
0
 10
-430.33688088290512
 20
209.84830055954691
 30
0
 10
-430.32101490260823
 20
209.86494154295491
 30
0
 10
-430.29054381601941
 20
209.8981499200832
 30
0
 10
-430.27977363976362
 20
209.91018098533431
 30
0
 10
-430.119487245836
 20
210.09978333144539
 30
0
 10
-430.04184299473923
 20
210.2546717351959
 30
0
 10
-430.02718229718249
 20
210.4821678046647
 30
0
  0
SPLINE
  5
31
330
2B
100
AcDbEntity
  8
LaserCutting
  6
Continuous
370
25
100
AcDbSpline
 70
8
 71
3
 72
36
 73
32
 42
1E-09
 43
1E-08
 40
0
 40
0
 40
0
 40
0
 40
0.0625
 40
0.0625
 40
0.09375
 40
0.09375
 40
0.109375
 40
0.109375
 40
0.125
 40
0.125
 40
0.1875
 40
0.1875
 40
0.21875
 40
0.21875
 40
0.234375
 40
0.234375
 40
0.25
 40
0.25
 40
0.375
 40
0.375
 40
0.4375
 40
0.4375
 40
0.46875
 40
0.46875
 40
0.484375
 40
0.484375
 40
0.4921875
 40
0.4921875
 40
0.5
 40
0.5
 40
1
 40
1
 40
1
 40
1
 10
417.97281770281728
 20
210.48216780466461
 30
0
 10
417.98042090094248
 20
210.36418585447521
 30
0
 10
418.001237484616
 20
210.27223059503649
 30
0
 10
418.06094010391939
 20
210.14348192406621
 30
0
 10
418.084770558408
 20
210.1007612926509
 30
0
 10
418.12641061222172
 20
210.03697373389011
 30
0
 10
418.14127302550651
 20
210.01576011236361
 30
0
 10
418.17296264276968
 20
209.97343066543121
 30
0
 10
418.19362477678573
 20
209.94777851155411
 30
0
 10
418.26349812322348
 20
209.86512551718221
 30
0
 10
418.32948379241873
 20
209.79841440417869
 30
0
 10
418.44359278427851
 20
209.6974646584143
 30
0
 10
418.48415086290947
 20
209.66366756378321
 30
0
 10
418.54877060287288
 20
209.61275115277161
 30
0
 10
418.57094095319678
 20
209.59574222092351
 30
0
 10
418.61654252785019
 20
209.56165076753919
 30
0
 10
418.64745138489758
 20
209.5392480830057
 30
0
 10
418.796707642428
 20
209.43305570255791
 30
0
 10
418.95142307295163
 20
209.33556231685211
 30
0
 10
419.21656102114872
 20
209.18467200033271
 30
0
 10
419.31045113761633
 20
209.13360018849929
 30
0
 10
419.45955251292071
 20
209.05582991125911
 30
0
 10
419.51063067145577
 20
209.02971272559719
 30
0
 10
419.58931445940948
 20
208.990246307232
 30
0
 10
419.61588681375252
 20
208.97704239446469
 30
0
 10
419.65626198280478
 20
208.95716386534579
 30
0
 10
419.66980647874522
 20
208.9505255789781
 30
0
 10
419.69706768313841
 20
208.93722478625341
 30
0
 10
419.71764394533278
 20
208.92724521083949
 30
0
 10
420.168955908225
 20
208.70900463667229
 30
0
 10
420.91836607373062
 20
208.39067330942169
 30
0
 10
421.97281770281722
 20
207.96889368179271
 30
0
  0
LINE
  5
32
330
2B
100
AcDbEntity
  8
LaserCutting
  6
Continuous
370
25
100
AcDbLine
 10
-335.02718229718249
 20
-50.544380441078957
 30
0
 11
-119.02718229718251
 21
-50.544380441078992
 31
0
  0
LINE
  5
33
330
2B
100
AcDbEntity
  8
LaserCutting
  6
Continuous
370
25
100
AcDbLine
 10
-119.02718229718251
 20
-50.544380441078992
 30
0
 11
-119.02718229718251
 21
59.455619558921008
 31
0
  0
LINE
  5
34
330
2B
100
AcDbEntity
  8
LaserCutting
  6
Continuous
370
25
100
AcDbLine
 10
-119.02718229718251
 20
59.455619558921008
 30
0
 11
-335.02718229718249
 21
59.455619558921043
 31
0
  0
LINE
  5
35
330
2B
100
AcDbEntity
  8
LaserCutting
  6
Continuous
370
25
100
AcDbLine
 10
-335.02718229718249
 20
59.455619558921043
 30
0
 11
-335.02718229718249
 21
-50.544380441078957
 31
0
  0
LINE
  5
36
330
2B
100
AcDbEntity
  8
LaserCutting
  6
Continuous
370
25
100
AcDbLine
 10
106.97281770281749
 20
-50.544380441079007
 30
0
 11
322.97281770281751
 21
-50.544380441079042
 31
0
  0
LINE
  5
37
330
2B
100
AcDbEntity
  8
LaserCutting
  6
Continuous
370
25
100
AcDbLine
 10
322.97281770281751
 20
-50.544380441079042
 30
0
 11
322.97281770281751
 21
59.455619558920958
 31
0
  0
LINE
  5
38
330
2B
100
AcDbEntity
  8
LaserCutting
  6
Continuous
370
25
100
AcDbLine
 10
322.97281770281751
 20
59.455619558920958
 30
0
 11
106.97281770281749
 21
59.455619558920993
 31
0
  0
LINE
  5
39
330
2B
100
AcDbEntity
  8
LaserCutting
  6
Continuous
370
25
100
AcDbLine
 10
106.97281770281749
 20
59.455619558920993
 30
0
 11
106.97281770281749
 21
-50.544380441079007
 31
0
  0
LINE
  5
3A
330
2B
100
AcDbEntity
  8
LaserCutting
  6
Continuous
370
25
100
AcDbLine
 10
446.97281770281751
 20
182.9688936818209
 30
0
 11
447.97281770281751
 21
180.45561955892089
 31
0
  0
LINE
  5
3B
330
2B
100
AcDbEntity
  8
LaserCutting
  6
Continuous
370
25
100
AcDbLine
 10
449.97281770281751
 20
180.45561955892089
 30
0
 11
447.97281770281751
 21
180.45561955892089
 31
0
  0
LINE
  5
3C
330
2B
100
AcDbEntity
  8
LaserCutting
  6
Continuous
370
25
100
AcDbLine
 10
449.97281770281751
 20
-173.54438044107911
 30
0
 11
449.97281770281751
 21
180.45561955892089
 31
0
  0
LINE
  5
3D
330
2B
100
AcDbEntity
  8
LaserCutting
  6
Continuous
370
25
100
AcDbLine
 10
-460.02718229718249
 20
-175.54438044107891
 30
0
 11
447.97281770281751
 21
-175.54438044107911
 31
0
  0
LINE
  5
3E
330
2B
100
AcDbEntity
  8
LaserCutting
  6
Continuous
370
25
100
AcDbLine
 10
-462.02718229718249
 20
180.45561955892109
 30
0
 11
-462.02718229718249
 21
-173.54438044107891
 31
0
  0
LINE
  5
3F
330
2B
100
AcDbEntity
  8
LaserCutting
  6
Continuous
370
25
100
AcDbLine
 10
-460.02718229718249
 20
180.45561955892109
 30
0
 11
-462.02718229718249
 21
180.45561955892109
 31
0
  0
LINE
  5
40
330
2B
100
AcDbEntity
  8
LaserCutting
  6
Continuous
370
25
100
AcDbLine
 10
-460.02718229718249
 20
180.45561955892109
 30
0
 11
-459.02718229718249
 21
182.968893681821
 31
0
  0
LINE
  5
41
330
2B
100
AcDbEntity
  8
LaserCutting
  6
Continuous
370
25
100
AcDbLine
 10
-430.02718229718249
 20
226.4821678046211
 30
0
 11
-434.02718229718249
 21
228.99544192752111
 31
0
  0
LINE
  5
42
330
2B
100
AcDbEntity
  8
LaserCutting
  6
Continuous
370
25
100
AcDbLine
 10
-434.02718229718249
 20
228.99544192752111
 30
0
 11
-439.10241316508262
 21
234.070672795421
 31
0
  0
LINE
  5
43
330
2B
100
AcDbEntity
  8
LaserCutting
  6
Continuous
370
25
100
AcDbLine
 10
-429.62718229718251
 20
237.99544192752111
 30
0
 11
417.57281770281747
 21
237.99544192752089
 31
0
  0
LINE
  5
44
330
2B
100
AcDbEntity
  8
LaserCutting
  6
Continuous
370
25
100
AcDbLine
 10
421.97281770281751
 20
228.99544192752089
 30
0
 11
417.97281770281751
 21
226.482167804621
 31
0
  0
LINE
  5
45
330
2B
100
AcDbEntity
  8
LaserCutting
  6
Continuous
370
25
100
AcDbLine
 10
427.04804857071753
 20
234.0706727954209
 30
0
 11
421.97281770281751
 21
228.99544192752089
 31
0
  0
LINE
  5
46
330
2B
100
AcDbEntity
  8
LaserCutting
  6
Continuous
370
25
100
AcDbLine
 10
417.97281770281751
 20
226.482167804621
 30
0
 11
417.97281770281751
 21
210.482167804621
 31
0
  0
LINE
  5
47
330
2B
100
AcDbEntity
  8
LaserCutting
  6
Continuous
370
25
100
AcDbLine
 10
421.97281770281751
 20
207.9688936818209
 30
0
 11
446.97281770281751
 21
182.9688936818209
 31
0
  0
LINE
  5
48
330
2B
100
AcDbEntity
  8
LaserCutting
  6
Continuous
370
25
100
AcDbLine
 10
-430.02718229718249
 20
226.4821678046211
 30
0
 11
-430.02718229718249
 21
210.4821678046211
 31
0
  0
LINE
  5
49
330
2B
100
AcDbEntity
  8
LaserCutting
  6
Continuous
370
25
100
AcDbLine
 10
-459.02718229718249
 20
182.968893681821
 30
0
 11
-434.02718229718249
 21
207.968893681821
 31
0
  0
ARC
  5
4A
330
2B
100
AcDbEntity
  8
LaserCutting
  6
Continuous
370
25
100
AcDbCircle
 10
447.97281770281751
 20
-173.54438044107911
 30
0
 40
2
100
AcDbArc
 50
270
 51
0
  0
ARC
  5
4B
330
2B
100
AcDbEntity
  8
LaserCutting
  6
Continuous
370
25
100
AcDbCircle
 10
-460.02718229718249
 20
-173.54438044107891
 30
0
 40
2
100
AcDbArc
 50
180
 51
270
  0
ARC
  5
4C
330
2B
100
AcDbEntity
  8
LaserCutting
  6
Continuous
370
25
100
AcDbCircle
 10
-429.62718229718263
 20
224.59544192752111
 30
0
 40
13.400000000000521
100
AcDbArc
 50
89.999999999999758
 51
135
  0
ARC
  5
4D
330
2B
100
AcDbEntity
  8
LaserCutting
  6
Continuous
370
25
100
AcDbCircle
 10
417.57281770281747
 20
224.59544192752091
 30
0
 40
13.400000000000381
100
AcDbArc
 50
45
 51
89.999999999999758
  0
MTEXT
  5
4E
330
2B
100
AcDbEntity
  8
0
100
AcDbMText
 10
-479.73423870685258
 20
-362.04626656403377
 30
0
 11
1
 21
0
 31
0
 40
30
 41
918.25345356291041
 71
1
 72
5
  1
{MATERIAL: SS316L, 3MM\PQTY: 3NOS}
  7
Standard
 73
1
1001
ACAD
1000
ACAD_MTEXT_DEFINED_HEIGHT_BEGIN
1070
46
1040
80
1000
ACAD_MTEXT_DEFINED_HEIGHT_END
  0
ENDSEC
  0
SECTION
  2
OBJECTS
  0
DICTIONARY
  5
C
330
0
100
AcDbDictionary
280
0
281
1
  3
ACAD_GROUP
350
D
  3
ACAD_LAYOUT
350
1A
  3
ACAD_MATERIAL
350
76
  3
ACAD_MLEADERSTYLE
350
77
  3
ACAD_MLINESTYLE
350
17
  3
ACAD_PLOTSETTINGS
350
19
  3
ACAD_PLOTSTYLENAME
350
E
  3
ACAD_SCALELIST
350
79
  3
ACAD_TABLESTYLE
350
8B
  3
ACAD_VISUALSTYLE
350
8D
  3
AcDbVariableDictionary
350
8E
  3
APPDATA
350
97
  3
DWGPROPS
350
98
  3
PRINTCONFIG
350
99
  3
ACAD_COLOR
350
9A
  3
ACAD_FIELDLIST
350
9B
  3
ACAD_IMAGE_DICT
350
9C
  3
ACDB_RECOMPOSE_DATA
350
9D
  0
DICTIONARY
  5
2C
330
2B
100
AcDbDictionary
280
1
281
1
  3
DIM_BOUNDING_BOXES_V1
360
2D
  0
DICTIONARY
  5
D
102
{ACAD_REACTORS
330
C
102
}
330
C
100
AcDbDictionary
280
0
281
1
  0
DICTIONARY
  5
1A
102
{ACAD_REACTORS
330
C
102
}
330
C
100
AcDbDictionary
280
0
281
1
  3
Layout1
350
1E
  3
Layout2
350
75
  3
Model
350
22
  0
DICTIONARY
  5
76
102
{ACAD_REACTORS
330
C
102
}
330
C
100
AcDbDictionary
280
0
281
1
  0
DICTIONARY
  5
77
102
{ACAD_REACTORS
330
C
102
}
330
C
100
AcDbDictionary
280
0
281
1
  0
DICTIONARY
  5
17
102
{ACAD_REACTORS
330
C
102
}
330
C
100
AcDbDictionary
280
0
281
1
  3
Standard
350
78
  0
DICTIONARY
  5
19
102
{ACAD_REACTORS
330
C
102
}
330
C
100
AcDbDictionary
280
0
281
1
  0
ACDBDICTIONARYWDFLT
  5
E
102
{ACAD_REACTORS
330
C
102
}
330
C
100
AcDbDictionary
280
0
281
1
  3
Normal
350
F
100
AcDbDictionaryWithDefault
340
F
  0
ACDBPLACEHOLDER
  5
F
102
{ACAD_REACTORS
330
E
102
}
330
E
  0
DICTIONARY
  5
79
102
{ACAD_REACTORS
330
C
102
}
330
C
100
AcDbDictionary
280
0
281
1
  0
DICTIONARY
  5
8B
102
{ACAD_REACTORS
330
C
102
}
330
C
100
AcDbDictionary
280
0
281
1
  0
DICTIONARY
  5
8D
102
{ACAD_REACTORS
330
C
102
}
330
C
100
AcDbDictionary
280
0
281
1
  0
DICTIONARY
  5
8E
102
{ACAD_REACTORS
330
C
102
}
330
C
100
AcDbDictionary
280
0
281
1
  3
CANNOSCALE
350
8F
  3
CMLEADERSTYLE
350
90
  3
CTABLESTYLE
350
91
  3
DIMASSOC
350
92
  3
HIDETEXT
350
93
  3
MSLTSCALE
350
94
  3
ANNOALLVISIBLE
350
95
  3
ANNOTATIVEDWG
350
96
  0
DICTIONARY
  5
97
102
{ACAD_REACTORS
330
C
102
}
330
C
100
AcDbDictionary
280
0
281
1
  0
XRECORD
  5
98
102
{ACAD_REACTORS
330
C
102
}
330
C
100
AcDbXrecord
280
1
  1
DWGPROPS COOKIE
  2

  3

  4

  6

  7

  8
ADMIN
  9

300
=
301
=
302
=
303
=
304
=
305
=
306
=
307
=
308
=
309
=
 40
0
 41
2460363.525414167
 42
2460364.345288449
  1

 90
0
  0
DICTIONARYVAR
  5
99
102
{ACAD_REACTORS
330
C
102
}
330
C
100
DictionaryVariables
280
0
  1
0
  0
DICTIONARY
  5
9A
102
{ACAD_REACTORS
330
C
102
}
330
C
100
AcDbDictionary
280
0
281
1
  0
FIELDLIST
  5
9B
102
{ACAD_REACTORS
330
C
102
}
330
C
100
AcDbIdSet
100
AcDbFieldList
  0
DICTIONARY
  5
9C
102
{ACAD_REACTORS
330
C
102
}
330
C
100
AcDbDictionary
280
0
281
1
  0
XRECORD
  5
9D
102
{ACAD_REACTORS
330
C
102
}
330
C
100
AcDbXrecord
280
1
 90
1
330
8C
  0
DICTIONARY
  5
2D
102
{ACAD_REACTORS
330
2C
102
}
330
2C
100
AcDbDictionary
280
0
281
1
  0
LAYOUT
  5
1E
102
{ACAD_REACTORS
330
1A
102
}
330
1A
100
AcDbPlotSettings
  1

  2
none_device
  4

  6

 40
0
 41
0
 42
0
 43
0
 44
0
 45
0
 46
0
 47
0
 48
0
 49
0
140
0
141
0
142
1
143
1
 70
688
 72
1
 73
0
 74
5
  7

 75
16
 76
0
 77
0
 78
0
147
1
148
0
149
0
100
AcDbLayout
  1
Layout1
 70
1
 71
1
 10
0
 20
0
 11
420
 21
297
 12
0
 22
0
 32
0
 14
1E+20
 24
1E+20
 34
1E+20
 15
-1E+20
 25
-1E+20
 35
-1E+20
146
0
 13
0
 23
0
 33
0
 16
1
 26
0
 36
0
 17
0
 27
1
 37
0
 76
0
330
1B
  0
LAYOUT
  5
75
102
{ACAD_REACTORS
330
1A
102
}
330
1A
100
AcDbPlotSettings
  1

  2
none_device
  4

  6

 40
0
 41
0
 42
0
 43
0
 44
0
 45
0
 46
0
 47
0
 48
0
 49
0
140
0
141
0
142
1
143
1
 70
688
 72
1
 73
0
 74
5
  7

 75
16
 76
0
 77
0
 78
0
147
1
148
0
149
0
100
AcDbLayout
  1
Layout2
 70
1
 71
2
 10
0
 20
0
 11
0
 21
0
 12
0
 22
0
 32
0
 14
0
 24
0
 34
0
 15
0
 25
0
 35
0
146
0
 13
0
 23
0
 33
0
 16
1
 26
0
 36
0
 17
0
 27
1
 37
0
 76
0
330
50
  0
LAYOUT
  5
22
102
{ACAD_REACTORS
330
1A
102
}
330
1A
100
AcDbPlotSettings
  1

  2
none_device
  4
ANSI_A_(11.00_x_8.50_Inches)
  6

 40
6.35
 41
19.05
 42
6.35000508
 43
19.05000254
 44
279.4
 45
215.9
 46
133.34999746
 47
97.0192071215
 48
0
 49
0
140
0
141
0
142
0.0119407895
143
1
 70
1696
 72
0
 73
0
 74
0
  7

 75
0
 76
0
 77
0
 78
0
147
0.0179189148
148
-1300.4909072572
149
0
100
AcDbLayout
  1
Model
 70
1
 71
0
 10
0
 20
0
 11
420
 21
297
 12
0
 22
0
 32
0
 14
-558.3855156305159
 24
-442.04626656403377
 34
0
 15
449.97281770281751
 25
237.9954419275216
 35
0
146
0
 13
0
 23
0
 33
0
 16
1
 26
0
 36
0
 17
0
 27
1
 37
0
 76
0
330
2B
331
74
  0
MLINESTYLE
  5
78
102
{ACAD_REACTORS
330
17
102
}
330
17
100
AcDbMlineStyle
  2
Standard
 70
0
  3

 51
90
 52
90
 71
2
 49
0.5
  6
ByLayer
 49
-0.5
  6
ByLayer
  0
DICTIONARYVAR
  5
8F
102
{ACAD_REACTORS
330
8E
102
}
330
8E
100
DictionaryVariables
280
0
  1
1:1
  0
DICTIONARYVAR
  5
90
102
{ACAD_REACTORS
330
8E
102
}
330
8E
100
DictionaryVariables
280
0
  1
Standard
  0
DICTIONARYVAR
  5
91
102
{ACAD_REACTORS
330
8E
102
}
330
8E
100
DictionaryVariables
280
0
  1
Standard
  0
DICTIONARYVAR
  5
92
102
{ACAD_REACTORS
330
8E
102
}
330
8E
100
DictionaryVariables
280
0
  1
1
  0
DICTIONARYVAR
  5
93
102
{ACAD_REACTORS
330
8E
102
}
330
8E
100
DictionaryVariables
280
0
  1
1
  0
DICTIONARYVAR
  5
94
102
{ACAD_REACTORS
330
8E
102
}
330
8E
100
DictionaryVariables
280
0
  1
0
  0
DICTIONARYVAR
  5
95
102
{ACAD_REACTORS
330
8E
102
}
330
8E
100
DictionaryVariables
280
0
  1
1
  0
DICTIONARYVAR
  5
96
102
{ACAD_REACTORS
330
8E
102
}
330
8E
100
DictionaryVariables
280
0
  1
0
  0
ENDSEC
999
Created By CadLib version 4.0.36.72
999
CadLib website: www.woutware.com
  0
EOF

