  0
SECTION
  2
HEADER
  9
$ACADVER
  1
AC1015
  9
$ACADMAINTVER
 70
6
  9
$DWGCODEPAGE
  3
ansi_1252
  9
$INSBASE
 10
0
 20
0
 30
0
  9
$EXTMIN
 10
-474.35619449020004
 20
-871.44642331086879
 30
0
  9
$EXTMAX
 10
482.7123889804
 20
648.7123889804
 30
0
  9
$LIMMIN
 10
0
 20
0
  9
$LIMMAX
 10
420
 20
297
  9
$SNAPMODE
 70
0
  9
$SNAPUNIT
 10
1
 20
1
  9
$SNAPBASE
 10
0
 20
0
  9
$SNAPANG
 50
0
  9
$SNAPSTYLE
 70
0
  9
$SNAPISOPAIR
 70
0
  9
$ORTHOMODE
 70
1
  9
$REGENMODE
 70
1
  9
$FILLMODE
 70
1
  9
$QTEXTMODE
 70
0
  9
$MIRRTEXT
 70
1
  9
$LTSCALE
 40
1
  9
$OSMODE
 70
0
  9
$ATTMODE
 70
1
  9
$TEXTSIZE
 40
6.35
  9
$TRACEWID
 40
1
  9
$TEXTSTYLE
  7
Standard
  9
$CLAYER
  8
0
  9
$CELTYPE
  6
ByLayer
  9
$CECOLOR
 62
256
  9
$CELTSCALE
 40
1
  9
$DISPSILH
 70
0
  9
$DIMSCALE
 40
1
  9
$DIMASZ
 40
5.9944
  9
$DIMEXO
 40
0
  9
$DIMDLI
 40
3.75
  9
$DIMRND
 40
0
  9
$DIMDLE
 40
0
  9
$DIMEXE
 40
0.9906
  9
$DIMTP
 40
0
  9
$DIMTM
 40
0
  9
$DIMTXT
 40
6.35
  9
$DIMCEN
 40
2.5
  9
$DIMTSZ
 40
0
  9
$DIMTOL
 70
0
  9
$DIMLIM
 70
0
  9
$DIMTIH
 70
0
  9
$DIMTOH
 70
0
  9
$DIMSE1
 70
0
  9
$DIMSE2
 70
0
  9
$DIMTAD
 70
1
  9
$DIMZIN
 70
1
  9
$DIMBLK
  1

  9
$DIMASO
 70
1
  9
$DIMSHO
 70
1
  9
$DIMPOST
  1

  9
$DIMAPOST
  1

  9
$DIMALT
 70
0
  9
$DIMALTD
 70
3
  9
$DIMALTF
 40
0.0393700787
  9
$DIMLFAC
 40
1
  9
$DIMTOFL
 70
1
  9
$DIMTVP
 40
0
  9
$DIMTIX
 70
0
  9
$DIMSOXD
 70
0
  9
$DIMSAH
 70
0
  9
$DIMBLK1
  1

  9
$DIMBLK2
  1

  9
$DIMSTYLE
  2
ISO-25
  9
$DIMCLRD
 70
0
  9
$DIMCLRE
 70
0
  9
$DIMCLRT
 70
0
  9
$DIMTFAC
 40
1
  9
$DIMGAP
 40
1.524
  9
$DIMJUST
 70
0
  9
$DIMSD1
 70
0
  9
$DIMSD2
 70
0
  9
$DIMTOLJ
 70
0
  9
$DIMTZIN
 70
1
  9
$DIMALTZ
 70
0
  9
$DIMALTTZ
 70
0
  9
$DIMUPT
 70
0
  9
$DIMDEC
 70
2
  9
$DIMTDEC
 70
2
  9
$DIMALTU
 70
2
  9
$DIMALTTD
 70
3
  9
$DIMTXSTY
  7
Standard
  9
$DIMAUNIT
 70
0
  9
$DIMADEC
 70
2
  9
$DIMALTRND
 40
0
  9
$DIMAZIN
 70
0
  9
$DIMDSEP
 70
44
  9
$DIMATFIT
 70
3
  9
$DIMFRAC
 70
0
  9
$DIMLDRBLK
  1

  9
$DIMLUNIT
 70
2
  9
$DIMLWD
 70
-2
  9
$DIMLWE
 70
-2
  9
$LUNITS
 70
2
  9
$LUPREC
 70
6
  9
$SKETCHINC
 40
1
  9
$FILLETRAD
 40
0
  9
$AUNITS
 70
0
  9
$AUPREC
 70
2
  9
$MENU
  1
.
  9
$ELEVATION
 40
0
  9
$PELEVATION
 40
0
  9
$THICKNESS
 40
0
  9
$LIMCHECK
 70
0
  9
$CHAMFERA
 40
0
  9
$CHAMFERB
 40
0
  9
$CHAMFERC
 40
0
  9
$CHAMFERD
 40
0
  9
$SKPOLY
 70
0
  9
$TDCREATE
 40
2460363.7247801274
  9
$TDUCREATE
 40
2460363.4956134604
  9
$TDUPDATE
 40
2460367.5939567825
  9
$TDUUPDATE
 40
2460367.364790116
  9
$TDINDWG
 40
0.0030711805555555557
  9
$TDUSRTIMER
 40
9.9733796296296292E-05
  9
$USRTIMER
 70
1
  9
$ANGBASE
 50
0
  9
$ANGDIR
 70
0
  9
$PDMODE
 70
2
  9
$PDSIZE
 40
0
  9
$PLINEWID
 40
0
  9
$SPLFRAME
 70
0
  9
$SPLINETYPE
 70
6
  9
$SPLINESEGS
 70
8
  9
$HANDSEED
  5
12C
  9
$SURFTAB1
 70
6
  9
$SURFTAB2
 70
6
  9
$SURFTYPE
 70
6
  9
$SURFU
 70
6
  9
$SURFV
 70
6
  9
$UCSORG
 10
0
 20
0
 30
0
  9
$UCSXDIR
 10
1
 20
0
 30
0
  9
$UCSYDIR
 10
0
 20
1
 30
0
  9
$UCSORTHOREF
  2

  9
$UCSORTHOVIEW
 70
0
  9
$UCSORGTOP
 10
0
 20
0
 30
0
  9
$UCSORGBOTTOM
 10
0
 20
0
 30
0
  9
$UCSORGLEFT
 10
0
 20
0
 30
0
  9
$UCSORGRIGHT
 10
0
 20
0
 30
0
  9
$UCSORGFRONT
 10
0
 20
0
 30
0
  9
$UCSORGBACK
 10
0
 20
0
 30
0
  9
$PUCSORG
 10
0
 20
0
 30
0
  9
$PUCSXDIR
 10
1
 20
0
 30
0
  9
$PUCSYDIR
 10
0
 20
1
 30
0
  9
$PUCSORTHOREF
  2

  9
$PUCSORTHOVIEW
 70
0
  9
$PUCSORGTOP
 10
0
 20
0
 30
0
  9
$PUCSORGBOTTOM
 10
0
 20
0
 30
0
  9
$PUCSORGLEFT
 10
0
 20
0
 30
0
  9
$PUCSORGRIGHT
 10
0
 20
0
 30
0
  9
$PUCSORGFRONT
 10
0
 20
0
 30
0
  9
$PUCSORGBACK
 10
0
 20
0
 30
0
  9
$USERI1
 70
0
  9
$USERI2
 70
0
  9
$USERI3
 70
0
  9
$USERI4
 70
0
  9
$USERI5
 70
0
  9
$USERR1
 40
0
  9
$USERR2
 40
0
  9
$USERR3
 40
0
  9
$USERR4
 40
0
  9
$USERR5
 40
0
  9
$WORLDVIEW
 70
1
  9
$SHADEDGE
 70
3
  9
$SHADEDIF
 70
70
  9
$TILEMODE
 70
1
  9
$MAXACTVP
 70
64
  9
$PINSBASE
 10
0
 20
0
 30
0
  9
$PLIMCHECK
 70
0
  9
$PEXTMIN
 10
1E+20
 20
1E+20
 30
1E+20
  9
$PEXTMAX
 10
-1E+20
 20
-1E+20
 30
-1E+20
  9
$PLIMMAX
 10
0
 20
0
  9
$PLIMMIN
 10
0
 20
0
  9
$UNITMODE
 70
0
  9
$VISRETAIN
 70
1
  9
$PLINEGEN
 70
0
  9
$PSLTSCALE
 70
1
  9
$TREEDEPTH
 70
3020
  9
$CMLSTYLE
  2
STANDARD
  9
$CMLJUST
 70
0
  9
$CMLSCALE
 40
20
  9
$PROXYGRAPHICS
 70
1
  9
$MEASUREMENT
 70
1
  9
$CELWEIGHT
370
-1
  9
$ENDCAPS
280
0
  9
$JOINSTYLE
280
0
  9
$LWDISPLAY
290
1
  9
$INSUNITS
 70
4
  9
$HYPERLINKBASE
  1

  9
$XEDIT
290
1
  9
$CEPSNTYPE
380
0
  9
$PSTYLEMODE
290
1
  9
$FINGERPRINTGUID
  2
{635e02b8-73f3-4a3c-bdd8-82d270b99574}
  9
$VERSIONGUID
  2
{FAEB1C32-E019-11D5-929B-00C0DF256EC4}
  9
$EXTNAMES
290
1
  9
$PSVPSCALE
 40
0
  9
$CSHADOW
280
0
  9
$SHADOWPLANELOCATION
 40
0
  9
$STYLESHEET
  1

  9
$OLESTARTUP
290
0
  0
ENDSEC
  0
SECTION
  2
CLASSES
  0
CLASS
  1
ACDBDICTIONARYWDFLT
  2
AcDbDictionaryWithDefault
  3
ObjectDBX Classes
 90
0
280
0
281
0
  0
CLASS
  1
VISUALSTYLE
  2
AcDbVisualStyle
  3
ObjectDBX Classes
 90
4095
280
0
281
0
  0
CLASS
  1
MATERIAL
  2
AcDbMaterial
  3
ObjectDBX Classes
 90
1153
280
0
281
0
  0
CLASS
  1
SCALE
  2
AcDbScale
  3
ObjectDBX Classes
 90
1153
280
0
281
0
  0
CLASS
  1
TABLESTYLE
  2
AcDbTableStyle
  3
ObjectDBX Classes
 90
4095
280
0
281
0
  0
CLASS
  1
MLEADERSTYLE
  2
AcDbMLeaderStyle
  3
ACDB_MLEADERSTYLE_CLASS
 90
4095
280
0
281
0
  0
CLASS
  1
SUN
  2
AcDbSun
  3
SCENEOE
 90
1153
280
0
281
0
  0
CLASS
  1
ACDBPLACEHOLDER
  2
AcDbPlaceHolder
  3
ObjectDBX Classes
 90
0
280
0
281
0
  0
CLASS
  1
LAYOUT
  2
AcDbLayout
  3
ObjectDBX Classes
 90
0
280
0
281
0
  0
CLASS
  1
DIMASSOC
  2
AcDbDimAssoc
  3
"AcDbDimAssoc|Product Desc:     AcDim ARX App For Dimension|Company:          Autodesk, Inc.|WEB Address:      www.autodesk.com"
 90
0
280
0
281
0
  0
CLASS
  1
BREAKDATA
  2
AcDbBreakData
  3
ObjectDBX Classes
 90
1024
280
0
281
0
  0
CLASS
  1
DICTIONARYVAR
  2
AcDbDictionaryVar
  3
ObjectDBX Classes
 90
0
280
0
281
0
  0
CLASS
  1
RASTERVARIABLES
  2
AcDbRasterVariables
  3
ISM
 90
0
280
0
281
0
  0
CLASS
  1
IMAGEDEF
  2
AcDbRasterImageDef
  3
ISM
 90
0
280
0
281
0
  0
CLASS
  1
IMAGEDEF_REACTOR
  2
AcDbRasterImageDefReactor
  3
ISM
 90
1
280
0
281
0
  0
CLASS
  1
IMAGE
  2
AcDbRasterImage
  3
ISM
 90
127
280
0
281
1
  0
CLASS
  1
ACAD_EVALUATION_GRAPH
  2
AcDbEvalGraph
  3
ObjectDBX Classes
 90
1153
280
0
281
0
  0
CLASS
  1
BLOCKPOINTPARAMETER
  2
AcDbBlockPointParameter
  3
ObjectDBX Classes
 90
1153
280
0
281
0
  0
CLASS
  1
BLOCKBASEPOINTPARAMETER
  2
AcDbBlockBasepointParameter
  3
ObjectDBX Classes
 90
1153
280
0
281
0
  0
CLASS
  1
BLOCKLOOKUPPARAMETER
  2
AcDbBlockLookupParameter
  3
ObjectDBX Classes
 90
1153
280
0
281
0
  0
CLASS
  1
BLOCKVISIBILITYPARAMETER
  2
AcDbBlockVisibilityParameter
  3
ObjectDBX Classes
 90
1153
280
0
281
0
  0
CLASS
  1
BLOCKPROPERTIESTABLE
  2
AcDbBlockPropertiesTable
  3
ObjectDBX Classes
 90
1153
280
0
281
0
  0
CLASS
  1
BLOCKPOLARPARAMETER
  2
AcDbBlockPolarParameter
  3
ObjectDBX Classes
 90
1153
280
0
281
0
  0
CLASS
  1
BLOCKROTATIONPARAMETER
  2
AcDbBlockRotationParameter
  3
ObjectDBX Classes
 90
1153
280
0
281
0
  0
CLASS
  1
BLOCKLINEARPARAMETER
  2
AcDbBlockLinearParameter
  3
ObjectDBX Classes
 90
1153
280
0
281
0
  0
CLASS
  1
BLOCKXYPARAMETER
  2
AcDbBlockXYParameter
  3
ObjectDBX Classes
 90
1153
280
0
281
0
  0
CLASS
  1
BLOCKFLIPPARAMETER
  2
AcDbBlockFlipParameter
  3
ObjectDBX Classes
 90
1153
280
0
281
0
  0
CLASS
  1
BLOCKALIGNMENTPARAMETER
  2
AcDbBlockAlignmentParameter
  3
ObjectDBX Classes
 90
1153
280
0
281
0
  0
CLASS
  1
BLOCKROTATEACTION
  2
AcDbBlockRotateAction
  3
ObjectDBX Classes
 90
1153
280
0
281
0
  0
CLASS
  1
BLOCKSCALEACTION
  2
AcDbBlockScaleAction
  3
ObjectDBX Classes
 90
1153
280
0
281
0
  0
CLASS
  1
BLOCKARRAYACTION
  2
AcDbBlockArrayAction
  3
ObjectDBX Classes
 90
1153
280
0
281
0
  0
CLASS
  1
BLOCKFLIPACTION
  2
AcDbBlockFlipAction
  3
ObjectDBX Classes
 90
1153
280
0
281
0
  0
CLASS
  1
BLOCKLOOKUPACTION
  2
AcDbBlockLookupAction
  3
ObjectDBX Classes
 90
1153
280
0
281
0
  0
CLASS
  1
BLOCKMOVEACTION
  2
AcDbBlockMoveAction
  3
ObjectDBX Classes
 90
1153
280
0
281
0
  0
CLASS
  1
BLOCKPOLARSTRETCHACTION
  2
AcDbBlockPolarStretchAction
  3
ObjectDBX Classes
 90
1153
280
0
281
0
  0
CLASS
  1
BLOCKSTRETCHACTION
  2
AcDbBlockStretchAction
  3
ObjectDBX Classes
 90
1153
280
0
281
0
  0
CLASS
  1
BLOCKALIGNMENTGRIP
  2
AcDbBlockAlignmentGrip
  3
ObjectDBX Classes
 90
1153
280
0
281
0
  0
CLASS
  1
BLOCKFLIPGRIP
  2
AcDbBlockFlipGrip
  3
ObjectDBX Classes
 90
1153
280
0
281
0
  0
CLASS
  1
ACDB_BLOCKREPRESENTATION_DATA
  2
AcDbBlockRepresentationData
  3
ObjectDBX Classes
 90
1153
280
0
281
0
  0
CLASS
  1
ACDB_DYNAMICBLOCKPURGEPREVENTER_VERSION
  2
AcDbDynamicBlockPurgePreventer
  3
ObjectDBX Classes
 90
1153
280
0
281
0
  0
CLASS
  1
BLOCKLINEARGRIP
  2
AcDbBlockLinearGrip
  3
ObjectDBX Classes
 90
1153
280
0
281
0
  0
CLASS
  1
BLOCKLOOKUPGRIP
  2
AcDbBlockLookupGrip
  3
ObjectDBX Classes
 90
1153
280
0
281
0
  0
CLASS
  1
BLOCKPOLARGRIP
  2
AcDbBlockPolarGrip
  3
ObjectDBX Classes
 90
1153
280
0
281
0
  0
CLASS
  1
BLOCKPROPERTIESTABLEGRIP
  2
AcDbBlockPropertiesTableGrip
  3
ObjectDBX Classes
 90
1153
280
0
281
0
  0
CLASS
  1
BLOCKROTATIONGRIP
  2
AcDbBlockRotationGrip
  3
ObjectDBX Classes
 90
1153
280
0
281
0
  0
CLASS
  1
BLOCKVISIBILITYGRIP
  2
AcDbBlockVisibilityGrip
  3
ObjectDBX Classes
 90
1153
280
0
281
0
  0
CLASS
  1
BLOCKXYGRIP
  2
AcDbBlockXYGrip
  3
ObjectDBX Classes
 90
1153
280
0
281
0
  0
CLASS
  1
BLOCKGRIPLOCATIONCOMPONENT
  2
AcDbBlockGripExpr
  3
ObjectDBX Classes
 90
1153
280
0
281
0
  0
CLASS
  1
ACDB_DYNAMICBLOCKPROXYNODE
  2
AcDbDynamicBlockProxyNode
  3
ObjectDBX Classes
 90
1153
280
0
281
0
  0
ENDSEC
  0
SECTION
  2
TABLES
  0
TABLE
  2
VPORT
  5
8
330
0
100
AcDbSymbolTable
 70
1
  0
VPORT
  5
FE
330
8
100
AcDbSymbolTableRecord
100
AcDbViewportTableRecord
  2
*Active
 70
0
 10
0
 20
0
 11
1
 21
1
 12
-295.03840572631589
 22
-193.15511933881965
 13
0
 23
0
 14
10
 24
10
 15
10
 25
10
 16
0
 26
0
 36
1
 17
0
 27
0
 37
0
 40
2584.7134248437478
 41
1.9157894736842105
 42
50
 43
0
 44
0
 50
0
 51
0
 71
16
 72
100
 73
1
 74
0
 75
0
 76
0
 77
0
 78
0
281
0
 65
1
110
0
120
0
130
0
111
1
121
0
131
0
112
0
122
1
132
0
 79
0
146
0
  0
ENDTAB
  0
TABLE
  2
LTYPE
  5
5
100
AcDbSymbolTable
 70
8
  0
LTYPE
  5
14
330
5
100
AcDbSymbolTableRecord
100
AcDbLinetypeTableRecord
  2
ByBlock
  3

 70
0
 72
65
 73
0
 40
0
  0
LTYPE
  5
15
330
5
100
AcDbSymbolTableRecord
100
AcDbLinetypeTableRecord
  2
ByLayer
  3

 70
0
 72
65
 73
0
 40
0
  0
LTYPE
  5
16
330
5
100
AcDbSymbolTableRecord
100
AcDbLinetypeTableRecord
  2
Continuous
  3
Solid line
 70
0
 72
65
 73
0
 40
0
  0
LTYPE
  5
F7
330
5
100
AcDbSymbolTableRecord
100
AcDbLinetypeTableRecord
  2
HIDDEN
  3
Hidden __ __ __ __ __ __ __ __ __ __ __ __ __ __
 70
0
 72
65
 73
2
 40
1.905
 49
1.27
 74
0
 49
-0.635
 74
0
  0
LTYPE
  5
F8
330
5
100
AcDbSymbolTableRecord
100
AcDbLinetypeTableRecord
  2
PHANTOM
  3
Phantom ______  __  __  ______  __  __  ______
 70
0
 72
65
 73
6
 40
12.699999999999998
 49
6.35
 74
0
 49
-1.27
 74
0
 49
1.27
 74
0
 49
-1.27
 74
0
 49
1.27
 74
0
 49
-1.27
 74
0
  0
LTYPE
  5
F9
330
5
100
AcDbSymbolTableRecord
100
AcDbLinetypeTableRecord
  2
CENTER
  3
Center ____ _ ____ _ ____ _ ____ _ ____ _ ____
 70
0
 72
65
 73
4
 40
10.159999999999998
 49
6.35
 74
0
 49
-1.27
 74
0
 49
1.27
 74
0
 49
-1.27
 74
0
  0
LTYPE
  5
FA
330
5
100
AcDbSymbolTableRecord
100
AcDbLinetypeTableRecord
  2
CENTERX2
  3
Center (2x) ________  __  ________  __  _____
 70
0
 72
65
 73
4
 40
20.319999999999997
 49
12.7
 74
0
 49
-2.54
 74
0
 49
2.54
 74
0
 49
-2.54
 74
0
  0
LTYPE
  5
FB
330
5
100
AcDbSymbolTableRecord
100
AcDbLinetypeTableRecord
  2
DOT2
  3
Dot (.5x) ........................................
 70
0
 72
65
 73
2
 40
0.635
 49
0
 74
0
 49
-0.635
 74
0
  0
ENDTAB
  0
TABLE
  2
LAYER
  5
2
100
AcDbSymbolTable
 70
5
  0
LAYER
  5
10
330
2
100
AcDbSymbolTableRecord
100
AcDbLayerTableRecord
 70
0
  2
0
 62
7
  6
Continuous
370
-3
390
F
  0
LAYER
  5
27
330
2
100
AcDbSymbolTableRecord
100
AcDbLayerTableRecord
 70
0
  2
Defpoints
 62
151
  6
Continuous
290
0
370
-3
390
F
  0
LAYER
  5
28
330
2
100
AcDbSymbolTableRecord
100
AcDbLayerTableRecord
 70
64
  2
LaserCutting
 62
3
  6
Continuous
370
-3
390
F
  0
LAYER
  5
29
330
2
100
AcDbSymbolTableRecord
100
AcDbLayerTableRecord
 70
64
  2
Marking
 62
6
  6
Continuous
370
-3
390
F
  0
LAYER
  5
2A
330
2
100
AcDbSymbolTableRecord
100
AcDbLayerTableRecord
 70
64
  2
Dimention
 62
9
  6
Continuous
370
-3
390
F
  0
ENDTAB
  0
TABLE
  2
STYLE
  5
3
100
AcDbSymbolTable
 70
1
  0
STYLE
  5
11
330
3
100
AcDbSymbolTableRecord
100
AcDbTextStyleTableRecord
  2
Standard
 70
0
 40
0
 41
1
 50
0
 71
0
 42
6.35
  3
txt
  0
ENDTAB
  0
TABLE
  2
VIEW
  5
6
100
AcDbSymbolTable
 70
0
  0
ENDTAB
  0
TABLE
  2
UCS
  5
7
100
AcDbSymbolTable
 70
0
  0
ENDTAB
  0
TABLE
  2
APPID
  5
9
330
0
100
AcDbSymbolTable
 70
4
  0
APPID
  5
12
330
0
100
AcDbSymbolTableRecord
100
AcDbRegAppTableRecord
  2
ACAD
 70
0
  0
APPID
  5
128
330
0
100
AcDbSymbolTableRecord
100
AcDbRegAppTableRecord
  2
ENABLE_CUSTOM_SPLIT
 70
0
  0
APPID
  5
129
330
0
100
AcDbSymbolTableRecord
100
AcDbRegAppTableRecord
  2
ACAD_MLEADERVER
 70
0
  0
APPID
  5
12A
330
0
100
AcDbSymbolTableRecord
100
AcDbRegAppTableRecord
  2
AcadAnnotative
 70
64
  0
ENDTAB
  0
TABLE
  2
DIMSTYLE
  5
A
330
0
100
AcDbSymbolTable
 70
2
100
AcDbDimStyleTable
 71
0
  0
DIMSTYLE
105
FC
102
{ACAD_REACTORS
330
1DF
330
1F1
102
}
330
A
100
AcDbSymbolTableRecord
100
AcDbDimStyleTableRecord
  2
ISO-25
 70
0
  3

  4

 40
1
 41
2.5
 42
0.625
 43
3.75
 44
1.25
 45
0
 46
0
 47
0
 48
0
140
2.5
141
2.5
142
0
143
0.0393700787
144
1
145
0
146
1
147
0.625
148
0
 71
0
 72
0
 73
0
 74
0
 75
0
 76
0
 77
1
 78
8
 79
0
170
0
171
3
172
1
173
0
174
0
175
0
179
0
271
2
272
2
273
2
274
3
275
0
276
0
277
2
278
44
279
0
280
0
281
0
282
0
283
0
284
8
285
0
286
0
288
0
289
0
340
11
371
-2
372
-2
  0
DIMSTYLE
105
FD
330
A
100
AcDbSymbolTableRecord
100
AcDbDimStyleTableRecord
  2
Standard
 70
64
  3

  4

 40
1
 41
0.18
 42
0.0625
 43
0.38
 44
0.18
 45
0
 46
0
 47
0
 48
0
140
0.18
141
0.09
142
0
143
1
144
1
145
0
146
1
147
0.09
148
0
 71
0
 72
0
 73
1
 74
1
 75
0
 76
0
 77
0
 78
0
 79
0
170
0
171
2
172
0
173
0
174
0
175
0
179
0
271
4
272
4
273
2
274
0
275
0
276
0
277
2
278
46
279
0
280
0
281
0
282
0
283
1
284
0
285
0
286
0
288
0
289
0
340
11
371
-2
372
-2
  0
ENDTAB
  0
TABLE
  2
BLOCK_RECORD
  5
1
330
0
100
AcDbSymbolTable
 70
3
  0
BLOCK_RECORD
  5
2B
102
{ACAD_XDICTIONARY
360
2C
102
}
330
1
100
AcDbSymbolTableRecord
100
AcDbBlockTableRecord
  2
*Model_Space
340
22
  0
BLOCK_RECORD
  5
1B
330
1
100
AcDbSymbolTableRecord
100
AcDbBlockTableRecord
  2
*Paper_Space
340
1E
  0
BLOCK_RECORD
  5
DA
330
1
100
AcDbSymbolTableRecord
100
AcDbBlockTableRecord
  2
*Paper_Space0
340
FF
  0
BLOCK_RECORD
  5
DD
330
1
100
AcDbSymbolTableRecord
100
AcDbBlockTableRecord
  2
*D1
  0
BLOCK_RECORD
  5
EA
330
1
100
AcDbSymbolTableRecord
100
AcDbBlockTableRecord
  2
*D2
  0
ENDTAB
  0
ENDSEC
  0
SECTION
  2
BLOCKS
  0
BLOCK
  5
2E
330
2B
100
AcDbEntity
  8
0
100
AcDbBlockBegin
  2
*Model_Space
 70
0
 10
0
 20
0
 30
0
  3
*Model_Space
  0
ENDBLK
  5
D9
330
2B
100
AcDbEntity
  8
0
100
AcDbBlockEnd
  0
BLOCK
  5
1C
330
1B
100
AcDbEntity
  8
0
 67
1
100
AcDbBlockBegin
  2
*Paper_Space
 70
0
 10
0
 20
0
 30
0
  3
*Paper_Space
  0
ENDBLK
  5
1D
330
1B
100
AcDbEntity
  8
0
100
AcDbBlockEnd
  0
BLOCK
  5
DB
330
DA
100
AcDbEntity
  8
0
100
AcDbBlockBegin
  2
*Paper_Space0
 70
0
 10
0
 20
0
 30
0
  3
*Paper_Space0
  0
ENDBLK
  5
DC
330
DA
100
AcDbEntity
  8
0
100
AcDbBlockEnd
  0
BLOCK
  5
DE
330
DD
100
AcDbEntity
  8
0
100
AcDbBlockBegin
  2
*D1
 70
1
 10
0
 20
0
 30
0
  3
*D1
  0
LINE
  5
DF
330
DD
100
AcDbEntity
  8
0
 62
0
370
-2
100
AcDbLine
 10
-474.3561944902
 20
615.2171572875
 30
0
 11
-474.35619449020004
 21
746.85775728749991
 31
0
  0
LINE
  5
E0
330
DD
100
AcDbEntity
  8
0
 62
0
370
-2
100
AcDbLine
 10
482.7123889804
 20
608.7171572875
 30
0
 11
482.7123889804
 21
746.85775728749991
 31
0
  0
LINE
  5
E1
330
DD
100
AcDbEntity
  8
0
 62
0
370
-2
100
AcDbLine
 10
-468.36179449020005
 20
745.86715728749994
 30
0
 11
476.71798898040004
 21
745.86715728749994
 31
0
  0
LINE
  5
E2
330
DD
100
AcDbEntity
  8
0
 62
0
370
-2
100
AcDbLine
 10
476.71798898040004
 20
745.86715728749994
 30
0
 11
-468.36179449020005
 21
745.86715728749994
 31
0
  0
SOLID
  5
E3
330
DD
100
AcDbEntity
  8
0
 62
0
100
AcDbTrace
 10
-468.36179449020005
 20
746.86622395416657
 30
0
 11
-468.36179449020005
 21
744.8680906208333
 31
0
 12
-474.35619449020004
 22
745.86715728749994
 32
0
 13
-474.35619449020004
 23
745.86715728749994
 33
0
  0
SOLID
  5
E4
330
DD
100
AcDbEntity
  8
0
 62
0
100
AcDbTrace
 10
476.71798898040004
 20
744.8680906208333
 30
0
 11
476.71798898040004
 21
746.86622395416657
 31
0
 12
482.7123889804
 22
745.86715728749994
 32
0
 13
482.7123889804
 23
745.86715728749994
 33
0
  0
MTEXT
  5
E5
330
DD
100
AcDbEntity
  8
0
 62
0
100
AcDbMText
 10
4.1780972450999911
 20
751.09532395416659
 30
0
 11
1
 21
0
 31
0
 40
6.35
 41
0
 71
5
 72
1
  1
957,07
  7
Standard
 73
1
  0
POINT
  5
E6
330
DD
100
AcDbEntity
  8
Defpoints
 62
0
100
AcDbPoint
 10
-474.3561944902
 20
614.463449181337
 30
0
 50
0
  0
POINT
  5
E7
330
DD
100
AcDbEntity
  8
Defpoints
 62
0
100
AcDbPoint
 10
482.7123889804
 20
602.47742500241861
 30
0
 50
0
  0
POINT
  5
E8
330
DD
100
AcDbEntity
  8
Defpoints
 62
0
100
AcDbPoint
 10
482.7123889804
 20
745.86715728749994
 30
0
 50
0
  0
ENDBLK
  5
E9
330
DD
100
AcDbEntity
  8
0
100
AcDbBlockEnd
  0
BLOCK
  5
EB
330
EA
100
AcDbEntity
  8
0
100
AcDbBlockBegin
  2
*D2
 70
1
 10
0
 20
0
 30
0
  3
*D2
  0
LINE
  5
EC
330
EA
100
AcDbEntity
  8
0
 62
0
370
-2
100
AcDbLine
 10
442.7171572875
 20
648.7123889804
 30
0
 11
639.60775728750014
 21
648.7123889804
 31
0
  0
LINE
  5
ED
330
EA
100
AcDbEntity
  8
0
 62
0
370
-2
100
AcDbLine
 10
442.7171572875
 20
-648.7123889804
 30
0
 11
639.6077572875
 21
-648.7123889804
 31
0
  0
LINE
  5
EE
330
EA
100
AcDbEntity
  8
0
 62
0
370
-2
100
AcDbLine
 10
638.61715728750016
 20
642.71798898039992
 30
0
 11
638.61715728750016
 21
5.2281666666666524
 31
0
  0
LINE
  5
EF
330
EA
100
AcDbEntity
  8
0
 62
0
370
-2
100
AcDbLine
 10
638.6171572875
 20
-642.71798898039992
 30
0
 11
638.6171572875
 21
-5.2281666666666524
 31
0
  0
SOLID
  5
F0
330
EA
100
AcDbEntity
  8
0
 62
0
100
AcDbTrace
 10
639.6162239541668
 20
642.71798898039992
 30
0
 11
637.61809062083353
 21
642.71798898039992
 31
0
 12
638.61715728750016
 22
648.7123889804
 32
0
 13
638.61715728750016
 23
648.7123889804
 33
0
  0
SOLID
  5
F1
330
EA
100
AcDbEntity
  8
0
 62
0
100
AcDbTrace
 10
637.61809062083341
 20
-642.71798898039992
 30
0
 11
639.61622395416668
 21
-642.71798898039992
 31
0
 12
638.6171572875
 22
-648.7123889804
 32
0
 13
638.6171572875
 23
-648.7123889804
 33
0
  0
MTEXT
  5
F2
330
EA
100
AcDbEntity
  8
0
 62
0
100
AcDbMText
 10
638.6171572875
 20
0
 30
0
 11
1
 21
0
 31
0
 40
6.35
 41
0
 71
5
 72
1
  1
1297,42
  7
Standard
 73
1
  0
POINT
  5
F3
330
EA
100
AcDbEntity
  8
Defpoints
 62
0
100
AcDbPoint
 10
417.81905619131226
 20
648.7123889804
 30
0
 50
0
  0
POINT
  5
F4
330
EA
100
AcDbEntity
  8
Defpoints
 62
0
100
AcDbPoint
 10
399.13348052978711
 20
-648.7123889804
 30
0
 50
0
  0
POINT
  5
F5
330
EA
100
AcDbEntity
  8
Defpoints
 62
0
100
AcDbPoint
 10
638.6171572875
 20
-648.7123889804
 30
0
 50
0
  0
ENDBLK
  5
F6
330
EA
100
AcDbEntity
  8
0
100
AcDbBlockEnd
  0
ENDSEC
  0
SECTION
  2
ENTITIES
  0
CIRCLE
  5
2F
330
2B
100
AcDbEntity
  8
LaserCutting
  6
Continuous
370
25
100
AcDbCircle
 10
-463.6561944902
 20
571.5
 30
0
 40
2.5800000000000409
  0
CIRCLE
  5
30
330
2B
100
AcDbEntity
  8
LaserCutting
  6
Continuous
370
25
100
AcDbCircle
 10
-463.6561944902
 20
38.1
 30
0
 40
2.5800000000000409
  0
CIRCLE
  5
31
330
2B
100
AcDbEntity
  8
LaserCutting
  6
Continuous
370
25
100
AcDbCircle
 10
-463.6561944902
 20
-571.5
 30
0
 40
2.5799999999999841
  0
LINE
  5
32
330
2B
100
AcDbEntity
  8
LaserCutting
  6
Continuous
370
25
100
AcDbLine
 10
425
 20
-629.3561944902
 30
0
 11
415
 21
-629.3561944902
 31
0
  0
LINE
  5
33
330
2B
100
AcDbEntity
  8
LaserCutting
  6
Continuous
370
25
100
AcDbLine
 10
415
 20
-629.3561944902
 30
0
 11
415
 21
-633.3561944902
 31
0
  0
LINE
  5
34
330
2B
100
AcDbEntity
  8
LaserCutting
  6
Continuous
370
25
100
AcDbLine
 10
415
 20
-633.3561944902
 30
0
 11
425
 21
-633.3561944902
 31
0
  0
LINE
  5
35
330
2B
100
AcDbEntity
  8
LaserCutting
  6
Continuous
370
25
100
AcDbLine
 10
425
 20
-633.3561944902
 30
0
 11
425
 21
-629.3561944902
 31
0
  0
LINE
  5
36
330
2B
100
AcDbEntity
  8
LaserCutting
  6
Continuous
370
25
100
AcDbLine
 10
-415
 20
-629.3561944902
 30
0
 11
-425
 21
-629.3561944902
 31
0
  0
LINE
  5
37
330
2B
100
AcDbEntity
  8
LaserCutting
  6
Continuous
370
25
100
AcDbLine
 10
-425
 20
-629.3561944902
 30
0
 11
-425
 21
-633.3561944902
 31
0
  0
LINE
  5
38
330
2B
100
AcDbEntity
  8
LaserCutting
  6
Continuous
370
25
100
AcDbLine
 10
-425
 20
-633.3561944902
 30
0
 11
-415
 21
-633.3561944902
 31
0
  0
LINE
  5
39
330
2B
100
AcDbEntity
  8
LaserCutting
  6
Continuous
370
25
100
AcDbLine
 10
-415
 20
-633.3561944902
 30
0
 11
-415
 21
-629.3561944902
 31
0
  0
LINE
  5
3A
330
2B
100
AcDbEntity
  8
LaserCutting
  6
Continuous
370
25
100
AcDbLine
 10
442.7171572875
 20
648.7123889804
 30
0
 11
-452.2171572875
 21
648.7123889804
 31
0
  0
LINE
  5
3B
330
2B
100
AcDbEntity
  8
LaserCutting
  6
Continuous
370
25
100
AcDbLine
 10
450.0857864376
 20
641.3437598303
 30
0
 11
442.7171572875
 21
648.7123889804
 31
0
  0
LINE
  5
3C
330
2B
100
AcDbEntity
  8
LaserCutting
  6
Continuous
370
25
100
AcDbLine
 10
450.0857864376
 20
641.3437598303
 30
0
 11
450.0857864376
 21
640.2123889804
 31
0
  0
LINE
  5
3D
330
2B
100
AcDbEntity
  8
LaserCutting
  6
Continuous
370
25
100
AcDbLine
 10
450.0857864376
 20
640.2123889804
 30
0
 11
452.2171572875
 21
637.8561944902
 31
0
  0
LINE
  5
3E
330
2B
100
AcDbEntity
  8
LaserCutting
  6
Continuous
370
25
100
AcDbLine
 10
452.2171572875
 20
619.7171572875
 30
0
 11
452.2171572875
 21
637.8561944902
 31
0
  0
LINE
  5
3F
330
2B
100
AcDbEntity
  8
LaserCutting
  6
Continuous
370
25
100
AcDbLine
 10
453.7171572875
 20
618.2171572875
 30
0
 11
471.8561944902
 21
618.2171572875
 31
0
  0
LINE
  5
40
330
2B
100
AcDbEntity
  8
LaserCutting
  6
Continuous
370
25
100
AcDbLine
 10
474.2123889804
 20
616.0857864376
 30
0
 11
475.3437598303
 21
616.0857864376
 31
0
  0
LINE
  5
41
330
2B
100
AcDbEntity
  8
LaserCutting
  6
Continuous
370
25
100
AcDbLine
 10
475.3437598303
 20
616.0857864376
 30
0
 11
482.7123889804
 21
608.7171572875
 31
0
  0
LINE
  5
42
330
2B
100
AcDbEntity
  8
LaserCutting
  6
Continuous
370
25
100
AcDbLine
 10
482.7123889804
 20
-608.7171572875
 30
0
 11
482.7123889804
 21
608.7171572875
 31
0
  0
LINE
  5
43
330
2B
100
AcDbEntity
  8
LaserCutting
  6
Continuous
370
25
100
AcDbLine
 10
482.7123889804
 20
-608.7171572875
 30
0
 11
475.3437598303
 21
-616.0857864376
 31
0
  0
LINE
  5
44
330
2B
100
AcDbEntity
  8
LaserCutting
  6
Continuous
370
25
100
AcDbLine
 10
475.3437598303
 20
-616.0857864376
 30
0
 11
474.2123889804
 21
-616.0857864376
 31
0
  0
LINE
  5
45
330
2B
100
AcDbEntity
  8
LaserCutting
  6
Continuous
370
25
100
AcDbLine
 10
474.2123889804
 20
-616.0857864376
 30
0
 11
471.8561944902
 21
-618.2171572875
 31
0
  0
LINE
  5
46
330
2B
100
AcDbEntity
  8
LaserCutting
  6
Continuous
370
25
100
AcDbLine
 10
453.7171572875
 20
-618.2171572875
 30
0
 11
471.8561944902
 21
-618.2171572875
 31
0
  0
LINE
  5
47
330
2B
100
AcDbEntity
  8
LaserCutting
  6
Continuous
370
25
100
AcDbLine
 10
452.2171572875
 20
-619.7171572875
 30
0
 11
452.2171572875
 21
-637.8561944902
 31
0
  0
LINE
  5
48
330
2B
100
AcDbEntity
  8
LaserCutting
  6
Continuous
370
25
100
AcDbLine
 10
452.2171572875
 20
-637.8561944902
 30
0
 11
450.0857864376
 21
-640.2123889804
 31
0
  0
LINE
  5
49
330
2B
100
AcDbEntity
  8
LaserCutting
  6
Continuous
370
25
100
AcDbLine
 10
450.0857864376
 20
-640.2123889804
 30
0
 11
450.0857864376
 21
-641.3437598303
 31
0
  0
LINE
  5
4A
330
2B
100
AcDbEntity
  8
LaserCutting
  6
Continuous
370
25
100
AcDbLine
 10
442.7171572875
 20
-648.7123889804
 30
0
 11
450.0857864376
 21
-641.3437598303
 31
0
  0
LINE
  5
4B
330
2B
100
AcDbEntity
  8
LaserCutting
  6
Continuous
370
25
100
AcDbLine
 10
-452.2171572875
 20
-648.7123889804
 30
0
 11
442.7171572875
 21
-648.7123889804
 31
0
  0
LINE
  5
4C
330
2B
100
AcDbEntity
  8
LaserCutting
  6
Continuous
370
25
100
AcDbLine
 10
-452.2171572875
 20
-619.7171572875
 30
0
 11
-452.2171572875
 21
-648.7123889804
 31
0
  0
LINE
  5
4D
330
2B
100
AcDbEntity
  8
LaserCutting
  6
Continuous
370
25
100
AcDbLine
 10
-453.7171572875
 20
-618.2171572875
 30
0
 11
-471.3561944902
 21
-618.2171572875
 31
0
  0
LINE
  5
4E
330
2B
100
AcDbEntity
  8
LaserCutting
  6
Continuous
370
25
100
AcDbLine
 10
-474.3561944902
 20
-615.2171572875
 30
0
 11
-474.3561944902
 21
-611
 31
0
  0
LINE
  5
4F
330
2B
100
AcDbEntity
  8
LaserCutting
  6
Continuous
370
25
100
AcDbLine
 10
-469.3561944902
 20
-606
 30
0
 11
-469.3561944902
 21
606
 31
0
  0
LINE
  5
50
330
2B
100
AcDbEntity
  8
LaserCutting
  6
Continuous
370
25
100
AcDbLine
 10
-474.3561944902
 20
611
 30
0
 11
-474.3561944902
 21
615.2171572875
 31
0
  0
LINE
  5
51
330
2B
100
AcDbEntity
  8
LaserCutting
  6
Continuous
370
25
100
AcDbLine
 10
-453.7171572875
 20
618.2171572875
 30
0
 11
-471.3561944902
 21
618.2171572875
 31
0
  0
LINE
  5
52
330
2B
100
AcDbEntity
  8
LaserCutting
  6
Continuous
370
25
100
AcDbLine
 10
-452.2171572875
 20
648.7123889804
 30
0
 11
-452.2171572875
 21
619.7171572875
 31
0
  0
LINE
  5
53
330
2B
100
AcDbEntity
  8
LaserCutting
  6
Continuous
370
25
100
AcDbLine
 10
405.05
 20
-4.8290785871
 30
0
 11
405.05
 21
4.8290785871
 31
0
  0
LINE
  5
54
330
2B
100
AcDbEntity
  8
LaserCutting
  6
Continuous
370
25
100
AcDbLine
 10
399.8290785871
 20
10.05
 30
0
 11
390.1709214129
 21
10.05
 31
0
  0
LINE
  5
55
330
2B
100
AcDbEntity
  8
LaserCutting
  6
Continuous
370
25
100
AcDbLine
 10
384.95
 20
4.8290785871
 30
0
 11
384.95
 21
-4.8290785871
 31
0
  0
LINE
  5
56
330
2B
100
AcDbEntity
  8
LaserCutting
  6
Continuous
370
25
100
AcDbLine
 10
390.1709214129
 20
-10.05
 30
0
 11
399.8290785871
 21
-10.05
 31
0
  0
LINE
  5
57
330
2B
100
AcDbEntity
  8
LaserCutting
  6
Continuous
370
25
100
AcDbLine
 10
405.05
 20
516.1709214129
 30
0
 11
405.05
 21
525.8290785871
 31
0
  0
LINE
  5
58
330
2B
100
AcDbEntity
  8
LaserCutting
  6
Continuous
370
25
100
AcDbLine
 10
399.8290785871
 20
531.05
 30
0
 11
390.1709214129
 21
531.05
 31
0
  0
LINE
  5
59
330
2B
100
AcDbEntity
  8
LaserCutting
  6
Continuous
370
25
100
AcDbLine
 10
384.95
 20
525.8290785871
 30
0
 11
384.95
 21
516.1709214129
 31
0
  0
LINE
  5
5A
330
2B
100
AcDbEntity
  8
LaserCutting
  6
Continuous
370
25
100
AcDbLine
 10
390.1709214129
 20
510.95
 30
0
 11
399.8290785871
 21
510.95
 31
0
  0
LINE
  5
5B
330
2B
100
AcDbEntity
  8
LaserCutting
  6
Continuous
370
25
100
AcDbLine
 10
405.05
 20
-525.8290785871
 30
0
 11
405.05
 21
-516.1709214129
 31
0
  0
LINE
  5
5C
330
2B
100
AcDbEntity
  8
LaserCutting
  6
Continuous
370
25
100
AcDbLine
 10
399.8290785871
 20
-510.95
 30
0
 11
390.1709214129
 21
-510.95
 31
0
  0
LINE
  5
5D
330
2B
100
AcDbEntity
  8
LaserCutting
  6
Continuous
370
25
100
AcDbLine
 10
384.95
 20
-516.1709214129
 30
0
 11
384.95
 21
-525.8290785871
 31
0
  0
LINE
  5
5E
330
2B
100
AcDbEntity
  8
LaserCutting
  6
Continuous
370
25
100
AcDbLine
 10
390.1709214129
 20
-531.05
 30
0
 11
399.8290785871
 21
-531.05
 31
0
  0
LINE
  5
5F
330
2B
100
AcDbEntity
  8
LaserCutting
  6
Continuous
370
25
100
AcDbLine
 10
10.05
 20
556.1709214129
 30
0
 11
10.05
 21
565.8290785871
 31
0
  0
LINE
  5
60
330
2B
100
AcDbEntity
  8
LaserCutting
  6
Continuous
370
25
100
AcDbLine
 10
4.8290785871
 20
571.05
 30
0
 11
-4.8290785871
 21
571.05
 31
0
  0
LINE
  5
61
330
2B
100
AcDbEntity
  8
LaserCutting
  6
Continuous
370
25
100
AcDbLine
 10
-10.05
 20
565.8290785871
 30
0
 11
-10.05
 21
556.1709214129
 31
0
  0
LINE
  5
62
330
2B
100
AcDbEntity
  8
LaserCutting
  6
Continuous
370
25
100
AcDbLine
 10
-4.8290785871
 20
550.95
 30
0
 11
4.8290785871
 21
550.95
 31
0
  0
LINE
  5
63
330
2B
100
AcDbEntity
  8
LaserCutting
  6
Continuous
370
25
100
AcDbLine
 10
10.05
 20
-565.8290785871
 30
0
 11
10.05
 21
-556.1709214129
 31
0
  0
LINE
  5
64
330
2B
100
AcDbEntity
  8
LaserCutting
  6
Continuous
370
25
100
AcDbLine
 10
4.8290785871
 20
-550.95
 30
0
 11
-4.8290785871
 21
-550.95
 31
0
  0
LINE
  5
65
330
2B
100
AcDbEntity
  8
LaserCutting
  6
Continuous
370
25
100
AcDbLine
 10
-10.05
 20
-556.1709214129
 30
0
 11
-10.05
 21
-565.8290785871
 31
0
  0
LINE
  5
66
330
2B
100
AcDbEntity
  8
LaserCutting
  6
Continuous
370
25
100
AcDbLine
 10
-4.8290785871
 20
-571.05
 30
0
 11
4.8290785871
 21
-571.05
 31
0
  0
LINE
  5
67
330
2B
100
AcDbEntity
  8
LaserCutting
  6
Continuous
370
25
100
AcDbLine
 10
-189.4504065444
 20
526.55
 30
0
 11
-193.5495934556
 21
526.55
 31
0
  0
LINE
  5
68
330
2B
100
AcDbEntity
  8
LaserCutting
  6
Continuous
370
25
100
AcDbLine
 10
-193.5495934556
 20
526.55
 30
0
 11
-195.5991869112
 21
523
 31
0
  0
LINE
  5
69
330
2B
100
AcDbEntity
  8
LaserCutting
  6
Continuous
370
25
100
AcDbLine
 10
-195.5991869112
 20
523
 30
0
 11
-193.5495934556
 21
519.45
 31
0
  0
LINE
  5
6A
330
2B
100
AcDbEntity
  8
LaserCutting
  6
Continuous
370
25
100
AcDbLine
 10
-193.5495934556
 20
519.45
 30
0
 11
-189.4504065444
 21
519.45
 31
0
  0
LINE
  5
6B
330
2B
100
AcDbEntity
  8
LaserCutting
  6
Continuous
370
25
100
AcDbLine
 10
-189.4504065444
 20
519.45
 30
0
 11
-187.4008130888
 21
523
 31
0
  0
LINE
  5
6C
330
2B
100
AcDbEntity
  8
LaserCutting
  6
Continuous
370
25
100
AcDbLine
 10
-187.4008130888
 20
523
 30
0
 11
-189.4504065444
 21
526.55
 31
0
  0
LINE
  5
6D
330
2B
100
AcDbEntity
  8
LaserCutting
  6
Continuous
370
25
100
AcDbLine
 10
130.5495934556
 20
190.55
 30
0
 11
126.4504065444
 21
190.55
 31
0
  0
LINE
  5
6E
330
2B
100
AcDbEntity
  8
LaserCutting
  6
Continuous
370
25
100
AcDbLine
 10
126.4504065444
 20
190.55
 30
0
 11
124.4008130888
 21
187
 31
0
  0
LINE
  5
6F
330
2B
100
AcDbEntity
  8
LaserCutting
  6
Continuous
370
25
100
AcDbLine
 10
124.4008130888
 20
187
 30
0
 11
126.4504065444
 21
183.45
 31
0
  0
LINE
  5
70
330
2B
100
AcDbEntity
  8
LaserCutting
  6
Continuous
370
25
100
AcDbLine
 10
126.4504065444
 20
183.45
 30
0
 11
130.5495934556
 21
183.45
 31
0
  0
LINE
  5
71
330
2B
100
AcDbEntity
  8
LaserCutting
  6
Continuous
370
25
100
AcDbLine
 10
130.5495934556
 20
183.45
 30
0
 11
132.5991869112
 21
187
 31
0
  0
LINE
  5
72
330
2B
100
AcDbEntity
  8
LaserCutting
  6
Continuous
370
25
100
AcDbLine
 10
132.5991869112
 20
187
 30
0
 11
130.5495934556
 21
190.55
 31
0
  0
LINE
  5
73
330
2B
100
AcDbEntity
  8
LaserCutting
  6
Continuous
370
25
100
AcDbLine
 10
130.5495934556
 20
230.55
 30
0
 11
126.4504065444
 21
230.55
 31
0
  0
LINE
  5
74
330
2B
100
AcDbEntity
  8
LaserCutting
  6
Continuous
370
25
100
AcDbLine
 10
126.4504065444
 20
230.55
 30
0
 11
124.4008130888
 21
227
 31
0
  0
LINE
  5
75
330
2B
100
AcDbEntity
  8
LaserCutting
  6
Continuous
370
25
100
AcDbLine
 10
124.4008130888
 20
227
 30
0
 11
126.4504065444
 21
223.45
 31
0
  0
LINE
  5
76
330
2B
100
AcDbEntity
  8
LaserCutting
  6
Continuous
370
25
100
AcDbLine
 10
126.4504065444
 20
223.45
 30
0
 11
130.5495934556
 21
223.45
 31
0
  0
LINE
  5
77
330
2B
100
AcDbEntity
  8
LaserCutting
  6
Continuous
370
25
100
AcDbLine
 10
130.5495934556
 20
223.45
 30
0
 11
132.5991869112
 21
227
 31
0
  0
LINE
  5
78
330
2B
100
AcDbEntity
  8
LaserCutting
  6
Continuous
370
25
100
AcDbLine
 10
132.5991869112
 20
227
 30
0
 11
130.5495934556
 21
230.55
 31
0
  0
LINE
  5
79
330
2B
100
AcDbEntity
  8
LaserCutting
  6
Continuous
370
25
100
AcDbLine
 10
130.5495934556
 20
294.55
 30
0
 11
126.4504065444
 21
294.55
 31
0
  0
LINE
  5
7A
330
2B
100
AcDbEntity
  8
LaserCutting
  6
Continuous
370
25
100
AcDbLine
 10
126.4504065444
 20
294.55
 30
0
 11
124.4008130888
 21
291
 31
0
  0
LINE
  5
7B
330
2B
100
AcDbEntity
  8
LaserCutting
  6
Continuous
370
25
100
AcDbLine
 10
124.4008130888
 20
291
 30
0
 11
126.4504065444
 21
287.45
 31
0
  0
LINE
  5
7C
330
2B
100
AcDbEntity
  8
LaserCutting
  6
Continuous
370
25
100
AcDbLine
 10
126.4504065444
 20
287.45
 30
0
 11
130.5495934556
 21
287.45
 31
0
  0
LINE
  5
7D
330
2B
100
AcDbEntity
  8
LaserCutting
  6
Continuous
370
25
100
AcDbLine
 10
130.5495934556
 20
287.45
 30
0
 11
132.5991869112
 21
291
 31
0
  0
LINE
  5
7E
330
2B
100
AcDbEntity
  8
LaserCutting
  6
Continuous
370
25
100
AcDbLine
 10
132.5991869112
 20
291
 30
0
 11
130.5495934556
 21
294.55
 31
0
  0
LINE
  5
7F
330
2B
100
AcDbEntity
  8
LaserCutting
  6
Continuous
370
25
100
AcDbLine
 10
-111.4504065444
 20
126.55
 30
0
 11
-115.5495934556
 21
126.55
 31
0
  0
LINE
  5
80
330
2B
100
AcDbEntity
  8
LaserCutting
  6
Continuous
370
25
100
AcDbLine
 10
-115.5495934556
 20
126.55
 30
0
 11
-117.5991869112
 21
123
 31
0
  0
LINE
  5
81
330
2B
100
AcDbEntity
  8
LaserCutting
  6
Continuous
370
25
100
AcDbLine
 10
-117.5991869112
 20
123
 30
0
 11
-115.5495934556
 21
119.45
 31
0
  0
LINE
  5
82
330
2B
100
AcDbEntity
  8
LaserCutting
  6
Continuous
370
25
100
AcDbLine
 10
-115.5495934556
 20
119.45
 30
0
 11
-111.4504065444
 21
119.45
 31
0
  0
LINE
  5
83
330
2B
100
AcDbEntity
  8
LaserCutting
  6
Continuous
370
25
100
AcDbLine
 10
-111.4504065444
 20
119.45
 30
0
 11
-109.4008130888
 21
123
 31
0
  0
LINE
  5
84
330
2B
100
AcDbEntity
  8
LaserCutting
  6
Continuous
370
25
100
AcDbLine
 10
-109.4008130888
 20
123
 30
0
 11
-111.4504065444
 21
126.55
 31
0
  0
LINE
  5
85
330
2B
100
AcDbEntity
  8
LaserCutting
  6
Continuous
370
25
100
AcDbLine
 10
130.5495934556
 20
126.55
 30
0
 11
126.4504065444
 21
126.55
 31
0
  0
LINE
  5
86
330
2B
100
AcDbEntity
  8
LaserCutting
  6
Continuous
370
25
100
AcDbLine
 10
126.4504065444
 20
126.55
 30
0
 11
124.4008130888
 21
123
 31
0
  0
LINE
  5
87
330
2B
100
AcDbEntity
  8
LaserCutting
  6
Continuous
370
25
100
AcDbLine
 10
124.4008130888
 20
123
 30
0
 11
126.4504065444
 21
119.45
 31
0
  0
LINE
  5
88
330
2B
100
AcDbEntity
  8
LaserCutting
  6
Continuous
370
25
100
AcDbLine
 10
126.4504065444
 20
119.45
 30
0
 11
130.5495934556
 21
119.45
 31
0
  0
LINE
  5
89
330
2B
100
AcDbEntity
  8
LaserCutting
  6
Continuous
370
25
100
AcDbLine
 10
130.5495934556
 20
119.45
 30
0
 11
132.5991869112
 21
123
 31
0
  0
LINE
  5
8A
330
2B
100
AcDbEntity
  8
LaserCutting
  6
Continuous
370
25
100
AcDbLine
 10
132.5991869112
 20
123
 30
0
 11
130.5495934556
 21
126.55
 31
0
  0
LINE
  5
8B
330
2B
100
AcDbEntity
  8
LaserCutting
  6
Continuous
370
25
100
AcDbLine
 10
130.5495934556
 20
334.55
 30
0
 11
126.4504065444
 21
334.55
 31
0
  0
LINE
  5
8C
330
2B
100
AcDbEntity
  8
LaserCutting
  6
Continuous
370
25
100
AcDbLine
 10
126.4504065444
 20
334.55
 30
0
 11
124.4008130888
 21
331
 31
0
  0
LINE
  5
8D
330
2B
100
AcDbEntity
  8
LaserCutting
  6
Continuous
370
25
100
AcDbLine
 10
124.4008130888
 20
331
 30
0
 11
126.4504065444
 21
327.45
 31
0
  0
LINE
  5
8E
330
2B
100
AcDbEntity
  8
LaserCutting
  6
Continuous
370
25
100
AcDbLine
 10
126.4504065444
 20
327.45
 30
0
 11
130.5495934556
 21
327.45
 31
0
  0
LINE
  5
8F
330
2B
100
AcDbEntity
  8
LaserCutting
  6
Continuous
370
25
100
AcDbLine
 10
130.5495934556
 20
327.45
 30
0
 11
132.5991869112
 21
331
 31
0
  0
LINE
  5
90
330
2B
100
AcDbEntity
  8
LaserCutting
  6
Continuous
370
25
100
AcDbLine
 10
132.5991869112
 20
331
 30
0
 11
130.5495934556
 21
334.55
 31
0
  0
LINE
  5
91
330
2B
100
AcDbEntity
  8
LaserCutting
  6
Continuous
370
25
100
AcDbLine
 10
-111.4504065444
 20
398.55
 30
0
 11
-115.5495934556
 21
398.55
 31
0
  0
LINE
  5
92
330
2B
100
AcDbEntity
  8
LaserCutting
  6
Continuous
370
25
100
AcDbLine
 10
-115.5495934556
 20
398.55
 30
0
 11
-117.5991869112
 21
395
 31
0
  0
LINE
  5
93
330
2B
100
AcDbEntity
  8
LaserCutting
  6
Continuous
370
25
100
AcDbLine
 10
-117.5991869112
 20
395
 30
0
 11
-115.5495934556
 21
391.45
 31
0
  0
LINE
  5
94
330
2B
100
AcDbEntity
  8
LaserCutting
  6
Continuous
370
25
100
AcDbLine
 10
-115.5495934556
 20
391.45
 30
0
 11
-111.4504065444
 21
391.45
 31
0
  0
LINE
  5
95
330
2B
100
AcDbEntity
  8
LaserCutting
  6
Continuous
370
25
100
AcDbLine
 10
-111.4504065444
 20
391.45
 30
0
 11
-109.4008130888
 21
395
 31
0
  0
LINE
  5
96
330
2B
100
AcDbEntity
  8
LaserCutting
  6
Continuous
370
25
100
AcDbLine
 10
-109.4008130888
 20
395
 30
0
 11
-111.4504065444
 21
398.55
 31
0
  0
LINE
  5
97
330
2B
100
AcDbEntity
  8
LaserCutting
  6
Continuous
370
25
100
AcDbLine
 10
130.5495934556
 20
398.55
 30
0
 11
126.4504065444
 21
398.55
 31
0
  0
LINE
  5
98
330
2B
100
AcDbEntity
  8
LaserCutting
  6
Continuous
370
25
100
AcDbLine
 10
126.4504065444
 20
398.55
 30
0
 11
124.4008130888
 21
395
 31
0
  0
LINE
  5
99
330
2B
100
AcDbEntity
  8
LaserCutting
  6
Continuous
370
25
100
AcDbLine
 10
124.4008130888
 20
395
 30
0
 11
126.4504065444
 21
391.45
 31
0
  0
LINE
  5
9A
330
2B
100
AcDbEntity
  8
LaserCutting
  6
Continuous
370
25
100
AcDbLine
 10
126.4504065444
 20
391.45
 30
0
 11
130.5495934556
 21
391.45
 31
0
  0
LINE
  5
9B
330
2B
100
AcDbEntity
  8
LaserCutting
  6
Continuous
370
25
100
AcDbLine
 10
130.5495934556
 20
391.45
 30
0
 11
132.5991869112
 21
395
 31
0
  0
LINE
  5
9C
330
2B
100
AcDbEntity
  8
LaserCutting
  6
Continuous
370
25
100
AcDbLine
 10
132.5991869112
 20
395
 30
0
 11
130.5495934556
 21
398.55
 31
0
  0
LINE
  5
9D
330
2B
100
AcDbEntity
  8
LaserCutting
  6
Continuous
370
25
100
AcDbLine
 10
-354.4504065444
 20
526.55
 30
0
 11
-358.5495934556
 21
526.55
 31
0
  0
LINE
  5
9E
330
2B
100
AcDbEntity
  8
LaserCutting
  6
Continuous
370
25
100
AcDbLine
 10
-358.5495934556
 20
526.55
 30
0
 11
-360.5991869112
 21
523
 31
0
  0
LINE
  5
9F
330
2B
100
AcDbEntity
  8
LaserCutting
  6
Continuous
370
25
100
AcDbLine
 10
-360.5991869112
 20
523
 30
0
 11
-358.5495934556
 21
519.45
 31
0
  0
LINE
  5
A0
330
2B
100
AcDbEntity
  8
LaserCutting
  6
Continuous
370
25
100
AcDbLine
 10
-358.5495934556
 20
519.45
 30
0
 11
-354.4504065444
 21
519.45
 31
0
  0
LINE
  5
A1
330
2B
100
AcDbEntity
  8
LaserCutting
  6
Continuous
370
25
100
AcDbLine
 10
-354.4504065444
 20
519.45
 30
0
 11
-352.4008130888
 21
523
 31
0
  0
LINE
  5
A2
330
2B
100
AcDbEntity
  8
LaserCutting
  6
Continuous
370
25
100
AcDbLine
 10
-352.4008130888
 20
523
 30
0
 11
-354.4504065444
 21
526.55
 31
0
  0
LINE
  5
A3
330
2B
100
AcDbEntity
  8
LaserCutting
  6
Continuous
370
25
100
AcDbLine
 10
-111.4504065444
 20
334.55
 30
0
 11
-115.5495934556
 21
334.55
 31
0
  0
LINE
  5
A4
330
2B
100
AcDbEntity
  8
LaserCutting
  6
Continuous
370
25
100
AcDbLine
 10
-115.5495934556
 20
334.55
 30
0
 11
-117.5991869112
 21
331
 31
0
  0
LINE
  5
A5
330
2B
100
AcDbEntity
  8
LaserCutting
  6
Continuous
370
25
100
AcDbLine
 10
-117.5991869112
 20
331
 30
0
 11
-115.5495934556
 21
327.45
 31
0
  0
LINE
  5
A6
330
2B
100
AcDbEntity
  8
LaserCutting
  6
Continuous
370
25
100
AcDbLine
 10
-115.5495934556
 20
327.45
 30
0
 11
-111.4504065444
 21
327.45
 31
0
  0
LINE
  5
A7
330
2B
100
AcDbEntity
  8
LaserCutting
  6
Continuous
370
25
100
AcDbLine
 10
-111.4504065444
 20
327.45
 30
0
 11
-109.4008130888
 21
331
 31
0
  0
LINE
  5
A8
330
2B
100
AcDbEntity
  8
LaserCutting
  6
Continuous
370
25
100
AcDbLine
 10
-109.4008130888
 20
331
 30
0
 11
-111.4504065444
 21
334.55
 31
0
  0
LINE
  5
A9
330
2B
100
AcDbEntity
  8
LaserCutting
  6
Continuous
370
25
100
AcDbLine
 10
-111.4504065444
 20
294.55
 30
0
 11
-115.5495934556
 21
294.55
 31
0
  0
LINE
  5
AA
330
2B
100
AcDbEntity
  8
LaserCutting
  6
Continuous
370
25
100
AcDbLine
 10
-115.5495934556
 20
294.55
 30
0
 11
-117.5991869112
 21
291
 31
0
  0
LINE
  5
AB
330
2B
100
AcDbEntity
  8
LaserCutting
  6
Continuous
370
25
100
AcDbLine
 10
-117.5991869112
 20
291
 30
0
 11
-115.5495934556
 21
287.45
 31
0
  0
LINE
  5
AC
330
2B
100
AcDbEntity
  8
LaserCutting
  6
Continuous
370
25
100
AcDbLine
 10
-115.5495934556
 20
287.45
 30
0
 11
-111.4504065444
 21
287.45
 31
0
  0
LINE
  5
AD
330
2B
100
AcDbEntity
  8
LaserCutting
  6
Continuous
370
25
100
AcDbLine
 10
-111.4504065444
 20
287.45
 30
0
 11
-109.4008130888
 21
291
 31
0
  0
LINE
  5
AE
330
2B
100
AcDbEntity
  8
LaserCutting
  6
Continuous
370
25
100
AcDbLine
 10
-109.4008130888
 20
291
 30
0
 11
-111.4504065444
 21
294.55
 31
0
  0
LINE
  5
AF
330
2B
100
AcDbEntity
  8
LaserCutting
  6
Continuous
370
25
100
AcDbLine
 10
-111.4504065444
 20
230.55
 30
0
 11
-115.5495934556
 21
230.55
 31
0
  0
LINE
  5
B0
330
2B
100
AcDbEntity
  8
LaserCutting
  6
Continuous
370
25
100
AcDbLine
 10
-115.5495934556
 20
230.55
 30
0
 11
-117.5991869112
 21
227
 31
0
  0
LINE
  5
B1
330
2B
100
AcDbEntity
  8
LaserCutting
  6
Continuous
370
25
100
AcDbLine
 10
-117.5991869112
 20
227
 30
0
 11
-115.5495934556
 21
223.45
 31
0
  0
LINE
  5
B2
330
2B
100
AcDbEntity
  8
LaserCutting
  6
Continuous
370
25
100
AcDbLine
 10
-115.5495934556
 20
223.45
 30
0
 11
-111.4504065444
 21
223.45
 31
0
  0
LINE
  5
B3
330
2B
100
AcDbEntity
  8
LaserCutting
  6
Continuous
370
25
100
AcDbLine
 10
-111.4504065444
 20
223.45
 30
0
 11
-109.4008130888
 21
227
 31
0
  0
LINE
  5
B4
330
2B
100
AcDbEntity
  8
LaserCutting
  6
Continuous
370
25
100
AcDbLine
 10
-109.4008130888
 20
227
 30
0
 11
-111.4504065444
 21
230.55
 31
0
  0
LINE
  5
B5
330
2B
100
AcDbEntity
  8
LaserCutting
  6
Continuous
370
25
100
AcDbLine
 10
-111.4504065444
 20
190.55
 30
0
 11
-115.5495934556
 21
190.55
 31
0
  0
LINE
  5
B6
330
2B
100
AcDbEntity
  8
LaserCutting
  6
Continuous
370
25
100
AcDbLine
 10
-115.5495934556
 20
190.55
 30
0
 11
-117.5991869112
 21
187
 31
0
  0
LINE
  5
B7
330
2B
100
AcDbEntity
  8
LaserCutting
  6
Continuous
370
25
100
AcDbLine
 10
-117.5991869112
 20
187
 30
0
 11
-115.5495934556
 21
183.45
 31
0
  0
LINE
  5
B8
330
2B
100
AcDbEntity
  8
LaserCutting
  6
Continuous
370
25
100
AcDbLine
 10
-115.5495934556
 20
183.45
 30
0
 11
-111.4504065444
 21
183.45
 31
0
  0
LINE
  5
B9
330
2B
100
AcDbEntity
  8
LaserCutting
  6
Continuous
370
25
100
AcDbLine
 10
-111.4504065444
 20
183.45
 30
0
 11
-109.4008130888
 21
187
 31
0
  0
LINE
  5
BA
330
2B
100
AcDbEntity
  8
LaserCutting
  6
Continuous
370
25
100
AcDbLine
 10
-109.4008130888
 20
187
 30
0
 11
-111.4504065444
 21
190.55
 31
0
  0
LINE
  5
BB
330
2B
100
AcDbEntity
  8
LaserCutting
  6
Continuous
370
25
100
AcDbLine
 10
471.8561944902
 20
618.2171572875
 30
0
 11
474.2123889804
 21
616.0857864376
 31
0
  0
ARC
  5
BC
330
2B
100
AcDbEntity
  8
LaserCutting
  6
Continuous
370
25
100
AcDbCircle
 10
-471.3561944902
 20
-615.2171572875
 30
0
 40
3
100
AcDbArc
 50
180
 51
270
  0
ARC
  5
BD
330
2B
100
AcDbEntity
  8
LaserCutting
  6
Continuous
370
25
100
AcDbCircle
 10
-469.3561944902
 20
-611
 30
0
 40
5.0000000000000568
100
AcDbArc
 50
90
 51
180
  0
ARC
  5
BE
330
2B
100
AcDbEntity
  8
LaserCutting
  6
Continuous
370
25
100
AcDbCircle
 10
-469.3561944902
 20
611
 30
0
 40
5.0000000000000568
100
AcDbArc
 50
180
 51
270
  0
ARC
  5
BF
330
2B
100
AcDbEntity
  8
LaserCutting
  6
Continuous
370
25
100
AcDbCircle
 10
-471.3561944902
 20
615.2171572875
 30
0
 40
3
100
AcDbArc
 50
90
 51
180
  0
ARC
  5
C0
330
2B
100
AcDbEntity
  8
LaserCutting
  6
Continuous
370
25
100
AcDbCircle
 10
395
 20
0
 30
0
 40
11.150000000000331
100
AcDbArc
 50
25.6645328766
 51
64.3354671234
  0
ARC
  5
C1
330
2B
100
AcDbEntity
  8
LaserCutting
  6
Continuous
370
25
100
AcDbCircle
 10
395
 20
0
 30
0
 40
11.15000000000601
100
AcDbArc
 50
115.66453287659999
 51
154.3354671234
  0
ARC
  5
C2
330
2B
100
AcDbEntity
  8
LaserCutting
  6
Continuous
370
25
100
AcDbCircle
 10
395
 20
0
 30
0
 40
11.14999999999681
100
AcDbArc
 50
205.6645328766
 51
244.3354671234
  0
ARC
  5
C3
330
2B
100
AcDbEntity
  8
LaserCutting
  6
Continuous
370
25
100
AcDbCircle
 10
395
 20
0
 30
0
 40
11.1499999999974
100
AcDbArc
 50
295.6645328766
 51
334.33546712339995
  0
ARC
  5
C4
330
2B
100
AcDbEntity
  8
LaserCutting
  6
Continuous
370
25
100
AcDbCircle
 10
395
 20
521
 30
0
 40
11.1500000000064
100
AcDbArc
 50
25.6645328766
 51
64.3354671234
  0
ARC
  5
C5
330
2B
100
AcDbEntity
  8
LaserCutting
  6
Continuous
370
25
100
AcDbCircle
 10
395
 20
521
 30
0
 40
11.149999999995741
100
AcDbArc
 50
115.66453287659999
 51
154.3354671234
  0
ARC
  5
C6
330
2B
100
AcDbEntity
  8
LaserCutting
  6
Continuous
370
25
100
AcDbCircle
 10
395
 20
521
 30
0
 40
11.149999999992881
100
AcDbArc
 50
205.6645328766
 51
244.3354671234
  0
ARC
  5
C7
330
2B
100
AcDbEntity
  8
LaserCutting
  6
Continuous
370
25
100
AcDbCircle
 10
395
 20
521
 30
0
 40
11.15000000001031
100
AcDbArc
 50
295.6645328766
 51
334.33546712339995
  0
ARC
  5
C8
330
2B
100
AcDbEntity
  8
LaserCutting
  6
Continuous
370
25
100
AcDbCircle
 10
395
 20
-521
 30
0
 40
11.14999999999004
100
AcDbArc
 50
25.6645328766
 51
64.3354671234
  0
ARC
  5
C9
330
2B
100
AcDbEntity
  8
LaserCutting
  6
Continuous
370
25
100
AcDbCircle
 10
395
 20
-521
 30
0
 40
11.15000000000672
100
AcDbArc
 50
115.66453287659999
 51
154.3354671234
  0
ARC
  5
CA
330
2B
100
AcDbEntity
  8
LaserCutting
  6
Continuous
370
25
100
AcDbCircle
 10
395
 20
-521
 30
0
 40
11.15000000000625
100
AcDbArc
 50
205.6645328766
 51
244.3354671234
  0
ARC
  5
CB
330
2B
100
AcDbEntity
  8
LaserCutting
  6
Continuous
370
25
100
AcDbCircle
 10
395
 20
-521
 30
0
 40
11.149999999994011
100
AcDbArc
 50
295.6645328766
 51
334.33546712339995
  0
ARC
  5
CC
330
2B
100
AcDbEntity
  8
LaserCutting
  6
Continuous
370
25
100
AcDbCircle
 10
0
 20
561
 30
0
 40
11.1500000000011
100
AcDbArc
 50
25.6645328766
 51
64.3354671234
  0
ARC
  5
CD
330
2B
100
AcDbEntity
  8
LaserCutting
  6
Continuous
370
25
100
AcDbCircle
 10
0
 20
561
 30
0
 40
11.150000000009211
100
AcDbArc
 50
115.66453287659999
 51
154.3354671234
  0
ARC
  5
CE
330
2B
100
AcDbEntity
  8
LaserCutting
  6
Continuous
370
25
100
AcDbCircle
 10
0
 20
561
 30
0
 40
11.150000000000331
100
AcDbArc
 50
205.6645328766
 51
244.3354671234
  0
ARC
  5
CF
330
2B
100
AcDbEntity
  8
LaserCutting
  6
Continuous
370
25
100
AcDbCircle
 10
0
 20
561
 30
0
 40
11.14999999998529
100
AcDbArc
 50
295.6645328766
 51
334.33546712339995
  0
ARC
  5
D0
330
2B
100
AcDbEntity
  8
LaserCutting
  6
Continuous
370
25
100
AcDbCircle
 10
0
 20
-561
 30
0
 40
11.15000000000898
100
AcDbArc
 50
25.6645328766
 51
64.3354671234
  0
ARC
  5
D1
330
2B
100
AcDbEntity
  8
LaserCutting
  6
Continuous
370
25
100
AcDbCircle
 10
0
 20
-561
 30
0
 40
11.15000000000707
100
AcDbArc
 50
115.66453287659999
 51
154.3354671234
  0
ARC
  5
D2
330
2B
100
AcDbEntity
  8
LaserCutting
  6
Continuous
370
25
100
AcDbCircle
 10
0
 20
-561
 30
0
 40
11.14999999998979
100
AcDbArc
 50
205.6645328766
 51
244.3354671234
  0
ARC
  5
D3
330
2B
100
AcDbEntity
  8
LaserCutting
  6
Continuous
370
25
100
AcDbCircle
 10
0
 20
-561
 30
0
 40
11.14999999998498
100
AcDbArc
 50
295.6645328766
 51
334.33546712339995
  0
ARC
  5
D4
330
2B
100
AcDbEntity
  8
LaserCutting
100
AcDbCircle
 10
-452.2171572875
 20
618.2171572875
 30
0
 40
1.5
100
AcDbArc
 50
180
 51
90
  0
ARC
  5
D5
330
2B
100
AcDbEntity
  8
LaserCutting
100
AcDbCircle
 10
452.2171572875
 20
618.2171572875
 30
0
 40
1.5
100
AcDbArc
 50
90
 51
0
  0
ARC
  5
D6
330
2B
100
AcDbEntity
  8
LaserCutting
100
AcDbCircle
 10
452.2171572875
 20
-618.2171572875
 30
0
 40
1.5
100
AcDbArc
 50
0
 51
270
  0
ARC
  5
D7
330
2B
100
AcDbEntity
  8
LaserCutting
100
AcDbCircle
 10
-452.2171572875
 20
-618.2171572875
 30
0
 40
1.5
100
AcDbArc
 50
270
 51
180
  0
MTEXT
  5
D8
330
2B
100
AcDbEntity
  8
LaserCutting
100
AcDbMText
 10
-452.27010895368676
 20
-788.06989474311274
 30
0
 11
1
 21
0
 31
0
 40
30
 41
918.25345356291041
 71
1
 72
5
  1
{MATERIAL: SS316L, 2.5MM\PQTY: 3NOS}
  7
Standard
 73
1
1001
ACAD
1000
ACAD_MTEXT_DEFINED_HEIGHT_BEGIN
1070
46
1040
80
1000
ACAD_MTEXT_DEFINED_HEIGHT_END
  0
ENDSEC
  0
SECTION
  2
OBJECTS
  0
DICTIONARY
  5
C
330
0
100
AcDbDictionary
280
0
281
1
  3
ACAD_GROUP
350
D
  3
ACAD_LAYOUT
350
1A
  3
ACAD_MATERIAL
350
100
  3
ACAD_MLEADERSTYLE
350
101
  3
ACAD_MLINESTYLE
350
17
  3
ACAD_PLOTSETTINGS
350
19
  3
ACAD_PLOTSTYLENAME
350
E
  3
ACAD_SCALELIST
350
103
  3
ACAD_TABLESTYLE
350
115
  3
ACAD_VISUALSTYLE
350
117
  3
AcDbVariableDictionary
350
118
  3
APPDATA
350
121
  3
DWGPROPS
350
122
  3
PRINTCONFIG
350
123
  3
ACAD_COLOR
350
124
  3
ACAD_FIELDLIST
350
125
  3
ACAD_IMAGE_DICT
350
126
  3
ACDB_RECOMPOSE_DATA
350
127
  0
DICTIONARY
  5
2C
330
2B
100
AcDbDictionary
280
1
281
1
  3
DIM_BOUNDING_BOXES_V1
360
2D
  0
DICTIONARY
  5
D
102
{ACAD_REACTORS
330
C
102
}
330
C
100
AcDbDictionary
280
0
281
1
  0
DICTIONARY
  5
1A
102
{ACAD_REACTORS
330
C
102
}
330
C
100
AcDbDictionary
280
0
281
1
  3
Layout1
350
1E
  3
Layout2
350
FF
  3
Model
350
22
  0
DICTIONARY
  5
100
102
{ACAD_REACTORS
330
C
102
}
330
C
100
AcDbDictionary
280
0
281
1
  0
DICTIONARY
  5
101
102
{ACAD_REACTORS
330
C
102
}
330
C
100
AcDbDictionary
280
0
281
1
  0
DICTIONARY
  5
17
102
{ACAD_REACTORS
330
C
102
}
330
C
100
AcDbDictionary
280
0
281
1
  3
Standard
350
102
  0
DICTIONARY
  5
19
102
{ACAD_REACTORS
330
C
102
}
330
C
100
AcDbDictionary
280
0
281
1
  0
ACDBDICTIONARYWDFLT
  5
E
102
{ACAD_REACTORS
330
C
102
}
330
C
100
AcDbDictionary
280
0
281
1
  3
Normal
350
F
100
AcDbDictionaryWithDefault
340
F
  0
ACDBPLACEHOLDER
  5
F
102
{ACAD_REACTORS
330
E
102
}
330
E
  0
DICTIONARY
  5
103
102
{ACAD_REACTORS
330
C
102
}
330
C
100
AcDbDictionary
280
0
281
1
  0
DICTIONARY
  5
115
102
{ACAD_REACTORS
330
C
102
}
330
C
100
AcDbDictionary
280
0
281
1
  0
DICTIONARY
  5
117
102
{ACAD_REACTORS
330
C
102
}
330
C
100
AcDbDictionary
280
0
281
1
  0
DICTIONARY
  5
118
102
{ACAD_REACTORS
330
C
102
}
330
C
100
AcDbDictionary
280
0
281
1
  3
CANNOSCALE
350
119
  3
CMLEADERSTYLE
350
11A
  3
CTABLESTYLE
350
11B
  3
DIMASSOC
350
11C
  3
HIDETEXT
350
11D
  3
MSLTSCALE
350
11E
  3
ANNOALLVISIBLE
350
11F
  3
ANNOTATIVEDWG
350
120
  0
DICTIONARY
  5
121
102
{ACAD_REACTORS
330
C
102
}
330
C
100
AcDbDictionary
280
0
281
1
  0
XRECORD
  5
122
102
{ACAD_REACTORS
330
C
102
}
330
C
100
AcDbXrecord
280
1
  1
DWGPROPS COOKIE
  2

  3

  4

  6

  7

  8
ADMIN
  9

300
=
301
=
302
=
303
=
304
=
305
=
306
=
307
=
308
=
309
=
 40
0
 41
2460363.4956134604
 42
2460367.364790116
  1

 90
0
  0
DICTIONARYVAR
  5
123
102
{ACAD_REACTORS
330
C
102
}
330
C
100
DictionaryVariables
280
0
  1
0
  0
DICTIONARY
  5
124
102
{ACAD_REACTORS
330
C
102
}
330
C
100
AcDbDictionary
280
0
281
1
  0
FIELDLIST
  5
125
102
{ACAD_REACTORS
330
C
102
}
330
C
100
AcDbIdSet
100
AcDbFieldList
  0
DICTIONARY
  5
126
102
{ACAD_REACTORS
330
C
102
}
330
C
100
AcDbDictionary
280
0
281
1
  0
XRECORD
  5
127
102
{ACAD_REACTORS
330
C
102
}
330
C
100
AcDbXrecord
280
1
 90
1
330
116
  0
DICTIONARY
  5
2D
102
{ACAD_REACTORS
330
2C
102
}
330
2C
100
AcDbDictionary
280
0
281
1
  0
LAYOUT
  5
1E
102
{ACAD_REACTORS
330
1A
102
}
330
1A
100
AcDbPlotSettings
  1

  2
none_device
  4

  6

 40
0
 41
0
 42
0
 43
0
 44
0
 45
0
 46
0
 47
0
 48
0
 49
0
140
0
141
0
142
1
143
1
 70
688
 72
1
 73
0
 74
5
  7

 75
16
 76
0
 77
0
 78
0
147
1
148
0
149
0
100
AcDbLayout
  1
Layout1
 70
1
 71
1
 10
0
 20
0
 11
420
 21
297
 12
0
 22
0
 32
0
 14
1E+20
 24
1E+20
 34
1E+20
 15
-1E+20
 25
-1E+20
 35
-1E+20
146
0
 13
0
 23
0
 33
0
 16
1
 26
0
 36
0
 17
0
 27
1
 37
0
 76
0
330
1B
  0
LAYOUT
  5
FF
102
{ACAD_REACTORS
330
1A
102
}
330
1A
100
AcDbPlotSettings
  1

  2
none_device
  4

  6

 40
0
 41
0
 42
0
 43
0
 44
0
 45
0
 46
0
 47
0
 48
0
 49
0
140
0
141
0
142
1
143
1
 70
688
 72
1
 73
0
 74
5
  7

 75
16
 76
0
 77
0
 78
0
147
1
148
0
149
0
100
AcDbLayout
  1
Layout2
 70
1
 71
2
 10
0
 20
0
 11
0
 21
0
 12
0
 22
0
 32
0
 14
0
 24
0
 34
0
 15
0
 25
0
 35
0
146
0
 13
0
 23
0
 33
0
 16
1
 26
0
 36
0
 17
0
 27
1
 37
0
 76
0
330
DA
  0
LAYOUT
  5
22
102
{ACAD_REACTORS
330
1A
102
}
330
1A
100
AcDbPlotSettings
  1

  2
none_device
  4
ANSI_A_(11.00_x_8.50_Inches)
  6

 40
6.35
 41
19.05
 42
6.35000508
 43
19.05000254
 44
279.4
 45
215.9
 46
132.6616872794
 47
88.89999873
 48
0
 49
0
140
0
141
0
142
0.0064859252
143
1
 70
1696
 72
0
 73
0
 74
0
  7

 75
0
 76
0
 77
0
 78
0
147
0.0179189148
148
-1300.4909072572
149
0
100
AcDbLayout
  1
Model
 70
1
 71
0
 10
0
 20
0
 11
420
 21
297
 12
0
 22
0
 32
0
 14
-474.3561944902001
 24
-868.06989474311274
 34
0
 15
657.13799062083331
 25
754.79949062083324
 35
0
146
0
 13
0
 23
0
 33
0
 16
1
 26
0
 36
0
 17
0
 27
1
 37
0
 76
0
330
2B
331
FE
  0
MLINESTYLE
  5
102
102
{ACAD_REACTORS
330
17
102
}
330
17
100
AcDbMlineStyle
  2
Standard
 70
0
  3

 51
90
 52
90
 71
2
 49
0.5
  6
ByLayer
 49
-0.5
  6
ByLayer
  0
DICTIONARYVAR
  5
119
102
{ACAD_REACTORS
330
118
102
}
330
118
100
DictionaryVariables
280
0
  1
1:1
  0
DICTIONARYVAR
  5
11A
102
{ACAD_REACTORS
330
118
102
}
330
118
100
DictionaryVariables
280
0
  1
Standard
  0
DICTIONARYVAR
  5
11B
102
{ACAD_REACTORS
330
118
102
}
330
118
100
DictionaryVariables
280
0
  1
Standard
  0
DICTIONARYVAR
  5
11C
102
{ACAD_REACTORS
330
118
102
}
330
118
100
DictionaryVariables
280
0
  1
1
  0
DICTIONARYVAR
  5
11D
102
{ACAD_REACTORS
330
118
102
}
330
118
100
DictionaryVariables
280
0
  1
1
  0
DICTIONARYVAR
  5
11E
102
{ACAD_REACTORS
330
118
102
}
330
118
100
DictionaryVariables
280
0
  1
0
  0
DICTIONARYVAR
  5
11F
102
{ACAD_REACTORS
330
118
102
}
330
118
100
DictionaryVariables
280
0
  1
1
  0
DICTIONARYVAR
  5
120
102
{ACAD_REACTORS
330
118
102
}
330
118
100
DictionaryVariables
280
0
  1
0
  0
ENDSEC
999
Created By CadLib version 4.0.36.72
999
CadLib website: www.woutware.com
  0
EOF

